<?xml version="1.0" encoding="utf-8" standalone="no"?>
<!DOCTYPE svg PUBLIC "-//W3C//DTD SVG 1.1//EN"
  "http://www.w3.org/Graphics/SVG/1.1/DTD/svg11.dtd">
<svg xmlns:xlink="http://www.w3.org/1999/xlink" width="465.08pt" height="356.29pt" viewBox="0 0 465.08 356.29" xmlns="http://www.w3.org/2000/svg" version="1.1">
 <metadata>
  <rdf:RDF xmlns:dc="http://purl.org/dc/elements/1.1/" xmlns:cc="http://creativecommons.org/ns#" xmlns:rdf="http://www.w3.org/1999/02/22-rdf-syntax-ns#">
   <cc:Work>
    <dc:type rdf:resource="http://purl.org/dc/dcmitype/StillImage"/>
    <dc:date>2025-03-05T10:18:44.838026</dc:date>
    <dc:format>image/svg+xml</dc:format>
    <dc:creator>
     <cc:Agent>
      <dc:title>Matplotlib v3.10.0, https://matplotlib.org/</dc:title>
     </cc:Agent>
    </dc:creator>
   </cc:Work>
  </rdf:RDF>
 </metadata>
 <defs>
  <style type="text/css">*{stroke-linejoin: round; stroke-linecap: butt}</style>
 </defs>
 <g id="figure_1">
  <g id="patch_1">
   <path d="M 0 356.29 
L 465.08 356.29 
L 465.08 0 
L 0 0 
z
" style="fill: #ffffff"/>
  </g>
  <g id="axes_1">
   <g id="patch_2">
    <path d="M 100.76 285.070625 
L 457.88 285.070625 
L 457.88 18.958625 
L 100.76 18.958625 
z
" style="fill: #ffffff"/>
   </g>
   <g id="patch_3">
    <path d="M 107.9024 11036.199828 
L 116.065143 11036.199828 
L 116.065143 272.974625 
L 107.9024 272.974625 
z
" clip-path="url(#p86ad000102)" style="fill: #060717"/>
   </g>
   <g id="patch_4">
    <path d="M 179.3264 11036.199828 
L 187.489143 11036.199828 
L 187.489143 272.974625 
L 179.3264 272.974625 
z
" clip-path="url(#p86ad000102)" style="fill: #060717"/>
   </g>
   <g id="patch_5">
    <path d="M 250.7504 11036.199828 
L 258.913143 11036.199828 
L 258.913143 272.974625 
L 250.7504 272.974625 
z
" clip-path="url(#p86ad000102)" style="fill: #060717"/>
   </g>
   <g id="patch_6">
    <path d="M 322.1744 11036.199828 
L 330.337143 11036.199828 
L 330.337143 272.974625 
L 322.1744 272.974625 
z
" clip-path="url(#p86ad000102)" style="fill: #060717"/>
   </g>
   <g id="patch_7">
    <path d="M 393.5984 11036.199828 
L 401.761143 11036.199828 
L 401.761143 272.974625 
L 393.5984 272.974625 
z
" clip-path="url(#p86ad000102)" style="fill: #060717"/>
   </g>
   <g id="patch_8">
    <path d="M 116.065143 11036.199828 
L 124.227886 11036.199828 
L 124.227886 266.494518 
L 116.065143 266.494518 
z
" clip-path="url(#p86ad000102)" style="fill: #3b203e"/>
   </g>
   <g id="patch_9">
    <path d="M 187.489143 11036.199828 
L 195.651886 11036.199828 
L 195.651886 255.180726 
L 187.489143 255.180726 
z
" clip-path="url(#p86ad000102)" style="fill: #3b203e"/>
   </g>
   <g id="patch_10">
    <path d="M 258.913143 11036.199828 
L 267.075886 11036.199828 
L 267.075886 234.084861 
L 258.913143 234.084861 
z
" clip-path="url(#p86ad000102)" style="fill: #3b203e"/>
   </g>
   <g id="patch_11">
    <path d="M 330.337143 11036.199828 
L 338.499886 11036.199828 
L 338.499886 193.037912 
L 330.337143 193.037912 
z
" clip-path="url(#p86ad000102)" style="fill: #3b203e"/>
   </g>
   <g id="patch_12">
    <path d="M 401.761143 11036.199828 
L 409.923886 11036.199828 
L 409.923886 111.459347 
L 401.761143 111.459347 
z
" clip-path="url(#p86ad000102)" style="fill: #3b203e"/>
   </g>
   <g id="patch_13">
    <path d="M 124.227886 11036.199828 
L 132.390629 11036.199828 
L 132.390629 272.974625 
L 124.227886 272.974625 
z
" clip-path="url(#p86ad000102)" style="fill: #772b58"/>
   </g>
   <g id="patch_14">
    <path d="M 195.651886 11036.199828 
L 203.814629 11036.199828 
L 203.814629 255.180726 
L 195.651886 255.180726 
z
" clip-path="url(#p86ad000102)" style="fill: #772b58"/>
   </g>
   <g id="patch_15">
    <path d="M 267.075886 11036.199828 
L 275.238629 11036.199828 
L 275.238629 223.630488 
L 267.075886 223.630488 
z
" clip-path="url(#p86ad000102)" style="fill: #772b58"/>
   </g>
   <g id="patch_16">
    <path d="M 338.499886 11036.199828 
L 346.662629 11036.199828 
L 346.662629 164.12224 
L 338.499886 164.12224 
z
" clip-path="url(#p86ad000102)" style="fill: #772b58"/>
   </g>
   <g id="patch_17">
    <path d="M 409.923886 11036.199828 
L 418.086629 11036.199828 
L 418.086629 47.473833 
L 409.923886 47.473833 
z
" clip-path="url(#p86ad000102)" style="fill: #772b58"/>
   </g>
   <g id="patch_18">
    <path d="M 203.814629 11036.199828 
L 211.977371 11036.199828 
L 211.977371 272.974625 
L 203.814629 272.974625 
z
" clip-path="url(#p86ad000102)" style="fill: #b53158"/>
   </g>
   <g id="patch_19">
    <path d="M 275.238629 11036.199828 
L 283.401371 11036.199828 
L 283.401371 234.084861 
L 275.238629 234.084861 
z
" clip-path="url(#p86ad000102)" style="fill: #b53158"/>
   </g>
   <g id="patch_20">
    <path d="M 346.662629 11036.199828 
L 354.825371 11036.199828 
L 354.825371 164.12224 
L 346.662629 164.12224 
z
" clip-path="url(#p86ad000102)" style="fill: #b53158"/>
   </g>
   <g id="patch_21">
    <path d="M 418.086629 11036.199828 
L 426.249371 11036.199828 
L 426.249371 31.054625 
L 418.086629 31.054625 
z
" clip-path="url(#p86ad000102)" style="fill: #b53158"/>
   </g>
   <g id="patch_22">
    <path d="M 283.401371 11036.199828 
L 291.564114 11036.199828 
L 291.564114 272.974625 
L 283.401371 272.974625 
z
" clip-path="url(#p86ad000102)" style="fill: #db6e59"/>
   </g>
   <g id="patch_23">
    <path d="M 354.825371 11036.199828 
L 362.988114 11036.199828 
L 362.988114 193.037912 
L 354.825371 193.037912 
z
" clip-path="url(#p86ad000102)" style="fill: #db6e59"/>
   </g>
   <g id="patch_24">
    <path d="M 426.249371 11036.199828 
L 434.412114 11036.199828 
L 434.412114 47.473833 
L 426.249371 47.473833 
z
" clip-path="url(#p86ad000102)" style="fill: #db6e59"/>
   </g>
   <g id="patch_25">
    <path d="M 362.988114 11036.199828 
L 371.150857 11036.199828 
L 371.150857 272.974625 
L 362.988114 272.974625 
z
" clip-path="url(#p86ad000102)" style="fill: #e8af92"/>
   </g>
   <g id="patch_26">
    <path d="M 434.412114 11036.199828 
L 442.574857 11036.199828 
L 442.574857 111.459347 
L 434.412114 111.459347 
z
" clip-path="url(#p86ad000102)" style="fill: #e8af92"/>
   </g>
   <g id="patch_27">
    <path d="M 442.574857 11036.199828 
L 450.7376 11036.199828 
L 450.7376 272.974625 
L 442.574857 272.974625 
z
" clip-path="url(#p86ad000102)" style="fill: #f7ebe0"/>
   </g>
   <g id="patch_28">
    <path d="M 136.472 11036.199828 
L 136.472 11036.199828 
L 136.472 11036.199828 
L 136.472 11036.199828 
z
" clip-path="url(#p86ad000102)" style="fill: #060717"/>
   </g>
   <g id="patch_29">
    <path d="M 136.472 11036.199828 
L 136.472 11036.199828 
L 136.472 11036.199828 
L 136.472 11036.199828 
z
" clip-path="url(#p86ad000102)" style="fill: #3b203e"/>
   </g>
   <g id="patch_30">
    <path d="M 136.472 11036.199828 
L 136.472 11036.199828 
L 136.472 11036.199828 
L 136.472 11036.199828 
z
" clip-path="url(#p86ad000102)" style="fill: #772b58"/>
   </g>
   <g id="patch_31">
    <path d="M 136.472 11036.199828 
L 136.472 11036.199828 
L 136.472 11036.199828 
L 136.472 11036.199828 
z
" clip-path="url(#p86ad000102)" style="fill: #b53158"/>
   </g>
   <g id="patch_32">
    <path d="M 136.472 11036.199828 
L 136.472 11036.199828 
L 136.472 11036.199828 
L 136.472 11036.199828 
z
" clip-path="url(#p86ad000102)" style="fill: #db6e59"/>
   </g>
   <g id="patch_33">
    <path d="M 136.472 11036.199828 
L 136.472 11036.199828 
L 136.472 11036.199828 
L 136.472 11036.199828 
z
" clip-path="url(#p86ad000102)" style="fill: #e8af92"/>
   </g>
   <g id="patch_34">
    <path d="M 136.472 11036.199828 
L 136.472 11036.199828 
L 136.472 11036.199828 
L 136.472 11036.199828 
z
" clip-path="url(#p86ad000102)" style="fill: #f7ebe0"/>
   </g>
   <g id="matplotlib.axis_1">
    <g id="xtick_1">
     <g id="line2d_1">
      <defs>
       <path id="macadb62f24" d="M 0 0 
L 0 12 
" style="stroke: #000000; stroke-width: 2.5"/>
      </defs>
      <g>
       <use xlink:href="#macadb62f24" x="136.472" y="285.070625" style="stroke: #000000; stroke-width: 2.5"/>
      </g>
     </g>
     <g id="text_1">
      <!-- 2 -->
      <g transform="translate(129.47325 317.287188) scale(0.22 -0.22)">
       <defs>
        <path id="DejaVuSans-32" d="M 1228 531 
L 3431 531 
L 3431 0 
L 469 0 
L 469 531 
Q 828 903 1448 1529 
Q 2069 2156 2228 2338 
Q 2531 2678 2651 2914 
Q 2772 3150 2772 3378 
Q 2772 3750 2511 3984 
Q 2250 4219 1831 4219 
Q 1534 4219 1204 4116 
Q 875 4013 500 3803 
L 500 4441 
Q 881 4594 1212 4672 
Q 1544 4750 1819 4750 
Q 2544 4750 2975 4387 
Q 3406 4025 3406 3419 
Q 3406 3131 3298 2873 
Q 3191 2616 2906 2266 
Q 2828 2175 2409 1742 
Q 1991 1309 1228 531 
z
" transform="scale(0.015625)"/>
       </defs>
       <use xlink:href="#DejaVuSans-32"/>
      </g>
     </g>
    </g>
    <g id="xtick_2">
     <g id="line2d_2">
      <g>
       <use xlink:href="#macadb62f24" x="207.896" y="285.070625" style="stroke: #000000; stroke-width: 2.5"/>
      </g>
     </g>
     <g id="text_2">
      <!-- 3 -->
      <g transform="translate(200.89725 317.287188) scale(0.22 -0.22)">
       <defs>
        <path id="DejaVuSans-33" d="M 2597 2516 
Q 3050 2419 3304 2112 
Q 3559 1806 3559 1356 
Q 3559 666 3084 287 
Q 2609 -91 1734 -91 
Q 1441 -91 1130 -33 
Q 819 25 488 141 
L 488 750 
Q 750 597 1062 519 
Q 1375 441 1716 441 
Q 2309 441 2620 675 
Q 2931 909 2931 1356 
Q 2931 1769 2642 2001 
Q 2353 2234 1838 2234 
L 1294 2234 
L 1294 2753 
L 1863 2753 
Q 2328 2753 2575 2939 
Q 2822 3125 2822 3475 
Q 2822 3834 2567 4026 
Q 2313 4219 1838 4219 
Q 1578 4219 1281 4162 
Q 984 4106 628 3988 
L 628 4550 
Q 988 4650 1302 4700 
Q 1616 4750 1894 4750 
Q 2613 4750 3031 4423 
Q 3450 4097 3450 3541 
Q 3450 3153 3228 2886 
Q 3006 2619 2597 2516 
z
" transform="scale(0.015625)"/>
       </defs>
       <use xlink:href="#DejaVuSans-33"/>
      </g>
     </g>
    </g>
    <g id="xtick_3">
     <g id="line2d_3">
      <g>
       <use xlink:href="#macadb62f24" x="279.32" y="285.070625" style="stroke: #000000; stroke-width: 2.5"/>
      </g>
     </g>
     <g id="text_3">
      <!-- 4 -->
      <g transform="translate(272.32125 317.287188) scale(0.22 -0.22)">
       <defs>
        <path id="DejaVuSans-34" d="M 2419 4116 
L 825 1625 
L 2419 1625 
L 2419 4116 
z
M 2253 4666 
L 3047 4666 
L 3047 1625 
L 3713 1625 
L 3713 1100 
L 3047 1100 
L 3047 0 
L 2419 0 
L 2419 1100 
L 313 1100 
L 313 1709 
L 2253 4666 
z
" transform="scale(0.015625)"/>
       </defs>
       <use xlink:href="#DejaVuSans-34"/>
      </g>
     </g>
    </g>
    <g id="xtick_4">
     <g id="line2d_4">
      <g>
       <use xlink:href="#macadb62f24" x="350.744" y="285.070625" style="stroke: #000000; stroke-width: 2.5"/>
      </g>
     </g>
     <g id="text_4">
      <!-- 5 -->
      <g transform="translate(343.74525 317.287188) scale(0.22 -0.22)">
       <defs>
        <path id="DejaVuSans-35" d="M 691 4666 
L 3169 4666 
L 3169 4134 
L 1269 4134 
L 1269 2991 
Q 1406 3038 1543 3061 
Q 1681 3084 1819 3084 
Q 2600 3084 3056 2656 
Q 3513 2228 3513 1497 
Q 3513 744 3044 326 
Q 2575 -91 1722 -91 
Q 1428 -91 1123 -41 
Q 819 9 494 109 
L 494 744 
Q 775 591 1075 516 
Q 1375 441 1709 441 
Q 2250 441 2565 725 
Q 2881 1009 2881 1497 
Q 2881 1984 2565 2268 
Q 2250 2553 1709 2553 
Q 1456 2553 1204 2497 
Q 953 2441 691 2322 
L 691 4666 
z
" transform="scale(0.015625)"/>
       </defs>
       <use xlink:href="#DejaVuSans-35"/>
      </g>
     </g>
    </g>
    <g id="xtick_5">
     <g id="line2d_5">
      <g>
       <use xlink:href="#macadb62f24" x="422.168" y="285.070625" style="stroke: #000000; stroke-width: 2.5"/>
      </g>
     </g>
     <g id="text_5">
      <!-- 6 -->
      <g transform="translate(415.16925 317.287188) scale(0.22 -0.22)">
       <defs>
        <path id="DejaVuSans-36" d="M 2113 2584 
Q 1688 2584 1439 2293 
Q 1191 2003 1191 1497 
Q 1191 994 1439 701 
Q 1688 409 2113 409 
Q 2538 409 2786 701 
Q 3034 994 3034 1497 
Q 3034 2003 2786 2293 
Q 2538 2584 2113 2584 
z
M 3366 4563 
L 3366 3988 
Q 3128 4100 2886 4159 
Q 2644 4219 2406 4219 
Q 1781 4219 1451 3797 
Q 1122 3375 1075 2522 
Q 1259 2794 1537 2939 
Q 1816 3084 2150 3084 
Q 2853 3084 3261 2657 
Q 3669 2231 3669 1497 
Q 3669 778 3244 343 
Q 2819 -91 2113 -91 
Q 1303 -91 875 529 
Q 447 1150 447 2328 
Q 447 3434 972 4092 
Q 1497 4750 2381 4750 
Q 2619 4750 2861 4703 
Q 3103 4656 3366 4563 
z
" transform="scale(0.015625)"/>
       </defs>
       <use xlink:href="#DejaVuSans-36"/>
      </g>
     </g>
    </g>
    <g id="text_6">
     <!-- n -->
     <g transform="translate(271.715 344.09875) scale(0.24 -0.24)">
      <defs>
       <path id="DejaVuSans-6e" d="M 3513 2113 
L 3513 0 
L 2938 0 
L 2938 2094 
Q 2938 2591 2744 2837 
Q 2550 3084 2163 3084 
Q 1697 3084 1428 2787 
Q 1159 2491 1159 1978 
L 1159 0 
L 581 0 
L 581 3500 
L 1159 3500 
L 1159 2956 
Q 1366 3272 1645 3428 
Q 1925 3584 2291 3584 
Q 2894 3584 3203 3211 
Q 3513 2838 3513 2113 
z
" transform="scale(0.015625)"/>
      </defs>
      <use xlink:href="#DejaVuSans-6e"/>
     </g>
    </g>
   </g>
   <g id="matplotlib.axis_2">
    <g id="ytick_1">
     <g id="line2d_6">
      <defs>
       <path id="mbd1f834859" d="M 0 0 
L -12 0 
" style="stroke: #000000; stroke-width: 2.5"/>
      </defs>
      <g>
       <use xlink:href="#mbd1f834859" x="100.76" y="240.684949" style="stroke: #000000; stroke-width: 2.5"/>
      </g>
     </g>
     <g id="text_7">
      <!-- $\mathdefault{10^{3}}$ -->
      <g transform="translate(46.54 249.043231) scale(0.22 -0.22)">
       <defs>
        <path id="DejaVuSans-31" d="M 794 531 
L 1825 531 
L 1825 4091 
L 703 3866 
L 703 4441 
L 1819 4666 
L 2450 4666 
L 2450 531 
L 3481 531 
L 3481 0 
L 794 0 
L 794 531 
z
" transform="scale(0.015625)"/>
        <path id="DejaVuSans-30" d="M 2034 4250 
Q 1547 4250 1301 3770 
Q 1056 3291 1056 2328 
Q 1056 1369 1301 889 
Q 1547 409 2034 409 
Q 2525 409 2770 889 
Q 3016 1369 3016 2328 
Q 3016 3291 2770 3770 
Q 2525 4250 2034 4250 
z
M 2034 4750 
Q 2819 4750 3233 4129 
Q 3647 3509 3647 2328 
Q 3647 1150 3233 529 
Q 2819 -91 2034 -91 
Q 1250 -91 836 529 
Q 422 1150 422 2328 
Q 422 3509 836 4129 
Q 1250 4750 2034 4750 
z
" transform="scale(0.015625)"/>
       </defs>
       <use xlink:href="#DejaVuSans-31" transform="translate(0 0.765625)"/>
       <use xlink:href="#DejaVuSans-30" transform="translate(63.623047 0.765625)"/>
       <use xlink:href="#DejaVuSans-33" transform="translate(128.203125 39.046875) scale(0.7)"/>
      </g>
     </g>
    </g>
    <g id="ytick_2">
     <g id="line2d_7">
      <g>
       <use xlink:href="#mbd1f834859" x="100.76" y="186.868823" style="stroke: #000000; stroke-width: 2.5"/>
      </g>
     </g>
     <g id="text_8">
      <!-- $\mathdefault{10^{8}}$ -->
      <g transform="translate(46.54 195.227105) scale(0.22 -0.22)">
       <defs>
        <path id="DejaVuSans-38" d="M 2034 2216 
Q 1584 2216 1326 1975 
Q 1069 1734 1069 1313 
Q 1069 891 1326 650 
Q 1584 409 2034 409 
Q 2484 409 2743 651 
Q 3003 894 3003 1313 
Q 3003 1734 2745 1975 
Q 2488 2216 2034 2216 
z
M 1403 2484 
Q 997 2584 770 2862 
Q 544 3141 544 3541 
Q 544 4100 942 4425 
Q 1341 4750 2034 4750 
Q 2731 4750 3128 4425 
Q 3525 4100 3525 3541 
Q 3525 3141 3298 2862 
Q 3072 2584 2669 2484 
Q 3125 2378 3379 2068 
Q 3634 1759 3634 1313 
Q 3634 634 3220 271 
Q 2806 -91 2034 -91 
Q 1263 -91 848 271 
Q 434 634 434 1313 
Q 434 1759 690 2068 
Q 947 2378 1403 2484 
z
M 1172 3481 
Q 1172 3119 1398 2916 
Q 1625 2713 2034 2713 
Q 2441 2713 2670 2916 
Q 2900 3119 2900 3481 
Q 2900 3844 2670 4047 
Q 2441 4250 2034 4250 
Q 1625 4250 1398 4047 
Q 1172 3844 1172 3481 
z
" transform="scale(0.015625)"/>
       </defs>
       <use xlink:href="#DejaVuSans-31" transform="translate(0 0.765625)"/>
       <use xlink:href="#DejaVuSans-30" transform="translate(63.623047 0.765625)"/>
       <use xlink:href="#DejaVuSans-38" transform="translate(128.203125 39.046875) scale(0.7)"/>
      </g>
     </g>
    </g>
    <g id="ytick_3">
     <g id="line2d_8">
      <g>
       <use xlink:href="#mbd1f834859" x="100.76" y="133.052697" style="stroke: #000000; stroke-width: 2.5"/>
      </g>
     </g>
     <g id="text_9">
      <!-- $\mathdefault{10^{13}}$ -->
      <g transform="translate(36.64 141.410979) scale(0.22 -0.22)">
       <use xlink:href="#DejaVuSans-31" transform="translate(0 0.765625)"/>
       <use xlink:href="#DejaVuSans-30" transform="translate(63.623047 0.765625)"/>
       <use xlink:href="#DejaVuSans-31" transform="translate(128.203125 39.046875) scale(0.7)"/>
       <use xlink:href="#DejaVuSans-33" transform="translate(172.739258 39.046875) scale(0.7)"/>
      </g>
     </g>
    </g>
    <g id="ytick_4">
     <g id="line2d_9">
      <g>
       <use xlink:href="#mbd1f834859" x="100.76" y="79.236571" style="stroke: #000000; stroke-width: 2.5"/>
      </g>
     </g>
     <g id="text_10">
      <!-- $\mathdefault{10^{18}}$ -->
      <g transform="translate(36.64 87.594853) scale(0.22 -0.22)">
       <use xlink:href="#DejaVuSans-31" transform="translate(0 0.765625)"/>
       <use xlink:href="#DejaVuSans-30" transform="translate(63.623047 0.765625)"/>
       <use xlink:href="#DejaVuSans-31" transform="translate(128.203125 39.046875) scale(0.7)"/>
       <use xlink:href="#DejaVuSans-38" transform="translate(172.739258 39.046875) scale(0.7)"/>
      </g>
     </g>
    </g>
    <g id="ytick_5">
     <g id="line2d_10">
      <g>
       <use xlink:href="#mbd1f834859" x="100.76" y="25.420445" style="stroke: #000000; stroke-width: 2.5"/>
      </g>
     </g>
     <g id="text_11">
      <!-- $\mathdefault{10^{23}}$ -->
      <g transform="translate(36.64 33.778727) scale(0.22 -0.22)">
       <use xlink:href="#DejaVuSans-31" transform="translate(0 0.765625)"/>
       <use xlink:href="#DejaVuSans-30" transform="translate(63.623047 0.765625)"/>
       <use xlink:href="#DejaVuSans-32" transform="translate(128.203125 39.046875) scale(0.7)"/>
       <use xlink:href="#DejaVuSans-33" transform="translate(172.739258 39.046875) scale(0.7)"/>
      </g>
     </g>
    </g>
    <g id="text_12">
     <!-- $\phi^n_k$ -->
     <g transform="translate(25.92 166.534625) rotate(-90) scale(0.24 -0.24)">
      <defs>
       <path id="DejaVuSans-Oblique-3d5" d="M 2991 4863 
L 2738 3572 
Q 3363 3572 3684 3094 
Q 4016 2606 3850 1747 
Q 3681 888 3159 400 
Q 2653 -78 2028 -78 
L 1784 -1331 
L 1213 -1331 
L 1456 -78 
Q 834 -78 509 400 
Q 178 888 347 1747 
Q 513 2606 1034 3094 
Q 1544 3572 2166 3572 
L 2419 4863 
L 2991 4863 
z
M 2128 434 
Q 2481 434 2784 756 
Q 3116 1116 3244 1747 
Q 3369 2372 3169 2738 
Q 2991 3059 2638 3059 
L 2128 434 
z
M 1556 434 
L 2066 3059 
Q 1716 3059 1413 2738 
Q 1072 2372 953 1747 
Q 834 1116 1028 756 
Q 1203 434 1556 434 
z
" transform="scale(0.015625)"/>
       <path id="DejaVuSans-Oblique-6e" d="M 3566 2113 
L 3156 0 
L 2578 0 
L 2988 2091 
Q 3016 2238 3031 2350 
Q 3047 2463 3047 2528 
Q 3047 2791 2881 2937 
Q 2716 3084 2419 3084 
Q 1956 3084 1622 2776 
Q 1288 2469 1184 1941 
L 800 0 
L 225 0 
L 903 3500 
L 1478 3500 
L 1363 2950 
Q 1603 3253 1940 3418 
Q 2278 3584 2650 3584 
Q 3113 3584 3367 3334 
Q 3622 3084 3622 2631 
Q 3622 2519 3608 2391 
Q 3594 2263 3566 2113 
z
" transform="scale(0.015625)"/>
       <path id="DejaVuSans-Oblique-6b" d="M 1172 4863 
L 1747 4863 
L 1197 2028 
L 3169 3500 
L 3916 3500 
L 1716 1825 
L 3322 0 
L 2625 0 
L 1131 1709 
L 800 0 
L 225 0 
L 1172 4863 
z
" transform="scale(0.015625)"/>
      </defs>
      <use xlink:href="#DejaVuSans-Oblique-3d5" transform="translate(0 0.454688)"/>
      <use xlink:href="#DejaVuSans-Oblique-6e" transform="translate(73.414505 38.8) scale(0.7)"/>
      <use xlink:href="#DejaVuSans-Oblique-6b" transform="translate(65.966797 -26.889062) scale(0.7)"/>
     </g>
    </g>
   </g>
   <g id="line2d_11">
    <path clip-path="url(#p86ad000102)" style="fill: none; stroke: #424242; stroke-width: 4.5; stroke-linecap: square"/>
   </g>
   <g id="line2d_12">
    <path clip-path="url(#p86ad000102)" style="fill: none; stroke: #424242; stroke-width: 4.5; stroke-linecap: square"/>
   </g>
   <g id="line2d_13">
    <path clip-path="url(#p86ad000102)" style="fill: none; stroke: #424242; stroke-width: 4.5; stroke-linecap: square"/>
   </g>
   <g id="line2d_14">
    <path clip-path="url(#p86ad000102)" style="fill: none; stroke: #424242; stroke-width: 4.5; stroke-linecap: square"/>
   </g>
   <g id="line2d_15">
    <path clip-path="url(#p86ad000102)" style="fill: none; stroke: #424242; stroke-width: 4.5; stroke-linecap: square"/>
   </g>
   <g id="line2d_16">
    <path clip-path="url(#p86ad000102)" style="fill: none; stroke: #424242; stroke-width: 4.5; stroke-linecap: square"/>
   </g>
   <g id="line2d_17">
    <path clip-path="url(#p86ad000102)" style="fill: none; stroke: #424242; stroke-width: 4.5; stroke-linecap: square"/>
   </g>
   <g id="line2d_18">
    <path clip-path="url(#p86ad000102)" style="fill: none; stroke: #424242; stroke-width: 4.5; stroke-linecap: square"/>
   </g>
   <g id="line2d_19">
    <path clip-path="url(#p86ad000102)" style="fill: none; stroke: #424242; stroke-width: 4.5; stroke-linecap: square"/>
   </g>
   <g id="line2d_20">
    <path clip-path="url(#p86ad000102)" style="fill: none; stroke: #424242; stroke-width: 4.5; stroke-linecap: square"/>
   </g>
   <g id="line2d_21">
    <path clip-path="url(#p86ad000102)" style="fill: none; stroke: #424242; stroke-width: 4.5; stroke-linecap: square"/>
   </g>
   <g id="line2d_22">
    <path clip-path="url(#p86ad000102)" style="fill: none; stroke: #424242; stroke-width: 4.5; stroke-linecap: square"/>
   </g>
   <g id="line2d_23">
    <path clip-path="url(#p86ad000102)" style="fill: none; stroke: #424242; stroke-width: 4.5; stroke-linecap: square"/>
   </g>
   <g id="line2d_24">
    <path clip-path="url(#p86ad000102)" style="fill: none; stroke: #424242; stroke-width: 4.5; stroke-linecap: square"/>
   </g>
   <g id="line2d_25">
    <path clip-path="url(#p86ad000102)" style="fill: none; stroke: #424242; stroke-width: 4.5; stroke-linecap: square"/>
   </g>
   <g id="line2d_26">
    <path clip-path="url(#p86ad000102)" style="fill: none; stroke: #424242; stroke-width: 4.5; stroke-linecap: square"/>
   </g>
   <g id="line2d_27">
    <path clip-path="url(#p86ad000102)" style="fill: none; stroke: #424242; stroke-width: 4.5; stroke-linecap: square"/>
   </g>
   <g id="line2d_28">
    <path clip-path="url(#p86ad000102)" style="fill: none; stroke: #424242; stroke-width: 4.5; stroke-linecap: square"/>
   </g>
   <g id="line2d_29">
    <path clip-path="url(#p86ad000102)" style="fill: none; stroke: #424242; stroke-width: 4.5; stroke-linecap: square"/>
   </g>
   <g id="line2d_30">
    <path clip-path="url(#p86ad000102)" style="fill: none; stroke: #424242; stroke-width: 4.5; stroke-linecap: square"/>
   </g>
   <g id="line2d_31">
    <path clip-path="url(#p86ad000102)" style="fill: none; stroke: #424242; stroke-width: 4.5; stroke-linecap: square"/>
   </g>
   <g id="line2d_32">
    <path clip-path="url(#p86ad000102)" style="fill: none; stroke: #424242; stroke-width: 4.5; stroke-linecap: square"/>
   </g>
   <g id="line2d_33">
    <path clip-path="url(#p86ad000102)" style="fill: none; stroke: #424242; stroke-width: 4.5; stroke-linecap: square"/>
   </g>
   <g id="line2d_34">
    <path clip-path="url(#p86ad000102)" style="fill: none; stroke: #424242; stroke-width: 4.5; stroke-linecap: square"/>
   </g>
   <g id="line2d_35">
    <path clip-path="url(#p86ad000102)" style="fill: none; stroke: #424242; stroke-width: 4.5; stroke-linecap: square"/>
   </g>
   <g id="patch_35">
    <path d="M 100.76 285.070625 
L 100.76 18.958625 
" style="fill: none; stroke: #000000; stroke-width: 2.5; stroke-linejoin: miter; stroke-linecap: square"/>
   </g>
   <g id="patch_36">
    <path d="M 457.88 285.070625 
L 457.88 18.958625 
" style="fill: none; stroke: #000000; stroke-width: 2.5; stroke-linejoin: miter; stroke-linecap: square"/>
   </g>
   <g id="patch_37">
    <path d="M 100.76 285.070625 
L 457.88 285.070625 
" style="fill: none; stroke: #000000; stroke-width: 2.5; stroke-linejoin: miter; stroke-linecap: square"/>
   </g>
   <g id="patch_38">
    <path d="M 100.76 18.958625 
L 457.88 18.958625 
" style="fill: none; stroke: #000000; stroke-width: 2.5; stroke-linejoin: miter; stroke-linecap: square"/>
   </g>
   <g id="legend_1">
    <g id="patch_39">
     <path d="M 237.12125 274.070625 
L 321.51875 274.070625 
Q 325.91875 274.070625 325.91875 269.670625 
L 325.91875 11.6 
Q 325.91875 7.2 321.51875 7.2 
L 237.12125 7.2 
Q 232.72125 7.2 232.72125 11.6 
L 232.72125 269.670625 
Q 232.72125 274.070625 237.12125 274.070625 
z
" style="fill: #ffffff; opacity: 0.8; stroke: #cccccc; stroke-width: 2; stroke-linejoin: miter"/>
    </g>
    <g id="text_13">
     <!-- k -->
     <g transform="translate(272.37125 34.23625) scale(0.24 -0.24)">
      <defs>
       <path id="DejaVuSans-6b" d="M 581 4863 
L 1159 4863 
L 1159 1991 
L 2875 3500 
L 3609 3500 
L 1753 1863 
L 3688 0 
L 2938 0 
L 1159 1709 
L 1159 0 
L 581 0 
L 581 4863 
z
" transform="scale(0.015625)"/>
      </defs>
      <use xlink:href="#DejaVuSans-6b"/>
     </g>
    </g>
    <g id="patch_40">
     <path d="M 241.52125 66.944062 
L 285.52125 66.944062 
L 285.52125 51.544062 
L 241.52125 51.544062 
z
" style="fill: #060717"/>
    </g>
    <g id="text_14">
     <!-- 0 -->
     <g transform="translate(303.12125 66.944062) scale(0.22 -0.22)">
      <use xlink:href="#DejaVuSans-30"/>
     </g>
    </g>
    <g id="patch_41">
     <path d="M 241.52125 99.235937 
L 285.52125 99.235937 
L 285.52125 83.835937 
L 241.52125 83.835937 
z
" style="fill: #3b203e"/>
    </g>
    <g id="text_15">
     <!-- 1 -->
     <g transform="translate(303.12125 99.235937) scale(0.22 -0.22)">
      <use xlink:href="#DejaVuSans-31"/>
     </g>
    </g>
    <g id="patch_42">
     <path d="M 241.52125 131.527812 
L 285.52125 131.527812 
L 285.52125 116.127812 
L 241.52125 116.127812 
z
" style="fill: #772b58"/>
    </g>
    <g id="text_16">
     <!-- 2 -->
     <g transform="translate(303.12125 131.527812) scale(0.22 -0.22)">
      <use xlink:href="#DejaVuSans-32"/>
     </g>
    </g>
    <g id="patch_43">
     <path d="M 241.52125 163.819687 
L 285.52125 163.819687 
L 285.52125 148.419687 
L 241.52125 148.419687 
z
" style="fill: #b53158"/>
    </g>
    <g id="text_17">
     <!-- 3 -->
     <g transform="translate(303.12125 163.819687) scale(0.22 -0.22)">
      <use xlink:href="#DejaVuSans-33"/>
     </g>
    </g>
    <g id="patch_44">
     <path d="M 241.52125 196.111562 
L 285.52125 196.111562 
L 285.52125 180.711562 
L 241.52125 180.711562 
z
" style="fill: #db6e59"/>
    </g>
    <g id="text_18">
     <!-- 4 -->
     <g transform="translate(303.12125 196.111562) scale(0.22 -0.22)">
      <use xlink:href="#DejaVuSans-34"/>
     </g>
    </g>
    <g id="patch_45">
     <path d="M 241.52125 228.403437 
L 285.52125 228.403437 
L 285.52125 213.003437 
L 241.52125 213.003437 
z
" style="fill: #e8af92"/>
    </g>
    <g id="text_19">
     <!-- 5 -->
     <g transform="translate(303.12125 228.403437) scale(0.22 -0.22)">
      <use xlink:href="#DejaVuSans-35"/>
     </g>
    </g>
    <g id="patch_46">
     <path d="M 241.52125 260.695312 
L 285.52125 260.695312 
L 285.52125 245.295312 
L 241.52125 245.295312 
z
" style="fill: #f7ebe0"/>
    </g>
    <g id="text_20">
     <!-- 6 -->
     <g transform="translate(303.12125 260.695312) scale(0.22 -0.22)">
      <use xlink:href="#DejaVuSans-36"/>
     </g>
    </g>
   </g>
  </g>
 </g>
 <defs>
  <clipPath id="p86ad000102">
   <rect x="100.76" y="18.958625" width="357.12" height="266.112"/>
  </clipPath>
 </defs>
</svg>
