<?xml version="1.0" encoding="utf-8" standalone="no"?>
<!DOCTYPE svg PUBLIC "-//W3C//DTD SVG 1.1//EN"
  "http://www.w3.org/Graphics/SVG/1.1/DTD/svg11.dtd">
<svg xmlns:xlink="http://www.w3.org/1999/xlink" width="460.8pt" height="345.6pt" viewBox="0 0 460.8 345.6" xmlns="http://www.w3.org/2000/svg" version="1.1">
 <metadata>
  <rdf:RDF xmlns:dc="http://purl.org/dc/elements/1.1/" xmlns:cc="http://creativecommons.org/ns#" xmlns:rdf="http://www.w3.org/1999/02/22-rdf-syntax-ns#">
   <cc:Work>
    <dc:type rdf:resource="http://purl.org/dc/dcmitype/StillImage"/>
    <dc:date>2024-02-19T22:27:51.924251</dc:date>
    <dc:format>image/svg+xml</dc:format>
    <dc:creator>
     <cc:Agent>
      <dc:title>Matplotlib v3.7.1, https://matplotlib.org/</dc:title>
     </cc:Agent>
    </dc:creator>
   </cc:Work>
  </rdf:RDF>
 </metadata>
 <defs>
  <style type="text/css">*{stroke-linejoin: round; stroke-linecap: butt}</style>
 </defs>
 <g id="figure_1">
  <g id="patch_1">
   <path d="M 0 345.6 
L 460.8 345.6 
L 460.8 0 
L 0 0 
z
" style="fill: #ffffff"/>
  </g>
  <g id="axes_1">
   <g id="patch_2">
    <path d="M 57.6 307.584 
L 414.72 307.584 
L 414.72 41.472 
L 57.6 41.472 
z
" style="fill: #ffffff"/>
   </g>
   <g id="patch_3">
    <path d="M 62.701714 307.584 
L 67.236571 307.584 
L 67.236571 104.893357 
L 62.701714 104.893357 
z
" clip-path="url(#pd09a48f789)" style="fill: #3274a1"/>
   </g>
   <g id="patch_4">
    <path d="M 113.718857 307.584 
L 118.253714 307.584 
L 118.253714 184.466039 
L 113.718857 184.466039 
z
" clip-path="url(#pd09a48f789)" style="fill: #3274a1"/>
   </g>
   <g id="patch_5">
    <path d="M 164.736 307.584 
L 169.270857 307.584 
L 169.270857 279.484916 
L 164.736 279.484916 
z
" clip-path="url(#pd09a48f789)" style="fill: #3274a1"/>
   </g>
   <g id="patch_6">
    <path d="M 215.753143 307.584 
L 220.288 307.584 
L 220.288 304.242081 
L 215.753143 304.242081 
z
" clip-path="url(#pd09a48f789)" style="fill: #3274a1"/>
   </g>
   <g id="patch_7">
    <path d="M 266.770286 307.584 
L 271.305143 307.584 
L 271.305143 307.584 
L 266.770286 307.584 
z
" clip-path="url(#pd09a48f789)" style="fill: #3274a1"/>
   </g>
   <g id="patch_8">
    <path d="M 317.787429 307.584 
L 322.322286 307.584 
L 322.322286 307.584 
L 317.787429 307.584 
z
" clip-path="url(#pd09a48f789)" style="fill: #3274a1"/>
   </g>
   <g id="patch_9">
    <path d="M 368.804571 307.584 
L 373.339429 307.584 
L 373.339429 307.584 
L 368.804571 307.584 
z
" clip-path="url(#pd09a48f789)" style="fill: #3274a1"/>
   </g>
   <g id="patch_10">
    <path d="M 67.236571 307.584 
L 71.771429 307.584 
L 71.771429 116.005579 
L 67.236571 116.005579 
z
" clip-path="url(#pd09a48f789)" style="fill: #e1812c"/>
   </g>
   <g id="patch_11">
    <path d="M 118.253714 307.584 
L 122.788571 307.584 
L 122.788571 184.185019 
L 118.253714 184.185019 
z
" clip-path="url(#pd09a48f789)" style="fill: #e1812c"/>
   </g>
   <g id="patch_12">
    <path d="M 169.270857 307.584 
L 173.805714 307.584 
L 173.805714 269.464353 
L 169.270857 269.464353 
z
" clip-path="url(#pd09a48f789)" style="fill: #e1812c"/>
   </g>
   <g id="patch_13">
    <path d="M 220.288 307.584 
L 224.822857 307.584 
L 224.822857 303.217654 
L 220.288 303.217654 
z
" clip-path="url(#pd09a48f789)" style="fill: #e1812c"/>
   </g>
   <g id="patch_14">
    <path d="M 271.305143 307.584 
L 275.84 307.584 
L 275.84 307.584 
L 271.305143 307.584 
z
" clip-path="url(#pd09a48f789)" style="fill: #e1812c"/>
   </g>
   <g id="patch_15">
    <path d="M 322.322286 307.584 
L 326.857143 307.584 
L 326.857143 307.584 
L 322.322286 307.584 
z
" clip-path="url(#pd09a48f789)" style="fill: #e1812c"/>
   </g>
   <g id="patch_16">
    <path d="M 373.339429 307.584 
L 377.874286 307.584 
L 377.874286 307.584 
L 373.339429 307.584 
z
" clip-path="url(#pd09a48f789)" style="fill: #e1812c"/>
   </g>
   <g id="patch_17">
    <path d="M 71.771429 307.584 
L 76.306286 307.584 
L 76.306286 131.476968 
L 71.771429 131.476968 
z
" clip-path="url(#pd09a48f789)" style="fill: #3a923a"/>
   </g>
   <g id="patch_18">
    <path d="M 122.788571 307.584 
L 127.323429 307.584 
L 127.323429 191.3414 
L 122.788571 191.3414 
z
" clip-path="url(#pd09a48f789)" style="fill: #3a923a"/>
   </g>
   <g id="patch_19">
    <path d="M 173.805714 307.584 
L 178.340571 307.584 
L 178.340571 276.199869 
L 173.805714 276.199869 
z
" clip-path="url(#pd09a48f789)" style="fill: #3a923a"/>
   </g>
   <g id="patch_20">
    <path d="M 224.822857 307.584 
L 229.357714 307.584 
L 229.357714 305.25499 
L 224.822857 305.25499 
z
" clip-path="url(#pd09a48f789)" style="fill: #3a923a"/>
   </g>
   <g id="patch_21">
    <path d="M 275.84 307.584 
L 280.374857 307.584 
L 280.374857 307.211761 
L 275.84 307.211761 
z
" clip-path="url(#pd09a48f789)" style="fill: #3a923a"/>
   </g>
   <g id="patch_22">
    <path d="M 326.857143 307.584 
L 331.392 307.584 
L 331.392 307.584 
L 326.857143 307.584 
z
" clip-path="url(#pd09a48f789)" style="fill: #3a923a"/>
   </g>
   <g id="patch_23">
    <path d="M 377.874286 307.584 
L 382.409143 307.584 
L 382.409143 307.584 
L 377.874286 307.584 
z
" clip-path="url(#pd09a48f789)" style="fill: #3a923a"/>
   </g>
   <g id="patch_24">
    <path d="M 76.306286 307.584 
L 80.841143 307.584 
L 80.841143 116.711327 
L 76.306286 116.711327 
z
" clip-path="url(#pd09a48f789)" style="fill: #c03d3e"/>
   </g>
   <g id="patch_25">
    <path d="M 127.323429 307.584 
L 131.858286 307.584 
L 131.858286 189.345097 
L 127.323429 189.345097 
z
" clip-path="url(#pd09a48f789)" style="fill: #c03d3e"/>
   </g>
   <g id="patch_26">
    <path d="M 178.340571 307.584 
L 182.875429 307.584 
L 182.875429 277.27909 
L 178.340571 277.27909 
z
" clip-path="url(#pd09a48f789)" style="fill: #c03d3e"/>
   </g>
   <g id="patch_27">
    <path d="M 229.357714 307.584 
L 233.892571 307.584 
L 233.892571 302.639277 
L 229.357714 302.639277 
z
" clip-path="url(#pd09a48f789)" style="fill: #c03d3e"/>
   </g>
   <g id="patch_28">
    <path d="M 280.374857 307.584 
L 284.909714 307.584 
L 284.909714 307.535703 
L 280.374857 307.535703 
z
" clip-path="url(#pd09a48f789)" style="fill: #c03d3e"/>
   </g>
   <g id="patch_29">
    <path d="M 331.392 307.584 
L 335.926857 307.584 
L 335.926857 307.584 
L 331.392 307.584 
z
" clip-path="url(#pd09a48f789)" style="fill: #c03d3e"/>
   </g>
   <g id="patch_30">
    <path d="M 382.409143 307.584 
L 386.944 307.584 
L 386.944 307.584 
L 382.409143 307.584 
z
" clip-path="url(#pd09a48f789)" style="fill: #c03d3e"/>
   </g>
   <g id="patch_31">
    <path d="M 80.841143 307.584 
L 85.376 307.584 
L 85.376 135.961583 
L 80.841143 135.961583 
z
" clip-path="url(#pd09a48f789)" style="fill: #9372b2"/>
   </g>
   <g id="patch_32">
    <path d="M 131.858286 307.584 
L 136.393143 307.584 
L 136.393143 196.23343 
L 131.858286 196.23343 
z
" clip-path="url(#pd09a48f789)" style="fill: #9372b2"/>
   </g>
   <g id="patch_33">
    <path d="M 182.875429 307.584 
L 187.410286 307.584 
L 187.410286 278.04595 
L 182.875429 278.04595 
z
" clip-path="url(#pd09a48f789)" style="fill: #9372b2"/>
   </g>
   <g id="patch_34">
    <path d="M 233.892571 307.584 
L 238.427429 307.584 
L 238.427429 304.913711 
L 233.892571 304.913711 
z
" clip-path="url(#pd09a48f789)" style="fill: #9372b2"/>
   </g>
   <g id="patch_35">
    <path d="M 284.909714 307.584 
L 289.444571 307.584 
L 289.444571 307.481242 
L 284.909714 307.481242 
z
" clip-path="url(#pd09a48f789)" style="fill: #9372b2"/>
   </g>
   <g id="patch_36">
    <path d="M 335.926857 307.584 
L 340.461714 307.584 
L 340.461714 307.584 
L 335.926857 307.584 
z
" clip-path="url(#pd09a48f789)" style="fill: #9372b2"/>
   </g>
   <g id="patch_37">
    <path d="M 386.944 307.584 
L 391.478857 307.584 
L 391.478857 307.584 
L 386.944 307.584 
z
" clip-path="url(#pd09a48f789)" style="fill: #9372b2"/>
   </g>
   <g id="patch_38">
    <path d="M 85.376 307.584 
L 89.910857 307.584 
L 89.910857 156.779943 
L 85.376 156.779943 
z
" clip-path="url(#pd09a48f789)" style="fill: #845b53"/>
   </g>
   <g id="patch_39">
    <path d="M 136.393143 307.584 
L 140.928 307.584 
L 140.928 201.191631 
L 136.393143 201.191631 
z
" clip-path="url(#pd09a48f789)" style="fill: #845b53"/>
   </g>
   <g id="patch_40">
    <path d="M 187.410286 307.584 
L 191.945143 307.584 
L 191.945143 278.782589 
L 187.410286 278.782589 
z
" clip-path="url(#pd09a48f789)" style="fill: #845b53"/>
   </g>
   <g id="patch_41">
    <path d="M 238.427429 307.584 
L 242.962286 307.584 
L 242.962286 303.014125 
L 238.427429 303.014125 
z
" clip-path="url(#pd09a48f789)" style="fill: #845b53"/>
   </g>
   <g id="patch_42">
    <path d="M 289.444571 307.584 
L 293.979429 307.584 
L 293.979429 307.029075 
L 289.444571 307.029075 
z
" clip-path="url(#pd09a48f789)" style="fill: #845b53"/>
   </g>
   <g id="patch_43">
    <path d="M 340.461714 307.584 
L 344.996571 307.584 
L 344.996571 307.584 
L 340.461714 307.584 
z
" clip-path="url(#pd09a48f789)" style="fill: #845b53"/>
   </g>
   <g id="patch_44">
    <path d="M 391.478857 307.584 
L 396.013714 307.584 
L 396.013714 307.584 
L 391.478857 307.584 
z
" clip-path="url(#pd09a48f789)" style="fill: #845b53"/>
   </g>
   <g id="patch_45">
    <path d="M 89.910857 307.584 
L 94.445714 307.584 
L 94.445714 138.879929 
L 89.910857 138.879929 
z
" clip-path="url(#pd09a48f789)" style="fill: #d684bd"/>
   </g>
   <g id="patch_46">
    <path d="M 140.928 307.584 
L 145.462857 307.584 
L 145.462857 203.134569 
L 140.928 203.134569 
z
" clip-path="url(#pd09a48f789)" style="fill: #d684bd"/>
   </g>
   <g id="patch_47">
    <path d="M 191.945143 307.584 
L 196.48 307.584 
L 196.48 273.844216 
L 191.945143 273.844216 
z
" clip-path="url(#pd09a48f789)" style="fill: #d684bd"/>
   </g>
   <g id="patch_48">
    <path d="M 242.962286 307.584 
L 247.497143 307.584 
L 247.497143 301.723435 
L 242.962286 301.723435 
z
" clip-path="url(#pd09a48f789)" style="fill: #d684bd"/>
   </g>
   <g id="patch_49">
    <path d="M 293.979429 307.584 
L 298.514286 307.584 
L 298.514286 307.564565 
L 293.979429 307.564565 
z
" clip-path="url(#pd09a48f789)" style="fill: #d684bd"/>
   </g>
   <g id="patch_50">
    <path d="M 344.996571 307.584 
L 349.531429 307.584 
L 349.531429 307.584 
L 344.996571 307.584 
z
" clip-path="url(#pd09a48f789)" style="fill: #d684bd"/>
   </g>
   <g id="patch_51">
    <path d="M 396.013714 307.584 
L 400.548571 307.584 
L 400.548571 307.584 
L 396.013714 307.584 
z
" clip-path="url(#pd09a48f789)" style="fill: #d684bd"/>
   </g>
   <g id="patch_52">
    <path d="M 94.445714 307.584 
L 98.980571 307.584 
L 98.980571 156.509906 
L 94.445714 156.509906 
z
" clip-path="url(#pd09a48f789)" style="fill: #7f7f7f"/>
   </g>
   <g id="patch_53">
    <path d="M 145.462857 307.584 
L 149.997714 307.584 
L 149.997714 217.163694 
L 145.462857 217.163694 
z
" clip-path="url(#pd09a48f789)" style="fill: #7f7f7f"/>
   </g>
   <g id="patch_54">
    <path d="M 196.48 307.584 
L 201.014857 307.584 
L 201.014857 281.376019 
L 196.48 281.376019 
z
" clip-path="url(#pd09a48f789)" style="fill: #7f7f7f"/>
   </g>
   <g id="patch_55">
    <path d="M 247.497143 307.584 
L 252.032 307.584 
L 252.032 303.069782 
L 247.497143 303.069782 
z
" clip-path="url(#pd09a48f789)" style="fill: #7f7f7f"/>
   </g>
   <g id="patch_56">
    <path d="M 298.514286 307.584 
L 303.049143 307.584 
L 303.049143 307.466848 
L 298.514286 307.466848 
z
" clip-path="url(#pd09a48f789)" style="fill: #7f7f7f"/>
   </g>
   <g id="patch_57">
    <path d="M 349.531429 307.584 
L 354.066286 307.584 
L 354.066286 307.584 
L 349.531429 307.584 
z
" clip-path="url(#pd09a48f789)" style="fill: #7f7f7f"/>
   </g>
   <g id="patch_58">
    <path d="M 400.548571 307.584 
L 405.083429 307.584 
L 405.083429 307.584 
L 400.548571 307.584 
z
" clip-path="url(#pd09a48f789)" style="fill: #7f7f7f"/>
   </g>
   <g id="patch_59">
    <path d="M 98.980571 307.584 
L 103.515429 307.584 
L 103.515429 165.430564 
L 98.980571 165.430564 
z
" clip-path="url(#pd09a48f789)" style="fill: #a9aa35"/>
   </g>
   <g id="patch_60">
    <path d="M 149.997714 307.584 
L 154.532571 307.584 
L 154.532571 230.198497 
L 149.997714 230.198497 
z
" clip-path="url(#pd09a48f789)" style="fill: #a9aa35"/>
   </g>
   <g id="patch_61">
    <path d="M 201.014857 307.584 
L 205.549714 307.584 
L 205.549714 284.251173 
L 201.014857 284.251173 
z
" clip-path="url(#pd09a48f789)" style="fill: #a9aa35"/>
   </g>
   <g id="patch_62">
    <path d="M 252.032 307.584 
L 256.566857 307.584 
L 256.566857 304.470185 
L 252.032 304.470185 
z
" clip-path="url(#pd09a48f789)" style="fill: #a9aa35"/>
   </g>
   <g id="patch_63">
    <path d="M 303.049143 307.584 
L 307.584 307.584 
L 307.584 307.558104 
L 303.049143 307.558104 
z
" clip-path="url(#pd09a48f789)" style="fill: #a9aa35"/>
   </g>
   <g id="patch_64">
    <path d="M 354.066286 307.584 
L 358.601143 307.584 
L 358.601143 307.584 
L 354.066286 307.584 
z
" clip-path="url(#pd09a48f789)" style="fill: #a9aa35"/>
   </g>
   <g id="patch_65">
    <path d="M 405.083429 307.584 
L 409.618286 307.584 
L 409.618286 307.584 
L 405.083429 307.584 
z
" clip-path="url(#pd09a48f789)" style="fill: #a9aa35"/>
   </g>
   <g id="matplotlib.axis_1">
    <g id="xtick_1">
     <g id="line2d_1">
      <defs>
       <path id="m3385fdae1e" d="M 0 0 
L 0 3.5 
" style="stroke: #000000; stroke-width: 0.8"/>
      </defs>
      <g>
       <use xlink:href="#m3385fdae1e" x="83.108571" y="307.584" style="stroke: #000000; stroke-width: 0.8"/>
      </g>
     </g>
     <g id="text_1">
      <!-- 2 -->
      <g transform="translate(79.927321 322.182437) scale(0.1 -0.1)">
       <defs>
        <path id="DejaVuSans-32" d="M 1228 531 
L 3431 531 
L 3431 0 
L 469 0 
L 469 531 
Q 828 903 1448 1529 
Q 2069 2156 2228 2338 
Q 2531 2678 2651 2914 
Q 2772 3150 2772 3378 
Q 2772 3750 2511 3984 
Q 2250 4219 1831 4219 
Q 1534 4219 1204 4116 
Q 875 4013 500 3803 
L 500 4441 
Q 881 4594 1212 4672 
Q 1544 4750 1819 4750 
Q 2544 4750 2975 4387 
Q 3406 4025 3406 3419 
Q 3406 3131 3298 2873 
Q 3191 2616 2906 2266 
Q 2828 2175 2409 1742 
Q 1991 1309 1228 531 
z
" transform="scale(0.015625)"/>
       </defs>
       <use xlink:href="#DejaVuSans-32"/>
      </g>
     </g>
    </g>
    <g id="xtick_2">
     <g id="line2d_2">
      <g>
       <use xlink:href="#m3385fdae1e" x="134.125714" y="307.584" style="stroke: #000000; stroke-width: 0.8"/>
      </g>
     </g>
     <g id="text_2">
      <!-- 3 -->
      <g transform="translate(130.944464 322.182437) scale(0.1 -0.1)">
       <defs>
        <path id="DejaVuSans-33" d="M 2597 2516 
Q 3050 2419 3304 2112 
Q 3559 1806 3559 1356 
Q 3559 666 3084 287 
Q 2609 -91 1734 -91 
Q 1441 -91 1130 -33 
Q 819 25 488 141 
L 488 750 
Q 750 597 1062 519 
Q 1375 441 1716 441 
Q 2309 441 2620 675 
Q 2931 909 2931 1356 
Q 2931 1769 2642 2001 
Q 2353 2234 1838 2234 
L 1294 2234 
L 1294 2753 
L 1863 2753 
Q 2328 2753 2575 2939 
Q 2822 3125 2822 3475 
Q 2822 3834 2567 4026 
Q 2313 4219 1838 4219 
Q 1578 4219 1281 4162 
Q 984 4106 628 3988 
L 628 4550 
Q 988 4650 1302 4700 
Q 1616 4750 1894 4750 
Q 2613 4750 3031 4423 
Q 3450 4097 3450 3541 
Q 3450 3153 3228 2886 
Q 3006 2619 2597 2516 
z
" transform="scale(0.015625)"/>
       </defs>
       <use xlink:href="#DejaVuSans-33"/>
      </g>
     </g>
    </g>
    <g id="xtick_3">
     <g id="line2d_3">
      <g>
       <use xlink:href="#m3385fdae1e" x="185.142857" y="307.584" style="stroke: #000000; stroke-width: 0.8"/>
      </g>
     </g>
     <g id="text_3">
      <!-- 4 -->
      <g transform="translate(181.961607 322.182437) scale(0.1 -0.1)">
       <defs>
        <path id="DejaVuSans-34" d="M 2419 4116 
L 825 1625 
L 2419 1625 
L 2419 4116 
z
M 2253 4666 
L 3047 4666 
L 3047 1625 
L 3713 1625 
L 3713 1100 
L 3047 1100 
L 3047 0 
L 2419 0 
L 2419 1100 
L 313 1100 
L 313 1709 
L 2253 4666 
z
" transform="scale(0.015625)"/>
       </defs>
       <use xlink:href="#DejaVuSans-34"/>
      </g>
     </g>
    </g>
    <g id="xtick_4">
     <g id="line2d_4">
      <g>
       <use xlink:href="#m3385fdae1e" x="236.16" y="307.584" style="stroke: #000000; stroke-width: 0.8"/>
      </g>
     </g>
     <g id="text_4">
      <!-- 5 -->
      <g transform="translate(232.97875 322.182437) scale(0.1 -0.1)">
       <defs>
        <path id="DejaVuSans-35" d="M 691 4666 
L 3169 4666 
L 3169 4134 
L 1269 4134 
L 1269 2991 
Q 1406 3038 1543 3061 
Q 1681 3084 1819 3084 
Q 2600 3084 3056 2656 
Q 3513 2228 3513 1497 
Q 3513 744 3044 326 
Q 2575 -91 1722 -91 
Q 1428 -91 1123 -41 
Q 819 9 494 109 
L 494 744 
Q 775 591 1075 516 
Q 1375 441 1709 441 
Q 2250 441 2565 725 
Q 2881 1009 2881 1497 
Q 2881 1984 2565 2268 
Q 2250 2553 1709 2553 
Q 1456 2553 1204 2497 
Q 953 2441 691 2322 
L 691 4666 
z
" transform="scale(0.015625)"/>
       </defs>
       <use xlink:href="#DejaVuSans-35"/>
      </g>
     </g>
    </g>
    <g id="xtick_5">
     <g id="line2d_5">
      <g>
       <use xlink:href="#m3385fdae1e" x="287.177143" y="307.584" style="stroke: #000000; stroke-width: 0.8"/>
      </g>
     </g>
     <g id="text_5">
      <!-- 6 -->
      <g transform="translate(283.995893 322.182437) scale(0.1 -0.1)">
       <defs>
        <path id="DejaVuSans-36" d="M 2113 2584 
Q 1688 2584 1439 2293 
Q 1191 2003 1191 1497 
Q 1191 994 1439 701 
Q 1688 409 2113 409 
Q 2538 409 2786 701 
Q 3034 994 3034 1497 
Q 3034 2003 2786 2293 
Q 2538 2584 2113 2584 
z
M 3366 4563 
L 3366 3988 
Q 3128 4100 2886 4159 
Q 2644 4219 2406 4219 
Q 1781 4219 1451 3797 
Q 1122 3375 1075 2522 
Q 1259 2794 1537 2939 
Q 1816 3084 2150 3084 
Q 2853 3084 3261 2657 
Q 3669 2231 3669 1497 
Q 3669 778 3244 343 
Q 2819 -91 2113 -91 
Q 1303 -91 875 529 
Q 447 1150 447 2328 
Q 447 3434 972 4092 
Q 1497 4750 2381 4750 
Q 2619 4750 2861 4703 
Q 3103 4656 3366 4563 
z
" transform="scale(0.015625)"/>
       </defs>
       <use xlink:href="#DejaVuSans-36"/>
      </g>
     </g>
    </g>
    <g id="xtick_6">
     <g id="line2d_6">
      <g>
       <use xlink:href="#m3385fdae1e" x="338.194286" y="307.584" style="stroke: #000000; stroke-width: 0.8"/>
      </g>
     </g>
     <g id="text_6">
      <!-- 7 -->
      <g transform="translate(335.013036 322.182437) scale(0.1 -0.1)">
       <defs>
        <path id="DejaVuSans-37" d="M 525 4666 
L 3525 4666 
L 3525 4397 
L 1831 0 
L 1172 0 
L 2766 4134 
L 525 4134 
L 525 4666 
z
" transform="scale(0.015625)"/>
       </defs>
       <use xlink:href="#DejaVuSans-37"/>
      </g>
     </g>
    </g>
    <g id="xtick_7">
     <g id="line2d_7">
      <g>
       <use xlink:href="#m3385fdae1e" x="389.211429" y="307.584" style="stroke: #000000; stroke-width: 0.8"/>
      </g>
     </g>
     <g id="text_7">
      <!-- 8 -->
      <g transform="translate(386.030179 322.182437) scale(0.1 -0.1)">
       <defs>
        <path id="DejaVuSans-38" d="M 2034 2216 
Q 1584 2216 1326 1975 
Q 1069 1734 1069 1313 
Q 1069 891 1326 650 
Q 1584 409 2034 409 
Q 2484 409 2743 651 
Q 3003 894 3003 1313 
Q 3003 1734 2745 1975 
Q 2488 2216 2034 2216 
z
M 1403 2484 
Q 997 2584 770 2862 
Q 544 3141 544 3541 
Q 544 4100 942 4425 
Q 1341 4750 2034 4750 
Q 2731 4750 3128 4425 
Q 3525 4100 3525 3541 
Q 3525 3141 3298 2862 
Q 3072 2584 2669 2484 
Q 3125 2378 3379 2068 
Q 3634 1759 3634 1313 
Q 3634 634 3220 271 
Q 2806 -91 2034 -91 
Q 1263 -91 848 271 
Q 434 634 434 1313 
Q 434 1759 690 2068 
Q 947 2378 1403 2484 
z
M 1172 3481 
Q 1172 3119 1398 2916 
Q 1625 2713 2034 2713 
Q 2441 2713 2670 2916 
Q 2900 3119 2900 3481 
Q 2900 3844 2670 4047 
Q 2441 4250 2034 4250 
Q 1625 4250 1398 4047 
Q 1172 3844 1172 3481 
z
" transform="scale(0.015625)"/>
       </defs>
       <use xlink:href="#DejaVuSans-38"/>
      </g>
     </g>
    </g>
    <g id="text_8">
     <!-- Nodes -->
     <g transform="translate(220.504531 335.860562) scale(0.1 -0.1)">
      <defs>
       <path id="DejaVuSans-4e" d="M 628 4666 
L 1478 4666 
L 3547 763 
L 3547 4666 
L 4159 4666 
L 4159 0 
L 3309 0 
L 1241 3903 
L 1241 0 
L 628 0 
L 628 4666 
z
" transform="scale(0.015625)"/>
       <path id="DejaVuSans-6f" d="M 1959 3097 
Q 1497 3097 1228 2736 
Q 959 2375 959 1747 
Q 959 1119 1226 758 
Q 1494 397 1959 397 
Q 2419 397 2687 759 
Q 2956 1122 2956 1747 
Q 2956 2369 2687 2733 
Q 2419 3097 1959 3097 
z
M 1959 3584 
Q 2709 3584 3137 3096 
Q 3566 2609 3566 1747 
Q 3566 888 3137 398 
Q 2709 -91 1959 -91 
Q 1206 -91 779 398 
Q 353 888 353 1747 
Q 353 2609 779 3096 
Q 1206 3584 1959 3584 
z
" transform="scale(0.015625)"/>
       <path id="DejaVuSans-64" d="M 2906 2969 
L 2906 4863 
L 3481 4863 
L 3481 0 
L 2906 0 
L 2906 525 
Q 2725 213 2448 61 
Q 2172 -91 1784 -91 
Q 1150 -91 751 415 
Q 353 922 353 1747 
Q 353 2572 751 3078 
Q 1150 3584 1784 3584 
Q 2172 3584 2448 3432 
Q 2725 3281 2906 2969 
z
M 947 1747 
Q 947 1113 1208 752 
Q 1469 391 1925 391 
Q 2381 391 2643 752 
Q 2906 1113 2906 1747 
Q 2906 2381 2643 2742 
Q 2381 3103 1925 3103 
Q 1469 3103 1208 2742 
Q 947 2381 947 1747 
z
" transform="scale(0.015625)"/>
       <path id="DejaVuSans-65" d="M 3597 1894 
L 3597 1613 
L 953 1613 
Q 991 1019 1311 708 
Q 1631 397 2203 397 
Q 2534 397 2845 478 
Q 3156 559 3463 722 
L 3463 178 
Q 3153 47 2828 -22 
Q 2503 -91 2169 -91 
Q 1331 -91 842 396 
Q 353 884 353 1716 
Q 353 2575 817 3079 
Q 1281 3584 2069 3584 
Q 2775 3584 3186 3129 
Q 3597 2675 3597 1894 
z
M 3022 2063 
Q 3016 2534 2758 2815 
Q 2500 3097 2075 3097 
Q 1594 3097 1305 2825 
Q 1016 2553 972 2059 
L 3022 2063 
z
" transform="scale(0.015625)"/>
       <path id="DejaVuSans-73" d="M 2834 3397 
L 2834 2853 
Q 2591 2978 2328 3040 
Q 2066 3103 1784 3103 
Q 1356 3103 1142 2972 
Q 928 2841 928 2578 
Q 928 2378 1081 2264 
Q 1234 2150 1697 2047 
L 1894 2003 
Q 2506 1872 2764 1633 
Q 3022 1394 3022 966 
Q 3022 478 2636 193 
Q 2250 -91 1575 -91 
Q 1294 -91 989 -36 
Q 684 19 347 128 
L 347 722 
Q 666 556 975 473 
Q 1284 391 1588 391 
Q 1994 391 2212 530 
Q 2431 669 2431 922 
Q 2431 1156 2273 1281 
Q 2116 1406 1581 1522 
L 1381 1569 
Q 847 1681 609 1914 
Q 372 2147 372 2553 
Q 372 3047 722 3315 
Q 1072 3584 1716 3584 
Q 2034 3584 2315 3537 
Q 2597 3491 2834 3397 
z
" transform="scale(0.015625)"/>
      </defs>
      <use xlink:href="#DejaVuSans-4e"/>
      <use xlink:href="#DejaVuSans-6f" x="74.804688"/>
      <use xlink:href="#DejaVuSans-64" x="135.986328"/>
      <use xlink:href="#DejaVuSans-65" x="199.462891"/>
      <use xlink:href="#DejaVuSans-73" x="260.986328"/>
     </g>
    </g>
   </g>
   <g id="matplotlib.axis_2">
    <g id="ytick_1">
     <g id="line2d_8">
      <defs>
       <path id="ma600d9e374" d="M 0 0 
L -3.5 0 
" style="stroke: #000000; stroke-width: 0.8"/>
      </defs>
      <g>
       <use xlink:href="#ma600d9e374" x="57.6" y="307.584" style="stroke: #000000; stroke-width: 0.8"/>
      </g>
     </g>
     <g id="text_9">
      <!-- 0.0 -->
      <g transform="translate(34.696875 311.383219) scale(0.1 -0.1)">
       <defs>
        <path id="DejaVuSans-30" d="M 2034 4250 
Q 1547 4250 1301 3770 
Q 1056 3291 1056 2328 
Q 1056 1369 1301 889 
Q 1547 409 2034 409 
Q 2525 409 2770 889 
Q 3016 1369 3016 2328 
Q 3016 3291 2770 3770 
Q 2525 4250 2034 4250 
z
M 2034 4750 
Q 2819 4750 3233 4129 
Q 3647 3509 3647 2328 
Q 3647 1150 3233 529 
Q 2819 -91 2034 -91 
Q 1250 -91 836 529 
Q 422 1150 422 2328 
Q 422 3509 836 4129 
Q 1250 4750 2034 4750 
z
" transform="scale(0.015625)"/>
        <path id="DejaVuSans-2e" d="M 684 794 
L 1344 794 
L 1344 0 
L 684 0 
L 684 794 
z
" transform="scale(0.015625)"/>
       </defs>
       <use xlink:href="#DejaVuSans-30"/>
       <use xlink:href="#DejaVuSans-2e" x="63.623047"/>
       <use xlink:href="#DejaVuSans-30" x="95.410156"/>
      </g>
     </g>
    </g>
    <g id="ytick_2">
     <g id="line2d_9">
      <g>
       <use xlink:href="#ma600d9e374" x="57.6" y="254.3616" style="stroke: #000000; stroke-width: 0.8"/>
      </g>
     </g>
     <g id="text_10">
      <!-- 0.2 -->
      <g transform="translate(34.696875 258.160819) scale(0.1 -0.1)">
       <use xlink:href="#DejaVuSans-30"/>
       <use xlink:href="#DejaVuSans-2e" x="63.623047"/>
       <use xlink:href="#DejaVuSans-32" x="95.410156"/>
      </g>
     </g>
    </g>
    <g id="ytick_3">
     <g id="line2d_10">
      <g>
       <use xlink:href="#ma600d9e374" x="57.6" y="201.1392" style="stroke: #000000; stroke-width: 0.8"/>
      </g>
     </g>
     <g id="text_11">
      <!-- 0.4 -->
      <g transform="translate(34.696875 204.938419) scale(0.1 -0.1)">
       <use xlink:href="#DejaVuSans-30"/>
       <use xlink:href="#DejaVuSans-2e" x="63.623047"/>
       <use xlink:href="#DejaVuSans-34" x="95.410156"/>
      </g>
     </g>
    </g>
    <g id="ytick_4">
     <g id="line2d_11">
      <g>
       <use xlink:href="#ma600d9e374" x="57.6" y="147.9168" style="stroke: #000000; stroke-width: 0.8"/>
      </g>
     </g>
     <g id="text_12">
      <!-- 0.6 -->
      <g transform="translate(34.696875 151.716019) scale(0.1 -0.1)">
       <use xlink:href="#DejaVuSans-30"/>
       <use xlink:href="#DejaVuSans-2e" x="63.623047"/>
       <use xlink:href="#DejaVuSans-36" x="95.410156"/>
      </g>
     </g>
    </g>
    <g id="ytick_5">
     <g id="line2d_12">
      <g>
       <use xlink:href="#ma600d9e374" x="57.6" y="94.6944" style="stroke: #000000; stroke-width: 0.8"/>
      </g>
     </g>
     <g id="text_13">
      <!-- 0.8 -->
      <g transform="translate(34.696875 98.493619) scale(0.1 -0.1)">
       <use xlink:href="#DejaVuSans-30"/>
       <use xlink:href="#DejaVuSans-2e" x="63.623047"/>
       <use xlink:href="#DejaVuSans-38" x="95.410156"/>
      </g>
     </g>
    </g>
    <g id="ytick_6">
     <g id="line2d_13">
      <g>
       <use xlink:href="#ma600d9e374" x="57.6" y="41.472" style="stroke: #000000; stroke-width: 0.8"/>
      </g>
     </g>
     <g id="text_14">
      <!-- 1.0 -->
      <g transform="translate(34.696875 45.271219) scale(0.1 -0.1)">
       <defs>
        <path id="DejaVuSans-31" d="M 794 531 
L 1825 531 
L 1825 4091 
L 703 3866 
L 703 4441 
L 1819 4666 
L 2450 4666 
L 2450 531 
L 3481 531 
L 3481 0 
L 794 0 
L 794 531 
z
" transform="scale(0.015625)"/>
       </defs>
       <use xlink:href="#DejaVuSans-31"/>
       <use xlink:href="#DejaVuSans-2e" x="63.623047"/>
       <use xlink:href="#DejaVuSans-30" x="95.410156"/>
      </g>
     </g>
    </g>
    <g id="text_15">
     <!-- F1 -->
     <g transform="translate(28.617188 180.585031) rotate(-90) scale(0.1 -0.1)">
      <defs>
       <path id="DejaVuSans-46" d="M 628 4666 
L 3309 4666 
L 3309 4134 
L 1259 4134 
L 1259 2759 
L 3109 2759 
L 3109 2228 
L 1259 2228 
L 1259 0 
L 628 0 
L 628 4666 
z
" transform="scale(0.015625)"/>
      </defs>
      <use xlink:href="#DejaVuSans-46"/>
      <use xlink:href="#DejaVuSans-31" x="57.519531"/>
     </g>
    </g>
   </g>
   <g id="line2d_14">
    <path d="M 64.969143 120.869549 
L 64.969143 88.34649 
" clip-path="url(#pd09a48f789)" style="fill: none; stroke: #424242; stroke-width: 2.7; stroke-linecap: square"/>
   </g>
   <g id="line2d_15">
    <path d="M 115.986286 189.84362 
L 115.986286 180.007852 
" clip-path="url(#pd09a48f789)" style="fill: none; stroke: #424242; stroke-width: 2.7; stroke-linecap: square"/>
   </g>
   <g id="line2d_16">
    <path d="M 167.003429 286.540878 
L 167.003429 272.570044 
" clip-path="url(#pd09a48f789)" style="fill: none; stroke: #424242; stroke-width: 2.7; stroke-linecap: square"/>
   </g>
   <g id="line2d_17">
    <path d="M 218.020571 306.206733 
L 218.020571 301.810467 
" clip-path="url(#pd09a48f789)" style="fill: none; stroke: #424242; stroke-width: 2.7; stroke-linecap: square"/>
   </g>
   <g id="line2d_18">
    <path d="M 269.037714 307.584 
L 269.037714 307.584 
" clip-path="url(#pd09a48f789)" style="fill: none; stroke: #424242; stroke-width: 2.7; stroke-linecap: square"/>
   </g>
   <g id="line2d_19">
    <path d="M 320.054857 307.584 
L 320.054857 307.584 
" clip-path="url(#pd09a48f789)" style="fill: none; stroke: #424242; stroke-width: 2.7; stroke-linecap: square"/>
   </g>
   <g id="line2d_20">
    <path d="M 371.072 307.584 
L 371.072 307.584 
" clip-path="url(#pd09a48f789)" style="fill: none; stroke: #424242; stroke-width: 2.7; stroke-linecap: square"/>
   </g>
   <g id="line2d_21">
    <path d="M 69.504 135.336799 
L 69.504 98.011016 
" clip-path="url(#pd09a48f789)" style="fill: none; stroke: #424242; stroke-width: 2.7; stroke-linecap: square"/>
   </g>
   <g id="line2d_22">
    <path d="M 120.521143 189.881803 
L 120.521143 179.48318 
" clip-path="url(#pd09a48f789)" style="fill: none; stroke: #424242; stroke-width: 2.7; stroke-linecap: square"/>
   </g>
   <g id="line2d_23">
    <path d="M 171.538286 278.108433 
L 171.538286 259.532383 
" clip-path="url(#pd09a48f789)" style="fill: none; stroke: #424242; stroke-width: 2.7; stroke-linecap: square"/>
   </g>
   <g id="line2d_24">
    <path d="M 222.555429 305.89779 
L 222.555429 299.930815 
" clip-path="url(#pd09a48f789)" style="fill: none; stroke: #424242; stroke-width: 2.7; stroke-linecap: square"/>
   </g>
   <g id="line2d_25">
    <path d="M 273.572571 307.584 
L 273.572571 307.584 
" clip-path="url(#pd09a48f789)" style="fill: none; stroke: #424242; stroke-width: 2.7; stroke-linecap: square"/>
   </g>
   <g id="line2d_26">
    <path d="M 324.589714 307.584 
L 324.589714 307.584 
" clip-path="url(#pd09a48f789)" style="fill: none; stroke: #424242; stroke-width: 2.7; stroke-linecap: square"/>
   </g>
   <g id="line2d_27">
    <path d="M 375.606857 307.584 
L 375.606857 307.584 
" clip-path="url(#pd09a48f789)" style="fill: none; stroke: #424242; stroke-width: 2.7; stroke-linecap: square"/>
   </g>
   <g id="line2d_28">
    <path d="M 74.038857 153.926469 
L 74.038857 111.142271 
" clip-path="url(#pd09a48f789)" style="fill: none; stroke: #424242; stroke-width: 2.7; stroke-linecap: square"/>
   </g>
   <g id="line2d_29">
    <path d="M 125.056 197.490101 
L 125.056 185.187803 
" clip-path="url(#pd09a48f789)" style="fill: none; stroke: #424242; stroke-width: 2.7; stroke-linecap: square"/>
   </g>
   <g id="line2d_30">
    <path d="M 176.073143 283.118416 
L 176.073143 268.991293 
" clip-path="url(#pd09a48f789)" style="fill: none; stroke: #424242; stroke-width: 2.7; stroke-linecap: square"/>
   </g>
   <g id="line2d_31">
    <path d="M 227.090286 306.657408 
L 227.090286 303.546378 
" clip-path="url(#pd09a48f789)" style="fill: none; stroke: #424242; stroke-width: 2.7; stroke-linecap: square"/>
   </g>
   <g id="line2d_32">
    <path d="M 278.107429 307.584 
L 278.107429 306.467282 
" clip-path="url(#pd09a48f789)" style="fill: none; stroke: #424242; stroke-width: 2.7; stroke-linecap: square"/>
   </g>
   <g id="line2d_33">
    <path d="M 329.124571 307.584 
L 329.124571 307.584 
" clip-path="url(#pd09a48f789)" style="fill: none; stroke: #424242; stroke-width: 2.7; stroke-linecap: square"/>
   </g>
   <g id="line2d_34">
    <path d="M 380.141714 307.584 
L 380.141714 307.584 
" clip-path="url(#pd09a48f789)" style="fill: none; stroke: #424242; stroke-width: 2.7; stroke-linecap: square"/>
   </g>
   <g id="line2d_35">
    <path d="M 78.573714 133.968313 
L 78.573714 100.082327 
" clip-path="url(#pd09a48f789)" style="fill: none; stroke: #424242; stroke-width: 2.7; stroke-linecap: square"/>
   </g>
   <g id="line2d_36">
    <path d="M 129.590857 194.936609 
L 129.590857 184.320778 
" clip-path="url(#pd09a48f789)" style="fill: none; stroke: #424242; stroke-width: 2.7; stroke-linecap: square"/>
   </g>
   <g id="line2d_37">
    <path d="M 180.608 283.165131 
L 180.608 270.757678 
" clip-path="url(#pd09a48f789)" style="fill: none; stroke: #424242; stroke-width: 2.7; stroke-linecap: square"/>
   </g>
   <g id="line2d_38">
    <path d="M 231.625143 305.370731 
L 231.625143 299.35964 
" clip-path="url(#pd09a48f789)" style="fill: none; stroke: #424242; stroke-width: 2.7; stroke-linecap: square"/>
   </g>
   <g id="line2d_39">
    <path d="M 282.642286 307.582448 
L 282.642286 307.470182 
" clip-path="url(#pd09a48f789)" style="fill: none; stroke: #424242; stroke-width: 2.7; stroke-linecap: square"/>
   </g>
   <g id="line2d_40">
    <path d="M 333.659429 307.584 
L 333.659429 307.584 
" clip-path="url(#pd09a48f789)" style="fill: none; stroke: #424242; stroke-width: 2.7; stroke-linecap: square"/>
   </g>
   <g id="line2d_41">
    <path d="M 384.676571 307.584 
L 384.676571 307.584 
" clip-path="url(#pd09a48f789)" style="fill: none; stroke: #424242; stroke-width: 2.7; stroke-linecap: square"/>
   </g>
   <g id="line2d_42">
    <path d="M 83.108571 153.47642 
L 83.108571 119.600332 
" clip-path="url(#pd09a48f789)" style="fill: none; stroke: #424242; stroke-width: 2.7; stroke-linecap: square"/>
   </g>
   <g id="line2d_43">
    <path d="M 134.125714 203.165763 
L 134.125714 189.722757 
" clip-path="url(#pd09a48f789)" style="fill: none; stroke: #424242; stroke-width: 2.7; stroke-linecap: square"/>
   </g>
   <g id="line2d_44">
    <path d="M 185.142857 284.373481 
L 185.142857 271.068669 
" clip-path="url(#pd09a48f789)" style="fill: none; stroke: #424242; stroke-width: 2.7; stroke-linecap: square"/>
   </g>
   <g id="line2d_45">
    <path d="M 236.16 306.526035 
L 236.16 302.676123 
" clip-path="url(#pd09a48f789)" style="fill: none; stroke: #424242; stroke-width: 2.7; stroke-linecap: square"/>
   </g>
   <g id="line2d_46">
    <path d="M 287.177143 307.584 
L 287.177143 307.172968 
" clip-path="url(#pd09a48f789)" style="fill: none; stroke: #424242; stroke-width: 2.7; stroke-linecap: square"/>
   </g>
   <g id="line2d_47">
    <path d="M 338.194286 307.584 
L 338.194286 307.584 
" clip-path="url(#pd09a48f789)" style="fill: none; stroke: #424242; stroke-width: 2.7; stroke-linecap: square"/>
   </g>
   <g id="line2d_48">
    <path d="M 389.211429 307.584 
L 389.211429 307.584 
" clip-path="url(#pd09a48f789)" style="fill: none; stroke: #424242; stroke-width: 2.7; stroke-linecap: square"/>
   </g>
   <g id="line2d_49">
    <path d="M 87.643429 176.739195 
L 87.643429 137.069194 
" clip-path="url(#pd09a48f789)" style="fill: none; stroke: #424242; stroke-width: 2.7; stroke-linecap: square"/>
   </g>
   <g id="line2d_50">
    <path d="M 138.660571 209.465823 
L 138.660571 194.125177 
" clip-path="url(#pd09a48f789)" style="fill: none; stroke: #424242; stroke-width: 2.7; stroke-linecap: square"/>
   </g>
   <g id="line2d_51">
    <path d="M 189.677714 285.350603 
L 189.677714 271.980984 
" clip-path="url(#pd09a48f789)" style="fill: none; stroke: #424242; stroke-width: 2.7; stroke-linecap: square"/>
   </g>
   <g id="line2d_52">
    <path d="M 240.694857 305.42943 
L 240.694857 299.546048 
" clip-path="url(#pd09a48f789)" style="fill: none; stroke: #424242; stroke-width: 2.7; stroke-linecap: square"/>
   </g>
   <g id="line2d_53">
    <path d="M 291.712 307.584 
L 291.712 305.958173 
" clip-path="url(#pd09a48f789)" style="fill: none; stroke: #424242; stroke-width: 2.7; stroke-linecap: square"/>
   </g>
   <g id="line2d_54">
    <path d="M 342.729143 307.584 
L 342.729143 307.584 
" clip-path="url(#pd09a48f789)" style="fill: none; stroke: #424242; stroke-width: 2.7; stroke-linecap: square"/>
   </g>
   <g id="line2d_55">
    <path d="M 393.746286 307.584 
L 393.746286 307.584 
" clip-path="url(#pd09a48f789)" style="fill: none; stroke: #424242; stroke-width: 2.7; stroke-linecap: square"/>
   </g>
   <g id="line2d_56">
    <path d="M 92.178286 156.601723 
L 92.178286 121.509709 
" clip-path="url(#pd09a48f789)" style="fill: none; stroke: #424242; stroke-width: 2.7; stroke-linecap: square"/>
   </g>
   <g id="line2d_57">
    <path d="M 143.195429 210.441073 
L 143.195429 195.91126 
" clip-path="url(#pd09a48f789)" style="fill: none; stroke: #424242; stroke-width: 2.7; stroke-linecap: square"/>
   </g>
   <g id="line2d_58">
    <path d="M 194.212571 280.52583 
L 194.212571 266.531026 
" clip-path="url(#pd09a48f789)" style="fill: none; stroke: #424242; stroke-width: 2.7; stroke-linecap: square"/>
   </g>
   <g id="line2d_59">
    <path d="M 245.229714 304.352092 
L 245.229714 299.290507 
" clip-path="url(#pd09a48f789)" style="fill: none; stroke: #424242; stroke-width: 2.7; stroke-linecap: square"/>
   </g>
   <g id="line2d_60">
    <path d="M 296.246857 307.582953 
L 296.246857 307.541245 
" clip-path="url(#pd09a48f789)" style="fill: none; stroke: #424242; stroke-width: 2.7; stroke-linecap: square"/>
   </g>
   <g id="line2d_61">
    <path d="M 347.264 307.584 
L 347.264 307.584 
" clip-path="url(#pd09a48f789)" style="fill: none; stroke: #424242; stroke-width: 2.7; stroke-linecap: square"/>
   </g>
   <g id="line2d_62">
    <path d="M 398.281143 307.584 
L 398.281143 307.584 
" clip-path="url(#pd09a48f789)" style="fill: none; stroke: #424242; stroke-width: 2.7; stroke-linecap: square"/>
   </g>
   <g id="line2d_63">
    <path d="M 96.713143 174.960173 
L 96.713143 137.757036 
" clip-path="url(#pd09a48f789)" style="fill: none; stroke: #424242; stroke-width: 2.7; stroke-linecap: square"/>
   </g>
   <g id="line2d_64">
    <path d="M 147.730286 225.172023 
L 147.730286 209.241492 
" clip-path="url(#pd09a48f789)" style="fill: none; stroke: #424242; stroke-width: 2.7; stroke-linecap: square"/>
   </g>
   <g id="line2d_65">
    <path d="M 198.747429 287.247458 
L 198.747429 275.46251 
" clip-path="url(#pd09a48f789)" style="fill: none; stroke: #424242; stroke-width: 2.7; stroke-linecap: square"/>
   </g>
   <g id="line2d_66">
    <path d="M 249.764571 304.97007 
L 249.764571 300.747229 
" clip-path="url(#pd09a48f789)" style="fill: none; stroke: #424242; stroke-width: 2.7; stroke-linecap: square"/>
   </g>
   <g id="line2d_67">
    <path d="M 300.781714 307.57478 
L 300.781714 307.325377 
" clip-path="url(#pd09a48f789)" style="fill: none; stroke: #424242; stroke-width: 2.7; stroke-linecap: square"/>
   </g>
   <g id="line2d_68">
    <path d="M 351.798857 307.584 
L 351.798857 307.584 
" clip-path="url(#pd09a48f789)" style="fill: none; stroke: #424242; stroke-width: 2.7; stroke-linecap: square"/>
   </g>
   <g id="line2d_69">
    <path d="M 402.816 307.584 
L 402.816 307.584 
" clip-path="url(#pd09a48f789)" style="fill: none; stroke: #424242; stroke-width: 2.7; stroke-linecap: square"/>
   </g>
   <g id="line2d_70">
    <path d="M 101.248 184.095358 
L 101.248 145.997956 
" clip-path="url(#pd09a48f789)" style="fill: none; stroke: #424242; stroke-width: 2.7; stroke-linecap: square"/>
   </g>
   <g id="line2d_71">
    <path d="M 152.265143 238.633137 
L 152.265143 222.10859 
" clip-path="url(#pd09a48f789)" style="fill: none; stroke: #424242; stroke-width: 2.7; stroke-linecap: square"/>
   </g>
   <g id="line2d_72">
    <path d="M 203.282286 289.465517 
L 203.282286 278.325724 
" clip-path="url(#pd09a48f789)" style="fill: none; stroke: #424242; stroke-width: 2.7; stroke-linecap: square"/>
   </g>
   <g id="line2d_73">
    <path d="M 254.299429 305.948774 
L 254.299429 302.554188 
" clip-path="url(#pd09a48f789)" style="fill: none; stroke: #424242; stroke-width: 2.7; stroke-linecap: square"/>
   </g>
   <g id="line2d_74">
    <path d="M 305.316571 307.584 
L 305.316571 307.49345 
" clip-path="url(#pd09a48f789)" style="fill: none; stroke: #424242; stroke-width: 2.7; stroke-linecap: square"/>
   </g>
   <g id="line2d_75">
    <path d="M 356.333714 307.584 
L 356.333714 307.584 
" clip-path="url(#pd09a48f789)" style="fill: none; stroke: #424242; stroke-width: 2.7; stroke-linecap: square"/>
   </g>
   <g id="line2d_76">
    <path d="M 407.350857 307.584 
L 407.350857 307.584 
" clip-path="url(#pd09a48f789)" style="fill: none; stroke: #424242; stroke-width: 2.7; stroke-linecap: square"/>
   </g>
   <g id="patch_66">
    <path d="M 57.6 307.584 
L 57.6 41.472 
" style="fill: none; stroke: #000000; stroke-width: 0.8; stroke-linejoin: miter; stroke-linecap: square"/>
   </g>
   <g id="patch_67">
    <path d="M 414.72 307.584 
L 414.72 41.472 
" style="fill: none; stroke: #000000; stroke-width: 0.8; stroke-linejoin: miter; stroke-linecap: square"/>
   </g>
   <g id="patch_68">
    <path d="M 57.6 307.584 
L 414.72 307.584 
" style="fill: none; stroke: #000000; stroke-width: 0.8; stroke-linejoin: miter; stroke-linecap: square"/>
   </g>
   <g id="patch_69">
    <path d="M 57.6 41.472 
L 414.72 41.472 
" style="fill: none; stroke: #000000; stroke-width: 0.8; stroke-linejoin: miter; stroke-linecap: square"/>
   </g>
   <g id="legend_1">
    <g id="patch_70">
     <path d="M 313.162188 199.0345 
L 407.72 199.0345 
Q 409.72 199.0345 409.72 197.0345 
L 409.72 48.472 
Q 409.72 46.472 407.72 46.472 
L 313.162188 46.472 
Q 311.162188 46.472 311.162188 48.472 
L 311.162188 197.0345 
Q 311.162188 199.0345 313.162188 199.0345 
z
" style="fill: #ffffff; opacity: 0.8; stroke: #cccccc; stroke-linejoin: miter"/>
    </g>
    <g id="text_16">
     <!-- Emb_sizexDensity -->
     <g transform="translate(315.162188 58.070437) scale(0.1 -0.1)">
      <defs>
       <path id="DejaVuSans-45" d="M 628 4666 
L 3578 4666 
L 3578 4134 
L 1259 4134 
L 1259 2753 
L 3481 2753 
L 3481 2222 
L 1259 2222 
L 1259 531 
L 3634 531 
L 3634 0 
L 628 0 
L 628 4666 
z
" transform="scale(0.015625)"/>
       <path id="DejaVuSans-6d" d="M 3328 2828 
Q 3544 3216 3844 3400 
Q 4144 3584 4550 3584 
Q 5097 3584 5394 3201 
Q 5691 2819 5691 2113 
L 5691 0 
L 5113 0 
L 5113 2094 
Q 5113 2597 4934 2840 
Q 4756 3084 4391 3084 
Q 3944 3084 3684 2787 
Q 3425 2491 3425 1978 
L 3425 0 
L 2847 0 
L 2847 2094 
Q 2847 2600 2669 2842 
Q 2491 3084 2119 3084 
Q 1678 3084 1418 2786 
Q 1159 2488 1159 1978 
L 1159 0 
L 581 0 
L 581 3500 
L 1159 3500 
L 1159 2956 
Q 1356 3278 1631 3431 
Q 1906 3584 2284 3584 
Q 2666 3584 2933 3390 
Q 3200 3197 3328 2828 
z
" transform="scale(0.015625)"/>
       <path id="DejaVuSans-62" d="M 3116 1747 
Q 3116 2381 2855 2742 
Q 2594 3103 2138 3103 
Q 1681 3103 1420 2742 
Q 1159 2381 1159 1747 
Q 1159 1113 1420 752 
Q 1681 391 2138 391 
Q 2594 391 2855 752 
Q 3116 1113 3116 1747 
z
M 1159 2969 
Q 1341 3281 1617 3432 
Q 1894 3584 2278 3584 
Q 2916 3584 3314 3078 
Q 3713 2572 3713 1747 
Q 3713 922 3314 415 
Q 2916 -91 2278 -91 
Q 1894 -91 1617 61 
Q 1341 213 1159 525 
L 1159 0 
L 581 0 
L 581 4863 
L 1159 4863 
L 1159 2969 
z
" transform="scale(0.015625)"/>
       <path id="DejaVuSans-5f" d="M 3263 -1063 
L 3263 -1509 
L -63 -1509 
L -63 -1063 
L 3263 -1063 
z
" transform="scale(0.015625)"/>
       <path id="DejaVuSans-69" d="M 603 3500 
L 1178 3500 
L 1178 0 
L 603 0 
L 603 3500 
z
M 603 4863 
L 1178 4863 
L 1178 4134 
L 603 4134 
L 603 4863 
z
" transform="scale(0.015625)"/>
       <path id="DejaVuSans-7a" d="M 353 3500 
L 3084 3500 
L 3084 2975 
L 922 459 
L 3084 459 
L 3084 0 
L 275 0 
L 275 525 
L 2438 3041 
L 353 3041 
L 353 3500 
z
" transform="scale(0.015625)"/>
       <path id="DejaVuSans-78" d="M 3513 3500 
L 2247 1797 
L 3578 0 
L 2900 0 
L 1881 1375 
L 863 0 
L 184 0 
L 1544 1831 
L 300 3500 
L 978 3500 
L 1906 2253 
L 2834 3500 
L 3513 3500 
z
" transform="scale(0.015625)"/>
       <path id="DejaVuSans-44" d="M 1259 4147 
L 1259 519 
L 2022 519 
Q 2988 519 3436 956 
Q 3884 1394 3884 2338 
Q 3884 3275 3436 3711 
Q 2988 4147 2022 4147 
L 1259 4147 
z
M 628 4666 
L 1925 4666 
Q 3281 4666 3915 4102 
Q 4550 3538 4550 2338 
Q 4550 1131 3912 565 
Q 3275 0 1925 0 
L 628 0 
L 628 4666 
z
" transform="scale(0.015625)"/>
       <path id="DejaVuSans-6e" d="M 3513 2113 
L 3513 0 
L 2938 0 
L 2938 2094 
Q 2938 2591 2744 2837 
Q 2550 3084 2163 3084 
Q 1697 3084 1428 2787 
Q 1159 2491 1159 1978 
L 1159 0 
L 581 0 
L 581 3500 
L 1159 3500 
L 1159 2956 
Q 1366 3272 1645 3428 
Q 1925 3584 2291 3584 
Q 2894 3584 3203 3211 
Q 3513 2838 3513 2113 
z
" transform="scale(0.015625)"/>
       <path id="DejaVuSans-74" d="M 1172 4494 
L 1172 3500 
L 2356 3500 
L 2356 3053 
L 1172 3053 
L 1172 1153 
Q 1172 725 1289 603 
Q 1406 481 1766 481 
L 2356 481 
L 2356 0 
L 1766 0 
Q 1100 0 847 248 
Q 594 497 594 1153 
L 594 3053 
L 172 3053 
L 172 3500 
L 594 3500 
L 594 4494 
L 1172 4494 
z
" transform="scale(0.015625)"/>
       <path id="DejaVuSans-79" d="M 2059 -325 
Q 1816 -950 1584 -1140 
Q 1353 -1331 966 -1331 
L 506 -1331 
L 506 -850 
L 844 -850 
Q 1081 -850 1212 -737 
Q 1344 -625 1503 -206 
L 1606 56 
L 191 3500 
L 800 3500 
L 1894 763 
L 2988 3500 
L 3597 3500 
L 2059 -325 
z
" transform="scale(0.015625)"/>
      </defs>
      <use xlink:href="#DejaVuSans-45"/>
      <use xlink:href="#DejaVuSans-6d" x="63.183594"/>
      <use xlink:href="#DejaVuSans-62" x="160.595703"/>
      <use xlink:href="#DejaVuSans-5f" x="224.072266"/>
      <use xlink:href="#DejaVuSans-73" x="274.072266"/>
      <use xlink:href="#DejaVuSans-69" x="326.171875"/>
      <use xlink:href="#DejaVuSans-7a" x="353.955078"/>
      <use xlink:href="#DejaVuSans-65" x="406.445312"/>
      <use xlink:href="#DejaVuSans-78" x="466.21875"/>
      <use xlink:href="#DejaVuSans-44" x="525.398438"/>
      <use xlink:href="#DejaVuSans-65" x="602.400391"/>
      <use xlink:href="#DejaVuSans-6e" x="663.923828"/>
      <use xlink:href="#DejaVuSans-73" x="727.302734"/>
      <use xlink:href="#DejaVuSans-69" x="779.402344"/>
      <use xlink:href="#DejaVuSans-74" x="807.185547"/>
      <use xlink:href="#DejaVuSans-79" x="846.394531"/>
     </g>
    </g>
    <g id="patch_71">
     <path d="M 334.397344 73.026687 
L 354.397344 73.026687 
L 354.397344 66.026687 
L 334.397344 66.026687 
z
" style="fill: #3274a1"/>
    </g>
    <g id="text_17">
     <!-- 10_2 -->
     <g transform="translate(362.397344 73.026687) scale(0.1 -0.1)">
      <use xlink:href="#DejaVuSans-31"/>
      <use xlink:href="#DejaVuSans-30" x="63.623047"/>
      <use xlink:href="#DejaVuSans-5f" x="127.246094"/>
      <use xlink:href="#DejaVuSans-32" x="177.246094"/>
     </g>
    </g>
    <g id="patch_72">
     <path d="M 334.397344 87.982937 
L 354.397344 87.982937 
L 354.397344 80.982937 
L 334.397344 80.982937 
z
" style="fill: #e1812c"/>
    </g>
    <g id="text_18">
     <!-- 10_4 -->
     <g transform="translate(362.397344 87.982937) scale(0.1 -0.1)">
      <use xlink:href="#DejaVuSans-31"/>
      <use xlink:href="#DejaVuSans-30" x="63.623047"/>
      <use xlink:href="#DejaVuSans-5f" x="127.246094"/>
      <use xlink:href="#DejaVuSans-34" x="177.246094"/>
     </g>
    </g>
    <g id="patch_73">
     <path d="M 334.397344 102.939188 
L 354.397344 102.939188 
L 354.397344 95.939188 
L 334.397344 95.939188 
z
" style="fill: #3a923a"/>
    </g>
    <g id="text_19">
     <!-- 10_6 -->
     <g transform="translate(362.397344 102.939188) scale(0.1 -0.1)">
      <use xlink:href="#DejaVuSans-31"/>
      <use xlink:href="#DejaVuSans-30" x="63.623047"/>
      <use xlink:href="#DejaVuSans-5f" x="127.246094"/>
      <use xlink:href="#DejaVuSans-36" x="177.246094"/>
     </g>
    </g>
    <g id="patch_74">
     <path d="M 334.397344 117.895437 
L 354.397344 117.895437 
L 354.397344 110.895437 
L 334.397344 110.895437 
z
" style="fill: #c03d3e"/>
    </g>
    <g id="text_20">
     <!-- 15_2 -->
     <g transform="translate(362.397344 117.895437) scale(0.1 -0.1)">
      <use xlink:href="#DejaVuSans-31"/>
      <use xlink:href="#DejaVuSans-35" x="63.623047"/>
      <use xlink:href="#DejaVuSans-5f" x="127.246094"/>
      <use xlink:href="#DejaVuSans-32" x="177.246094"/>
     </g>
    </g>
    <g id="patch_75">
     <path d="M 334.397344 132.851687 
L 354.397344 132.851687 
L 354.397344 125.851687 
L 334.397344 125.851687 
z
" style="fill: #9372b2"/>
    </g>
    <g id="text_21">
     <!-- 15_4 -->
     <g transform="translate(362.397344 132.851687) scale(0.1 -0.1)">
      <use xlink:href="#DejaVuSans-31"/>
      <use xlink:href="#DejaVuSans-35" x="63.623047"/>
      <use xlink:href="#DejaVuSans-5f" x="127.246094"/>
      <use xlink:href="#DejaVuSans-34" x="177.246094"/>
     </g>
    </g>
    <g id="patch_76">
     <path d="M 334.397344 147.807937 
L 354.397344 147.807937 
L 354.397344 140.807937 
L 334.397344 140.807937 
z
" style="fill: #845b53"/>
    </g>
    <g id="text_22">
     <!-- 15_6 -->
     <g transform="translate(362.397344 147.807937) scale(0.1 -0.1)">
      <use xlink:href="#DejaVuSans-31"/>
      <use xlink:href="#DejaVuSans-35" x="63.623047"/>
      <use xlink:href="#DejaVuSans-5f" x="127.246094"/>
      <use xlink:href="#DejaVuSans-36" x="177.246094"/>
     </g>
    </g>
    <g id="patch_77">
     <path d="M 334.397344 162.764187 
L 354.397344 162.764187 
L 354.397344 155.764187 
L 334.397344 155.764187 
z
" style="fill: #d684bd"/>
    </g>
    <g id="text_23">
     <!-- 20_2 -->
     <g transform="translate(362.397344 162.764187) scale(0.1 -0.1)">
      <use xlink:href="#DejaVuSans-32"/>
      <use xlink:href="#DejaVuSans-30" x="63.623047"/>
      <use xlink:href="#DejaVuSans-5f" x="127.246094"/>
      <use xlink:href="#DejaVuSans-32" x="177.246094"/>
     </g>
    </g>
    <g id="patch_78">
     <path d="M 334.397344 177.720437 
L 354.397344 177.720437 
L 354.397344 170.720437 
L 334.397344 170.720437 
z
" style="fill: #7f7f7f"/>
    </g>
    <g id="text_24">
     <!-- 20_4 -->
     <g transform="translate(362.397344 177.720437) scale(0.1 -0.1)">
      <use xlink:href="#DejaVuSans-32"/>
      <use xlink:href="#DejaVuSans-30" x="63.623047"/>
      <use xlink:href="#DejaVuSans-5f" x="127.246094"/>
      <use xlink:href="#DejaVuSans-34" x="177.246094"/>
     </g>
    </g>
    <g id="patch_79">
     <path d="M 334.397344 192.676687 
L 354.397344 192.676687 
L 354.397344 185.676687 
L 334.397344 185.676687 
z
" style="fill: #a9aa35"/>
    </g>
    <g id="text_25">
     <!-- 20_6 -->
     <g transform="translate(362.397344 192.676687) scale(0.1 -0.1)">
      <use xlink:href="#DejaVuSans-32"/>
      <use xlink:href="#DejaVuSans-30" x="63.623047"/>
      <use xlink:href="#DejaVuSans-5f" x="127.246094"/>
      <use xlink:href="#DejaVuSans-36" x="177.246094"/>
     </g>
    </g>
   </g>
  </g>
 </g>
 <defs>
  <clipPath id="pd09a48f789">
   <rect x="57.6" y="41.472" width="357.12" height="266.112"/>
  </clipPath>
 </defs>
</svg>
