<?xml version="1.0" encoding="utf-8" standalone="no"?>
<!DOCTYPE svg PUBLIC "-//W3C//DTD SVG 1.1//EN"
  "http://www.w3.org/Graphics/SVG/1.1/DTD/svg11.dtd">
<svg xmlns:xlink="http://www.w3.org/1999/xlink" width="460.8pt" height="345.6pt" viewBox="0 0 460.8 345.6" xmlns="http://www.w3.org/2000/svg" version="1.1">
 <metadata>
  <rdf:RDF xmlns:dc="http://purl.org/dc/elements/1.1/" xmlns:cc="http://creativecommons.org/ns#" xmlns:rdf="http://www.w3.org/1999/02/22-rdf-syntax-ns#">
   <cc:Work>
    <dc:type rdf:resource="http://purl.org/dc/dcmitype/StillImage"/>
    <dc:date>2025-04-23T17:07:57.298725</dc:date>
    <dc:format>image/svg+xml</dc:format>
    <dc:creator>
     <cc:Agent>
      <dc:title>Matplotlib v3.10.1, https://matplotlib.org/</dc:title>
     </cc:Agent>
    </dc:creator>
   </cc:Work>
  </rdf:RDF>
 </metadata>
 <defs>
  <style type="text/css">*{stroke-linejoin: round; stroke-linecap: butt}</style>
 </defs>
 <g id="figure_1">
  <g id="patch_1">
   <path d="M 0 345.6 
L 460.8 345.6 
L 460.8 0 
L 0 0 
z
" style="fill: #ffffff"/>
  </g>
  <g id="axes_1">
   <g id="patch_2">
    <path d="M 132.558 245.892 
L 430.992 245.892 
L 430.992 29.808 
L 132.558 29.808 
z
" style="fill: #ffffff"/>
   </g>
   <g id="patch_3">
    <path d="M 136.821343 245.892 
L 148.190257 245.892 
L 148.190257 108.737328 
L 136.821343 108.737328 
z
" clip-path="url(#pcbbe2cb641)" style="fill: #e9d4d0"/>
   </g>
   <g id="patch_4">
    <path d="M 179.454771 245.892 
L 190.823686 245.892 
L 190.823686 162.581773 
L 179.454771 162.581773 
z
" clip-path="url(#pcbbe2cb641)" style="fill: #e9d4d0"/>
   </g>
   <g id="patch_5">
    <path d="M 222.0882 245.892 
L 233.457114 245.892 
L 233.457114 226.878194 
L 222.0882 226.878194 
z
" clip-path="url(#pcbbe2cb641)" style="fill: #e9d4d0"/>
   </g>
   <g id="patch_6">
    <path d="M 264.721629 245.892 
L 276.090543 245.892 
L 276.090543 243.630624 
L 264.721629 243.630624 
z
" clip-path="url(#pcbbe2cb641)" style="fill: #e9d4d0"/>
   </g>
   <g id="patch_7">
    <path d="M 307.355057 245.892 
L 318.723971 245.892 
L 318.723971 245.892 
L 307.355057 245.892 
z
" clip-path="url(#pcbbe2cb641)" style="fill: #e9d4d0"/>
   </g>
   <g id="patch_8">
    <path d="M 349.988486 245.892 
L 361.3574 245.892 
L 361.3574 245.892 
L 349.988486 245.892 
z
" clip-path="url(#pcbbe2cb641)" style="fill: #e9d4d0"/>
   </g>
   <g id="patch_9">
    <path d="M 392.621914 245.892 
L 403.990829 245.892 
L 403.990829 245.892 
L 392.621914 245.892 
z
" clip-path="url(#pcbbe2cb641)" style="fill: #e9d4d0"/>
   </g>
   <g id="patch_10">
    <path d="M 148.190257 245.892 
L 159.559171 245.892 
L 159.559171 116.256635 
L 148.190257 116.256635 
z
" clip-path="url(#pcbbe2cb641)" style="fill: #a2708e"/>
   </g>
   <g id="patch_11">
    <path d="M 190.823686 245.892 
L 202.1926 245.892 
L 202.1926 162.391615 
L 190.823686 162.391615 
z
" clip-path="url(#pcbbe2cb641)" style="fill: #a2708e"/>
   </g>
   <g id="patch_12">
    <path d="M 233.457114 245.892 
L 244.826029 245.892 
L 244.826029 220.097579 
L 233.457114 220.097579 
z
" clip-path="url(#pcbbe2cb641)" style="fill: #a2708e"/>
   </g>
   <g id="patch_13">
    <path d="M 276.090543 245.892 
L 287.459457 245.892 
L 287.459457 242.937425 
L 276.090543 242.937425 
z
" clip-path="url(#pcbbe2cb641)" style="fill: #a2708e"/>
   </g>
   <g id="patch_14">
    <path d="M 318.723971 245.892 
L 330.092886 245.892 
L 330.092886 245.892 
L 318.723971 245.892 
z
" clip-path="url(#pcbbe2cb641)" style="fill: #a2708e"/>
   </g>
   <g id="patch_15">
    <path d="M 361.3574 245.892 
L 372.726314 245.892 
L 372.726314 245.892 
L 361.3574 245.892 
z
" clip-path="url(#pcbbe2cb641)" style="fill: #a2708e"/>
   </g>
   <g id="patch_16">
    <path d="M 403.990829 245.892 
L 415.359743 245.892 
L 415.359743 245.892 
L 403.990829 245.892 
z
" clip-path="url(#pcbbe2cb641)" style="fill: #a2708e"/>
   </g>
   <g id="patch_17">
    <path d="M 159.559171 245.892 
L 170.928086 245.892 
L 170.928086 126.725659 
L 159.559171 126.725659 
z
" clip-path="url(#pcbbe2cb641)" style="fill: #2d223a"/>
   </g>
   <g id="patch_18">
    <path d="M 202.1926 245.892 
L 213.561514 245.892 
L 213.561514 167.234123 
L 202.1926 167.234123 
z
" clip-path="url(#pcbbe2cb641)" style="fill: #2d223a"/>
   </g>
   <g id="patch_19">
    <path d="M 244.826029 245.892 
L 256.194943 245.892 
L 256.194943 224.655301 
L 244.826029 224.655301 
z
" clip-path="url(#pcbbe2cb641)" style="fill: #2d223a"/>
   </g>
   <g id="patch_20">
    <path d="M 287.459457 245.892 
L 298.828371 245.892 
L 298.828371 244.316029 
L 287.459457 244.316029 
z
" clip-path="url(#pcbbe2cb641)" style="fill: #2d223a"/>
   </g>
   <g id="patch_21">
    <path d="M 330.092886 245.892 
L 341.4618 245.892 
L 341.4618 245.640117 
L 330.092886 245.640117 
z
" clip-path="url(#pcbbe2cb641)" style="fill: #2d223a"/>
   </g>
   <g id="patch_22">
    <path d="M 372.726314 245.892 
L 384.095229 245.892 
L 384.095229 245.892 
L 372.726314 245.892 
z
" clip-path="url(#pcbbe2cb641)" style="fill: #2d223a"/>
   </g>
   <g id="patch_23">
    <path d="M 415.359743 245.892 
L 426.728657 245.892 
L 426.728657 245.892 
L 415.359743 245.892 
z
" clip-path="url(#pcbbe2cb641)" style="fill: #2d223a"/>
   </g>
   <g id="patch_24">
    <path d="M 153.874714 245.892 
L 153.874714 245.892 
L 153.874714 245.892 
L 153.874714 245.892 
z
" clip-path="url(#pcbbe2cb641)" style="fill: #e9d4d0"/>
   </g>
   <g id="patch_25">
    <path d="M 153.874714 245.892 
L 153.874714 245.892 
L 153.874714 245.892 
L 153.874714 245.892 
z
" clip-path="url(#pcbbe2cb641)" style="fill: #a2708e"/>
   </g>
   <g id="patch_26">
    <path d="M 153.874714 245.892 
L 153.874714 245.892 
L 153.874714 245.892 
L 153.874714 245.892 
z
" clip-path="url(#pcbbe2cb641)" style="fill: #2d223a"/>
   </g>
   <g id="matplotlib.axis_1">
    <g id="xtick_1">
     <g id="line2d_1">
      <defs>
       <path id="m537c59d807" d="M 0 0 
L 0 12 
" style="stroke: #000000; stroke-width: 2.5"/>
      </defs>
      <g>
       <use xlink:href="#m537c59d807" x="153.874714" y="245.892" style="stroke: #000000; stroke-width: 2.5"/>
      </g>
     </g>
     <g id="text_1">
      <!-- 2 -->
      <g transform="translate(145.826152 280.616047) scale(0.253 -0.253)">
       <defs>
        <path id="DejaVuSans-32" d="M 1228 531 
L 3431 531 
L 3431 0 
L 469 0 
L 469 531 
Q 828 903 1448 1529 
Q 2069 2156 2228 2338 
Q 2531 2678 2651 2914 
Q 2772 3150 2772 3378 
Q 2772 3750 2511 3984 
Q 2250 4219 1831 4219 
Q 1534 4219 1204 4116 
Q 875 4013 500 3803 
L 500 4441 
Q 881 4594 1212 4672 
Q 1544 4750 1819 4750 
Q 2544 4750 2975 4387 
Q 3406 4025 3406 3419 
Q 3406 3131 3298 2873 
Q 3191 2616 2906 2266 
Q 2828 2175 2409 1742 
Q 1991 1309 1228 531 
z
" transform="scale(0.015625)"/>
       </defs>
       <use xlink:href="#DejaVuSans-32"/>
      </g>
     </g>
    </g>
    <g id="xtick_2">
     <g id="line2d_2">
      <g>
       <use xlink:href="#m537c59d807" x="196.508143" y="245.892" style="stroke: #000000; stroke-width: 2.5"/>
      </g>
     </g>
     <g id="text_2">
      <!-- 3 -->
      <g transform="translate(188.45958 280.616047) scale(0.253 -0.253)">
       <defs>
        <path id="DejaVuSans-33" d="M 2597 2516 
Q 3050 2419 3304 2112 
Q 3559 1806 3559 1356 
Q 3559 666 3084 287 
Q 2609 -91 1734 -91 
Q 1441 -91 1130 -33 
Q 819 25 488 141 
L 488 750 
Q 750 597 1062 519 
Q 1375 441 1716 441 
Q 2309 441 2620 675 
Q 2931 909 2931 1356 
Q 2931 1769 2642 2001 
Q 2353 2234 1838 2234 
L 1294 2234 
L 1294 2753 
L 1863 2753 
Q 2328 2753 2575 2939 
Q 2822 3125 2822 3475 
Q 2822 3834 2567 4026 
Q 2313 4219 1838 4219 
Q 1578 4219 1281 4162 
Q 984 4106 628 3988 
L 628 4550 
Q 988 4650 1302 4700 
Q 1616 4750 1894 4750 
Q 2613 4750 3031 4423 
Q 3450 4097 3450 3541 
Q 3450 3153 3228 2886 
Q 3006 2619 2597 2516 
z
" transform="scale(0.015625)"/>
       </defs>
       <use xlink:href="#DejaVuSans-33"/>
      </g>
     </g>
    </g>
    <g id="xtick_3">
     <g id="line2d_3">
      <g>
       <use xlink:href="#m537c59d807" x="239.141571" y="245.892" style="stroke: #000000; stroke-width: 2.5"/>
      </g>
     </g>
     <g id="text_3">
      <!-- 4 -->
      <g transform="translate(231.093009 280.616047) scale(0.253 -0.253)">
       <defs>
        <path id="DejaVuSans-34" d="M 2419 4116 
L 825 1625 
L 2419 1625 
L 2419 4116 
z
M 2253 4666 
L 3047 4666 
L 3047 1625 
L 3713 1625 
L 3713 1100 
L 3047 1100 
L 3047 0 
L 2419 0 
L 2419 1100 
L 313 1100 
L 313 1709 
L 2253 4666 
z
" transform="scale(0.015625)"/>
       </defs>
       <use xlink:href="#DejaVuSans-34"/>
      </g>
     </g>
    </g>
    <g id="xtick_4">
     <g id="line2d_4">
      <g>
       <use xlink:href="#m537c59d807" x="281.775" y="245.892" style="stroke: #000000; stroke-width: 2.5"/>
      </g>
     </g>
     <g id="text_4">
      <!-- 5 -->
      <g transform="translate(273.726437 280.616047) scale(0.253 -0.253)">
       <defs>
        <path id="DejaVuSans-35" d="M 691 4666 
L 3169 4666 
L 3169 4134 
L 1269 4134 
L 1269 2991 
Q 1406 3038 1543 3061 
Q 1681 3084 1819 3084 
Q 2600 3084 3056 2656 
Q 3513 2228 3513 1497 
Q 3513 744 3044 326 
Q 2575 -91 1722 -91 
Q 1428 -91 1123 -41 
Q 819 9 494 109 
L 494 744 
Q 775 591 1075 516 
Q 1375 441 1709 441 
Q 2250 441 2565 725 
Q 2881 1009 2881 1497 
Q 2881 1984 2565 2268 
Q 2250 2553 1709 2553 
Q 1456 2553 1204 2497 
Q 953 2441 691 2322 
L 691 4666 
z
" transform="scale(0.015625)"/>
       </defs>
       <use xlink:href="#DejaVuSans-35"/>
      </g>
     </g>
    </g>
    <g id="xtick_5">
     <g id="line2d_5">
      <g>
       <use xlink:href="#m537c59d807" x="324.408429" y="245.892" style="stroke: #000000; stroke-width: 2.5"/>
      </g>
     </g>
     <g id="text_5">
      <!-- 6 -->
      <g transform="translate(316.359866 280.616047) scale(0.253 -0.253)">
       <defs>
        <path id="DejaVuSans-36" d="M 2113 2584 
Q 1688 2584 1439 2293 
Q 1191 2003 1191 1497 
Q 1191 994 1439 701 
Q 1688 409 2113 409 
Q 2538 409 2786 701 
Q 3034 994 3034 1497 
Q 3034 2003 2786 2293 
Q 2538 2584 2113 2584 
z
M 3366 4563 
L 3366 3988 
Q 3128 4100 2886 4159 
Q 2644 4219 2406 4219 
Q 1781 4219 1451 3797 
Q 1122 3375 1075 2522 
Q 1259 2794 1537 2939 
Q 1816 3084 2150 3084 
Q 2853 3084 3261 2657 
Q 3669 2231 3669 1497 
Q 3669 778 3244 343 
Q 2819 -91 2113 -91 
Q 1303 -91 875 529 
Q 447 1150 447 2328 
Q 447 3434 972 4092 
Q 1497 4750 2381 4750 
Q 2619 4750 2861 4703 
Q 3103 4656 3366 4563 
z
" transform="scale(0.015625)"/>
       </defs>
       <use xlink:href="#DejaVuSans-36"/>
      </g>
     </g>
    </g>
    <g id="xtick_6">
     <g id="line2d_6">
      <g>
       <use xlink:href="#m537c59d807" x="367.041857" y="245.892" style="stroke: #000000; stroke-width: 2.5"/>
      </g>
     </g>
     <g id="text_6">
      <!-- 7 -->
      <g transform="translate(358.993295 280.616047) scale(0.253 -0.253)">
       <defs>
        <path id="DejaVuSans-37" d="M 525 4666 
L 3525 4666 
L 3525 4397 
L 1831 0 
L 1172 0 
L 2766 4134 
L 525 4134 
L 525 4666 
z
" transform="scale(0.015625)"/>
       </defs>
       <use xlink:href="#DejaVuSans-37"/>
      </g>
     </g>
    </g>
    <g id="xtick_7">
     <g id="line2d_7">
      <g>
       <use xlink:href="#m537c59d807" x="409.675286" y="245.892" style="stroke: #000000; stroke-width: 2.5"/>
      </g>
     </g>
     <g id="text_7">
      <!-- 8 -->
      <g transform="translate(401.626723 280.616047) scale(0.253 -0.253)">
       <defs>
        <path id="DejaVuSans-38" d="M 2034 2216 
Q 1584 2216 1326 1975 
Q 1069 1734 1069 1313 
Q 1069 891 1326 650 
Q 1584 409 2034 409 
Q 2484 409 2743 651 
Q 3003 894 3003 1313 
Q 3003 1734 2745 1975 
Q 2488 2216 2034 2216 
z
M 1403 2484 
Q 997 2584 770 2862 
Q 544 3141 544 3541 
Q 544 4100 942 4425 
Q 1341 4750 2034 4750 
Q 2731 4750 3128 4425 
Q 3525 4100 3525 3541 
Q 3525 3141 3298 2862 
Q 3072 2584 2669 2484 
Q 3125 2378 3379 2068 
Q 3634 1759 3634 1313 
Q 3634 634 3220 271 
Q 2806 -91 2034 -91 
Q 1263 -91 848 271 
Q 434 634 434 1313 
Q 434 1759 690 2068 
Q 947 2378 1403 2484 
z
M 1172 3481 
Q 1172 3119 1398 2916 
Q 1625 2713 2034 2713 
Q 2441 2713 2670 2916 
Q 2900 3119 2900 3481 
Q 2900 3844 2670 4047 
Q 2441 4250 2034 4250 
Q 1625 4250 1398 4047 
Q 1172 3844 1172 3481 
z
" transform="scale(0.015625)"/>
       </defs>
       <use xlink:href="#DejaVuSans-38"/>
      </g>
     </g>
    </g>
    <g id="text_8">
     <!-- Nodes -->
     <g transform="translate(238.565906 310.849344) scale(0.276 -0.276)">
      <defs>
       <path id="DejaVuSans-4e" d="M 628 4666 
L 1478 4666 
L 3547 763 
L 3547 4666 
L 4159 4666 
L 4159 0 
L 3309 0 
L 1241 3903 
L 1241 0 
L 628 0 
L 628 4666 
z
" transform="scale(0.015625)"/>
       <path id="DejaVuSans-6f" d="M 1959 3097 
Q 1497 3097 1228 2736 
Q 959 2375 959 1747 
Q 959 1119 1226 758 
Q 1494 397 1959 397 
Q 2419 397 2687 759 
Q 2956 1122 2956 1747 
Q 2956 2369 2687 2733 
Q 2419 3097 1959 3097 
z
M 1959 3584 
Q 2709 3584 3137 3096 
Q 3566 2609 3566 1747 
Q 3566 888 3137 398 
Q 2709 -91 1959 -91 
Q 1206 -91 779 398 
Q 353 888 353 1747 
Q 353 2609 779 3096 
Q 1206 3584 1959 3584 
z
" transform="scale(0.015625)"/>
       <path id="DejaVuSans-64" d="M 2906 2969 
L 2906 4863 
L 3481 4863 
L 3481 0 
L 2906 0 
L 2906 525 
Q 2725 213 2448 61 
Q 2172 -91 1784 -91 
Q 1150 -91 751 415 
Q 353 922 353 1747 
Q 353 2572 751 3078 
Q 1150 3584 1784 3584 
Q 2172 3584 2448 3432 
Q 2725 3281 2906 2969 
z
M 947 1747 
Q 947 1113 1208 752 
Q 1469 391 1925 391 
Q 2381 391 2643 752 
Q 2906 1113 2906 1747 
Q 2906 2381 2643 2742 
Q 2381 3103 1925 3103 
Q 1469 3103 1208 2742 
Q 947 2381 947 1747 
z
" transform="scale(0.015625)"/>
       <path id="DejaVuSans-65" d="M 3597 1894 
L 3597 1613 
L 953 1613 
Q 991 1019 1311 708 
Q 1631 397 2203 397 
Q 2534 397 2845 478 
Q 3156 559 3463 722 
L 3463 178 
Q 3153 47 2828 -22 
Q 2503 -91 2169 -91 
Q 1331 -91 842 396 
Q 353 884 353 1716 
Q 353 2575 817 3079 
Q 1281 3584 2069 3584 
Q 2775 3584 3186 3129 
Q 3597 2675 3597 1894 
z
M 3022 2063 
Q 3016 2534 2758 2815 
Q 2500 3097 2075 3097 
Q 1594 3097 1305 2825 
Q 1016 2553 972 2059 
L 3022 2063 
z
" transform="scale(0.015625)"/>
       <path id="DejaVuSans-73" d="M 2834 3397 
L 2834 2853 
Q 2591 2978 2328 3040 
Q 2066 3103 1784 3103 
Q 1356 3103 1142 2972 
Q 928 2841 928 2578 
Q 928 2378 1081 2264 
Q 1234 2150 1697 2047 
L 1894 2003 
Q 2506 1872 2764 1633 
Q 3022 1394 3022 966 
Q 3022 478 2636 193 
Q 2250 -91 1575 -91 
Q 1294 -91 989 -36 
Q 684 19 347 128 
L 347 722 
Q 666 556 975 473 
Q 1284 391 1588 391 
Q 1994 391 2212 530 
Q 2431 669 2431 922 
Q 2431 1156 2273 1281 
Q 2116 1406 1581 1522 
L 1381 1569 
Q 847 1681 609 1914 
Q 372 2147 372 2553 
Q 372 3047 722 3315 
Q 1072 3584 1716 3584 
Q 2034 3584 2315 3537 
Q 2597 3491 2834 3397 
z
" transform="scale(0.015625)"/>
      </defs>
      <use xlink:href="#DejaVuSans-4e"/>
      <use xlink:href="#DejaVuSans-6f" transform="translate(74.804688 0)"/>
      <use xlink:href="#DejaVuSans-64" transform="translate(135.986328 0)"/>
      <use xlink:href="#DejaVuSans-65" transform="translate(199.462891 0)"/>
      <use xlink:href="#DejaVuSans-73" transform="translate(260.986328 0)"/>
     </g>
    </g>
   </g>
   <g id="matplotlib.axis_2">
    <g id="ytick_1">
     <g id="line2d_8">
      <defs>
       <path id="m75cb7078af" d="M 0 0 
L -12 0 
" style="stroke: #000000; stroke-width: 2.5"/>
      </defs>
      <g>
       <use xlink:href="#m75cb7078af" x="132.558" y="245.892" style="stroke: #000000; stroke-width: 2.5"/>
      </g>
     </g>
     <g id="text_9">
      <!-- 0.0 -->
      <g transform="translate(76.823094 255.504023) scale(0.253 -0.253)">
       <defs>
        <path id="DejaVuSans-30" d="M 2034 4250 
Q 1547 4250 1301 3770 
Q 1056 3291 1056 2328 
Q 1056 1369 1301 889 
Q 1547 409 2034 409 
Q 2525 409 2770 889 
Q 3016 1369 3016 2328 
Q 3016 3291 2770 3770 
Q 2525 4250 2034 4250 
z
M 2034 4750 
Q 2819 4750 3233 4129 
Q 3647 3509 3647 2328 
Q 3647 1150 3233 529 
Q 2819 -91 2034 -91 
Q 1250 -91 836 529 
Q 422 1150 422 2328 
Q 422 3509 836 4129 
Q 1250 4750 2034 4750 
z
" transform="scale(0.015625)"/>
        <path id="DejaVuSans-2e" d="M 684 794 
L 1344 794 
L 1344 0 
L 684 0 
L 684 794 
z
" transform="scale(0.015625)"/>
       </defs>
       <use xlink:href="#DejaVuSans-30"/>
       <use xlink:href="#DejaVuSans-2e" transform="translate(63.623047 0)"/>
       <use xlink:href="#DejaVuSans-30" transform="translate(95.410156 0)"/>
      </g>
     </g>
    </g>
    <g id="ytick_2">
     <g id="line2d_9">
      <g>
       <use xlink:href="#m75cb7078af" x="132.558" y="155.857" style="stroke: #000000; stroke-width: 2.5"/>
      </g>
     </g>
     <g id="text_10">
      <!-- 0.5 -->
      <g transform="translate(76.823094 165.469023) scale(0.253 -0.253)">
       <use xlink:href="#DejaVuSans-30"/>
       <use xlink:href="#DejaVuSans-2e" transform="translate(63.623047 0)"/>
       <use xlink:href="#DejaVuSans-35" transform="translate(95.410156 0)"/>
      </g>
     </g>
    </g>
    <g id="ytick_3">
     <g id="line2d_10">
      <g>
       <use xlink:href="#m75cb7078af" x="132.558" y="65.822" style="stroke: #000000; stroke-width: 2.5"/>
      </g>
     </g>
     <g id="text_11">
      <!-- 1.0 -->
      <g transform="translate(76.823094 75.434023) scale(0.253 -0.253)">
       <defs>
        <path id="DejaVuSans-31" d="M 794 531 
L 1825 531 
L 1825 4091 
L 703 3866 
L 703 4441 
L 1819 4666 
L 2450 4666 
L 2450 531 
L 3481 531 
L 3481 0 
L 794 0 
L 794 531 
z
" transform="scale(0.015625)"/>
       </defs>
       <use xlink:href="#DejaVuSans-31"/>
       <use xlink:href="#DejaVuSans-2e" transform="translate(63.623047 0)"/>
       <use xlink:href="#DejaVuSans-30" transform="translate(95.410156 0)"/>
      </g>
     </g>
    </g>
    <g id="text_12">
     <!-- $F(1)$ -->
     <g transform="translate(67.083156 165.45) rotate(-90) scale(0.276 -0.276)">
      <defs>
       <path id="DejaVuSans-Oblique-46" d="M 1081 4666 
L 3756 4666 
L 3653 4134 
L 1606 4134 
L 1338 2759 
L 3188 2759 
L 3084 2228 
L 1234 2228 
L 800 0 
L 172 0 
L 1081 4666 
z
" transform="scale(0.015625)"/>
       <path id="DejaVuSans-28" d="M 1984 4856 
Q 1566 4138 1362 3434 
Q 1159 2731 1159 2009 
Q 1159 1288 1364 580 
Q 1569 -128 1984 -844 
L 1484 -844 
Q 1016 -109 783 600 
Q 550 1309 550 2009 
Q 550 2706 781 3412 
Q 1013 4119 1484 4856 
L 1984 4856 
z
" transform="scale(0.015625)"/>
       <path id="DejaVuSans-29" d="M 513 4856 
L 1013 4856 
Q 1481 4119 1714 3412 
Q 1947 2706 1947 2009 
Q 1947 1309 1714 600 
Q 1481 -109 1013 -844 
L 513 -844 
Q 928 -128 1133 580 
Q 1338 1288 1338 2009 
Q 1338 2731 1133 3434 
Q 928 4138 513 4856 
z
" transform="scale(0.015625)"/>
      </defs>
      <use xlink:href="#DejaVuSans-Oblique-46" transform="translate(0 0.125)"/>
      <use xlink:href="#DejaVuSans-28" transform="translate(57.519531 0.125)"/>
      <use xlink:href="#DejaVuSans-31" transform="translate(96.533203 0.125)"/>
      <use xlink:href="#DejaVuSans-29" transform="translate(160.15625 0.125)"/>
     </g>
    </g>
   </g>
   <g id="line2d_11">
    <path d="M 142.5058 120.074591 
L 142.5058 98.159356 
" clip-path="url(#pcbbe2cb641)" style="fill: none; stroke: #424242; stroke-width: 4.5; stroke-linecap: square"/>
   </g>
   <g id="line2d_12">
    <path d="M 185.139229 166.069832 
L 185.139229 159.582946 
" clip-path="url(#pcbbe2cb641)" style="fill: none; stroke: #424242; stroke-width: 4.5; stroke-linecap: square"/>
   </g>
   <g id="line2d_13">
    <path d="M 227.772657 231.475202 
L 227.772657 222.098374 
" clip-path="url(#pcbbe2cb641)" style="fill: none; stroke: #424242; stroke-width: 4.5; stroke-linecap: square"/>
   </g>
   <g id="line2d_14">
    <path d="M 270.406086 245.080517 
L 270.406086 242.079597 
" clip-path="url(#pcbbe2cb641)" style="fill: none; stroke: #424242; stroke-width: 4.5; stroke-linecap: square"/>
   </g>
   <g id="line2d_15">
    <path d="M 313.039514 245.892 
L 313.039514 245.892 
" clip-path="url(#pcbbe2cb641)" style="fill: none; stroke: #424242; stroke-width: 4.5; stroke-linecap: square"/>
   </g>
   <g id="line2d_16">
    <path d="M 355.672943 245.892 
L 355.672943 245.892 
" clip-path="url(#pcbbe2cb641)" style="fill: none; stroke: #424242; stroke-width: 4.5; stroke-linecap: square"/>
   </g>
   <g id="line2d_17">
    <path d="M 398.306371 245.892 
L 398.306371 245.892 
" clip-path="url(#pcbbe2cb641)" style="fill: none; stroke: #424242; stroke-width: 4.5; stroke-linecap: square"/>
   </g>
   <g id="line2d_18">
    <path d="M 153.874714 128.729079 
L 153.874714 103.591427 
" clip-path="url(#pcbbe2cb641)" style="fill: none; stroke: #424242; stroke-width: 4.5; stroke-linecap: square"/>
   </g>
   <g id="line2d_19">
    <path d="M 196.508143 166.116747 
L 196.508143 159.221153 
" clip-path="url(#pcbbe2cb641)" style="fill: none; stroke: #424242; stroke-width: 4.5; stroke-linecap: square"/>
   </g>
   <g id="line2d_20">
    <path d="M 239.141571 225.723875 
L 239.141571 214.072888 
" clip-path="url(#pcbbe2cb641)" style="fill: none; stroke: #424242; stroke-width: 4.5; stroke-linecap: square"/>
   </g>
   <g id="line2d_21">
    <path d="M 281.775 244.69985 
L 281.775 240.78155 
" clip-path="url(#pcbbe2cb641)" style="fill: none; stroke: #424242; stroke-width: 4.5; stroke-linecap: square"/>
   </g>
   <g id="line2d_22">
    <path d="M 324.408429 245.892 
L 324.408429 245.892 
" clip-path="url(#pcbbe2cb641)" style="fill: none; stroke: #424242; stroke-width: 4.5; stroke-linecap: square"/>
   </g>
   <g id="line2d_23">
    <path d="M 367.041857 245.892 
L 367.041857 245.892 
" clip-path="url(#pcbbe2cb641)" style="fill: none; stroke: #424242; stroke-width: 4.5; stroke-linecap: square"/>
   </g>
   <g id="line2d_24">
    <path d="M 409.675286 245.892 
L 409.675286 245.892 
" clip-path="url(#pcbbe2cb641)" style="fill: none; stroke: #424242; stroke-width: 4.5; stroke-linecap: square"/>
   </g>
   <g id="line2d_25">
    <path d="M 165.243629 141.698164 
L 165.243629 111.993875 
" clip-path="url(#pcbbe2cb641)" style="fill: none; stroke: #424242; stroke-width: 4.5; stroke-linecap: square"/>
   </g>
   <g id="line2d_26">
    <path d="M 207.877057 171.688889 
L 207.877057 163.126095 
" clip-path="url(#pcbbe2cb641)" style="fill: none; stroke: #424242; stroke-width: 4.5; stroke-linecap: square"/>
   </g>
   <g id="line2d_27">
    <path d="M 250.510486 229.139951 
L 250.510486 220.048051 
" clip-path="url(#pcbbe2cb641)" style="fill: none; stroke: #424242; stroke-width: 4.5; stroke-linecap: square"/>
   </g>
   <g id="line2d_28">
    <path d="M 293.143914 245.239204 
L 293.143914 243.195165 
" clip-path="url(#pcbbe2cb641)" style="fill: none; stroke: #424242; stroke-width: 4.5; stroke-linecap: square"/>
   </g>
   <g id="line2d_29">
    <path d="M 335.777343 245.892 
L 335.777343 245.13635 
" clip-path="url(#pcbbe2cb641)" style="fill: none; stroke: #424242; stroke-width: 4.5; stroke-linecap: square"/>
   </g>
   <g id="line2d_30">
    <path d="M 378.410771 245.892 
L 378.410771 245.892 
" clip-path="url(#pcbbe2cb641)" style="fill: none; stroke: #424242; stroke-width: 4.5; stroke-linecap: square"/>
   </g>
   <g id="line2d_31">
    <path d="M 421.0442 245.892 
L 421.0442 245.892 
" clip-path="url(#pcbbe2cb641)" style="fill: none; stroke: #424242; stroke-width: 4.5; stroke-linecap: square"/>
   </g>
   <g id="patch_27">
    <path d="M 132.558 245.892 
L 132.558 29.808 
" style="fill: none; stroke: #000000; stroke-width: 2.5; stroke-linejoin: miter; stroke-linecap: square"/>
   </g>
   <g id="patch_28">
    <path d="M 430.992 245.892 
L 430.992 29.808 
" style="fill: none; stroke: #000000; stroke-width: 2.5; stroke-linejoin: miter; stroke-linecap: square"/>
   </g>
   <g id="patch_29">
    <path d="M 132.558 245.892 
L 430.992 245.892 
" style="fill: none; stroke: #000000; stroke-width: 2.5; stroke-linejoin: miter; stroke-linecap: square"/>
   </g>
   <g id="patch_30">
    <path d="M 132.558 29.808 
L 430.992 29.808 
" style="fill: none; stroke: #000000; stroke-width: 2.5; stroke-linejoin: miter; stroke-linecap: square"/>
   </g>
  </g>
 </g>
 <defs>
  <clipPath id="pcbbe2cb641">
   <rect x="132.558" y="29.808" width="298.434" height="216.084"/>
  </clipPath>
 </defs>
</svg>
