<?xml version="1.0" encoding="utf-8" standalone="no"?>
<!DOCTYPE svg PUBLIC "-//W3C//DTD SVG 1.1//EN"
  "http://www.w3.org/Graphics/SVG/1.1/DTD/svg11.dtd">
<!-- Created with matplotlib (http://matplotlib.org/) -->
<svg height="345.6pt" version="1.1" viewBox="0 0 460.8 345.6" width="460.8pt" xmlns="http://www.w3.org/2000/svg" xmlns:xlink="http://www.w3.org/1999/xlink">
 <defs>
  <style type="text/css">
*{stroke-linecap:butt;stroke-linejoin:round;}
  </style>
 </defs>
 <g id="figure_1">
  <g id="patch_1">
   <path d="M 0 345.6 
L 460.8 345.6 
L 460.8 0 
L 0 0 
z
" style="fill:#ffffff;"/>
  </g>
  <g id="axes_1">
   <g id="patch_2">
    <path d="M 104.91 255.54 
L 426.24 255.54 
L 426.24 34.56 
L 104.91 34.56 
z
" style="fill:#ffffff;"/>
   </g>
   <g id="patch_3">
    <path clip-path="url(#p72742d470a)" d="M 119.515909 255.54 
L 130.971524 255.54 
L 130.971524 133.673606 
L 119.515909 133.673606 
z
" style="fill:#e9d4d0;"/>
   </g>
   <g id="patch_4">
    <path clip-path="url(#p72742d470a)" d="M 162.474465 255.54 
L 173.93008 255.54 
L 173.93008 175.099904 
L 162.474465 175.099904 
z
" style="fill:#e9d4d0;"/>
   </g>
   <g id="patch_5">
    <path clip-path="url(#p72742d470a)" d="M 205.433021 255.54 
L 216.888636 255.54 
L 216.888636 233.822123 
L 205.433021 233.822123 
z
" style="fill:#e9d4d0;"/>
   </g>
   <g id="patch_6">
    <path clip-path="url(#p72742d470a)" d="M 248.391578 255.54 
L 259.847193 255.54 
L 259.847193 253.92832 
L 248.391578 253.92832 
z
" style="fill:#e9d4d0;"/>
   </g>
   <g id="patch_7">
    <path clip-path="url(#p72742d470a)" d="M 291.350134 255.54 
L 302.805749 255.54 
L 302.805749 255.28241 
L 291.350134 255.28241 
z
" style="fill:#e9d4d0;"/>
   </g>
   <g id="patch_8">
    <path clip-path="url(#p72742d470a)" d="M 334.30869 255.54 
L 345.764305 255.54 
L 345.764305 255.54 
L 334.30869 255.54 
z
" style="fill:#e9d4d0;"/>
   </g>
   <g id="patch_9">
    <path clip-path="url(#p72742d470a)" d="M 377.267246 255.54 
L 388.722861 255.54 
L 388.722861 255.54 
L 377.267246 255.54 
z
" style="fill:#e9d4d0;"/>
   </g>
   <g id="patch_10">
    <path clip-path="url(#p72742d470a)" d="M 130.971524 255.54 
L 142.427139 255.54 
L 142.427139 151.183312 
L 130.971524 151.183312 
z
" style="fill:#a2708e;"/>
   </g>
   <g id="patch_11">
    <path clip-path="url(#p72742d470a)" d="M 173.93008 255.54 
L 185.385695 255.54 
L 185.385695 181.916282 
L 173.93008 181.916282 
z
" style="fill:#a2708e;"/>
   </g>
   <g id="patch_12">
    <path clip-path="url(#p72742d470a)" d="M 216.888636 255.54 
L 228.344251 255.54 
L 228.344251 235.60937 
L 216.888636 235.60937 
z
" style="fill:#a2708e;"/>
   </g>
   <g id="patch_13">
    <path clip-path="url(#p72742d470a)" d="M 259.847193 255.54 
L 271.302807 255.54 
L 271.302807 252.377638 
L 259.847193 252.377638 
z
" style="fill:#a2708e;"/>
   </g>
   <g id="patch_14">
    <path clip-path="url(#p72742d470a)" d="M 302.805749 255.54 
L 314.261364 255.54 
L 314.261364 255.155991 
L 302.805749 255.155991 
z
" style="fill:#a2708e;"/>
   </g>
   <g id="patch_15">
    <path clip-path="url(#p72742d470a)" d="M 345.764305 255.54 
L 357.21992 255.54 
L 357.21992 255.54 
L 345.764305 255.54 
z
" style="fill:#a2708e;"/>
   </g>
   <g id="patch_16">
    <path clip-path="url(#p72742d470a)" d="M 388.722861 255.54 
L 400.178476 255.54 
L 400.178476 255.54 
L 388.722861 255.54 
z
" style="fill:#a2708e;"/>
   </g>
   <g id="patch_17">
    <path clip-path="url(#p72742d470a)" d="M 142.427139 255.54 
L 153.882754 255.54 
L 153.882754 157.169558 
L 142.427139 157.169558 
z
" style="fill:#2d223a;"/>
   </g>
   <g id="patch_18">
    <path clip-path="url(#p72742d470a)" d="M 185.385695 255.54 
L 196.84131 255.54 
L 196.84131 201.989088 
L 185.385695 201.989088 
z
" style="fill:#2d223a;"/>
   </g>
   <g id="patch_19">
    <path clip-path="url(#p72742d470a)" d="M 228.344251 255.54 
L 239.799866 255.54 
L 239.799866 239.39364 
L 228.344251 239.39364 
z
" style="fill:#2d223a;"/>
   </g>
   <g id="patch_20">
    <path clip-path="url(#p72742d470a)" d="M 271.302807 255.54 
L 282.758422 255.54 
L 282.758422 253.385234 
L 271.302807 253.385234 
z
" style="fill:#2d223a;"/>
   </g>
   <g id="patch_21">
    <path clip-path="url(#p72742d470a)" d="M 314.261364 255.54 
L 325.716979 255.54 
L 325.716979 255.52208 
L 314.261364 255.52208 
z
" style="fill:#2d223a;"/>
   </g>
   <g id="patch_22">
    <path clip-path="url(#p72742d470a)" d="M 357.21992 255.54 
L 368.675535 255.54 
L 368.675535 255.54 
L 357.21992 255.54 
z
" style="fill:#2d223a;"/>
   </g>
   <g id="patch_23">
    <path clip-path="url(#p72742d470a)" d="M 400.178476 255.54 
L 411.634091 255.54 
L 411.634091 255.54 
L 400.178476 255.54 
z
" style="fill:#2d223a;"/>
   </g>
   <g id="matplotlib.axis_1">
    <g id="xtick_1">
     <g id="line2d_1">
      <defs>
       <path d="M 0 0 
L 0 12 
" id="medb9493ece" style="stroke:#000000;stroke-width:2.5;"/>
      </defs>
      <g>
       <use style="stroke:#000000;stroke-width:2.5;" x="136.699332" xlink:href="#medb9493ece" y="255.54"/>
      </g>
     </g>
     <g id="text_1">
      <!-- 2 -->
      <defs>
       <path d="M 19.1875 8.296875 
L 53.609375 8.296875 
L 53.609375 0 
L 7.328125 0 
L 7.328125 8.296875 
Q 12.9375 14.109375 22.625 23.890625 
Q 32.328125 33.6875 34.8125 36.53125 
Q 39.546875 41.84375 41.421875 45.53125 
Q 43.3125 49.21875 43.3125 52.78125 
Q 43.3125 58.59375 39.234375 62.25 
Q 35.15625 65.921875 28.609375 65.921875 
Q 23.96875 65.921875 18.8125 64.3125 
Q 13.671875 62.703125 7.8125 59.421875 
L 7.8125 69.390625 
Q 13.765625 71.78125 18.9375 73 
Q 24.125 74.21875 28.421875 74.21875 
Q 39.75 74.21875 46.484375 68.546875 
Q 53.21875 62.890625 53.21875 53.421875 
Q 53.21875 48.921875 51.53125 44.890625 
Q 49.859375 40.875 45.40625 35.40625 
Q 44.1875 33.984375 37.640625 27.21875 
Q 31.109375 20.453125 19.1875 8.296875 
z
" id="DejaVuSans-32"/>
      </defs>
      <g transform="translate(129.700582 287.756562)scale(0.22 -0.22)">
       <use xlink:href="#DejaVuSans-32"/>
      </g>
     </g>
    </g>
    <g id="xtick_2">
     <g id="line2d_2">
      <g>
       <use style="stroke:#000000;stroke-width:2.5;" x="179.657888" xlink:href="#medb9493ece" y="255.54"/>
      </g>
     </g>
     <g id="text_2">
      <!-- 3 -->
      <defs>
       <path d="M 40.578125 39.3125 
Q 47.65625 37.796875 51.625 33 
Q 55.609375 28.21875 55.609375 21.1875 
Q 55.609375 10.40625 48.1875 4.484375 
Q 40.765625 -1.421875 27.09375 -1.421875 
Q 22.515625 -1.421875 17.65625 -0.515625 
Q 12.796875 0.390625 7.625 2.203125 
L 7.625 11.71875 
Q 11.71875 9.328125 16.59375 8.109375 
Q 21.484375 6.890625 26.8125 6.890625 
Q 36.078125 6.890625 40.9375 10.546875 
Q 45.796875 14.203125 45.796875 21.1875 
Q 45.796875 27.640625 41.28125 31.265625 
Q 36.765625 34.90625 28.71875 34.90625 
L 20.21875 34.90625 
L 20.21875 43.015625 
L 29.109375 43.015625 
Q 36.375 43.015625 40.234375 45.921875 
Q 44.09375 48.828125 44.09375 54.296875 
Q 44.09375 59.90625 40.109375 62.90625 
Q 36.140625 65.921875 28.71875 65.921875 
Q 24.65625 65.921875 20.015625 65.03125 
Q 15.375 64.15625 9.8125 62.3125 
L 9.8125 71.09375 
Q 15.4375 72.65625 20.34375 73.4375 
Q 25.25 74.21875 29.59375 74.21875 
Q 40.828125 74.21875 47.359375 69.109375 
Q 53.90625 64.015625 53.90625 55.328125 
Q 53.90625 49.265625 50.4375 45.09375 
Q 46.96875 40.921875 40.578125 39.3125 
z
" id="DejaVuSans-33"/>
      </defs>
      <g transform="translate(172.659138 287.756562)scale(0.22 -0.22)">
       <use xlink:href="#DejaVuSans-33"/>
      </g>
     </g>
    </g>
    <g id="xtick_3">
     <g id="line2d_3">
      <g>
       <use style="stroke:#000000;stroke-width:2.5;" x="222.616444" xlink:href="#medb9493ece" y="255.54"/>
      </g>
     </g>
     <g id="text_3">
      <!-- 4 -->
      <defs>
       <path d="M 37.796875 64.3125 
L 12.890625 25.390625 
L 37.796875 25.390625 
z
M 35.203125 72.90625 
L 47.609375 72.90625 
L 47.609375 25.390625 
L 58.015625 25.390625 
L 58.015625 17.1875 
L 47.609375 17.1875 
L 47.609375 0 
L 37.796875 0 
L 37.796875 17.1875 
L 4.890625 17.1875 
L 4.890625 26.703125 
z
" id="DejaVuSans-34"/>
      </defs>
      <g transform="translate(215.617694 287.756562)scale(0.22 -0.22)">
       <use xlink:href="#DejaVuSans-34"/>
      </g>
     </g>
    </g>
    <g id="xtick_4">
     <g id="line2d_4">
      <g>
       <use style="stroke:#000000;stroke-width:2.5;" x="265.575" xlink:href="#medb9493ece" y="255.54"/>
      </g>
     </g>
     <g id="text_4">
      <!-- 5 -->
      <defs>
       <path d="M 10.796875 72.90625 
L 49.515625 72.90625 
L 49.515625 64.59375 
L 19.828125 64.59375 
L 19.828125 46.734375 
Q 21.96875 47.46875 24.109375 47.828125 
Q 26.265625 48.1875 28.421875 48.1875 
Q 40.625 48.1875 47.75 41.5 
Q 54.890625 34.8125 54.890625 23.390625 
Q 54.890625 11.625 47.5625 5.09375 
Q 40.234375 -1.421875 26.90625 -1.421875 
Q 22.3125 -1.421875 17.546875 -0.640625 
Q 12.796875 0.140625 7.71875 1.703125 
L 7.71875 11.625 
Q 12.109375 9.234375 16.796875 8.0625 
Q 21.484375 6.890625 26.703125 6.890625 
Q 35.15625 6.890625 40.078125 11.328125 
Q 45.015625 15.765625 45.015625 23.390625 
Q 45.015625 31 40.078125 35.4375 
Q 35.15625 39.890625 26.703125 39.890625 
Q 22.75 39.890625 18.8125 39.015625 
Q 14.890625 38.140625 10.796875 36.28125 
z
" id="DejaVuSans-35"/>
      </defs>
      <g transform="translate(258.57625 287.756562)scale(0.22 -0.22)">
       <use xlink:href="#DejaVuSans-35"/>
      </g>
     </g>
    </g>
    <g id="xtick_5">
     <g id="line2d_5">
      <g>
       <use style="stroke:#000000;stroke-width:2.5;" x="308.533556" xlink:href="#medb9493ece" y="255.54"/>
      </g>
     </g>
     <g id="text_5">
      <!-- 6 -->
      <defs>
       <path d="M 33.015625 40.375 
Q 26.375 40.375 22.484375 35.828125 
Q 18.609375 31.296875 18.609375 23.390625 
Q 18.609375 15.53125 22.484375 10.953125 
Q 26.375 6.390625 33.015625 6.390625 
Q 39.65625 6.390625 43.53125 10.953125 
Q 47.40625 15.53125 47.40625 23.390625 
Q 47.40625 31.296875 43.53125 35.828125 
Q 39.65625 40.375 33.015625 40.375 
z
M 52.59375 71.296875 
L 52.59375 62.3125 
Q 48.875 64.0625 45.09375 64.984375 
Q 41.3125 65.921875 37.59375 65.921875 
Q 27.828125 65.921875 22.671875 59.328125 
Q 17.53125 52.734375 16.796875 39.40625 
Q 19.671875 43.65625 24.015625 45.921875 
Q 28.375 48.1875 33.59375 48.1875 
Q 44.578125 48.1875 50.953125 41.515625 
Q 57.328125 34.859375 57.328125 23.390625 
Q 57.328125 12.15625 50.6875 5.359375 
Q 44.046875 -1.421875 33.015625 -1.421875 
Q 20.359375 -1.421875 13.671875 8.265625 
Q 6.984375 17.96875 6.984375 36.375 
Q 6.984375 53.65625 15.1875 63.9375 
Q 23.390625 74.21875 37.203125 74.21875 
Q 40.921875 74.21875 44.703125 73.484375 
Q 48.484375 72.75 52.59375 71.296875 
z
" id="DejaVuSans-36"/>
      </defs>
      <g transform="translate(301.534806 287.756562)scale(0.22 -0.22)">
       <use xlink:href="#DejaVuSans-36"/>
      </g>
     </g>
    </g>
    <g id="xtick_6">
     <g id="line2d_6">
      <g>
       <use style="stroke:#000000;stroke-width:2.5;" x="351.492112" xlink:href="#medb9493ece" y="255.54"/>
      </g>
     </g>
     <g id="text_6">
      <!-- 7 -->
      <defs>
       <path d="M 8.203125 72.90625 
L 55.078125 72.90625 
L 55.078125 68.703125 
L 28.609375 0 
L 18.3125 0 
L 43.21875 64.59375 
L 8.203125 64.59375 
z
" id="DejaVuSans-37"/>
      </defs>
      <g transform="translate(344.493362 287.756562)scale(0.22 -0.22)">
       <use xlink:href="#DejaVuSans-37"/>
      </g>
     </g>
    </g>
    <g id="xtick_7">
     <g id="line2d_7">
      <g>
       <use style="stroke:#000000;stroke-width:2.5;" x="394.450668" xlink:href="#medb9493ece" y="255.54"/>
      </g>
     </g>
     <g id="text_7">
      <!-- 8 -->
      <defs>
       <path d="M 31.78125 34.625 
Q 24.75 34.625 20.71875 30.859375 
Q 16.703125 27.09375 16.703125 20.515625 
Q 16.703125 13.921875 20.71875 10.15625 
Q 24.75 6.390625 31.78125 6.390625 
Q 38.8125 6.390625 42.859375 10.171875 
Q 46.921875 13.96875 46.921875 20.515625 
Q 46.921875 27.09375 42.890625 30.859375 
Q 38.875 34.625 31.78125 34.625 
z
M 21.921875 38.8125 
Q 15.578125 40.375 12.03125 44.71875 
Q 8.5 49.078125 8.5 55.328125 
Q 8.5 64.0625 14.71875 69.140625 
Q 20.953125 74.21875 31.78125 74.21875 
Q 42.671875 74.21875 48.875 69.140625 
Q 55.078125 64.0625 55.078125 55.328125 
Q 55.078125 49.078125 51.53125 44.71875 
Q 48 40.375 41.703125 38.8125 
Q 48.828125 37.15625 52.796875 32.3125 
Q 56.78125 27.484375 56.78125 20.515625 
Q 56.78125 9.90625 50.3125 4.234375 
Q 43.84375 -1.421875 31.78125 -1.421875 
Q 19.734375 -1.421875 13.25 4.234375 
Q 6.78125 9.90625 6.78125 20.515625 
Q 6.78125 27.484375 10.78125 32.3125 
Q 14.796875 37.15625 21.921875 38.8125 
z
M 18.3125 54.390625 
Q 18.3125 48.734375 21.84375 45.5625 
Q 25.390625 42.390625 31.78125 42.390625 
Q 38.140625 42.390625 41.71875 45.5625 
Q 45.3125 48.734375 45.3125 54.390625 
Q 45.3125 60.0625 41.71875 63.234375 
Q 38.140625 66.40625 31.78125 66.40625 
Q 25.390625 66.40625 21.84375 63.234375 
Q 18.3125 60.0625 18.3125 54.390625 
z
" id="DejaVuSans-38"/>
      </defs>
      <g transform="translate(387.451918 287.756562)scale(0.22 -0.22)">
       <use xlink:href="#DejaVuSans-38"/>
      </g>
     </g>
    </g>
    <g id="text_8">
     <!-- Nodes -->
     <defs>
      <path d="M 9.8125 72.90625 
L 23.09375 72.90625 
L 55.421875 11.921875 
L 55.421875 72.90625 
L 64.984375 72.90625 
L 64.984375 0 
L 51.703125 0 
L 19.390625 60.984375 
L 19.390625 0 
L 9.8125 0 
z
" id="DejaVuSans-4e"/>
      <path d="M 30.609375 48.390625 
Q 23.390625 48.390625 19.1875 42.75 
Q 14.984375 37.109375 14.984375 27.296875 
Q 14.984375 17.484375 19.15625 11.84375 
Q 23.34375 6.203125 30.609375 6.203125 
Q 37.796875 6.203125 41.984375 11.859375 
Q 46.1875 17.53125 46.1875 27.296875 
Q 46.1875 37.015625 41.984375 42.703125 
Q 37.796875 48.390625 30.609375 48.390625 
z
M 30.609375 56 
Q 42.328125 56 49.015625 48.375 
Q 55.71875 40.765625 55.71875 27.296875 
Q 55.71875 13.875 49.015625 6.21875 
Q 42.328125 -1.421875 30.609375 -1.421875 
Q 18.84375 -1.421875 12.171875 6.21875 
Q 5.515625 13.875 5.515625 27.296875 
Q 5.515625 40.765625 12.171875 48.375 
Q 18.84375 56 30.609375 56 
z
" id="DejaVuSans-6f"/>
      <path d="M 45.40625 46.390625 
L 45.40625 75.984375 
L 54.390625 75.984375 
L 54.390625 0 
L 45.40625 0 
L 45.40625 8.203125 
Q 42.578125 3.328125 38.25 0.953125 
Q 33.9375 -1.421875 27.875 -1.421875 
Q 17.96875 -1.421875 11.734375 6.484375 
Q 5.515625 14.40625 5.515625 27.296875 
Q 5.515625 40.1875 11.734375 48.09375 
Q 17.96875 56 27.875 56 
Q 33.9375 56 38.25 53.625 
Q 42.578125 51.265625 45.40625 46.390625 
z
M 14.796875 27.296875 
Q 14.796875 17.390625 18.875 11.75 
Q 22.953125 6.109375 30.078125 6.109375 
Q 37.203125 6.109375 41.296875 11.75 
Q 45.40625 17.390625 45.40625 27.296875 
Q 45.40625 37.203125 41.296875 42.84375 
Q 37.203125 48.484375 30.078125 48.484375 
Q 22.953125 48.484375 18.875 42.84375 
Q 14.796875 37.203125 14.796875 27.296875 
z
" id="DejaVuSans-64"/>
      <path d="M 56.203125 29.59375 
L 56.203125 25.203125 
L 14.890625 25.203125 
Q 15.484375 15.921875 20.484375 11.0625 
Q 25.484375 6.203125 34.421875 6.203125 
Q 39.59375 6.203125 44.453125 7.46875 
Q 49.3125 8.734375 54.109375 11.28125 
L 54.109375 2.78125 
Q 49.265625 0.734375 44.1875 -0.34375 
Q 39.109375 -1.421875 33.890625 -1.421875 
Q 20.796875 -1.421875 13.15625 6.1875 
Q 5.515625 13.8125 5.515625 26.8125 
Q 5.515625 40.234375 12.765625 48.109375 
Q 20.015625 56 32.328125 56 
Q 43.359375 56 49.78125 48.890625 
Q 56.203125 41.796875 56.203125 29.59375 
z
M 47.21875 32.234375 
Q 47.125 39.59375 43.09375 43.984375 
Q 39.0625 48.390625 32.421875 48.390625 
Q 24.90625 48.390625 20.390625 44.140625 
Q 15.875 39.890625 15.1875 32.171875 
z
" id="DejaVuSans-65"/>
      <path d="M 44.28125 53.078125 
L 44.28125 44.578125 
Q 40.484375 46.53125 36.375 47.5 
Q 32.28125 48.484375 27.875 48.484375 
Q 21.1875 48.484375 17.84375 46.4375 
Q 14.5 44.390625 14.5 40.28125 
Q 14.5 37.15625 16.890625 35.375 
Q 19.28125 33.59375 26.515625 31.984375 
L 29.59375 31.296875 
Q 39.15625 29.25 43.1875 25.515625 
Q 47.21875 21.78125 47.21875 15.09375 
Q 47.21875 7.46875 41.1875 3.015625 
Q 35.15625 -1.421875 24.609375 -1.421875 
Q 20.21875 -1.421875 15.453125 -0.5625 
Q 10.6875 0.296875 5.421875 2 
L 5.421875 11.28125 
Q 10.40625 8.6875 15.234375 7.390625 
Q 20.0625 6.109375 24.8125 6.109375 
Q 31.15625 6.109375 34.5625 8.28125 
Q 37.984375 10.453125 37.984375 14.40625 
Q 37.984375 18.0625 35.515625 20.015625 
Q 33.0625 21.96875 24.703125 23.78125 
L 21.578125 24.515625 
Q 13.234375 26.265625 9.515625 29.90625 
Q 5.8125 33.546875 5.8125 39.890625 
Q 5.8125 47.609375 11.28125 51.796875 
Q 16.75 56 26.8125 56 
Q 31.78125 56 36.171875 55.265625 
Q 40.578125 54.546875 44.28125 53.078125 
z
" id="DejaVuSans-73"/>
     </defs>
     <g transform="translate(228.001875 314.568125)scale(0.24 -0.24)">
      <use xlink:href="#DejaVuSans-4e"/>
      <use x="74.804688" xlink:href="#DejaVuSans-6f"/>
      <use x="135.986328" xlink:href="#DejaVuSans-64"/>
      <use x="199.462891" xlink:href="#DejaVuSans-65"/>
      <use x="260.986328" xlink:href="#DejaVuSans-73"/>
     </g>
    </g>
   </g>
   <g id="matplotlib.axis_2">
    <g id="ytick_1">
     <g id="line2d_8">
      <defs>
       <path d="M 0 0 
L -12 0 
" id="m16a157ffe7" style="stroke:#000000;stroke-width:2.5;"/>
      </defs>
      <g>
       <use style="stroke:#000000;stroke-width:2.5;" x="104.91" xlink:href="#m16a157ffe7" y="255.54"/>
      </g>
     </g>
     <g id="text_9">
      <!-- 0.00 -->
      <defs>
       <path d="M 31.78125 66.40625 
Q 24.171875 66.40625 20.328125 58.90625 
Q 16.5 51.421875 16.5 36.375 
Q 16.5 21.390625 20.328125 13.890625 
Q 24.171875 6.390625 31.78125 6.390625 
Q 39.453125 6.390625 43.28125 13.890625 
Q 47.125 21.390625 47.125 36.375 
Q 47.125 51.421875 43.28125 58.90625 
Q 39.453125 66.40625 31.78125 66.40625 
z
M 31.78125 74.21875 
Q 44.046875 74.21875 50.515625 64.515625 
Q 56.984375 54.828125 56.984375 36.375 
Q 56.984375 17.96875 50.515625 8.265625 
Q 44.046875 -1.421875 31.78125 -1.421875 
Q 19.53125 -1.421875 13.0625 8.265625 
Q 6.59375 17.96875 6.59375 36.375 
Q 6.59375 54.828125 13.0625 64.515625 
Q 19.53125 74.21875 31.78125 74.21875 
z
" id="DejaVuSans-30"/>
       <path d="M 10.6875 12.40625 
L 21 12.40625 
L 21 0 
L 10.6875 0 
z
" id="DejaVuSans-2e"/>
      </defs>
      <g transform="translate(40.425625 263.898281)scale(0.22 -0.22)">
       <use xlink:href="#DejaVuSans-30"/>
       <use x="63.623047" xlink:href="#DejaVuSans-2e"/>
       <use x="95.410156" xlink:href="#DejaVuSans-30"/>
       <use x="159.033203" xlink:href="#DejaVuSans-30"/>
      </g>
     </g>
    </g>
    <g id="ytick_2">
     <g id="line2d_9">
      <g>
       <use style="stroke:#000000;stroke-width:2.5;" x="104.91" xlink:href="#m16a157ffe7" y="209.5025"/>
      </g>
     </g>
     <g id="text_10">
      <!-- 0.25 -->
      <g transform="translate(40.425625 217.860781)scale(0.22 -0.22)">
       <use xlink:href="#DejaVuSans-30"/>
       <use x="63.623047" xlink:href="#DejaVuSans-2e"/>
       <use x="95.410156" xlink:href="#DejaVuSans-32"/>
       <use x="159.033203" xlink:href="#DejaVuSans-35"/>
      </g>
     </g>
    </g>
    <g id="ytick_3">
     <g id="line2d_10">
      <g>
       <use style="stroke:#000000;stroke-width:2.5;" x="104.91" xlink:href="#m16a157ffe7" y="163.465"/>
      </g>
     </g>
     <g id="text_11">
      <!-- 0.50 -->
      <g transform="translate(40.425625 171.823281)scale(0.22 -0.22)">
       <use xlink:href="#DejaVuSans-30"/>
       <use x="63.623047" xlink:href="#DejaVuSans-2e"/>
       <use x="95.410156" xlink:href="#DejaVuSans-35"/>
       <use x="159.033203" xlink:href="#DejaVuSans-30"/>
      </g>
     </g>
    </g>
    <g id="ytick_4">
     <g id="line2d_11">
      <g>
       <use style="stroke:#000000;stroke-width:2.5;" x="104.91" xlink:href="#m16a157ffe7" y="117.4275"/>
      </g>
     </g>
     <g id="text_12">
      <!-- 0.75 -->
      <g transform="translate(40.425625 125.785781)scale(0.22 -0.22)">
       <use xlink:href="#DejaVuSans-30"/>
       <use x="63.623047" xlink:href="#DejaVuSans-2e"/>
       <use x="95.410156" xlink:href="#DejaVuSans-37"/>
       <use x="159.033203" xlink:href="#DejaVuSans-35"/>
      </g>
     </g>
    </g>
    <g id="ytick_5">
     <g id="line2d_12">
      <g>
       <use style="stroke:#000000;stroke-width:2.5;" x="104.91" xlink:href="#m16a157ffe7" y="71.39"/>
      </g>
     </g>
     <g id="text_13">
      <!-- 1.00 -->
      <defs>
       <path d="M 12.40625 8.296875 
L 28.515625 8.296875 
L 28.515625 63.921875 
L 10.984375 60.40625 
L 10.984375 69.390625 
L 28.421875 72.90625 
L 38.28125 72.90625 
L 38.28125 8.296875 
L 54.390625 8.296875 
L 54.390625 0 
L 12.40625 0 
z
" id="DejaVuSans-31"/>
      </defs>
      <g transform="translate(40.425625 79.748281)scale(0.22 -0.22)">
       <use xlink:href="#DejaVuSans-31"/>
       <use x="63.623047" xlink:href="#DejaVuSans-2e"/>
       <use x="95.410156" xlink:href="#DejaVuSans-30"/>
       <use x="159.033203" xlink:href="#DejaVuSans-30"/>
      </g>
     </g>
    </g>
    <g id="text_14">
     <!-- $F(1)$ -->
     <defs>
      <path d="M 16.890625 72.90625 
L 58.6875 72.90625 
L 57.078125 64.59375 
L 25.09375 64.59375 
L 20.90625 43.109375 
L 49.8125 43.109375 
L 48.1875 34.8125 
L 19.28125 34.8125 
L 12.5 0 
L 2.6875 0 
z
" id="DejaVuSans-Oblique-46"/>
      <path d="M 31 75.875 
Q 24.46875 64.65625 21.28125 53.65625 
Q 18.109375 42.671875 18.109375 31.390625 
Q 18.109375 20.125 21.3125 9.0625 
Q 24.515625 -2 31 -13.1875 
L 23.1875 -13.1875 
Q 15.875 -1.703125 12.234375 9.375 
Q 8.59375 20.453125 8.59375 31.390625 
Q 8.59375 42.28125 12.203125 53.3125 
Q 15.828125 64.359375 23.1875 75.875 
z
" id="DejaVuSans-28"/>
      <path d="M 8.015625 75.875 
L 15.828125 75.875 
Q 23.140625 64.359375 26.78125 53.3125 
Q 30.421875 42.28125 30.421875 31.390625 
Q 30.421875 20.453125 26.78125 9.375 
Q 23.140625 -1.703125 15.828125 -13.1875 
L 8.015625 -13.1875 
Q 14.5 -2 17.703125 9.0625 
Q 20.90625 20.125 20.90625 31.390625 
Q 20.90625 42.671875 17.703125 53.65625 
Q 14.5 64.65625 8.015625 75.875 
z
" id="DejaVuSans-29"/>
     </defs>
     <g transform="translate(31.434375 169.05)rotate(-90)scale(0.24 -0.24)">
      <use transform="translate(0 0.125)" xlink:href="#DejaVuSans-Oblique-46"/>
      <use transform="translate(57.519531 0.125)" xlink:href="#DejaVuSans-28"/>
      <use transform="translate(96.533203 0.125)" xlink:href="#DejaVuSans-31"/>
      <use transform="translate(160.15625 0.125)" xlink:href="#DejaVuSans-29"/>
     </g>
    </g>
   </g>
   <g id="line2d_13">
    <path clip-path="url(#p72742d470a)" d="M 125.243717 149.025724 
L 125.243717 119.426527 
" style="fill:none;stroke:#424242;stroke-linecap:square;stroke-width:5.4;"/>
   </g>
   <g id="line2d_14">
    <path clip-path="url(#p72742d470a)" d="M 168.202273 179.627287 
L 168.202273 170.999443 
" style="fill:none;stroke:#424242;stroke-linecap:square;stroke-width:5.4;"/>
   </g>
   <g id="line2d_15">
    <path clip-path="url(#p72742d470a)" d="M 211.160829 238.60145 
L 211.160829 228.837516 
" style="fill:none;stroke:#424242;stroke-linecap:square;stroke-width:5.4;"/>
   </g>
   <g id="line2d_16">
    <path clip-path="url(#p72742d470a)" d="M 254.119385 254.85163 
L 254.119385 252.74484 
" style="fill:none;stroke:#424242;stroke-linecap:square;stroke-width:5.4;"/>
   </g>
   <g id="line2d_17">
    <path clip-path="url(#p72742d470a)" d="M 297.077941 255.54 
L 297.077941 254.767229 
" style="fill:none;stroke:#424242;stroke-linecap:square;stroke-width:5.4;"/>
   </g>
   <g id="line2d_18">
    <path clip-path="url(#p72742d470a)" d="M 340.036497 255.54 
L 340.036497 255.54 
" style="fill:none;stroke:#424242;stroke-linecap:square;stroke-width:5.4;"/>
   </g>
   <g id="line2d_19">
    <path clip-path="url(#p72742d470a)" d="M 382.995053 255.54 
L 382.995053 255.54 
" style="fill:none;stroke:#424242;stroke-linecap:square;stroke-width:5.4;"/>
   </g>
   <g id="line2d_20">
    <path clip-path="url(#p72742d470a)" d="M 136.699332 165.392746 
L 136.699332 137.423433 
" style="fill:none;stroke:#424242;stroke-linecap:square;stroke-width:5.4;"/>
   </g>
   <g id="line2d_21">
    <path clip-path="url(#p72742d470a)" d="M 179.657888 187.767547 
L 179.657888 177.197911 
" style="fill:none;stroke:#424242;stroke-linecap:square;stroke-width:5.4;"/>
   </g>
   <g id="line2d_22">
    <path clip-path="url(#p72742d470a)" d="M 222.616444 240.701642 
L 222.616444 230.744459 
" style="fill:none;stroke:#424242;stroke-linecap:square;stroke-width:5.4;"/>
   </g>
   <g id="line2d_23">
    <path clip-path="url(#p72742d470a)" d="M 265.575 254.034538 
L 265.575 250.312427 
" style="fill:none;stroke:#424242;stroke-linecap:square;stroke-width:5.4;"/>
   </g>
   <g id="line2d_24">
    <path clip-path="url(#p72742d470a)" d="M 308.533556 255.54 
L 308.533556 254.395997 
" style="fill:none;stroke:#424242;stroke-linecap:square;stroke-width:5.4;"/>
   </g>
   <g id="line2d_25">
    <path clip-path="url(#p72742d470a)" d="M 351.492112 255.54 
L 351.492112 255.54 
" style="fill:none;stroke:#424242;stroke-linecap:square;stroke-width:5.4;"/>
   </g>
   <g id="line2d_26">
    <path clip-path="url(#p72742d470a)" d="M 394.450668 255.54 
L 394.450668 255.54 
" style="fill:none;stroke:#424242;stroke-linecap:square;stroke-width:5.4;"/>
   </g>
   <g id="line2d_27">
    <path clip-path="url(#p72742d470a)" d="M 148.154947 169.718984 
L 148.154947 143.697867 
" style="fill:none;stroke:#424242;stroke-linecap:square;stroke-width:5.4;"/>
   </g>
   <g id="line2d_28">
    <path clip-path="url(#p72742d470a)" d="M 191.113503 207.813699 
L 191.113503 195.903373 
" style="fill:none;stroke:#424242;stroke-linecap:square;stroke-width:5.4;"/>
   </g>
   <g id="line2d_29">
    <path clip-path="url(#p72742d470a)" d="M 234.072059 243.31944 
L 234.072059 235.487457 
" style="fill:none;stroke:#424242;stroke-linecap:square;stroke-width:5.4;"/>
   </g>
   <g id="line2d_30">
    <path clip-path="url(#p72742d470a)" d="M 277.030615 254.506237 
L 277.030615 252.12881 
" style="fill:none;stroke:#424242;stroke-linecap:square;stroke-width:5.4;"/>
   </g>
   <g id="line2d_31">
    <path clip-path="url(#p72742d470a)" d="M 319.989171 255.54 
L 319.989171 255.489068 
" style="fill:none;stroke:#424242;stroke-linecap:square;stroke-width:5.4;"/>
   </g>
   <g id="line2d_32">
    <path clip-path="url(#p72742d470a)" d="M 362.947727 255.54 
L 362.947727 255.54 
" style="fill:none;stroke:#424242;stroke-linecap:square;stroke-width:5.4;"/>
   </g>
   <g id="line2d_33">
    <path clip-path="url(#p72742d470a)" d="M 405.906283 255.54 
L 405.906283 255.54 
" style="fill:none;stroke:#424242;stroke-linecap:square;stroke-width:5.4;"/>
   </g>
   <g id="line2d_34">
    <path d="M 179.657888 163.939111 
L 179.657888 159.519511 
L 191.113503 159.519511 
L 191.113503 163.939111 
" style="fill:none;stroke:#333333;stroke-linecap:square;stroke-width:1.5;"/>
   </g>
   <g id="line2d_35">
    <path d="M 168.202273 140.752421 
L 168.202273 136.332821 
L 191.113503 136.332821 
L 191.113503 140.752421 
" style="fill:none;stroke:#333333;stroke-linecap:square;stroke-width:1.5;"/>
   </g>
   <g id="line2d_36">
    <path d="M 125.243717 106.167727 
L 125.243717 101.748127 
L 148.154947 101.748127 
L 148.154947 106.167727 
" style="fill:none;stroke:#333333;stroke-linecap:square;stroke-width:1.5;"/>
   </g>
   <g id="patch_24">
    <path d="M 104.91 255.54 
L 104.91 34.56 
" style="fill:none;stroke:#000000;stroke-linecap:square;stroke-linejoin:miter;stroke-width:2.5;"/>
   </g>
   <g id="patch_25">
    <path d="M 426.24 255.54 
L 426.24 34.56 
" style="fill:none;stroke:#000000;stroke-linecap:square;stroke-linejoin:miter;stroke-width:2.5;"/>
   </g>
   <g id="patch_26">
    <path d="M 104.91 255.54 
L 426.24 255.54 
" style="fill:none;stroke:#000000;stroke-linecap:square;stroke-linejoin:miter;stroke-width:2.5;"/>
   </g>
   <g id="patch_27">
    <path d="M 104.91 34.56 
L 426.24 34.56 
" style="fill:none;stroke:#000000;stroke-linecap:square;stroke-linejoin:miter;stroke-width:2.5;"/>
   </g>
   <g id="text_15">
    <!-- **** -->
    <defs>
     <path d="M 47.015625 60.890625 
L 29.5 51.421875 
L 47.015625 41.890625 
L 44.1875 37.109375 
L 27.78125 47.015625 
L 27.78125 28.609375 
L 22.21875 28.609375 
L 22.21875 47.015625 
L 5.8125 37.109375 
L 2.984375 41.890625 
L 20.515625 51.421875 
L 2.984375 60.890625 
L 5.8125 65.71875 
L 22.21875 55.8125 
L 22.21875 74.21875 
L 27.78125 74.21875 
L 27.78125 55.8125 
L 44.1875 65.71875 
z
" id="DejaVuSans-2a"/>
    </defs>
    <g transform="translate(173.385695 156.523886)scale(0.12 -0.12)">
     <use xlink:href="#DejaVuSans-2a"/>
     <use x="50" xlink:href="#DejaVuSans-2a"/>
     <use x="100" xlink:href="#DejaVuSans-2a"/>
     <use x="150" xlink:href="#DejaVuSans-2a"/>
    </g>
   </g>
   <g id="text_16">
    <!-- **** -->
    <g transform="translate(167.657888 133.337196)scale(0.12 -0.12)">
     <use xlink:href="#DejaVuSans-2a"/>
     <use x="50" xlink:href="#DejaVuSans-2a"/>
     <use x="100" xlink:href="#DejaVuSans-2a"/>
     <use x="150" xlink:href="#DejaVuSans-2a"/>
    </g>
   </g>
   <g id="text_17">
    <!-- * -->
    <g transform="translate(133.699332 98.752502)scale(0.12 -0.12)">
     <use xlink:href="#DejaVuSans-2a"/>
    </g>
   </g>
  </g>
 </g>
 <defs>
  <clipPath id="p72742d470a">
   <rect height="220.98" width="321.33" x="104.91" y="34.56"/>
  </clipPath>
 </defs>
</svg>
