<?xml version="1.0" encoding="utf-8" standalone="no"?>
<!DOCTYPE svg PUBLIC "-//W3C//DTD SVG 1.1//EN"
  "http://www.w3.org/Graphics/SVG/1.1/DTD/svg11.dtd">
<!-- Created with matplotlib (http://matplotlib.org/) -->
<svg height="345.6pt" version="1.1" viewBox="0 0 460.8 345.6" width="460.8pt" xmlns="http://www.w3.org/2000/svg" xmlns:xlink="http://www.w3.org/1999/xlink">
 <defs>
  <style type="text/css">
*{stroke-linecap:butt;stroke-linejoin:round;}
  </style>
 </defs>
 <g id="figure_1">
  <g id="patch_1">
   <path d="M 0 345.6 
L 460.8 345.6 
L 460.8 0 
L 0 0 
z
" style="fill:#ffffff;"/>
  </g>
  <g id="axes_1">
   <g id="patch_2">
    <path d="M 116.01 255.54 
L 426.24 255.54 
L 426.24 34.56 
L 116.01 34.56 
z
" style="fill:#ffffff;"/>
   </g>
   <g id="patch_3">
    <path clip-path="url(#pbd3a34a72d)" d="M 130.111364 255.54 
L 156.971104 255.54 
L 156.971104 173.718459 
L 130.111364 173.718459 
z
" style="fill:#455681;"/>
   </g>
   <g id="patch_4">
    <path clip-path="url(#pbd3a34a72d)" d="M 230.83539 255.54 
L 257.69513 255.54 
L 257.69513 179.681305 
L 230.83539 179.681305 
z
" style="fill:#455681;"/>
   </g>
   <g id="patch_5">
    <path clip-path="url(#pbd3a34a72d)" d="M 331.559416 255.54 
L 358.419156 255.54 
L 358.419156 186.592209 
L 331.559416 186.592209 
z
" style="fill:#455681;"/>
   </g>
   <g id="patch_6">
    <path clip-path="url(#pbd3a34a72d)" d="M 156.971104 255.54 
L 183.830844 255.54 
L 183.830844 178.485198 
L 156.971104 178.485198 
z
" style="fill:#2f837f;"/>
   </g>
   <g id="patch_7">
    <path clip-path="url(#pbd3a34a72d)" d="M 257.69513 255.54 
L 284.55487 255.54 
L 284.55487 186.859746 
L 257.69513 186.859746 
z
" style="fill:#2f837f;"/>
   </g>
   <g id="patch_8">
    <path clip-path="url(#pbd3a34a72d)" d="M 358.419156 255.54 
L 385.278896 255.54 
L 385.278896 183.698546 
L 358.419156 183.698546 
z
" style="fill:#2f837f;"/>
   </g>
   <g id="patch_9">
    <path clip-path="url(#pbd3a34a72d)" d="M 183.830844 255.54 
L 210.690584 255.54 
L 210.690584 181.916282 
L 183.830844 181.916282 
z
" style="fill:#6cbc6e;"/>
   </g>
   <g id="patch_10">
    <path clip-path="url(#pbd3a34a72d)" d="M 284.55487 255.54 
L 311.41461 255.54 
L 311.41461 188.582706 
L 284.55487 188.582706 
z
" style="fill:#6cbc6e;"/>
   </g>
   <g id="patch_11">
    <path clip-path="url(#pbd3a34a72d)" d="M 385.278896 255.54 
L 412.138636 255.54 
L 412.138636 196.84323 
L 385.278896 196.84323 
z
" style="fill:#6cbc6e;"/>
   </g>
   <g id="matplotlib.axis_1">
    <g id="xtick_1">
     <g id="line2d_1">
      <defs>
       <path d="M 0 0 
L 0 12 
" id="m60cbfe3cfe" style="stroke:#000000;stroke-width:2.5;"/>
      </defs>
      <g>
       <use style="stroke:#000000;stroke-width:2.5;" x="170.400974" xlink:href="#m60cbfe3cfe" y="255.54"/>
      </g>
     </g>
     <g id="text_1">
      <!-- 3 -->
      <defs>
       <path d="M 40.578125 39.3125 
Q 47.65625 37.796875 51.625 33 
Q 55.609375 28.21875 55.609375 21.1875 
Q 55.609375 10.40625 48.1875 4.484375 
Q 40.765625 -1.421875 27.09375 -1.421875 
Q 22.515625 -1.421875 17.65625 -0.515625 
Q 12.796875 0.390625 7.625 2.203125 
L 7.625 11.71875 
Q 11.71875 9.328125 16.59375 8.109375 
Q 21.484375 6.890625 26.8125 6.890625 
Q 36.078125 6.890625 40.9375 10.546875 
Q 45.796875 14.203125 45.796875 21.1875 
Q 45.796875 27.640625 41.28125 31.265625 
Q 36.765625 34.90625 28.71875 34.90625 
L 20.21875 34.90625 
L 20.21875 43.015625 
L 29.109375 43.015625 
Q 36.375 43.015625 40.234375 45.921875 
Q 44.09375 48.828125 44.09375 54.296875 
Q 44.09375 59.90625 40.109375 62.90625 
Q 36.140625 65.921875 28.71875 65.921875 
Q 24.65625 65.921875 20.015625 65.03125 
Q 15.375 64.15625 9.8125 62.3125 
L 9.8125 71.09375 
Q 15.4375 72.65625 20.34375 73.4375 
Q 25.25 74.21875 29.59375 74.21875 
Q 40.828125 74.21875 47.359375 69.109375 
Q 53.90625 64.015625 53.90625 55.328125 
Q 53.90625 49.265625 50.4375 45.09375 
Q 46.96875 40.921875 40.578125 39.3125 
z
" id="DejaVuSans-33"/>
      </defs>
      <g transform="translate(163.402224 287.756562)scale(0.22 -0.22)">
       <use xlink:href="#DejaVuSans-33"/>
      </g>
     </g>
    </g>
    <g id="xtick_2">
     <g id="line2d_2">
      <g>
       <use style="stroke:#000000;stroke-width:2.5;" x="271.125" xlink:href="#m60cbfe3cfe" y="255.54"/>
      </g>
     </g>
     <g id="text_2">
      <!-- 5 -->
      <defs>
       <path d="M 10.796875 72.90625 
L 49.515625 72.90625 
L 49.515625 64.59375 
L 19.828125 64.59375 
L 19.828125 46.734375 
Q 21.96875 47.46875 24.109375 47.828125 
Q 26.265625 48.1875 28.421875 48.1875 
Q 40.625 48.1875 47.75 41.5 
Q 54.890625 34.8125 54.890625 23.390625 
Q 54.890625 11.625 47.5625 5.09375 
Q 40.234375 -1.421875 26.90625 -1.421875 
Q 22.3125 -1.421875 17.546875 -0.640625 
Q 12.796875 0.140625 7.71875 1.703125 
L 7.71875 11.625 
Q 12.109375 9.234375 16.796875 8.0625 
Q 21.484375 6.890625 26.703125 6.890625 
Q 35.15625 6.890625 40.078125 11.328125 
Q 45.015625 15.765625 45.015625 23.390625 
Q 45.015625 31 40.078125 35.4375 
Q 35.15625 39.890625 26.703125 39.890625 
Q 22.75 39.890625 18.8125 39.015625 
Q 14.890625 38.140625 10.796875 36.28125 
z
" id="DejaVuSans-35"/>
      </defs>
      <g transform="translate(264.12625 287.756562)scale(0.22 -0.22)">
       <use xlink:href="#DejaVuSans-35"/>
      </g>
     </g>
    </g>
    <g id="xtick_3">
     <g id="line2d_3">
      <g>
       <use style="stroke:#000000;stroke-width:2.5;" x="371.849026" xlink:href="#m60cbfe3cfe" y="255.54"/>
      </g>
     </g>
     <g id="text_3">
      <!-- 7 -->
      <defs>
       <path d="M 8.203125 72.90625 
L 55.078125 72.90625 
L 55.078125 68.703125 
L 28.609375 0 
L 18.3125 0 
L 43.21875 64.59375 
L 8.203125 64.59375 
z
" id="DejaVuSans-37"/>
      </defs>
      <g transform="translate(364.850276 287.756562)scale(0.22 -0.22)">
       <use xlink:href="#DejaVuSans-37"/>
      </g>
     </g>
    </g>
    <g id="text_4">
     <!-- Nodes -->
     <defs>
      <path d="M 9.8125 72.90625 
L 23.09375 72.90625 
L 55.421875 11.921875 
L 55.421875 72.90625 
L 64.984375 72.90625 
L 64.984375 0 
L 51.703125 0 
L 19.390625 60.984375 
L 19.390625 0 
L 9.8125 0 
z
" id="DejaVuSans-4e"/>
      <path d="M 30.609375 48.390625 
Q 23.390625 48.390625 19.1875 42.75 
Q 14.984375 37.109375 14.984375 27.296875 
Q 14.984375 17.484375 19.15625 11.84375 
Q 23.34375 6.203125 30.609375 6.203125 
Q 37.796875 6.203125 41.984375 11.859375 
Q 46.1875 17.53125 46.1875 27.296875 
Q 46.1875 37.015625 41.984375 42.703125 
Q 37.796875 48.390625 30.609375 48.390625 
z
M 30.609375 56 
Q 42.328125 56 49.015625 48.375 
Q 55.71875 40.765625 55.71875 27.296875 
Q 55.71875 13.875 49.015625 6.21875 
Q 42.328125 -1.421875 30.609375 -1.421875 
Q 18.84375 -1.421875 12.171875 6.21875 
Q 5.515625 13.875 5.515625 27.296875 
Q 5.515625 40.765625 12.171875 48.375 
Q 18.84375 56 30.609375 56 
z
" id="DejaVuSans-6f"/>
      <path d="M 45.40625 46.390625 
L 45.40625 75.984375 
L 54.390625 75.984375 
L 54.390625 0 
L 45.40625 0 
L 45.40625 8.203125 
Q 42.578125 3.328125 38.25 0.953125 
Q 33.9375 -1.421875 27.875 -1.421875 
Q 17.96875 -1.421875 11.734375 6.484375 
Q 5.515625 14.40625 5.515625 27.296875 
Q 5.515625 40.1875 11.734375 48.09375 
Q 17.96875 56 27.875 56 
Q 33.9375 56 38.25 53.625 
Q 42.578125 51.265625 45.40625 46.390625 
z
M 14.796875 27.296875 
Q 14.796875 17.390625 18.875 11.75 
Q 22.953125 6.109375 30.078125 6.109375 
Q 37.203125 6.109375 41.296875 11.75 
Q 45.40625 17.390625 45.40625 27.296875 
Q 45.40625 37.203125 41.296875 42.84375 
Q 37.203125 48.484375 30.078125 48.484375 
Q 22.953125 48.484375 18.875 42.84375 
Q 14.796875 37.203125 14.796875 27.296875 
z
" id="DejaVuSans-64"/>
      <path d="M 56.203125 29.59375 
L 56.203125 25.203125 
L 14.890625 25.203125 
Q 15.484375 15.921875 20.484375 11.0625 
Q 25.484375 6.203125 34.421875 6.203125 
Q 39.59375 6.203125 44.453125 7.46875 
Q 49.3125 8.734375 54.109375 11.28125 
L 54.109375 2.78125 
Q 49.265625 0.734375 44.1875 -0.34375 
Q 39.109375 -1.421875 33.890625 -1.421875 
Q 20.796875 -1.421875 13.15625 6.1875 
Q 5.515625 13.8125 5.515625 26.8125 
Q 5.515625 40.234375 12.765625 48.109375 
Q 20.015625 56 32.328125 56 
Q 43.359375 56 49.78125 48.890625 
Q 56.203125 41.796875 56.203125 29.59375 
z
M 47.21875 32.234375 
Q 47.125 39.59375 43.09375 43.984375 
Q 39.0625 48.390625 32.421875 48.390625 
Q 24.90625 48.390625 20.390625 44.140625 
Q 15.875 39.890625 15.1875 32.171875 
z
" id="DejaVuSans-65"/>
      <path d="M 44.28125 53.078125 
L 44.28125 44.578125 
Q 40.484375 46.53125 36.375 47.5 
Q 32.28125 48.484375 27.875 48.484375 
Q 21.1875 48.484375 17.84375 46.4375 
Q 14.5 44.390625 14.5 40.28125 
Q 14.5 37.15625 16.890625 35.375 
Q 19.28125 33.59375 26.515625 31.984375 
L 29.59375 31.296875 
Q 39.15625 29.25 43.1875 25.515625 
Q 47.21875 21.78125 47.21875 15.09375 
Q 47.21875 7.46875 41.1875 3.015625 
Q 35.15625 -1.421875 24.609375 -1.421875 
Q 20.21875 -1.421875 15.453125 -0.5625 
Q 10.6875 0.296875 5.421875 2 
L 5.421875 11.28125 
Q 10.40625 8.6875 15.234375 7.390625 
Q 20.0625 6.109375 24.8125 6.109375 
Q 31.15625 6.109375 34.5625 8.28125 
Q 37.984375 10.453125 37.984375 14.40625 
Q 37.984375 18.0625 35.515625 20.015625 
Q 33.0625 21.96875 24.703125 23.78125 
L 21.578125 24.515625 
Q 13.234375 26.265625 9.515625 29.90625 
Q 5.8125 33.546875 5.8125 39.890625 
Q 5.8125 47.609375 11.28125 51.796875 
Q 16.75 56 26.8125 56 
Q 31.78125 56 36.171875 55.265625 
Q 40.578125 54.546875 44.28125 53.078125 
z
" id="DejaVuSans-73"/>
     </defs>
     <g transform="translate(233.551875 314.568125)scale(0.24 -0.24)">
      <use xlink:href="#DejaVuSans-4e"/>
      <use x="74.804688" xlink:href="#DejaVuSans-6f"/>
      <use x="135.986328" xlink:href="#DejaVuSans-64"/>
      <use x="199.462891" xlink:href="#DejaVuSans-65"/>
      <use x="260.986328" xlink:href="#DejaVuSans-73"/>
     </g>
    </g>
   </g>
   <g id="matplotlib.axis_2">
    <g id="ytick_1">
     <g id="line2d_4">
      <defs>
       <path d="M 0 0 
L -12 0 
" id="m565d8f0ee7" style="stroke:#000000;stroke-width:2.5;"/>
      </defs>
      <g>
       <use style="stroke:#000000;stroke-width:2.5;" x="116.01" xlink:href="#m565d8f0ee7" y="255.54"/>
      </g>
     </g>
     <g id="text_5">
      <!-- 0.00 -->
      <defs>
       <path d="M 31.78125 66.40625 
Q 24.171875 66.40625 20.328125 58.90625 
Q 16.5 51.421875 16.5 36.375 
Q 16.5 21.390625 20.328125 13.890625 
Q 24.171875 6.390625 31.78125 6.390625 
Q 39.453125 6.390625 43.28125 13.890625 
Q 47.125 21.390625 47.125 36.375 
Q 47.125 51.421875 43.28125 58.90625 
Q 39.453125 66.40625 31.78125 66.40625 
z
M 31.78125 74.21875 
Q 44.046875 74.21875 50.515625 64.515625 
Q 56.984375 54.828125 56.984375 36.375 
Q 56.984375 17.96875 50.515625 8.265625 
Q 44.046875 -1.421875 31.78125 -1.421875 
Q 19.53125 -1.421875 13.0625 8.265625 
Q 6.59375 17.96875 6.59375 36.375 
Q 6.59375 54.828125 13.0625 64.515625 
Q 19.53125 74.21875 31.78125 74.21875 
z
" id="DejaVuSans-30"/>
       <path d="M 10.6875 12.40625 
L 21 12.40625 
L 21 0 
L 10.6875 0 
z
" id="DejaVuSans-2e"/>
      </defs>
      <g transform="translate(51.525625 263.898281)scale(0.22 -0.22)">
       <use xlink:href="#DejaVuSans-30"/>
       <use x="63.623047" xlink:href="#DejaVuSans-2e"/>
       <use x="95.410156" xlink:href="#DejaVuSans-30"/>
       <use x="159.033203" xlink:href="#DejaVuSans-30"/>
      </g>
     </g>
    </g>
    <g id="ytick_2">
     <g id="line2d_5">
      <g>
       <use style="stroke:#000000;stroke-width:2.5;" x="116.01" xlink:href="#m565d8f0ee7" y="209.5025"/>
      </g>
     </g>
     <g id="text_6">
      <!-- 0.25 -->
      <defs>
       <path d="M 19.1875 8.296875 
L 53.609375 8.296875 
L 53.609375 0 
L 7.328125 0 
L 7.328125 8.296875 
Q 12.9375 14.109375 22.625 23.890625 
Q 32.328125 33.6875 34.8125 36.53125 
Q 39.546875 41.84375 41.421875 45.53125 
Q 43.3125 49.21875 43.3125 52.78125 
Q 43.3125 58.59375 39.234375 62.25 
Q 35.15625 65.921875 28.609375 65.921875 
Q 23.96875 65.921875 18.8125 64.3125 
Q 13.671875 62.703125 7.8125 59.421875 
L 7.8125 69.390625 
Q 13.765625 71.78125 18.9375 73 
Q 24.125 74.21875 28.421875 74.21875 
Q 39.75 74.21875 46.484375 68.546875 
Q 53.21875 62.890625 53.21875 53.421875 
Q 53.21875 48.921875 51.53125 44.890625 
Q 49.859375 40.875 45.40625 35.40625 
Q 44.1875 33.984375 37.640625 27.21875 
Q 31.109375 20.453125 19.1875 8.296875 
z
" id="DejaVuSans-32"/>
      </defs>
      <g transform="translate(51.525625 217.860781)scale(0.22 -0.22)">
       <use xlink:href="#DejaVuSans-30"/>
       <use x="63.623047" xlink:href="#DejaVuSans-2e"/>
       <use x="95.410156" xlink:href="#DejaVuSans-32"/>
       <use x="159.033203" xlink:href="#DejaVuSans-35"/>
      </g>
     </g>
    </g>
    <g id="ytick_3">
     <g id="line2d_6">
      <g>
       <use style="stroke:#000000;stroke-width:2.5;" x="116.01" xlink:href="#m565d8f0ee7" y="163.465"/>
      </g>
     </g>
     <g id="text_7">
      <!-- 0.50 -->
      <g transform="translate(51.525625 171.823281)scale(0.22 -0.22)">
       <use xlink:href="#DejaVuSans-30"/>
       <use x="63.623047" xlink:href="#DejaVuSans-2e"/>
       <use x="95.410156" xlink:href="#DejaVuSans-35"/>
       <use x="159.033203" xlink:href="#DejaVuSans-30"/>
      </g>
     </g>
    </g>
    <g id="ytick_4">
     <g id="line2d_7">
      <g>
       <use style="stroke:#000000;stroke-width:2.5;" x="116.01" xlink:href="#m565d8f0ee7" y="117.4275"/>
      </g>
     </g>
     <g id="text_8">
      <!-- 0.75 -->
      <g transform="translate(51.525625 125.785781)scale(0.22 -0.22)">
       <use xlink:href="#DejaVuSans-30"/>
       <use x="63.623047" xlink:href="#DejaVuSans-2e"/>
       <use x="95.410156" xlink:href="#DejaVuSans-37"/>
       <use x="159.033203" xlink:href="#DejaVuSans-35"/>
      </g>
     </g>
    </g>
    <g id="ytick_5">
     <g id="line2d_8">
      <g>
       <use style="stroke:#000000;stroke-width:2.5;" x="116.01" xlink:href="#m565d8f0ee7" y="71.39"/>
      </g>
     </g>
     <g id="text_9">
      <!-- 1.00 -->
      <defs>
       <path d="M 12.40625 8.296875 
L 28.515625 8.296875 
L 28.515625 63.921875 
L 10.984375 60.40625 
L 10.984375 69.390625 
L 28.421875 72.90625 
L 38.28125 72.90625 
L 38.28125 8.296875 
L 54.390625 8.296875 
L 54.390625 0 
L 12.40625 0 
z
" id="DejaVuSans-31"/>
      </defs>
      <g transform="translate(51.525625 79.748281)scale(0.22 -0.22)">
       <use xlink:href="#DejaVuSans-31"/>
       <use x="63.623047" xlink:href="#DejaVuSans-2e"/>
       <use x="95.410156" xlink:href="#DejaVuSans-30"/>
       <use x="159.033203" xlink:href="#DejaVuSans-30"/>
      </g>
     </g>
    </g>
    <g id="text_10">
     <!-- $F(\frac{n-1}{2})$ -->
     <defs>
      <path d="M 16.890625 72.90625 
L 58.6875 72.90625 
L 57.078125 64.59375 
L 25.09375 64.59375 
L 20.90625 43.109375 
L 49.8125 43.109375 
L 48.1875 34.8125 
L 19.28125 34.8125 
L 12.5 0 
L 2.6875 0 
z
" id="DejaVuSans-Oblique-46"/>
      <path d="M 31 75.875 
Q 24.46875 64.65625 21.28125 53.65625 
Q 18.109375 42.671875 18.109375 31.390625 
Q 18.109375 20.125 21.3125 9.0625 
Q 24.515625 -2 31 -13.1875 
L 23.1875 -13.1875 
Q 15.875 -1.703125 12.234375 9.375 
Q 8.59375 20.453125 8.59375 31.390625 
Q 8.59375 42.28125 12.203125 53.3125 
Q 15.828125 64.359375 23.1875 75.875 
z
" id="DejaVuSans-28"/>
      <path d="M 55.71875 33.015625 
L 49.3125 0 
L 40.28125 0 
L 46.6875 32.671875 
Q 47.125 34.96875 47.359375 36.71875 
Q 47.609375 38.484375 47.609375 39.5 
Q 47.609375 43.609375 45.015625 45.890625 
Q 42.4375 48.1875 37.796875 48.1875 
Q 30.5625 48.1875 25.34375 43.375 
Q 20.125 38.578125 18.5 30.328125 
L 12.5 0 
L 3.515625 0 
L 14.109375 54.6875 
L 23.09375 54.6875 
L 21.296875 46.09375 
Q 25.046875 50.828125 30.3125 53.40625 
Q 35.59375 56 41.40625 56 
Q 48.640625 56 52.609375 52.09375 
Q 56.59375 48.1875 56.59375 41.109375 
Q 56.59375 39.359375 56.375 37.359375 
Q 56.15625 35.359375 55.71875 33.015625 
z
" id="DejaVuSans-Oblique-6e"/>
      <path d="M 10.59375 35.5 
L 73.1875 35.5 
L 73.1875 27.203125 
L 10.59375 27.203125 
z
" id="DejaVuSans-2212"/>
      <path d="M 8.015625 75.875 
L 15.828125 75.875 
Q 23.140625 64.359375 26.78125 53.3125 
Q 30.421875 42.28125 30.421875 31.390625 
Q 30.421875 20.453125 26.78125 9.375 
Q 23.140625 -1.703125 15.828125 -13.1875 
L 8.015625 -13.1875 
Q 14.5 -2 17.703125 9.0625 
Q 20.90625 20.125 20.90625 31.390625 
Q 20.90625 42.671875 17.703125 53.65625 
Q 14.5 64.65625 8.015625 75.875 
z
" id="DejaVuSans-29"/>
     </defs>
     <g transform="translate(37.925625 183.81)rotate(-90)scale(0.24 -0.24)">
      <use transform="translate(0 0.16875)" xlink:href="#DejaVuSans-Oblique-46"/>
      <use transform="translate(57.519531 0.16875)" xlink:href="#DejaVuSans-28"/>
      <use transform="translate(96.533203 43.965625)scale(0.7)" xlink:href="#DejaVuSans-Oblique-6e"/>
      <use transform="translate(154.536133 43.965625)scale(0.7)" xlink:href="#DejaVuSans-2212"/>
      <use transform="translate(226.826172 43.965625)scale(0.7)" xlink:href="#DejaVuSans-31"/>
      <use transform="translate(161.533203 -39.2375)scale(0.7)" xlink:href="#DejaVuSans-32"/>
      <use transform="translate(283.862305 0.16875)" xlink:href="#DejaVuSans-29"/>
      <path d="M 96.533203 18.965625 
L 96.533203 25.215625 
L 271.362305 25.215625 
L 271.362305 18.965625 
L 96.533203 18.965625 
z
"/>
     </g>
    </g>
   </g>
   <g id="line2d_9">
    <path clip-path="url(#pbd3a34a72d)" d="M 143.541234 177.542358 
L 143.541234 170.288118 
" style="fill:none;stroke:#424242;stroke-linecap:square;stroke-width:5.4;"/>
   </g>
   <g id="line2d_10">
    <path clip-path="url(#pbd3a34a72d)" d="M 244.26526 184.129084 
L 244.26526 175.510901 
" style="fill:none;stroke:#424242;stroke-linecap:square;stroke-width:5.4;"/>
   </g>
   <g id="line2d_11">
    <path clip-path="url(#pbd3a34a72d)" d="M 344.989286 191.621099 
L 344.989286 181.870759 
" style="fill:none;stroke:#424242;stroke-linecap:square;stroke-width:5.4;"/>
   </g>
   <g id="line2d_12">
    <path clip-path="url(#pbd3a34a72d)" d="M 170.400974 183.652275 
L 170.400974 173.86171 
" style="fill:none;stroke:#424242;stroke-linecap:square;stroke-width:5.4;"/>
   </g>
   <g id="line2d_13">
    <path clip-path="url(#pbd3a34a72d)" d="M 271.125 192.345235 
L 271.125 181.367246 
" style="fill:none;stroke:#424242;stroke-linecap:square;stroke-width:5.4;"/>
   </g>
   <g id="line2d_14">
    <path clip-path="url(#pbd3a34a72d)" d="M 371.849026 187.795585 
L 371.849026 179.968786 
" style="fill:none;stroke:#424242;stroke-linecap:square;stroke-width:5.4;"/>
   </g>
   <g id="line2d_15">
    <path clip-path="url(#pbd3a34a72d)" d="M 197.260714 187.176119 
L 197.260714 176.982514 
" style="fill:none;stroke:#424242;stroke-linecap:square;stroke-width:5.4;"/>
   </g>
   <g id="line2d_16">
    <path clip-path="url(#pbd3a34a72d)" d="M 297.98474 194.141511 
L 297.98474 183.742842 
" style="fill:none;stroke:#424242;stroke-linecap:square;stroke-width:5.4;"/>
   </g>
   <g id="line2d_17">
    <path clip-path="url(#pbd3a34a72d)" d="M 398.708766 202.496792 
L 398.708766 191.332212 
" style="fill:none;stroke:#424242;stroke-linecap:square;stroke-width:5.4;"/>
   </g>
   <g id="line2d_18">
    <path d="M 371.849026 166.709986 
L 371.849026 162.290386 
L 398.708766 162.290386 
L 398.708766 166.709986 
" style="fill:none;stroke:#333333;stroke-linecap:square;stroke-width:1.5;"/>
   </g>
   <g id="line2d_19">
    <path d="M 244.26526 162.252101 
L 244.26526 157.832501 
L 271.125 157.832501 
L 271.125 162.252101 
" style="fill:none;stroke:#333333;stroke-linecap:square;stroke-width:1.5;"/>
   </g>
   <g id="line2d_20">
    <path d="M 344.989286 143.523295 
L 344.989286 139.103695 
L 398.708766 139.103695 
L 398.708766 143.523295 
" style="fill:none;stroke:#333333;stroke-linecap:square;stroke-width:1.5;"/>
   </g>
   <g id="line2d_21">
    <path d="M 244.26526 139.06541 
L 244.26526 134.64581 
L 297.98474 134.64581 
L 297.98474 139.06541 
" style="fill:none;stroke:#333333;stroke-linecap:square;stroke-width:1.5;"/>
   </g>
   <g id="line2d_22">
    <path d="M 143.541234 157.029318 
L 143.541234 152.609718 
L 197.260714 152.609718 
L 197.260714 157.029318 
" style="fill:none;stroke:#333333;stroke-linecap:square;stroke-width:1.5;"/>
   </g>
   <g id="patch_12">
    <path d="M 116.01 255.54 
L 116.01 34.56 
" style="fill:none;stroke:#000000;stroke-linecap:square;stroke-linejoin:miter;stroke-width:2.5;"/>
   </g>
   <g id="patch_13">
    <path d="M 426.24 255.54 
L 426.24 34.56 
" style="fill:none;stroke:#000000;stroke-linecap:square;stroke-linejoin:miter;stroke-width:2.5;"/>
   </g>
   <g id="patch_14">
    <path d="M 116.01 255.54 
L 426.24 255.54 
" style="fill:none;stroke:#000000;stroke-linecap:square;stroke-linejoin:miter;stroke-width:2.5;"/>
   </g>
   <g id="patch_15">
    <path d="M 116.01 34.56 
L 426.24 34.56 
" style="fill:none;stroke:#000000;stroke-linecap:square;stroke-linejoin:miter;stroke-width:2.5;"/>
   </g>
   <g id="text_11">
    <!-- *** -->
    <defs>
     <path d="M 47.015625 60.890625 
L 29.5 51.421875 
L 47.015625 41.890625 
L 44.1875 37.109375 
L 27.78125 47.015625 
L 27.78125 28.609375 
L 22.21875 28.609375 
L 22.21875 47.015625 
L 5.8125 37.109375 
L 2.984375 41.890625 
L 20.515625 51.421875 
L 2.984375 60.890625 
L 5.8125 65.71875 
L 22.21875 55.8125 
L 22.21875 74.21875 
L 27.78125 74.21875 
L 27.78125 55.8125 
L 44.1875 65.71875 
z
" id="DejaVuSans-2a"/>
    </defs>
    <g transform="translate(376.278896 159.294761)scale(0.12 -0.12)">
     <use xlink:href="#DejaVuSans-2a"/>
     <use x="50" xlink:href="#DejaVuSans-2a"/>
     <use x="100" xlink:href="#DejaVuSans-2a"/>
    </g>
   </g>
   <g id="text_12">
    <!-- * -->
    <g transform="translate(254.69513 154.836876)scale(0.12 -0.12)">
     <use xlink:href="#DejaVuSans-2a"/>
    </g>
   </g>
   <g id="text_13">
    <!-- * -->
    <g transform="translate(368.849026 136.10807)scale(0.12 -0.12)">
     <use xlink:href="#DejaVuSans-2a"/>
    </g>
   </g>
   <g id="text_14">
    <!-- * -->
    <g transform="translate(268.125 131.650185)scale(0.12 -0.12)">
     <use xlink:href="#DejaVuSans-2a"/>
    </g>
   </g>
   <g id="text_15">
    <!-- * -->
    <g transform="translate(167.400974 149.614093)scale(0.12 -0.12)">
     <use xlink:href="#DejaVuSans-2a"/>
    </g>
   </g>
  </g>
 </g>
 <defs>
  <clipPath id="pbd3a34a72d">
   <rect height="220.98" width="310.23" x="116.01" y="34.56"/>
  </clipPath>
 </defs>
</svg>
