<?xml version="1.0" encoding="utf-8" standalone="no"?>
<!DOCTYPE svg PUBLIC "-//W3C//DTD SVG 1.1//EN"
  "http://www.w3.org/Graphics/SVG/1.1/DTD/svg11.dtd">
<svg xmlns:xlink="http://www.w3.org/1999/xlink" width="460.8pt" height="345.6pt" viewBox="0 0 460.8 345.6" xmlns="http://www.w3.org/2000/svg" version="1.1">
 <metadata>
  <rdf:RDF xmlns:dc="http://purl.org/dc/elements/1.1/" xmlns:cc="http://creativecommons.org/ns#" xmlns:rdf="http://www.w3.org/1999/02/22-rdf-syntax-ns#">
   <cc:Work>
    <dc:type rdf:resource="http://purl.org/dc/dcmitype/StillImage"/>
    <dc:date>2024-03-25T17:16:46.282530</dc:date>
    <dc:format>image/svg+xml</dc:format>
    <dc:creator>
     <cc:Agent>
      <dc:title>Matplotlib v3.8.3, https://matplotlib.org/</dc:title>
     </cc:Agent>
    </dc:creator>
   </cc:Work>
  </rdf:RDF>
 </metadata>
 <defs>
  <style type="text/css">*{stroke-linejoin: round; stroke-linecap: butt}</style>
 </defs>
 <g id="figure_1">
  <g id="patch_1">
   <path d="M 0 345.6 
L 460.8 345.6 
L 460.8 0 
L 0 0 
z
" style="fill: #ffffff"/>
  </g>
  <g id="axes_1">
   <g id="patch_2">
    <path d="M 57.6 307.584 
L 414.72 307.584 
L 414.72 41.472 
L 57.6 41.472 
z
" style="fill: #ffffff"/>
   </g>
   <g id="patch_3">
    <path d="M 66.528 307.584 
L 74.464 307.584 
L 74.464 300.780208 
L 66.528 300.780208 
z
" clip-path="url(#pd09a48f789)" style="fill: #3274a1"/>
   </g>
   <g id="patch_4">
    <path d="M 155.808 307.584 
L 163.744 307.584 
L 163.744 64.473423 
L 155.808 64.473423 
z
" clip-path="url(#pd09a48f789)" style="fill: #3274a1"/>
   </g>
   <g id="patch_5">
    <path d="M 245.088 307.584 
L 253.024 307.584 
L 253.024 64.35466 
L 245.088 64.35466 
z
" clip-path="url(#pd09a48f789)" style="fill: #3274a1"/>
   </g>
   <g id="patch_6">
    <path d="M 334.368 307.584 
L 342.304 307.584 
L 342.304 300.778666 
L 334.368 300.778666 
z
" clip-path="url(#pd09a48f789)" style="fill: #3274a1"/>
   </g>
   <g id="patch_7">
    <path d="M 74.464 307.584 
L 82.4 307.584 
L 82.4 298.790586 
L 74.464 298.790586 
z
" clip-path="url(#pd09a48f789)" style="fill: #e1812c"/>
   </g>
   <g id="patch_8">
    <path d="M 163.744 307.584 
L 171.68 307.584 
L 171.68 63.918516 
L 163.744 63.918516 
z
" clip-path="url(#pd09a48f789)" style="fill: #e1812c"/>
   </g>
   <g id="patch_9">
    <path d="M 253.024 307.584 
L 260.96 307.584 
L 260.96 63.986338 
L 253.024 63.986338 
z
" clip-path="url(#pd09a48f789)" style="fill: #e1812c"/>
   </g>
   <g id="patch_10">
    <path d="M 342.304 307.584 
L 350.24 307.584 
L 350.24 298.778447 
L 342.304 298.778447 
z
" clip-path="url(#pd09a48f789)" style="fill: #e1812c"/>
   </g>
   <g id="patch_11">
    <path d="M 82.4 307.584 
L 90.336 307.584 
L 90.336 304.722743 
L 82.4 304.722743 
z
" clip-path="url(#pd09a48f789)" style="fill: #3a923a"/>
   </g>
   <g id="patch_12">
    <path d="M 171.68 307.584 
L 179.616 307.584 
L 179.616 78.049613 
L 171.68 78.049613 
z
" clip-path="url(#pd09a48f789)" style="fill: #3a923a"/>
   </g>
   <g id="patch_13">
    <path d="M 260.96 307.584 
L 268.896 307.584 
L 268.896 78.115874 
L 260.96 78.115874 
z
" clip-path="url(#pd09a48f789)" style="fill: #3a923a"/>
   </g>
   <g id="patch_14">
    <path d="M 350.24 307.584 
L 358.176 307.584 
L 358.176 304.72334 
L 350.24 304.72334 
z
" clip-path="url(#pd09a48f789)" style="fill: #3a923a"/>
   </g>
   <g id="patch_15">
    <path d="M 90.336 307.584 
L 98.272 307.584 
L 98.272 303.242524 
L 90.336 303.242524 
z
" clip-path="url(#pd09a48f789)" style="fill: #c03d3e"/>
   </g>
   <g id="patch_16">
    <path d="M 179.616 307.584 
L 187.552 307.584 
L 187.552 74.107683 
L 179.616 74.107683 
z
" clip-path="url(#pd09a48f789)" style="fill: #c03d3e"/>
   </g>
   <g id="patch_17">
    <path d="M 268.896 307.584 
L 276.832 307.584 
L 276.832 74.090568 
L 268.896 74.090568 
z
" clip-path="url(#pd09a48f789)" style="fill: #c03d3e"/>
   </g>
   <g id="patch_18">
    <path d="M 358.176 307.584 
L 366.112 307.584 
L 366.112 303.260763 
L 358.176 303.260763 
z
" clip-path="url(#pd09a48f789)" style="fill: #c03d3e"/>
   </g>
   <g id="patch_19">
    <path d="M 98.272 307.584 
L 106.208 307.584 
L 106.208 298.801797 
L 98.272 298.801797 
z
" clip-path="url(#pd09a48f789)" style="fill: #9372b2"/>
   </g>
   <g id="patch_20">
    <path d="M 187.552 307.584 
L 195.488 307.584 
L 195.488 87.70949 
L 187.552 87.70949 
z
" clip-path="url(#pd09a48f789)" style="fill: #9372b2"/>
   </g>
   <g id="patch_21">
    <path d="M 276.832 307.584 
L 284.768 307.584 
L 284.768 87.637054 
L 276.832 87.637054 
z
" clip-path="url(#pd09a48f789)" style="fill: #9372b2"/>
   </g>
   <g id="patch_22">
    <path d="M 366.112 307.584 
L 374.048 307.584 
L 374.048 298.774865 
L 366.112 298.774865 
z
" clip-path="url(#pd09a48f789)" style="fill: #9372b2"/>
   </g>
   <g id="patch_23">
    <path d="M 106.208 307.584 
L 114.144 307.584 
L 114.144 301.964799 
L 106.208 301.964799 
z
" clip-path="url(#pd09a48f789)" style="fill: #845b53"/>
   </g>
   <g id="patch_24">
    <path d="M 195.488 307.584 
L 203.424 307.584 
L 203.424 97.500027 
L 195.488 97.500027 
z
" clip-path="url(#pd09a48f789)" style="fill: #845b53"/>
   </g>
   <g id="patch_25">
    <path d="M 284.768 307.584 
L 292.704 307.584 
L 292.704 97.387588 
L 284.768 97.387588 
z
" clip-path="url(#pd09a48f789)" style="fill: #845b53"/>
   </g>
   <g id="patch_26">
    <path d="M 374.048 307.584 
L 381.984 307.584 
L 381.984 301.971203 
L 374.048 301.971203 
z
" clip-path="url(#pd09a48f789)" style="fill: #845b53"/>
   </g>
   <g id="patch_27">
    <path d="M 114.144 307.584 
L 122.08 307.584 
L 122.08 290.057136 
L 114.144 290.057136 
z
" clip-path="url(#pd09a48f789)" style="fill: #d684bd"/>
   </g>
   <g id="patch_28">
    <path d="M 203.424 307.584 
L 211.36 307.584 
L 211.36 101.336582 
L 203.424 101.336582 
z
" clip-path="url(#pd09a48f789)" style="fill: #d684bd"/>
   </g>
   <g id="patch_29">
    <path d="M 292.704 307.584 
L 300.64 307.584 
L 300.64 101.383436 
L 292.704 101.383436 
z
" clip-path="url(#pd09a48f789)" style="fill: #d684bd"/>
   </g>
   <g id="patch_30">
    <path d="M 381.984 307.584 
L 389.92 307.584 
L 389.92 290.086274 
L 381.984 290.086274 
z
" clip-path="url(#pd09a48f789)" style="fill: #d684bd"/>
   </g>
   <g id="patch_31">
    <path d="M 122.08 307.584 
L 130.016 307.584 
L 130.016 295.189855 
L 122.08 295.189855 
z
" clip-path="url(#pd09a48f789)" style="fill: #7f7f7f"/>
   </g>
   <g id="patch_32">
    <path d="M 211.36 307.584 
L 219.296 307.584 
L 219.296 129.038704 
L 211.36 129.038704 
z
" clip-path="url(#pd09a48f789)" style="fill: #7f7f7f"/>
   </g>
   <g id="patch_33">
    <path d="M 300.64 307.584 
L 308.576 307.584 
L 308.576 129.091357 
L 300.64 129.091357 
z
" clip-path="url(#pd09a48f789)" style="fill: #7f7f7f"/>
   </g>
   <g id="patch_34">
    <path d="M 389.92 307.584 
L 397.856 307.584 
L 397.856 295.1846 
L 389.92 295.1846 
z
" clip-path="url(#pd09a48f789)" style="fill: #7f7f7f"/>
   </g>
   <g id="patch_35">
    <path d="M 130.016 307.584 
L 137.952 307.584 
L 137.952 301.459596 
L 130.016 301.459596 
z
" clip-path="url(#pd09a48f789)" style="fill: #a9aa35"/>
   </g>
   <g id="patch_36">
    <path d="M 219.296 307.584 
L 227.232 307.584 
L 227.232 154.777422 
L 219.296 154.777422 
z
" clip-path="url(#pd09a48f789)" style="fill: #a9aa35"/>
   </g>
   <g id="patch_37">
    <path d="M 308.576 307.584 
L 316.512 307.584 
L 316.512 154.743068 
L 308.576 154.743068 
z
" clip-path="url(#pd09a48f789)" style="fill: #a9aa35"/>
   </g>
   <g id="patch_38">
    <path d="M 397.856 307.584 
L 405.792 307.584 
L 405.792 301.490935 
L 397.856 301.490935 
z
" clip-path="url(#pd09a48f789)" style="fill: #a9aa35"/>
   </g>
   <g id="matplotlib.axis_1">
    <g id="xtick_1">
     <g id="line2d_1">
      <defs>
       <path id="macadb62f24" d="M 0 0 
L 0 12 
" style="stroke: #000000; stroke-width: 2.5"/>
      </defs>
      <g>
       <use xlink:href="#macadb62f24" x="102.24" y="307.584" style="stroke: #000000; stroke-width: 2.5"/>
      </g>
     </g>
     <g id="text_1">
      <!-- 0 -->
      <g transform="translate(95.24125 339.800562) scale(0.22 -0.22)">
       <defs>
        <path id="DejaVuSans-30" d="M 2034 4250 
Q 1547 4250 1301 3770 
Q 1056 3291 1056 2328 
Q 1056 1369 1301 889 
Q 1547 409 2034 409 
Q 2525 409 2770 889 
Q 3016 1369 3016 2328 
Q 3016 3291 2770 3770 
Q 2525 4250 2034 4250 
z
M 2034 4750 
Q 2819 4750 3233 4129 
Q 3647 3509 3647 2328 
Q 3647 1150 3233 529 
Q 2819 -91 2034 -91 
Q 1250 -91 836 529 
Q 422 1150 422 2328 
Q 422 3509 836 4129 
Q 1250 4750 2034 4750 
z
" transform="scale(0.015625)"/>
       </defs>
       <use xlink:href="#DejaVuSans-30"/>
      </g>
     </g>
    </g>
    <g id="xtick_2">
     <g id="line2d_2">
      <g>
       <use xlink:href="#macadb62f24" x="191.52" y="307.584" style="stroke: #000000; stroke-width: 2.5"/>
      </g>
     </g>
     <g id="text_2">
      <!-- 1 -->
      <g transform="translate(184.52125 339.800562) scale(0.22 -0.22)">
       <defs>
        <path id="DejaVuSans-31" d="M 794 531 
L 1825 531 
L 1825 4091 
L 703 3866 
L 703 4441 
L 1819 4666 
L 2450 4666 
L 2450 531 
L 3481 531 
L 3481 0 
L 794 0 
L 794 531 
z
" transform="scale(0.015625)"/>
       </defs>
       <use xlink:href="#DejaVuSans-31"/>
      </g>
     </g>
    </g>
    <g id="xtick_3">
     <g id="line2d_3">
      <g>
       <use xlink:href="#macadb62f24" x="280.8" y="307.584" style="stroke: #000000; stroke-width: 2.5"/>
      </g>
     </g>
     <g id="text_3">
      <!-- 2 -->
      <g transform="translate(273.80125 339.800562) scale(0.22 -0.22)">
       <defs>
        <path id="DejaVuSans-32" d="M 1228 531 
L 3431 531 
L 3431 0 
L 469 0 
L 469 531 
Q 828 903 1448 1529 
Q 2069 2156 2228 2338 
Q 2531 2678 2651 2914 
Q 2772 3150 2772 3378 
Q 2772 3750 2511 3984 
Q 2250 4219 1831 4219 
Q 1534 4219 1204 4116 
Q 875 4013 500 3803 
L 500 4441 
Q 881 4594 1212 4672 
Q 1544 4750 1819 4750 
Q 2544 4750 2975 4387 
Q 3406 4025 3406 3419 
Q 3406 3131 3298 2873 
Q 3191 2616 2906 2266 
Q 2828 2175 2409 1742 
Q 1991 1309 1228 531 
z
" transform="scale(0.015625)"/>
       </defs>
       <use xlink:href="#DejaVuSans-32"/>
      </g>
     </g>
    </g>
    <g id="xtick_4">
     <g id="line2d_4">
      <g>
       <use xlink:href="#macadb62f24" x="370.08" y="307.584" style="stroke: #000000; stroke-width: 2.5"/>
      </g>
     </g>
     <g id="text_4">
      <!-- 3 -->
      <g transform="translate(363.08125 339.800562) scale(0.22 -0.22)">
       <defs>
        <path id="DejaVuSans-33" d="M 2597 2516 
Q 3050 2419 3304 2112 
Q 3559 1806 3559 1356 
Q 3559 666 3084 287 
Q 2609 -91 1734 -91 
Q 1441 -91 1130 -33 
Q 819 25 488 141 
L 488 750 
Q 750 597 1062 519 
Q 1375 441 1716 441 
Q 2309 441 2620 675 
Q 2931 909 2931 1356 
Q 2931 1769 2642 2001 
Q 2353 2234 1838 2234 
L 1294 2234 
L 1294 2753 
L 1863 2753 
Q 2328 2753 2575 2939 
Q 2822 3125 2822 3475 
Q 2822 3834 2567 4026 
Q 2313 4219 1838 4219 
Q 1578 4219 1281 4162 
Q 984 4106 628 3988 
L 628 4550 
Q 988 4650 1302 4700 
Q 1616 4750 1894 4750 
Q 2613 4750 3031 4423 
Q 3450 4097 3450 3541 
Q 3450 3153 3228 2886 
Q 3006 2619 2597 2516 
z
" transform="scale(0.015625)"/>
       </defs>
       <use xlink:href="#DejaVuSans-33"/>
      </g>
     </g>
    </g>
    <g id="text_5">
     <!-- Fn -->
     <g transform="translate(221.653125 366.612125) scale(0.24 -0.24)">
      <defs>
       <path id="DejaVuSans-46" d="M 628 4666 
L 3309 4666 
L 3309 4134 
L 1259 4134 
L 1259 2759 
L 3109 2759 
L 3109 2228 
L 1259 2228 
L 1259 0 
L 628 0 
L 628 4666 
z
" transform="scale(0.015625)"/>
       <path id="DejaVuSans-6e" d="M 3513 2113 
L 3513 0 
L 2938 0 
L 2938 2094 
Q 2938 2591 2744 2837 
Q 2550 3084 2163 3084 
Q 1697 3084 1428 2787 
Q 1159 2491 1159 1978 
L 1159 0 
L 581 0 
L 581 3500 
L 1159 3500 
L 1159 2956 
Q 1366 3272 1645 3428 
Q 1925 3584 2291 3584 
Q 2894 3584 3203 3211 
Q 3513 2838 3513 2113 
z
" transform="scale(0.015625)"/>
      </defs>
      <use xlink:href="#DejaVuSans-46"/>
      <use xlink:href="#DejaVuSans-6e" x="57.519531"/>
     </g>
    </g>
   </g>
   <g id="matplotlib.axis_2">
    <g id="ytick_1">
     <g id="line2d_5">
      <defs>
       <path id="mbd1f834859" d="M 0 0 
L -12 0 
" style="stroke: #000000; stroke-width: 2.5"/>
      </defs>
      <g>
       <use xlink:href="#mbd1f834859" x="57.6" y="307.584" style="stroke: #000000; stroke-width: 2.5"/>
      </g>
     </g>
     <g id="text_6">
      <!-- 0.0 -->
      <g transform="translate(7.113125 315.942281) scale(0.22 -0.22)">
       <defs>
        <path id="DejaVuSans-2e" d="M 684 794 
L 1344 794 
L 1344 0 
L 684 0 
L 684 794 
z
" transform="scale(0.015625)"/>
       </defs>
       <use xlink:href="#DejaVuSans-30"/>
       <use xlink:href="#DejaVuSans-2e" x="63.623047"/>
       <use xlink:href="#DejaVuSans-30" x="95.410156"/>
      </g>
     </g>
    </g>
    <g id="ytick_2">
     <g id="line2d_6">
      <g>
       <use xlink:href="#mbd1f834859" x="57.6" y="255.037124" style="stroke: #000000; stroke-width: 2.5"/>
      </g>
     </g>
     <g id="text_7">
      <!-- 0.1 -->
      <g transform="translate(7.113125 263.395405) scale(0.22 -0.22)">
       <use xlink:href="#DejaVuSans-30"/>
       <use xlink:href="#DejaVuSans-2e" x="63.623047"/>
       <use xlink:href="#DejaVuSans-31" x="95.410156"/>
      </g>
     </g>
    </g>
    <g id="ytick_3">
     <g id="line2d_7">
      <g>
       <use xlink:href="#mbd1f834859" x="57.6" y="202.490248" style="stroke: #000000; stroke-width: 2.5"/>
      </g>
     </g>
     <g id="text_8">
      <!-- 0.2 -->
      <g transform="translate(7.113125 210.84853) scale(0.22 -0.22)">
       <use xlink:href="#DejaVuSans-30"/>
       <use xlink:href="#DejaVuSans-2e" x="63.623047"/>
       <use xlink:href="#DejaVuSans-32" x="95.410156"/>
      </g>
     </g>
    </g>
    <g id="ytick_4">
     <g id="line2d_8">
      <g>
       <use xlink:href="#mbd1f834859" x="57.6" y="149.943373" style="stroke: #000000; stroke-width: 2.5"/>
      </g>
     </g>
     <g id="text_9">
      <!-- 0.3 -->
      <g transform="translate(7.113125 158.301654) scale(0.22 -0.22)">
       <use xlink:href="#DejaVuSans-30"/>
       <use xlink:href="#DejaVuSans-2e" x="63.623047"/>
       <use xlink:href="#DejaVuSans-33" x="95.410156"/>
      </g>
     </g>
    </g>
    <g id="ytick_5">
     <g id="line2d_9">
      <g>
       <use xlink:href="#mbd1f834859" x="57.6" y="97.396497" style="stroke: #000000; stroke-width: 2.5"/>
      </g>
     </g>
     <g id="text_10">
      <!-- 0.4 -->
      <g transform="translate(7.113125 105.754778) scale(0.22 -0.22)">
       <defs>
        <path id="DejaVuSans-34" d="M 2419 4116 
L 825 1625 
L 2419 1625 
L 2419 4116 
z
M 2253 4666 
L 3047 4666 
L 3047 1625 
L 3713 1625 
L 3713 1100 
L 3047 1100 
L 3047 0 
L 2419 0 
L 2419 1100 
L 313 1100 
L 313 1709 
L 2253 4666 
z
" transform="scale(0.015625)"/>
       </defs>
       <use xlink:href="#DejaVuSans-30"/>
       <use xlink:href="#DejaVuSans-2e" x="63.623047"/>
       <use xlink:href="#DejaVuSans-34" x="95.410156"/>
      </g>
     </g>
    </g>
    <g id="ytick_6">
     <g id="line2d_10">
      <g>
       <use xlink:href="#mbd1f834859" x="57.6" y="44.849621" style="stroke: #000000; stroke-width: 2.5"/>
      </g>
     </g>
     <g id="text_11">
      <!-- 0.5 -->
      <g transform="translate(7.113125 53.207902) scale(0.22 -0.22)">
       <defs>
        <path id="DejaVuSans-35" d="M 691 4666 
L 3169 4666 
L 3169 4134 
L 1269 4134 
L 1269 2991 
Q 1406 3038 1543 3061 
Q 1681 3084 1819 3084 
Q 2600 3084 3056 2656 
Q 3513 2228 3513 1497 
Q 3513 744 3044 326 
Q 2575 -91 1722 -91 
Q 1428 -91 1123 -41 
Q 819 9 494 109 
L 494 744 
Q 775 591 1075 516 
Q 1375 441 1709 441 
Q 2250 441 2565 725 
Q 2881 1009 2881 1497 
Q 2881 1984 2565 2268 
Q 2250 2553 1709 2553 
Q 1456 2553 1204 2497 
Q 953 2441 691 2322 
L 691 4666 
z
" transform="scale(0.015625)"/>
       </defs>
       <use xlink:href="#DejaVuSans-30"/>
       <use xlink:href="#DejaVuSans-2e" x="63.623047"/>
       <use xlink:href="#DejaVuSans-35" x="95.410156"/>
      </g>
     </g>
    </g>
    <g id="text_12">
     <!-- Frequency -->
     <g transform="translate(-1.878125 236.51925) rotate(-90) scale(0.24 -0.24)">
      <defs>
       <path id="DejaVuSans-72" d="M 2631 2963 
Q 2534 3019 2420 3045 
Q 2306 3072 2169 3072 
Q 1681 3072 1420 2755 
Q 1159 2438 1159 1844 
L 1159 0 
L 581 0 
L 581 3500 
L 1159 3500 
L 1159 2956 
Q 1341 3275 1631 3429 
Q 1922 3584 2338 3584 
Q 2397 3584 2469 3576 
Q 2541 3569 2628 3553 
L 2631 2963 
z
" transform="scale(0.015625)"/>
       <path id="DejaVuSans-65" d="M 3597 1894 
L 3597 1613 
L 953 1613 
Q 991 1019 1311 708 
Q 1631 397 2203 397 
Q 2534 397 2845 478 
Q 3156 559 3463 722 
L 3463 178 
Q 3153 47 2828 -22 
Q 2503 -91 2169 -91 
Q 1331 -91 842 396 
Q 353 884 353 1716 
Q 353 2575 817 3079 
Q 1281 3584 2069 3584 
Q 2775 3584 3186 3129 
Q 3597 2675 3597 1894 
z
M 3022 2063 
Q 3016 2534 2758 2815 
Q 2500 3097 2075 3097 
Q 1594 3097 1305 2825 
Q 1016 2553 972 2059 
L 3022 2063 
z
" transform="scale(0.015625)"/>
       <path id="DejaVuSans-71" d="M 947 1747 
Q 947 1113 1208 752 
Q 1469 391 1925 391 
Q 2381 391 2643 752 
Q 2906 1113 2906 1747 
Q 2906 2381 2643 2742 
Q 2381 3103 1925 3103 
Q 1469 3103 1208 2742 
Q 947 2381 947 1747 
z
M 2906 525 
Q 2725 213 2448 61 
Q 2172 -91 1784 -91 
Q 1150 -91 751 415 
Q 353 922 353 1747 
Q 353 2572 751 3078 
Q 1150 3584 1784 3584 
Q 2172 3584 2448 3432 
Q 2725 3281 2906 2969 
L 2906 3500 
L 3481 3500 
L 3481 -1331 
L 2906 -1331 
L 2906 525 
z
" transform="scale(0.015625)"/>
       <path id="DejaVuSans-75" d="M 544 1381 
L 544 3500 
L 1119 3500 
L 1119 1403 
Q 1119 906 1312 657 
Q 1506 409 1894 409 
Q 2359 409 2629 706 
Q 2900 1003 2900 1516 
L 2900 3500 
L 3475 3500 
L 3475 0 
L 2900 0 
L 2900 538 
Q 2691 219 2414 64 
Q 2138 -91 1772 -91 
Q 1169 -91 856 284 
Q 544 659 544 1381 
z
M 1991 3584 
L 1991 3584 
z
" transform="scale(0.015625)"/>
       <path id="DejaVuSans-63" d="M 3122 3366 
L 3122 2828 
Q 2878 2963 2633 3030 
Q 2388 3097 2138 3097 
Q 1578 3097 1268 2742 
Q 959 2388 959 1747 
Q 959 1106 1268 751 
Q 1578 397 2138 397 
Q 2388 397 2633 464 
Q 2878 531 3122 666 
L 3122 134 
Q 2881 22 2623 -34 
Q 2366 -91 2075 -91 
Q 1284 -91 818 406 
Q 353 903 353 1747 
Q 353 2603 823 3093 
Q 1294 3584 2113 3584 
Q 2378 3584 2631 3529 
Q 2884 3475 3122 3366 
z
" transform="scale(0.015625)"/>
       <path id="DejaVuSans-79" d="M 2059 -325 
Q 1816 -950 1584 -1140 
Q 1353 -1331 966 -1331 
L 506 -1331 
L 506 -850 
L 844 -850 
Q 1081 -850 1212 -737 
Q 1344 -625 1503 -206 
L 1606 56 
L 191 3500 
L 800 3500 
L 1894 763 
L 2988 3500 
L 3597 3500 
L 2059 -325 
z
" transform="scale(0.015625)"/>
      </defs>
      <use xlink:href="#DejaVuSans-46"/>
      <use xlink:href="#DejaVuSans-72" x="50.269531"/>
      <use xlink:href="#DejaVuSans-65" x="89.132812"/>
      <use xlink:href="#DejaVuSans-71" x="150.65625"/>
      <use xlink:href="#DejaVuSans-75" x="214.132812"/>
      <use xlink:href="#DejaVuSans-65" x="277.511719"/>
      <use xlink:href="#DejaVuSans-6e" x="339.035156"/>
      <use xlink:href="#DejaVuSans-63" x="402.414062"/>
      <use xlink:href="#DejaVuSans-79" x="457.394531"/>
     </g>
    </g>
   </g>
   <g id="line2d_11">
    <path d="M 70.496 305.962581 
L 70.496 294.204099 
" clip-path="url(#pd09a48f789)" style="fill: none; stroke: #424242; stroke-width: 4.5; stroke-linecap: square"/>
   </g>
   <g id="line2d_12">
    <path d="M 159.776 74.43652 
L 159.776 55.658288 
" clip-path="url(#pd09a48f789)" style="fill: none; stroke: #424242; stroke-width: 4.5; stroke-linecap: square"/>
   </g>
   <g id="line2d_13">
    <path d="M 249.056 74.304072 
L 249.056 55.299889 
" clip-path="url(#pd09a48f789)" style="fill: none; stroke: #424242; stroke-width: 4.5; stroke-linecap: square"/>
   </g>
   <g id="line2d_14">
    <path d="M 338.336 305.941635 
L 338.336 293.801837 
" clip-path="url(#pd09a48f789)" style="fill: none; stroke: #424242; stroke-width: 4.5; stroke-linecap: square"/>
   </g>
   <g id="line2d_15">
    <path d="M 78.432 306.544336 
L 78.432 289.505575 
" clip-path="url(#pd09a48f789)" style="fill: none; stroke: #424242; stroke-width: 4.5; stroke-linecap: square"/>
   </g>
   <g id="line2d_16">
    <path d="M 167.712 75.472139 
L 167.712 54.388045 
" clip-path="url(#pd09a48f789)" style="fill: none; stroke: #424242; stroke-width: 4.5; stroke-linecap: square"/>
   </g>
   <g id="line2d_17">
    <path d="M 256.992 75.472713 
L 256.992 54.144 
" clip-path="url(#pd09a48f789)" style="fill: none; stroke: #424242; stroke-width: 4.5; stroke-linecap: square"/>
   </g>
   <g id="line2d_18">
    <path d="M 346.272 306.609398 
L 346.272 288.534711 
" clip-path="url(#pd09a48f789)" style="fill: none; stroke: #424242; stroke-width: 4.5; stroke-linecap: square"/>
   </g>
   <g id="line2d_19">
    <path d="M 86.368 307.526218 
L 86.368 300.592817 
" clip-path="url(#pd09a48f789)" style="fill: none; stroke: #424242; stroke-width: 4.5; stroke-linecap: square"/>
   </g>
   <g id="line2d_20">
    <path d="M 175.648 90.846442 
L 175.648 66.114903 
" clip-path="url(#pd09a48f789)" style="fill: none; stroke: #424242; stroke-width: 4.5; stroke-linecap: square"/>
   </g>
   <g id="line2d_21">
    <path d="M 264.928 90.043452 
L 264.928 66.227172 
" clip-path="url(#pd09a48f789)" style="fill: none; stroke: #424242; stroke-width: 4.5; stroke-linecap: square"/>
   </g>
   <g id="line2d_22">
    <path d="M 354.208 307.584 
L 354.208 300.620305 
" clip-path="url(#pd09a48f789)" style="fill: none; stroke: #424242; stroke-width: 4.5; stroke-linecap: square"/>
   </g>
   <g id="line2d_23">
    <path d="M 94.304 306.103433 
L 94.304 299.542724 
" clip-path="url(#pd09a48f789)" style="fill: none; stroke: #424242; stroke-width: 4.5; stroke-linecap: square"/>
   </g>
   <g id="line2d_24">
    <path d="M 183.584 85.371477 
L 183.584 64.159792 
" clip-path="url(#pd09a48f789)" style="fill: none; stroke: #424242; stroke-width: 4.5; stroke-linecap: square"/>
   </g>
   <g id="line2d_25">
    <path d="M 272.864 85.216645 
L 272.864 63.973343 
" clip-path="url(#pd09a48f789)" style="fill: none; stroke: #424242; stroke-width: 4.5; stroke-linecap: square"/>
   </g>
   <g id="line2d_26">
    <path d="M 362.144 306.101249 
L 362.144 299.262106 
" clip-path="url(#pd09a48f789)" style="fill: none; stroke: #424242; stroke-width: 4.5; stroke-linecap: square"/>
   </g>
   <g id="line2d_27">
    <path d="M 102.24 304.109873 
L 102.24 292.402011 
" clip-path="url(#pd09a48f789)" style="fill: none; stroke: #424242; stroke-width: 4.5; stroke-linecap: square"/>
   </g>
   <g id="line2d_28">
    <path d="M 191.52 101.578448 
L 191.52 74.441429 
" clip-path="url(#pd09a48f789)" style="fill: none; stroke: #424242; stroke-width: 4.5; stroke-linecap: square"/>
   </g>
   <g id="line2d_29">
    <path d="M 280.8 103.109915 
L 280.8 74.215223 
" clip-path="url(#pd09a48f789)" style="fill: none; stroke: #424242; stroke-width: 4.5; stroke-linecap: square"/>
   </g>
   <g id="line2d_30">
    <path d="M 370.08 303.984042 
L 370.08 292.865712 
" clip-path="url(#pd09a48f789)" style="fill: none; stroke: #424242; stroke-width: 4.5; stroke-linecap: square"/>
   </g>
   <g id="line2d_31">
    <path d="M 110.176 305.945164 
L 110.176 297.550373 
" clip-path="url(#pd09a48f789)" style="fill: none; stroke: #424242; stroke-width: 4.5; stroke-linecap: square"/>
   </g>
   <g id="line2d_32">
    <path d="M 199.456 112.700367 
L 199.456 83.676215 
" clip-path="url(#pd09a48f789)" style="fill: none; stroke: #424242; stroke-width: 4.5; stroke-linecap: square"/>
   </g>
   <g id="line2d_33">
    <path d="M 288.736 112.90955 
L 288.736 83.309727 
" clip-path="url(#pd09a48f789)" style="fill: none; stroke: #424242; stroke-width: 4.5; stroke-linecap: square"/>
   </g>
   <g id="line2d_34">
    <path d="M 378.016 305.975531 
L 378.016 296.899478 
" clip-path="url(#pd09a48f789)" style="fill: none; stroke: #424242; stroke-width: 4.5; stroke-linecap: square"/>
   </g>
   <g id="line2d_35">
    <path d="M 118.112 298.360616 
L 118.112 280.814107 
" clip-path="url(#pd09a48f789)" style="fill: none; stroke: #424242; stroke-width: 4.5; stroke-linecap: square"/>
   </g>
   <g id="line2d_36">
    <path d="M 207.392 117.059445 
L 207.392 86.51698 
" clip-path="url(#pd09a48f789)" style="fill: none; stroke: #424242; stroke-width: 4.5; stroke-linecap: square"/>
   </g>
   <g id="line2d_37">
    <path d="M 296.672 116.131179 
L 296.672 87.166283 
" clip-path="url(#pd09a48f789)" style="fill: none; stroke: #424242; stroke-width: 4.5; stroke-linecap: square"/>
   </g>
   <g id="line2d_38">
    <path d="M 385.952 298.511319 
L 385.952 280.778132 
" clip-path="url(#pd09a48f789)" style="fill: none; stroke: #424242; stroke-width: 4.5; stroke-linecap: square"/>
   </g>
   <g id="line2d_39">
    <path d="M 126.048 302.228284 
L 126.048 286.149932 
" clip-path="url(#pd09a48f789)" style="fill: none; stroke: #424242; stroke-width: 4.5; stroke-linecap: square"/>
   </g>
   <g id="line2d_40">
    <path d="M 215.328 145.632842 
L 215.328 114.102379 
" clip-path="url(#pd09a48f789)" style="fill: none; stroke: #424242; stroke-width: 4.5; stroke-linecap: square"/>
   </g>
   <g id="line2d_41">
    <path d="M 304.608 145.203207 
L 304.608 113.285749 
" clip-path="url(#pd09a48f789)" style="fill: none; stroke: #424242; stroke-width: 4.5; stroke-linecap: square"/>
   </g>
   <g id="line2d_42">
    <path d="M 393.888 302.438215 
L 393.888 286.37431 
" clip-path="url(#pd09a48f789)" style="fill: none; stroke: #424242; stroke-width: 4.5; stroke-linecap: square"/>
   </g>
   <g id="line2d_43">
    <path d="M 133.984 304.692473 
L 133.984 297.480837 
" clip-path="url(#pd09a48f789)" style="fill: none; stroke: #424242; stroke-width: 4.5; stroke-linecap: square"/>
   </g>
   <g id="line2d_44">
    <path d="M 223.264 172.922952 
L 223.264 137.234606 
" clip-path="url(#pd09a48f789)" style="fill: none; stroke: #424242; stroke-width: 4.5; stroke-linecap: square"/>
   </g>
   <g id="line2d_45">
    <path d="M 312.544 172.569071 
L 312.544 138.580068 
" clip-path="url(#pd09a48f789)" style="fill: none; stroke: #424242; stroke-width: 4.5; stroke-linecap: square"/>
   </g>
   <g id="line2d_46">
    <path d="M 401.824 304.896911 
L 401.824 297.370229 
" clip-path="url(#pd09a48f789)" style="fill: none; stroke: #424242; stroke-width: 4.5; stroke-linecap: square"/>
   </g>
   <g id="patch_39">
    <path d="M 57.6 307.584 
L 57.6 41.472 
" style="fill: none; stroke: #000000; stroke-width: 2.5; stroke-linejoin: miter; stroke-linecap: square"/>
   </g>
   <g id="patch_40">
    <path d="M 414.72 307.584 
L 414.72 41.472 
" style="fill: none; stroke: #000000; stroke-width: 2.5; stroke-linejoin: miter; stroke-linecap: square"/>
   </g>
   <g id="patch_41">
    <path d="M 57.6 307.584 
L 414.72 307.584 
" style="fill: none; stroke: #000000; stroke-width: 2.5; stroke-linejoin: miter; stroke-linecap: square"/>
   </g>
   <g id="patch_42">
    <path d="M 57.6 41.472 
L 414.72 41.472 
" style="fill: none; stroke: #000000; stroke-width: 2.5; stroke-linejoin: miter; stroke-linecap: square"/>
   </g>
   <g id="text_13">
    <!-- T3 -->
    <g transform="translate(221.195625 35.472) scale(0.24 -0.24)">
     <defs>
      <path id="DejaVuSans-54" d="M -19 4666 
L 3928 4666 
L 3928 4134 
L 2272 4134 
L 2272 0 
L 1638 0 
L 1638 4134 
L -19 4134 
L -19 4666 
z
" transform="scale(0.015625)"/>
     </defs>
     <use xlink:href="#DejaVuSans-54"/>
     <use xlink:href="#DejaVuSans-33" x="61.083984"/>
    </g>
   </g>
  </g>
 </g>
 <defs>
  <clipPath id="pd09a48f789">
   <rect x="57.6" y="41.472" width="357.12" height="266.112"/>
  </clipPath>
 </defs>
</svg>
