<?xml version="1.0" encoding="utf-8" standalone="no"?>
<!DOCTYPE svg PUBLIC "-//W3C//DTD SVG 1.1//EN"
  "http://www.w3.org/Graphics/SVG/1.1/DTD/svg11.dtd">
<svg xmlns:xlink="http://www.w3.org/1999/xlink" width="460.8pt" height="345.6pt" viewBox="0 0 460.8 345.6" xmlns="http://www.w3.org/2000/svg" version="1.1">
 <metadata>
  <rdf:RDF xmlns:dc="http://purl.org/dc/elements/1.1/" xmlns:cc="http://creativecommons.org/ns#" xmlns:rdf="http://www.w3.org/1999/02/22-rdf-syntax-ns#">
   <cc:Work>
    <dc:type rdf:resource="http://purl.org/dc/dcmitype/StillImage"/>
    <dc:date>2024-03-28T11:27:59.061191</dc:date>
    <dc:format>image/svg+xml</dc:format>
    <dc:creator>
     <cc:Agent>
      <dc:title>Matplotlib v3.8.3, https://matplotlib.org/</dc:title>
     </cc:Agent>
    </dc:creator>
   </cc:Work>
  </rdf:RDF>
 </metadata>
 <defs>
  <style type="text/css">*{stroke-linejoin: round; stroke-linecap: butt}</style>
 </defs>
 <g id="figure_1">
  <g id="patch_1">
   <path d="M 0 345.6 
L 460.8 345.6 
L 460.8 0 
L 0 0 
z
" style="fill: #ffffff"/>
  </g>
  <g id="axes_1">
   <g id="patch_2">
    <path d="M 104.82 255.54 
L 434.88 255.54 
L 434.88 25.92 
L 104.82 25.92 
z
" style="fill: #ffffff"/>
   </g>
   <g id="patch_3">
    <path d="M 109.535143 255.54 
L 113.726381 255.54 
L 113.726381 46.794545 
L 109.535143 46.794545 
z
" clip-path="url(#p3ebaca58c4)" style="fill: #3e0c4a"/>
   </g>
   <g id="patch_4">
    <path d="M 156.686571 255.54 
L 160.87781 255.54 
L 160.87781 151.198445 
L 156.686571 151.198445 
z
" clip-path="url(#p3ebaca58c4)" style="fill: #3e0c4a"/>
   </g>
   <g id="patch_5">
    <path d="M 203.838 255.54 
L 208.029238 255.54 
L 208.029238 229.46978 
L 203.838 229.46978 
z
" clip-path="url(#p3ebaca58c4)" style="fill: #3e0c4a"/>
   </g>
   <g id="patch_6">
    <path d="M 250.989429 255.54 
L 255.180667 255.54 
L 255.180667 255.54 
L 250.989429 255.54 
z
" clip-path="url(#p3ebaca58c4)" style="fill: #3e0c4a"/>
   </g>
   <g id="patch_7">
    <path d="M 298.140857 255.54 
L 302.332095 255.54 
L 302.332095 255.54 
L 298.140857 255.54 
z
" clip-path="url(#p3ebaca58c4)" style="fill: #3e0c4a"/>
   </g>
   <g id="patch_8">
    <path d="M 345.292286 255.54 
L 349.483524 255.54 
L 349.483524 255.54 
L 345.292286 255.54 
z
" clip-path="url(#p3ebaca58c4)" style="fill: #3e0c4a"/>
   </g>
   <g id="patch_9">
    <path d="M 392.443714 255.54 
L 396.634952 255.54 
L 396.634952 255.54 
L 392.443714 255.54 
z
" clip-path="url(#p3ebaca58c4)" style="fill: #3e0c4a"/>
   </g>
   <g id="patch_10">
    <path d="M 113.726381 255.54 
L 117.917619 255.54 
L 117.917619 46.794545 
L 113.726381 46.794545 
z
" clip-path="url(#p3ebaca58c4)" style="fill: #4a3771"/>
   </g>
   <g id="patch_11">
    <path d="M 160.87781 255.54 
L 165.069048 255.54 
L 165.069048 151.229896 
L 160.87781 151.229896 
z
" clip-path="url(#p3ebaca58c4)" style="fill: #4a3771"/>
   </g>
   <g id="patch_12">
    <path d="M 208.029238 255.54 
L 212.220476 255.54 
L 212.220476 207.29322 
L 208.029238 207.29322 
z
" clip-path="url(#p3ebaca58c4)" style="fill: #4a3771"/>
   </g>
   <g id="patch_13">
    <path d="M 255.180667 255.54 
L 259.371905 255.54 
L 259.371905 255.54 
L 255.180667 255.54 
z
" clip-path="url(#p3ebaca58c4)" style="fill: #4a3771"/>
   </g>
   <g id="patch_14">
    <path d="M 302.332095 255.54 
L 306.523333 255.54 
L 306.523333 255.54 
L 302.332095 255.54 
z
" clip-path="url(#p3ebaca58c4)" style="fill: #4a3771"/>
   </g>
   <g id="patch_15">
    <path d="M 349.483524 255.54 
L 353.674762 255.54 
L 353.674762 255.54 
L 349.483524 255.54 
z
" clip-path="url(#p3ebaca58c4)" style="fill: #4a3771"/>
   </g>
   <g id="patch_16">
    <path d="M 396.634952 255.54 
L 400.82619 255.54 
L 400.82619 255.54 
L 396.634952 255.54 
z
" clip-path="url(#p3ebaca58c4)" style="fill: #4a3771"/>
   </g>
   <g id="patch_17">
    <path d="M 117.917619 255.54 
L 122.108857 255.54 
L 122.108857 46.794545 
L 117.917619 46.794545 
z
" clip-path="url(#p3ebaca58c4)" style="fill: #455681"/>
   </g>
   <g id="patch_18">
    <path d="M 165.069048 255.54 
L 169.260286 255.54 
L 169.260286 151.17604 
L 165.069048 151.17604 
z
" clip-path="url(#p3ebaca58c4)" style="fill: #455681"/>
   </g>
   <g id="patch_19">
    <path d="M 212.220476 255.54 
L 216.411714 255.54 
L 216.411714 255.54 
L 212.220476 255.54 
z
" clip-path="url(#p3ebaca58c4)" style="fill: #455681"/>
   </g>
   <g id="patch_20">
    <path d="M 259.371905 255.54 
L 263.563143 255.54 
L 263.563143 255.54 
L 259.371905 255.54 
z
" clip-path="url(#p3ebaca58c4)" style="fill: #455681"/>
   </g>
   <g id="patch_21">
    <path d="M 306.523333 255.54 
L 310.714571 255.54 
L 310.714571 255.54 
L 306.523333 255.54 
z
" clip-path="url(#p3ebaca58c4)" style="fill: #455681"/>
   </g>
   <g id="patch_22">
    <path d="M 353.674762 255.54 
L 357.866 255.54 
L 357.866 255.54 
L 353.674762 255.54 
z
" clip-path="url(#p3ebaca58c4)" style="fill: #455681"/>
   </g>
   <g id="patch_23">
    <path d="M 400.82619 255.54 
L 405.017429 255.54 
L 405.017429 255.54 
L 400.82619 255.54 
z
" clip-path="url(#p3ebaca58c4)" style="fill: #455681"/>
   </g>
   <g id="patch_24">
    <path d="M 122.108857 255.54 
L 126.300095 255.54 
L 126.300095 46.794545 
L 122.108857 46.794545 
z
" clip-path="url(#p3ebaca58c4)" style="fill: #386d82"/>
   </g>
   <g id="patch_25">
    <path d="M 169.260286 255.54 
L 173.451524 255.54 
L 173.451524 151.306262 
L 169.260286 151.306262 
z
" clip-path="url(#p3ebaca58c4)" style="fill: #386d82"/>
   </g>
   <g id="patch_26">
    <path d="M 216.411714 255.54 
L 220.602952 255.54 
L 220.602952 242.170271 
L 216.411714 242.170271 
z
" clip-path="url(#p3ebaca58c4)" style="fill: #386d82"/>
   </g>
   <g id="patch_27">
    <path d="M 263.563143 255.54 
L 267.754381 255.54 
L 267.754381 255.54 
L 263.563143 255.54 
z
" clip-path="url(#p3ebaca58c4)" style="fill: #386d82"/>
   </g>
   <g id="patch_28">
    <path d="M 310.714571 255.54 
L 314.90581 255.54 
L 314.90581 255.54 
L 310.714571 255.54 
z
" clip-path="url(#p3ebaca58c4)" style="fill: #386d82"/>
   </g>
   <g id="patch_29">
    <path d="M 357.866 255.54 
L 362.057238 255.54 
L 362.057238 255.54 
L 357.866 255.54 
z
" clip-path="url(#p3ebaca58c4)" style="fill: #386d82"/>
   </g>
   <g id="patch_30">
    <path d="M 405.017429 255.54 
L 409.208667 255.54 
L 409.208667 255.54 
L 405.017429 255.54 
z
" clip-path="url(#p3ebaca58c4)" style="fill: #386d82"/>
   </g>
   <g id="patch_31">
    <path d="M 126.300095 255.54 
L 130.491333 255.54 
L 130.491333 46.794545 
L 126.300095 46.794545 
z
" clip-path="url(#p3ebaca58c4)" style="fill: #2f837f"/>
   </g>
   <g id="patch_32">
    <path d="M 173.451524 255.54 
L 177.642762 255.54 
L 177.642762 151.105762 
L 173.451524 151.105762 
z
" clip-path="url(#p3ebaca58c4)" style="fill: #2f837f"/>
   </g>
   <g id="patch_33">
    <path d="M 220.602952 255.54 
L 224.79419 255.54 
L 224.79419 255.54 
L 220.602952 255.54 
z
" clip-path="url(#p3ebaca58c4)" style="fill: #2f837f"/>
   </g>
   <g id="patch_34">
    <path d="M 267.754381 255.54 
L 271.945619 255.54 
L 271.945619 255.54 
L 267.754381 255.54 
z
" clip-path="url(#p3ebaca58c4)" style="fill: #2f837f"/>
   </g>
   <g id="patch_35">
    <path d="M 314.90581 255.54 
L 319.097048 255.54 
L 319.097048 255.54 
L 314.90581 255.54 
z
" clip-path="url(#p3ebaca58c4)" style="fill: #2f837f"/>
   </g>
   <g id="patch_36">
    <path d="M 362.057238 255.54 
L 366.248476 255.54 
L 366.248476 255.54 
L 362.057238 255.54 
z
" clip-path="url(#p3ebaca58c4)" style="fill: #2f837f"/>
   </g>
   <g id="patch_37">
    <path d="M 409.208667 255.54 
L 413.399905 255.54 
L 413.399905 255.54 
L 409.208667 255.54 
z
" clip-path="url(#p3ebaca58c4)" style="fill: #2f837f"/>
   </g>
   <g id="patch_38">
    <path d="M 130.491333 255.54 
L 134.682571 255.54 
L 134.682571 46.794545 
L 130.491333 46.794545 
z
" clip-path="url(#p3ebaca58c4)" style="fill: #399e7b"/>
   </g>
   <g id="patch_39">
    <path d="M 177.642762 255.54 
L 181.834 255.54 
L 181.834 151.140414 
L 177.642762 151.140414 
z
" clip-path="url(#p3ebaca58c4)" style="fill: #399e7b"/>
   </g>
   <g id="patch_40">
    <path d="M 224.79419 255.54 
L 228.985429 255.54 
L 228.985429 251.643697 
L 224.79419 251.643697 
z
" clip-path="url(#p3ebaca58c4)" style="fill: #399e7b"/>
   </g>
   <g id="patch_41">
    <path d="M 271.945619 255.54 
L 276.136857 255.54 
L 276.136857 255.54 
L 271.945619 255.54 
z
" clip-path="url(#p3ebaca58c4)" style="fill: #399e7b"/>
   </g>
   <g id="patch_42">
    <path d="M 319.097048 255.54 
L 323.288286 255.54 
L 323.288286 255.54 
L 319.097048 255.54 
z
" clip-path="url(#p3ebaca58c4)" style="fill: #399e7b"/>
   </g>
   <g id="patch_43">
    <path d="M 366.248476 255.54 
L 370.439714 255.54 
L 370.439714 255.54 
L 366.248476 255.54 
z
" clip-path="url(#p3ebaca58c4)" style="fill: #399e7b"/>
   </g>
   <g id="patch_44">
    <path d="M 413.399905 255.54 
L 417.591143 255.54 
L 417.591143 255.54 
L 413.399905 255.54 
z
" clip-path="url(#p3ebaca58c4)" style="fill: #399e7b"/>
   </g>
   <g id="patch_45">
    <path d="M 134.682571 255.54 
L 138.87381 255.54 
L 138.87381 46.794545 
L 134.682571 46.794545 
z
" clip-path="url(#p3ebaca58c4)" style="fill: #6cbc6e"/>
   </g>
   <g id="patch_46">
    <path d="M 181.834 255.54 
L 186.025238 255.54 
L 186.025238 151.235602 
L 181.834 151.235602 
z
" clip-path="url(#p3ebaca58c4)" style="fill: #6cbc6e"/>
   </g>
   <g id="patch_47">
    <path d="M 228.985429 255.54 
L 233.176667 255.54 
L 233.176667 249.614552 
L 228.985429 249.614552 
z
" clip-path="url(#p3ebaca58c4)" style="fill: #6cbc6e"/>
   </g>
   <g id="patch_48">
    <path d="M 276.136857 255.54 
L 280.328095 255.54 
L 280.328095 255.54 
L 276.136857 255.54 
z
" clip-path="url(#p3ebaca58c4)" style="fill: #6cbc6e"/>
   </g>
   <g id="patch_49">
    <path d="M 323.288286 255.54 
L 327.479524 255.54 
L 327.479524 255.54 
L 323.288286 255.54 
z
" clip-path="url(#p3ebaca58c4)" style="fill: #6cbc6e"/>
   </g>
   <g id="patch_50">
    <path d="M 370.439714 255.54 
L 374.630952 255.54 
L 374.630952 255.54 
L 370.439714 255.54 
z
" clip-path="url(#p3ebaca58c4)" style="fill: #6cbc6e"/>
   </g>
   <g id="patch_51">
    <path d="M 417.591143 255.54 
L 421.782381 255.54 
L 421.782381 255.54 
L 417.591143 255.54 
z
" clip-path="url(#p3ebaca58c4)" style="fill: #6cbc6e"/>
   </g>
   <g id="patch_52">
    <path d="M 138.87381 255.54 
L 143.065048 255.54 
L 143.065048 46.794545 
L 138.87381 46.794545 
z
" clip-path="url(#p3ebaca58c4)" style="fill: #a3c746"/>
   </g>
   <g id="patch_53">
    <path d="M 186.025238 255.54 
L 190.216476 255.54 
L 190.216476 151.14946 
L 186.025238 151.14946 
z
" clip-path="url(#p3ebaca58c4)" style="fill: #a3c746"/>
   </g>
   <g id="patch_54">
    <path d="M 233.176667 255.54 
L 237.367905 255.54 
L 237.367905 252.862909 
L 233.176667 252.862909 
z
" clip-path="url(#p3ebaca58c4)" style="fill: #a3c746"/>
   </g>
   <g id="patch_55">
    <path d="M 280.328095 255.54 
L 284.519333 255.54 
L 284.519333 255.54 
L 280.328095 255.54 
z
" clip-path="url(#p3ebaca58c4)" style="fill: #a3c746"/>
   </g>
   <g id="patch_56">
    <path d="M 327.479524 255.54 
L 331.670762 255.54 
L 331.670762 255.54 
L 327.479524 255.54 
z
" clip-path="url(#p3ebaca58c4)" style="fill: #a3c746"/>
   </g>
   <g id="patch_57">
    <path d="M 374.630952 255.54 
L 378.82219 255.54 
L 378.82219 255.54 
L 374.630952 255.54 
z
" clip-path="url(#p3ebaca58c4)" style="fill: #a3c746"/>
   </g>
   <g id="patch_58">
    <path d="M 421.782381 255.54 
L 425.973619 255.54 
L 425.973619 255.54 
L 421.782381 255.54 
z
" clip-path="url(#p3ebaca58c4)" style="fill: #a3c746"/>
   </g>
   <g id="patch_59">
    <path d="M 143.065048 255.54 
L 147.256286 255.54 
L 147.256286 46.794545 
L 143.065048 46.794545 
z
" clip-path="url(#p3ebaca58c4)" style="fill: #e2d240"/>
   </g>
   <g id="patch_60">
    <path d="M 190.216476 255.54 
L 194.407714 255.54 
L 194.407714 151.264131 
L 190.216476 151.264131 
z
" clip-path="url(#p3ebaca58c4)" style="fill: #e2d240"/>
   </g>
   <g id="patch_61">
    <path d="M 237.367905 255.54 
L 241.559143 255.54 
L 241.559143 253.14903 
L 237.367905 253.14903 
z
" clip-path="url(#p3ebaca58c4)" style="fill: #e2d240"/>
   </g>
   <g id="patch_62">
    <path d="M 284.519333 255.54 
L 288.710571 255.54 
L 288.710571 255.54 
L 284.519333 255.54 
z
" clip-path="url(#p3ebaca58c4)" style="fill: #e2d240"/>
   </g>
   <g id="patch_63">
    <path d="M 331.670762 255.54 
L 335.862 255.54 
L 335.862 255.54 
L 331.670762 255.54 
z
" clip-path="url(#p3ebaca58c4)" style="fill: #e2d240"/>
   </g>
   <g id="patch_64">
    <path d="M 378.82219 255.54 
L 383.013429 255.54 
L 383.013429 255.54 
L 378.82219 255.54 
z
" clip-path="url(#p3ebaca58c4)" style="fill: #e2d240"/>
   </g>
   <g id="patch_65">
    <path d="M 425.973619 255.54 
L 430.164857 255.54 
L 430.164857 255.54 
L 425.973619 255.54 
z
" clip-path="url(#p3ebaca58c4)" style="fill: #e2d240"/>
   </g>
   <g id="matplotlib.axis_1">
    <g id="xtick_1">
     <g id="line2d_1">
      <defs>
       <path id="macadb62f24" d="M 0 0 
L 0 12 
" style="stroke: #000000; stroke-width: 2.5"/>
      </defs>
      <g>
       <use xlink:href="#macadb62f24" x="128.395714" y="255.54" style="stroke: #000000; stroke-width: 2.5"/>
      </g>
     </g>
     <g id="text_1">
      <!-- 2 -->
      <g transform="translate(121.396964 287.756562) scale(0.22 -0.22)">
       <defs>
        <path id="DejaVuSans-32" d="M 1228 531 
L 3431 531 
L 3431 0 
L 469 0 
L 469 531 
Q 828 903 1448 1529 
Q 2069 2156 2228 2338 
Q 2531 2678 2651 2914 
Q 2772 3150 2772 3378 
Q 2772 3750 2511 3984 
Q 2250 4219 1831 4219 
Q 1534 4219 1204 4116 
Q 875 4013 500 3803 
L 500 4441 
Q 881 4594 1212 4672 
Q 1544 4750 1819 4750 
Q 2544 4750 2975 4387 
Q 3406 4025 3406 3419 
Q 3406 3131 3298 2873 
Q 3191 2616 2906 2266 
Q 2828 2175 2409 1742 
Q 1991 1309 1228 531 
z
" transform="scale(0.015625)"/>
       </defs>
       <use xlink:href="#DejaVuSans-32"/>
      </g>
     </g>
    </g>
    <g id="xtick_2">
     <g id="line2d_2">
      <g>
       <use xlink:href="#macadb62f24" x="175.547143" y="255.54" style="stroke: #000000; stroke-width: 2.5"/>
      </g>
     </g>
     <g id="text_2">
      <!-- 3 -->
      <g transform="translate(168.548393 287.756562) scale(0.22 -0.22)">
       <defs>
        <path id="DejaVuSans-33" d="M 2597 2516 
Q 3050 2419 3304 2112 
Q 3559 1806 3559 1356 
Q 3559 666 3084 287 
Q 2609 -91 1734 -91 
Q 1441 -91 1130 -33 
Q 819 25 488 141 
L 488 750 
Q 750 597 1062 519 
Q 1375 441 1716 441 
Q 2309 441 2620 675 
Q 2931 909 2931 1356 
Q 2931 1769 2642 2001 
Q 2353 2234 1838 2234 
L 1294 2234 
L 1294 2753 
L 1863 2753 
Q 2328 2753 2575 2939 
Q 2822 3125 2822 3475 
Q 2822 3834 2567 4026 
Q 2313 4219 1838 4219 
Q 1578 4219 1281 4162 
Q 984 4106 628 3988 
L 628 4550 
Q 988 4650 1302 4700 
Q 1616 4750 1894 4750 
Q 2613 4750 3031 4423 
Q 3450 4097 3450 3541 
Q 3450 3153 3228 2886 
Q 3006 2619 2597 2516 
z
" transform="scale(0.015625)"/>
       </defs>
       <use xlink:href="#DejaVuSans-33"/>
      </g>
     </g>
    </g>
    <g id="xtick_3">
     <g id="line2d_3">
      <g>
       <use xlink:href="#macadb62f24" x="222.698571" y="255.54" style="stroke: #000000; stroke-width: 2.5"/>
      </g>
     </g>
     <g id="text_3">
      <!-- 4 -->
      <g transform="translate(215.699821 287.756562) scale(0.22 -0.22)">
       <defs>
        <path id="DejaVuSans-34" d="M 2419 4116 
L 825 1625 
L 2419 1625 
L 2419 4116 
z
M 2253 4666 
L 3047 4666 
L 3047 1625 
L 3713 1625 
L 3713 1100 
L 3047 1100 
L 3047 0 
L 2419 0 
L 2419 1100 
L 313 1100 
L 313 1709 
L 2253 4666 
z
" transform="scale(0.015625)"/>
       </defs>
       <use xlink:href="#DejaVuSans-34"/>
      </g>
     </g>
    </g>
    <g id="xtick_4">
     <g id="line2d_4">
      <g>
       <use xlink:href="#macadb62f24" x="269.85" y="255.54" style="stroke: #000000; stroke-width: 2.5"/>
      </g>
     </g>
     <g id="text_4">
      <!-- 5 -->
      <g transform="translate(262.85125 287.756562) scale(0.22 -0.22)">
       <defs>
        <path id="DejaVuSans-35" d="M 691 4666 
L 3169 4666 
L 3169 4134 
L 1269 4134 
L 1269 2991 
Q 1406 3038 1543 3061 
Q 1681 3084 1819 3084 
Q 2600 3084 3056 2656 
Q 3513 2228 3513 1497 
Q 3513 744 3044 326 
Q 2575 -91 1722 -91 
Q 1428 -91 1123 -41 
Q 819 9 494 109 
L 494 744 
Q 775 591 1075 516 
Q 1375 441 1709 441 
Q 2250 441 2565 725 
Q 2881 1009 2881 1497 
Q 2881 1984 2565 2268 
Q 2250 2553 1709 2553 
Q 1456 2553 1204 2497 
Q 953 2441 691 2322 
L 691 4666 
z
" transform="scale(0.015625)"/>
       </defs>
       <use xlink:href="#DejaVuSans-35"/>
      </g>
     </g>
    </g>
    <g id="xtick_5">
     <g id="line2d_5">
      <g>
       <use xlink:href="#macadb62f24" x="317.001429" y="255.54" style="stroke: #000000; stroke-width: 2.5"/>
      </g>
     </g>
     <g id="text_5">
      <!-- 6 -->
      <g transform="translate(310.002679 287.756562) scale(0.22 -0.22)">
       <defs>
        <path id="DejaVuSans-36" d="M 2113 2584 
Q 1688 2584 1439 2293 
Q 1191 2003 1191 1497 
Q 1191 994 1439 701 
Q 1688 409 2113 409 
Q 2538 409 2786 701 
Q 3034 994 3034 1497 
Q 3034 2003 2786 2293 
Q 2538 2584 2113 2584 
z
M 3366 4563 
L 3366 3988 
Q 3128 4100 2886 4159 
Q 2644 4219 2406 4219 
Q 1781 4219 1451 3797 
Q 1122 3375 1075 2522 
Q 1259 2794 1537 2939 
Q 1816 3084 2150 3084 
Q 2853 3084 3261 2657 
Q 3669 2231 3669 1497 
Q 3669 778 3244 343 
Q 2819 -91 2113 -91 
Q 1303 -91 875 529 
Q 447 1150 447 2328 
Q 447 3434 972 4092 
Q 1497 4750 2381 4750 
Q 2619 4750 2861 4703 
Q 3103 4656 3366 4563 
z
" transform="scale(0.015625)"/>
       </defs>
       <use xlink:href="#DejaVuSans-36"/>
      </g>
     </g>
    </g>
    <g id="xtick_6">
     <g id="line2d_6">
      <g>
       <use xlink:href="#macadb62f24" x="364.152857" y="255.54" style="stroke: #000000; stroke-width: 2.5"/>
      </g>
     </g>
     <g id="text_6">
      <!-- 7 -->
      <g transform="translate(357.154107 287.756562) scale(0.22 -0.22)">
       <defs>
        <path id="DejaVuSans-37" d="M 525 4666 
L 3525 4666 
L 3525 4397 
L 1831 0 
L 1172 0 
L 2766 4134 
L 525 4134 
L 525 4666 
z
" transform="scale(0.015625)"/>
       </defs>
       <use xlink:href="#DejaVuSans-37"/>
      </g>
     </g>
    </g>
    <g id="xtick_7">
     <g id="line2d_7">
      <g>
       <use xlink:href="#macadb62f24" x="411.304286" y="255.54" style="stroke: #000000; stroke-width: 2.5"/>
      </g>
     </g>
     <g id="text_7">
      <!-- 8 -->
      <g transform="translate(404.305536 287.756562) scale(0.22 -0.22)">
       <defs>
        <path id="DejaVuSans-38" d="M 2034 2216 
Q 1584 2216 1326 1975 
Q 1069 1734 1069 1313 
Q 1069 891 1326 650 
Q 1584 409 2034 409 
Q 2484 409 2743 651 
Q 3003 894 3003 1313 
Q 3003 1734 2745 1975 
Q 2488 2216 2034 2216 
z
M 1403 2484 
Q 997 2584 770 2862 
Q 544 3141 544 3541 
Q 544 4100 942 4425 
Q 1341 4750 2034 4750 
Q 2731 4750 3128 4425 
Q 3525 4100 3525 3541 
Q 3525 3141 3298 2862 
Q 3072 2584 2669 2484 
Q 3125 2378 3379 2068 
Q 3634 1759 3634 1313 
Q 3634 634 3220 271 
Q 2806 -91 2034 -91 
Q 1263 -91 848 271 
Q 434 634 434 1313 
Q 434 1759 690 2068 
Q 947 2378 1403 2484 
z
M 1172 3481 
Q 1172 3119 1398 2916 
Q 1625 2713 2034 2713 
Q 2441 2713 2670 2916 
Q 2900 3119 2900 3481 
Q 2900 3844 2670 4047 
Q 2441 4250 2034 4250 
Q 1625 4250 1398 4047 
Q 1172 3844 1172 3481 
z
" transform="scale(0.015625)"/>
       </defs>
       <use xlink:href="#DejaVuSans-38"/>
      </g>
     </g>
    </g>
    <g id="text_8">
     <!-- Teams -->
     <g transform="translate(231.883125 314.568125) scale(0.24 -0.24)">
      <defs>
       <path id="DejaVuSans-54" d="M -19 4666 
L 3928 4666 
L 3928 4134 
L 2272 4134 
L 2272 0 
L 1638 0 
L 1638 4134 
L -19 4134 
L -19 4666 
z
" transform="scale(0.015625)"/>
       <path id="DejaVuSans-65" d="M 3597 1894 
L 3597 1613 
L 953 1613 
Q 991 1019 1311 708 
Q 1631 397 2203 397 
Q 2534 397 2845 478 
Q 3156 559 3463 722 
L 3463 178 
Q 3153 47 2828 -22 
Q 2503 -91 2169 -91 
Q 1331 -91 842 396 
Q 353 884 353 1716 
Q 353 2575 817 3079 
Q 1281 3584 2069 3584 
Q 2775 3584 3186 3129 
Q 3597 2675 3597 1894 
z
M 3022 2063 
Q 3016 2534 2758 2815 
Q 2500 3097 2075 3097 
Q 1594 3097 1305 2825 
Q 1016 2553 972 2059 
L 3022 2063 
z
" transform="scale(0.015625)"/>
       <path id="DejaVuSans-61" d="M 2194 1759 
Q 1497 1759 1228 1600 
Q 959 1441 959 1056 
Q 959 750 1161 570 
Q 1363 391 1709 391 
Q 2188 391 2477 730 
Q 2766 1069 2766 1631 
L 2766 1759 
L 2194 1759 
z
M 3341 1997 
L 3341 0 
L 2766 0 
L 2766 531 
Q 2569 213 2275 61 
Q 1981 -91 1556 -91 
Q 1019 -91 701 211 
Q 384 513 384 1019 
Q 384 1609 779 1909 
Q 1175 2209 1959 2209 
L 2766 2209 
L 2766 2266 
Q 2766 2663 2505 2880 
Q 2244 3097 1772 3097 
Q 1472 3097 1187 3025 
Q 903 2953 641 2809 
L 641 3341 
Q 956 3463 1253 3523 
Q 1550 3584 1831 3584 
Q 2591 3584 2966 3190 
Q 3341 2797 3341 1997 
z
" transform="scale(0.015625)"/>
       <path id="DejaVuSans-6d" d="M 3328 2828 
Q 3544 3216 3844 3400 
Q 4144 3584 4550 3584 
Q 5097 3584 5394 3201 
Q 5691 2819 5691 2113 
L 5691 0 
L 5113 0 
L 5113 2094 
Q 5113 2597 4934 2840 
Q 4756 3084 4391 3084 
Q 3944 3084 3684 2787 
Q 3425 2491 3425 1978 
L 3425 0 
L 2847 0 
L 2847 2094 
Q 2847 2600 2669 2842 
Q 2491 3084 2119 3084 
Q 1678 3084 1418 2786 
Q 1159 2488 1159 1978 
L 1159 0 
L 581 0 
L 581 3500 
L 1159 3500 
L 1159 2956 
Q 1356 3278 1631 3431 
Q 1906 3584 2284 3584 
Q 2666 3584 2933 3390 
Q 3200 3197 3328 2828 
z
" transform="scale(0.015625)"/>
       <path id="DejaVuSans-73" d="M 2834 3397 
L 2834 2853 
Q 2591 2978 2328 3040 
Q 2066 3103 1784 3103 
Q 1356 3103 1142 2972 
Q 928 2841 928 2578 
Q 928 2378 1081 2264 
Q 1234 2150 1697 2047 
L 1894 2003 
Q 2506 1872 2764 1633 
Q 3022 1394 3022 966 
Q 3022 478 2636 193 
Q 2250 -91 1575 -91 
Q 1294 -91 989 -36 
Q 684 19 347 128 
L 347 722 
Q 666 556 975 473 
Q 1284 391 1588 391 
Q 1994 391 2212 530 
Q 2431 669 2431 922 
Q 2431 1156 2273 1281 
Q 2116 1406 1581 1522 
L 1381 1569 
Q 847 1681 609 1914 
Q 372 2147 372 2553 
Q 372 3047 722 3315 
Q 1072 3584 1716 3584 
Q 2034 3584 2315 3537 
Q 2597 3491 2834 3397 
z
" transform="scale(0.015625)"/>
      </defs>
      <use xlink:href="#DejaVuSans-54"/>
      <use xlink:href="#DejaVuSans-65" x="44.083984"/>
      <use xlink:href="#DejaVuSans-61" x="105.607422"/>
      <use xlink:href="#DejaVuSans-6d" x="166.886719"/>
      <use xlink:href="#DejaVuSans-73" x="264.298828"/>
     </g>
    </g>
   </g>
   <g id="matplotlib.axis_2">
    <g id="ytick_1">
     <g id="line2d_8">
      <defs>
       <path id="mbd1f834859" d="M 0 0 
L -12 0 
" style="stroke: #000000; stroke-width: 2.5"/>
      </defs>
      <g>
       <use xlink:href="#mbd1f834859" x="104.82" y="255.54" style="stroke: #000000; stroke-width: 2.5"/>
      </g>
     </g>
     <g id="text_9">
      <!-- 0.00 -->
      <g transform="translate(40.335625 263.898281) scale(0.22 -0.22)">
       <defs>
        <path id="DejaVuSans-30" d="M 2034 4250 
Q 1547 4250 1301 3770 
Q 1056 3291 1056 2328 
Q 1056 1369 1301 889 
Q 1547 409 2034 409 
Q 2525 409 2770 889 
Q 3016 1369 3016 2328 
Q 3016 3291 2770 3770 
Q 2525 4250 2034 4250 
z
M 2034 4750 
Q 2819 4750 3233 4129 
Q 3647 3509 3647 2328 
Q 3647 1150 3233 529 
Q 2819 -91 2034 -91 
Q 1250 -91 836 529 
Q 422 1150 422 2328 
Q 422 3509 836 4129 
Q 1250 4750 2034 4750 
z
" transform="scale(0.015625)"/>
        <path id="DejaVuSans-2e" d="M 684 794 
L 1344 794 
L 1344 0 
L 684 0 
L 684 794 
z
" transform="scale(0.015625)"/>
       </defs>
       <use xlink:href="#DejaVuSans-30"/>
       <use xlink:href="#DejaVuSans-2e" x="63.623047"/>
       <use xlink:href="#DejaVuSans-30" x="95.410156"/>
       <use xlink:href="#DejaVuSans-30" x="159.033203"/>
      </g>
     </g>
    </g>
    <g id="ytick_2">
     <g id="line2d_9">
      <g>
       <use xlink:href="#mbd1f834859" x="104.82" y="203.353636" style="stroke: #000000; stroke-width: 2.5"/>
      </g>
     </g>
     <g id="text_10">
      <!-- 0.25 -->
      <g transform="translate(40.335625 211.711918) scale(0.22 -0.22)">
       <use xlink:href="#DejaVuSans-30"/>
       <use xlink:href="#DejaVuSans-2e" x="63.623047"/>
       <use xlink:href="#DejaVuSans-32" x="95.410156"/>
       <use xlink:href="#DejaVuSans-35" x="159.033203"/>
      </g>
     </g>
    </g>
    <g id="ytick_3">
     <g id="line2d_10">
      <g>
       <use xlink:href="#mbd1f834859" x="104.82" y="151.167273" style="stroke: #000000; stroke-width: 2.5"/>
      </g>
     </g>
     <g id="text_11">
      <!-- 0.50 -->
      <g transform="translate(40.335625 159.525554) scale(0.22 -0.22)">
       <use xlink:href="#DejaVuSans-30"/>
       <use xlink:href="#DejaVuSans-2e" x="63.623047"/>
       <use xlink:href="#DejaVuSans-35" x="95.410156"/>
       <use xlink:href="#DejaVuSans-30" x="159.033203"/>
      </g>
     </g>
    </g>
    <g id="ytick_4">
     <g id="line2d_11">
      <g>
       <use xlink:href="#mbd1f834859" x="104.82" y="98.980909" style="stroke: #000000; stroke-width: 2.5"/>
      </g>
     </g>
     <g id="text_12">
      <!-- 0.75 -->
      <g transform="translate(40.335625 107.33919) scale(0.22 -0.22)">
       <use xlink:href="#DejaVuSans-30"/>
       <use xlink:href="#DejaVuSans-2e" x="63.623047"/>
       <use xlink:href="#DejaVuSans-37" x="95.410156"/>
       <use xlink:href="#DejaVuSans-35" x="159.033203"/>
      </g>
     </g>
    </g>
    <g id="ytick_5">
     <g id="line2d_12">
      <g>
       <use xlink:href="#mbd1f834859" x="104.82" y="46.794545" style="stroke: #000000; stroke-width: 2.5"/>
      </g>
     </g>
     <g id="text_13">
      <!-- 1.00 -->
      <g transform="translate(40.335625 55.152827) scale(0.22 -0.22)">
       <defs>
        <path id="DejaVuSans-31" d="M 794 531 
L 1825 531 
L 1825 4091 
L 703 3866 
L 703 4441 
L 1819 4666 
L 2450 4666 
L 2450 531 
L 3481 531 
L 3481 0 
L 794 0 
L 794 531 
z
" transform="scale(0.015625)"/>
       </defs>
       <use xlink:href="#DejaVuSans-31"/>
       <use xlink:href="#DejaVuSans-2e" x="63.623047"/>
       <use xlink:href="#DejaVuSans-30" x="95.410156"/>
       <use xlink:href="#DejaVuSans-30" x="159.033203"/>
      </g>
     </g>
    </g>
    <g id="text_14">
     <!-- $F(1)$ -->
     <g transform="translate(31.344375 164.73) rotate(-90) scale(0.24 -0.24)">
      <defs>
       <path id="DejaVuSans-Oblique-46" d="M 1081 4666 
L 3756 4666 
L 3653 4134 
L 1606 4134 
L 1338 2759 
L 3188 2759 
L 3084 2228 
L 1234 2228 
L 800 0 
L 172 0 
L 1081 4666 
z
" transform="scale(0.015625)"/>
       <path id="DejaVuSans-28" d="M 1984 4856 
Q 1566 4138 1362 3434 
Q 1159 2731 1159 2009 
Q 1159 1288 1364 580 
Q 1569 -128 1984 -844 
L 1484 -844 
Q 1016 -109 783 600 
Q 550 1309 550 2009 
Q 550 2706 781 3412 
Q 1013 4119 1484 4856 
L 1984 4856 
z
" transform="scale(0.015625)"/>
       <path id="DejaVuSans-29" d="M 513 4856 
L 1013 4856 
Q 1481 4119 1714 3412 
Q 1947 2706 1947 2009 
Q 1947 1309 1714 600 
Q 1481 -109 1013 -844 
L 513 -844 
Q 928 -128 1133 580 
Q 1338 1288 1338 2009 
Q 1338 2731 1133 3434 
Q 928 4138 513 4856 
z
" transform="scale(0.015625)"/>
      </defs>
      <use xlink:href="#DejaVuSans-Oblique-46" transform="translate(0 0.125)"/>
      <use xlink:href="#DejaVuSans-28" transform="translate(57.519531 0.125)"/>
      <use xlink:href="#DejaVuSans-31" transform="translate(96.533203 0.125)"/>
      <use xlink:href="#DejaVuSans-29" transform="translate(160.15625 0.125)"/>
     </g>
    </g>
   </g>
   <g id="line2d_13">
    <path d="M 111.630762 46.794545 
L 111.630762 46.794545 
" clip-path="url(#p3ebaca58c4)" style="fill: none; stroke: #424242; stroke-width: 4.5; stroke-linecap: square"/>
   </g>
   <g id="line2d_14">
    <path d="M 158.78219 151.329677 
L 158.78219 151.073337 
" clip-path="url(#p3ebaca58c4)" style="fill: none; stroke: #424242; stroke-width: 4.5; stroke-linecap: square"/>
   </g>
   <g id="line2d_15">
    <path d="M 205.933619 255.54 
L 205.933619 177.329341 
" clip-path="url(#p3ebaca58c4)" style="fill: none; stroke: #424242; stroke-width: 4.5; stroke-linecap: square"/>
   </g>
   <g id="line2d_16">
    <path d="M 253.085048 255.54 
L 253.085048 255.54 
" clip-path="url(#p3ebaca58c4)" style="fill: none; stroke: #424242; stroke-width: 4.5; stroke-linecap: square"/>
   </g>
   <g id="line2d_17">
    <path d="M 300.236476 255.54 
L 300.236476 255.54 
" clip-path="url(#p3ebaca58c4)" style="fill: none; stroke: #424242; stroke-width: 4.5; stroke-linecap: square"/>
   </g>
   <g id="line2d_18">
    <path d="M 347.387905 255.54 
L 347.387905 255.54 
" clip-path="url(#p3ebaca58c4)" style="fill: none; stroke: #424242; stroke-width: 4.5; stroke-linecap: square"/>
   </g>
   <g id="line2d_19">
    <path d="M 394.539333 255.54 
L 394.539333 255.54 
" clip-path="url(#p3ebaca58c4)" style="fill: none; stroke: #424242; stroke-width: 4.5; stroke-linecap: square"/>
   </g>
   <g id="line2d_20">
    <path d="M 115.822 46.794545 
L 115.822 46.794545 
" clip-path="url(#p3ebaca58c4)" style="fill: none; stroke: #424242; stroke-width: 4.5; stroke-linecap: square"/>
   </g>
   <g id="line2d_21">
    <path d="M 162.973429 151.36993 
L 162.973429 151.135613 
" clip-path="url(#p3ebaca58c4)" style="fill: none; stroke: #424242; stroke-width: 4.5; stroke-linecap: square"/>
   </g>
   <g id="line2d_22">
    <path d="M 210.124857 249.112727 
L 210.124857 165.511843 
" clip-path="url(#p3ebaca58c4)" style="fill: none; stroke: #424242; stroke-width: 4.5; stroke-linecap: square"/>
   </g>
   <g id="line2d_23">
    <path d="M 257.276286 255.54 
L 257.276286 255.54 
" clip-path="url(#p3ebaca58c4)" style="fill: none; stroke: #424242; stroke-width: 4.5; stroke-linecap: square"/>
   </g>
   <g id="line2d_24">
    <path d="M 304.427714 255.54 
L 304.427714 255.54 
" clip-path="url(#p3ebaca58c4)" style="fill: none; stroke: #424242; stroke-width: 4.5; stroke-linecap: square"/>
   </g>
   <g id="line2d_25">
    <path d="M 351.579143 255.54 
L 351.579143 255.54 
" clip-path="url(#p3ebaca58c4)" style="fill: none; stroke: #424242; stroke-width: 4.5; stroke-linecap: square"/>
   </g>
   <g id="line2d_26">
    <path d="M 398.730571 255.54 
L 398.730571 255.54 
" clip-path="url(#p3ebaca58c4)" style="fill: none; stroke: #424242; stroke-width: 4.5; stroke-linecap: square"/>
   </g>
   <g id="line2d_27">
    <path d="M 120.013238 46.794545 
L 120.013238 46.794545 
" clip-path="url(#p3ebaca58c4)" style="fill: none; stroke: #424242; stroke-width: 4.5; stroke-linecap: square"/>
   </g>
   <g id="line2d_28">
    <path d="M 167.164667 151.333156 
L 167.164667 151.023193 
" clip-path="url(#p3ebaca58c4)" style="fill: none; stroke: #424242; stroke-width: 4.5; stroke-linecap: square"/>
   </g>
   <g id="line2d_29">
    <path d="M 214.316095 255.54 
L 214.316095 255.54 
" clip-path="url(#p3ebaca58c4)" style="fill: none; stroke: #424242; stroke-width: 4.5; stroke-linecap: square"/>
   </g>
   <g id="line2d_30">
    <path d="M 261.467524 255.54 
L 261.467524 255.54 
" clip-path="url(#p3ebaca58c4)" style="fill: none; stroke: #424242; stroke-width: 4.5; stroke-linecap: square"/>
   </g>
   <g id="line2d_31">
    <path d="M 308.618952 255.54 
L 308.618952 255.54 
" clip-path="url(#p3ebaca58c4)" style="fill: none; stroke: #424242; stroke-width: 4.5; stroke-linecap: square"/>
   </g>
   <g id="line2d_32">
    <path d="M 355.770381 255.54 
L 355.770381 255.54 
" clip-path="url(#p3ebaca58c4)" style="fill: none; stroke: #424242; stroke-width: 4.5; stroke-linecap: square"/>
   </g>
   <g id="line2d_33">
    <path d="M 402.92181 255.54 
L 402.92181 255.54 
" clip-path="url(#p3ebaca58c4)" style="fill: none; stroke: #424242; stroke-width: 4.5; stroke-linecap: square"/>
   </g>
   <g id="line2d_34">
    <path d="M 124.204476 46.794545 
L 124.204476 46.794545 
" clip-path="url(#p3ebaca58c4)" style="fill: none; stroke: #424242; stroke-width: 4.5; stroke-linecap: square"/>
   </g>
   <g id="line2d_35">
    <path d="M 171.355905 151.379845 
L 171.355905 151.237029 
" clip-path="url(#p3ebaca58c4)" style="fill: none; stroke: #424242; stroke-width: 4.5; stroke-linecap: square"/>
   </g>
   <g id="line2d_36">
    <path d="M 218.507333 255.54 
L 218.507333 224.940421 
" clip-path="url(#p3ebaca58c4)" style="fill: none; stroke: #424242; stroke-width: 4.5; stroke-linecap: square"/>
   </g>
   <g id="line2d_37">
    <path d="M 265.658762 255.54 
L 265.658762 255.54 
" clip-path="url(#p3ebaca58c4)" style="fill: none; stroke: #424242; stroke-width: 4.5; stroke-linecap: square"/>
   </g>
   <g id="line2d_38">
    <path d="M 312.81019 255.54 
L 312.81019 255.54 
" clip-path="url(#p3ebaca58c4)" style="fill: none; stroke: #424242; stroke-width: 4.5; stroke-linecap: square"/>
   </g>
   <g id="line2d_39">
    <path d="M 359.961619 255.54 
L 359.961619 255.54 
" clip-path="url(#p3ebaca58c4)" style="fill: none; stroke: #424242; stroke-width: 4.5; stroke-linecap: square"/>
   </g>
   <g id="line2d_40">
    <path d="M 407.113048 255.54 
L 407.113048 255.54 
" clip-path="url(#p3ebaca58c4)" style="fill: none; stroke: #424242; stroke-width: 4.5; stroke-linecap: square"/>
   </g>
   <g id="line2d_41">
    <path d="M 128.395714 46.794545 
L 128.395714 46.794545 
" clip-path="url(#p3ebaca58c4)" style="fill: none; stroke: #424242; stroke-width: 4.5; stroke-linecap: square"/>
   </g>
   <g id="line2d_42">
    <path d="M 175.547143 151.289041 
L 175.547143 150.919561 
" clip-path="url(#p3ebaca58c4)" style="fill: none; stroke: #424242; stroke-width: 4.5; stroke-linecap: square"/>
   </g>
   <g id="line2d_43">
    <path d="M 222.698571 255.54 
L 222.698571 255.54 
" clip-path="url(#p3ebaca58c4)" style="fill: none; stroke: #424242; stroke-width: 4.5; stroke-linecap: square"/>
   </g>
   <g id="line2d_44">
    <path d="M 269.85 255.54 
L 269.85 255.54 
" clip-path="url(#p3ebaca58c4)" style="fill: none; stroke: #424242; stroke-width: 4.5; stroke-linecap: square"/>
   </g>
   <g id="line2d_45">
    <path d="M 317.001429 255.54 
L 317.001429 255.54 
" clip-path="url(#p3ebaca58c4)" style="fill: none; stroke: #424242; stroke-width: 4.5; stroke-linecap: square"/>
   </g>
   <g id="line2d_46">
    <path d="M 364.152857 255.54 
L 364.152857 255.54 
" clip-path="url(#p3ebaca58c4)" style="fill: none; stroke: #424242; stroke-width: 4.5; stroke-linecap: square"/>
   </g>
   <g id="line2d_47">
    <path d="M 411.304286 255.54 
L 411.304286 255.54 
" clip-path="url(#p3ebaca58c4)" style="fill: none; stroke: #424242; stroke-width: 4.5; stroke-linecap: square"/>
   </g>
   <g id="line2d_48">
    <path d="M 132.586952 46.794545 
L 132.586952 46.794545 
" clip-path="url(#p3ebaca58c4)" style="fill: none; stroke: #424242; stroke-width: 4.5; stroke-linecap: square"/>
   </g>
   <g id="line2d_49">
    <path d="M 179.738381 151.251188 
L 179.738381 151.041051 
" clip-path="url(#p3ebaca58c4)" style="fill: none; stroke: #424242; stroke-width: 4.5; stroke-linecap: square"/>
   </g>
   <g id="line2d_50">
    <path d="M 226.88981 255.54 
L 226.88981 243.85109 
" clip-path="url(#p3ebaca58c4)" style="fill: none; stroke: #424242; stroke-width: 4.5; stroke-linecap: square"/>
   </g>
   <g id="line2d_51">
    <path d="M 274.041238 255.54 
L 274.041238 255.54 
" clip-path="url(#p3ebaca58c4)" style="fill: none; stroke: #424242; stroke-width: 4.5; stroke-linecap: square"/>
   </g>
   <g id="line2d_52">
    <path d="M 321.192667 255.54 
L 321.192667 255.54 
" clip-path="url(#p3ebaca58c4)" style="fill: none; stroke: #424242; stroke-width: 4.5; stroke-linecap: square"/>
   </g>
   <g id="line2d_53">
    <path d="M 368.344095 255.54 
L 368.344095 255.54 
" clip-path="url(#p3ebaca58c4)" style="fill: none; stroke: #424242; stroke-width: 4.5; stroke-linecap: square"/>
   </g>
   <g id="line2d_54">
    <path d="M 415.495524 255.54 
L 415.495524 255.54 
" clip-path="url(#p3ebaca58c4)" style="fill: none; stroke: #424242; stroke-width: 4.5; stroke-linecap: square"/>
   </g>
   <g id="line2d_55">
    <path d="M 136.77819 46.794545 
L 136.77819 46.794545 
" clip-path="url(#p3ebaca58c4)" style="fill: none; stroke: #424242; stroke-width: 4.5; stroke-linecap: square"/>
   </g>
   <g id="line2d_56">
    <path d="M 183.929619 151.39063 
L 183.929619 151.086975 
" clip-path="url(#p3ebaca58c4)" style="fill: none; stroke: #424242; stroke-width: 4.5; stroke-linecap: square"/>
   </g>
   <g id="line2d_57">
    <path d="M 231.081048 255.54 
L 231.081048 237.763655 
" clip-path="url(#p3ebaca58c4)" style="fill: none; stroke: #424242; stroke-width: 4.5; stroke-linecap: square"/>
   </g>
   <g id="line2d_58">
    <path d="M 278.232476 255.54 
L 278.232476 255.54 
" clip-path="url(#p3ebaca58c4)" style="fill: none; stroke: #424242; stroke-width: 4.5; stroke-linecap: square"/>
   </g>
   <g id="line2d_59">
    <path d="M 325.383905 255.54 
L 325.383905 255.54 
" clip-path="url(#p3ebaca58c4)" style="fill: none; stroke: #424242; stroke-width: 4.5; stroke-linecap: square"/>
   </g>
   <g id="line2d_60">
    <path d="M 372.535333 255.54 
L 372.535333 255.54 
" clip-path="url(#p3ebaca58c4)" style="fill: none; stroke: #424242; stroke-width: 4.5; stroke-linecap: square"/>
   </g>
   <g id="line2d_61">
    <path d="M 419.686762 255.54 
L 419.686762 255.54 
" clip-path="url(#p3ebaca58c4)" style="fill: none; stroke: #424242; stroke-width: 4.5; stroke-linecap: square"/>
   </g>
   <g id="line2d_62">
    <path d="M 140.969429 46.794545 
L 140.969429 46.794545 
" clip-path="url(#p3ebaca58c4)" style="fill: none; stroke: #424242; stroke-width: 4.5; stroke-linecap: square"/>
   </g>
   <g id="line2d_63">
    <path d="M 188.120857 151.367947 
L 188.120857 150.930973 
" clip-path="url(#p3ebaca58c4)" style="fill: none; stroke: #424242; stroke-width: 4.5; stroke-linecap: square"/>
   </g>
   <g id="line2d_64">
    <path d="M 235.272286 255.289923 
L 235.272286 250.088543 
" clip-path="url(#p3ebaca58c4)" style="fill: none; stroke: #424242; stroke-width: 4.5; stroke-linecap: square"/>
   </g>
   <g id="line2d_65">
    <path d="M 282.423714 255.54 
L 282.423714 255.54 
" clip-path="url(#p3ebaca58c4)" style="fill: none; stroke: #424242; stroke-width: 4.5; stroke-linecap: square"/>
   </g>
   <g id="line2d_66">
    <path d="M 329.575143 255.54 
L 329.575143 255.54 
" clip-path="url(#p3ebaca58c4)" style="fill: none; stroke: #424242; stroke-width: 4.5; stroke-linecap: square"/>
   </g>
   <g id="line2d_67">
    <path d="M 376.726571 255.54 
L 376.726571 255.54 
" clip-path="url(#p3ebaca58c4)" style="fill: none; stroke: #424242; stroke-width: 4.5; stroke-linecap: square"/>
   </g>
   <g id="line2d_68">
    <path d="M 423.878 255.54 
L 423.878 255.54 
" clip-path="url(#p3ebaca58c4)" style="fill: none; stroke: #424242; stroke-width: 4.5; stroke-linecap: square"/>
   </g>
   <g id="line2d_69">
    <path d="M 145.160667 46.794545 
L 145.160667 46.794545 
" clip-path="url(#p3ebaca58c4)" style="fill: none; stroke: #424242; stroke-width: 4.5; stroke-linecap: square"/>
   </g>
   <g id="line2d_70">
    <path d="M 192.312095 151.352778 
L 192.312095 151.164211 
" clip-path="url(#p3ebaca58c4)" style="fill: none; stroke: #424242; stroke-width: 4.5; stroke-linecap: square"/>
   </g>
   <g id="line2d_71">
    <path d="M 239.463524 255.54 
L 239.463524 248.367089 
" clip-path="url(#p3ebaca58c4)" style="fill: none; stroke: #424242; stroke-width: 4.5; stroke-linecap: square"/>
   </g>
   <g id="line2d_72">
    <path d="M 286.614952 255.54 
L 286.614952 255.54 
" clip-path="url(#p3ebaca58c4)" style="fill: none; stroke: #424242; stroke-width: 4.5; stroke-linecap: square"/>
   </g>
   <g id="line2d_73">
    <path d="M 333.766381 255.54 
L 333.766381 255.54 
" clip-path="url(#p3ebaca58c4)" style="fill: none; stroke: #424242; stroke-width: 4.5; stroke-linecap: square"/>
   </g>
   <g id="line2d_74">
    <path d="M 380.91781 255.54 
L 380.91781 255.54 
" clip-path="url(#p3ebaca58c4)" style="fill: none; stroke: #424242; stroke-width: 4.5; stroke-linecap: square"/>
   </g>
   <g id="line2d_75">
    <path d="M 428.069238 255.54 
L 428.069238 255.54 
" clip-path="url(#p3ebaca58c4)" style="fill: none; stroke: #424242; stroke-width: 4.5; stroke-linecap: square"/>
   </g>
   <g id="patch_66">
    <path d="M 104.82 255.54 
L 104.82 25.92 
" style="fill: none; stroke: #000000; stroke-width: 2.5; stroke-linejoin: miter; stroke-linecap: square"/>
   </g>
   <g id="patch_67">
    <path d="M 434.88 255.54 
L 434.88 25.92 
" style="fill: none; stroke: #000000; stroke-width: 2.5; stroke-linejoin: miter; stroke-linecap: square"/>
   </g>
   <g id="patch_68">
    <path d="M 104.82 255.54 
L 434.88 255.54 
" style="fill: none; stroke: #000000; stroke-width: 2.5; stroke-linejoin: miter; stroke-linecap: square"/>
   </g>
   <g id="patch_69">
    <path d="M 104.82 25.92 
L 434.88 25.92 
" style="fill: none; stroke: #000000; stroke-width: 2.5; stroke-linejoin: miter; stroke-linecap: square"/>
   </g>
  </g>
 </g>
 <defs>
  <clipPath id="p3ebaca58c4">
   <rect x="104.82" y="25.92" width="330.06" height="229.62"/>
  </clipPath>
 </defs>
</svg>
