<?xml version="1.0" encoding="utf-8" standalone="no"?>
<!DOCTYPE svg PUBLIC "-//W3C//DTD SVG 1.1//EN"
  "http://www.w3.org/Graphics/SVG/1.1/DTD/svg11.dtd">
<svg xmlns:xlink="http://www.w3.org/1999/xlink" width="460.8pt" height="345.6pt" viewBox="0 0 460.8 345.6" xmlns="http://www.w3.org/2000/svg" version="1.1">
 <metadata>
  <rdf:RDF xmlns:dc="http://purl.org/dc/elements/1.1/" xmlns:cc="http://creativecommons.org/ns#" xmlns:rdf="http://www.w3.org/1999/02/22-rdf-syntax-ns#">
   <cc:Work>
    <dc:type rdf:resource="http://purl.org/dc/dcmitype/StillImage"/>
    <dc:date>2024-03-28T11:28:00.090204</dc:date>
    <dc:format>image/svg+xml</dc:format>
    <dc:creator>
     <cc:Agent>
      <dc:title>Matplotlib v3.8.3, https://matplotlib.org/</dc:title>
     </cc:Agent>
    </dc:creator>
   </cc:Work>
  </rdf:RDF>
 </metadata>
 <defs>
  <style type="text/css">*{stroke-linejoin: round; stroke-linecap: butt}</style>
 </defs>
 <g id="figure_1">
  <g id="patch_1">
   <path d="M 0 345.6 
L 460.8 345.6 
L 460.8 0 
L 0 0 
z
" style="fill: #ffffff"/>
  </g>
  <g id="axes_1">
   <g id="patch_2">
    <path d="M 112.896 255.54 
L 434.88 255.54 
L 434.88 25.92 
L 112.896 25.92 
z
" style="fill: #ffffff"/>
   </g>
   <g id="patch_3">
    <path d="M 120.9456 255.54 
L 128.1008 255.54 
L 128.1008 255.54 
L 120.9456 255.54 
z
" clip-path="url(#pbd2d0b2884)" style="fill: #3e0c4a"/>
   </g>
   <g id="patch_4">
    <path d="M 201.4416 255.54 
L 208.5968 255.54 
L 208.5968 255.54 
L 201.4416 255.54 
z
" clip-path="url(#pbd2d0b2884)" style="fill: #3e0c4a"/>
   </g>
   <g id="patch_5">
    <path d="M 281.9376 255.54 
L 289.0928 255.54 
L 289.0928 255.54 
L 281.9376 255.54 
z
" clip-path="url(#pbd2d0b2884)" style="fill: #3e0c4a"/>
   </g>
   <g id="patch_6">
    <path d="M 362.4336 255.54 
L 369.5888 255.54 
L 369.5888 255.54 
L 362.4336 255.54 
z
" clip-path="url(#pbd2d0b2884)" style="fill: #3e0c4a"/>
   </g>
   <g id="patch_7">
    <path d="M 128.1008 255.54 
L 135.256 255.54 
L 135.256 255.54 
L 128.1008 255.54 
z
" clip-path="url(#pbd2d0b2884)" style="fill: #4a3771"/>
   </g>
   <g id="patch_8">
    <path d="M 208.5968 255.54 
L 215.752 255.54 
L 215.752 255.54 
L 208.5968 255.54 
z
" clip-path="url(#pbd2d0b2884)" style="fill: #4a3771"/>
   </g>
   <g id="patch_9">
    <path d="M 289.0928 255.54 
L 296.248 255.54 
L 296.248 255.54 
L 289.0928 255.54 
z
" clip-path="url(#pbd2d0b2884)" style="fill: #4a3771"/>
   </g>
   <g id="patch_10">
    <path d="M 369.5888 255.54 
L 376.744 255.54 
L 376.744 255.54 
L 369.5888 255.54 
z
" clip-path="url(#pbd2d0b2884)" style="fill: #4a3771"/>
   </g>
   <g id="patch_11">
    <path d="M 135.256 255.54 
L 142.4112 255.54 
L 142.4112 255.54 
L 135.256 255.54 
z
" clip-path="url(#pbd2d0b2884)" style="fill: #455681"/>
   </g>
   <g id="patch_12">
    <path d="M 215.752 255.54 
L 222.9072 255.54 
L 222.9072 255.54 
L 215.752 255.54 
z
" clip-path="url(#pbd2d0b2884)" style="fill: #455681"/>
   </g>
   <g id="patch_13">
    <path d="M 296.248 255.54 
L 303.4032 255.54 
L 303.4032 255.54 
L 296.248 255.54 
z
" clip-path="url(#pbd2d0b2884)" style="fill: #455681"/>
   </g>
   <g id="patch_14">
    <path d="M 376.744 255.54 
L 383.8992 255.54 
L 383.8992 255.54 
L 376.744 255.54 
z
" clip-path="url(#pbd2d0b2884)" style="fill: #455681"/>
   </g>
   <g id="patch_15">
    <path d="M 142.4112 255.54 
L 149.5664 255.54 
L 149.5664 255.54 
L 142.4112 255.54 
z
" clip-path="url(#pbd2d0b2884)" style="fill: #386d82"/>
   </g>
   <g id="patch_16">
    <path d="M 222.9072 255.54 
L 230.0624 255.54 
L 230.0624 255.54 
L 222.9072 255.54 
z
" clip-path="url(#pbd2d0b2884)" style="fill: #386d82"/>
   </g>
   <g id="patch_17">
    <path d="M 303.4032 255.54 
L 310.5584 255.54 
L 310.5584 255.54 
L 303.4032 255.54 
z
" clip-path="url(#pbd2d0b2884)" style="fill: #386d82"/>
   </g>
   <g id="patch_18">
    <path d="M 383.8992 255.54 
L 391.0544 255.54 
L 391.0544 255.54 
L 383.8992 255.54 
z
" clip-path="url(#pbd2d0b2884)" style="fill: #386d82"/>
   </g>
   <g id="patch_19">
    <path d="M 149.5664 255.54 
L 156.7216 255.54 
L 156.7216 255.54 
L 149.5664 255.54 
z
" clip-path="url(#pbd2d0b2884)" style="fill: #2f837f"/>
   </g>
   <g id="patch_20">
    <path d="M 230.0624 255.54 
L 237.2176 255.54 
L 237.2176 255.54 
L 230.0624 255.54 
z
" clip-path="url(#pbd2d0b2884)" style="fill: #2f837f"/>
   </g>
   <g id="patch_21">
    <path d="M 310.5584 255.54 
L 317.7136 255.54 
L 317.7136 255.54 
L 310.5584 255.54 
z
" clip-path="url(#pbd2d0b2884)" style="fill: #2f837f"/>
   </g>
   <g id="patch_22">
    <path d="M 391.0544 255.54 
L 398.2096 255.54 
L 398.2096 255.54 
L 391.0544 255.54 
z
" clip-path="url(#pbd2d0b2884)" style="fill: #2f837f"/>
   </g>
   <g id="patch_23">
    <path d="M 156.7216 255.54 
L 163.8768 255.54 
L 163.8768 255.54 
L 156.7216 255.54 
z
" clip-path="url(#pbd2d0b2884)" style="fill: #399e7b"/>
   </g>
   <g id="patch_24">
    <path d="M 237.2176 255.54 
L 244.3728 255.54 
L 244.3728 255.54 
L 237.2176 255.54 
z
" clip-path="url(#pbd2d0b2884)" style="fill: #399e7b"/>
   </g>
   <g id="patch_25">
    <path d="M 317.7136 255.54 
L 324.8688 255.54 
L 324.8688 255.54 
L 317.7136 255.54 
z
" clip-path="url(#pbd2d0b2884)" style="fill: #399e7b"/>
   </g>
   <g id="patch_26">
    <path d="M 398.2096 255.54 
L 405.3648 255.54 
L 405.3648 255.54 
L 398.2096 255.54 
z
" clip-path="url(#pbd2d0b2884)" style="fill: #399e7b"/>
   </g>
   <g id="patch_27">
    <path d="M 163.8768 255.54 
L 171.032 255.54 
L 171.032 255.54 
L 163.8768 255.54 
z
" clip-path="url(#pbd2d0b2884)" style="fill: #6cbc6e"/>
   </g>
   <g id="patch_28">
    <path d="M 244.3728 255.54 
L 251.528 255.54 
L 251.528 255.54 
L 244.3728 255.54 
z
" clip-path="url(#pbd2d0b2884)" style="fill: #6cbc6e"/>
   </g>
   <g id="patch_29">
    <path d="M 324.8688 255.54 
L 332.024 255.54 
L 332.024 255.54 
L 324.8688 255.54 
z
" clip-path="url(#pbd2d0b2884)" style="fill: #6cbc6e"/>
   </g>
   <g id="patch_30">
    <path d="M 405.3648 255.54 
L 412.52 255.54 
L 412.52 255.54 
L 405.3648 255.54 
z
" clip-path="url(#pbd2d0b2884)" style="fill: #6cbc6e"/>
   </g>
   <g id="patch_31">
    <path d="M 171.032 255.54 
L 178.1872 255.54 
L 178.1872 255.54 
L 171.032 255.54 
z
" clip-path="url(#pbd2d0b2884)" style="fill: #a3c746"/>
   </g>
   <g id="patch_32">
    <path d="M 251.528 255.54 
L 258.6832 255.54 
L 258.6832 255.54 
L 251.528 255.54 
z
" clip-path="url(#pbd2d0b2884)" style="fill: #a3c746"/>
   </g>
   <g id="patch_33">
    <path d="M 332.024 255.54 
L 339.1792 255.54 
L 339.1792 255.54 
L 332.024 255.54 
z
" clip-path="url(#pbd2d0b2884)" style="fill: #a3c746"/>
   </g>
   <g id="patch_34">
    <path d="M 412.52 255.54 
L 419.6752 255.54 
L 419.6752 255.54 
L 412.52 255.54 
z
" clip-path="url(#pbd2d0b2884)" style="fill: #a3c746"/>
   </g>
   <g id="patch_35">
    <path d="M 178.1872 255.54 
L 185.3424 255.54 
L 185.3424 255.54 
L 178.1872 255.54 
z
" clip-path="url(#pbd2d0b2884)" style="fill: #e2d240"/>
   </g>
   <g id="patch_36">
    <path d="M 258.6832 255.54 
L 265.8384 255.54 
L 265.8384 255.54 
L 258.6832 255.54 
z
" clip-path="url(#pbd2d0b2884)" style="fill: #e2d240"/>
   </g>
   <g id="patch_37">
    <path d="M 339.1792 255.54 
L 346.3344 255.54 
L 346.3344 255.54 
L 339.1792 255.54 
z
" clip-path="url(#pbd2d0b2884)" style="fill: #e2d240"/>
   </g>
   <g id="patch_38">
    <path d="M 419.6752 255.54 
L 426.8304 255.54 
L 426.8304 255.54 
L 419.6752 255.54 
z
" clip-path="url(#pbd2d0b2884)" style="fill: #e2d240"/>
   </g>
   <g id="matplotlib.axis_1">
    <g id="xtick_1">
     <g id="line2d_1">
      <defs>
       <path id="macadb62f24" d="M 0 0 
L 0 12 
" style="stroke: #000000; stroke-width: 2.5"/>
      </defs>
      <g>
       <use xlink:href="#macadb62f24" x="153.144" y="255.54" style="stroke: #000000; stroke-width: 2.5"/>
      </g>
     </g>
     <g id="text_1">
      <!-- 2 -->
      <g transform="translate(146.14525 287.756562) scale(0.22 -0.22)">
       <defs>
        <path id="DejaVuSans-32" d="M 1228 531 
L 3431 531 
L 3431 0 
L 469 0 
L 469 531 
Q 828 903 1448 1529 
Q 2069 2156 2228 2338 
Q 2531 2678 2651 2914 
Q 2772 3150 2772 3378 
Q 2772 3750 2511 3984 
Q 2250 4219 1831 4219 
Q 1534 4219 1204 4116 
Q 875 4013 500 3803 
L 500 4441 
Q 881 4594 1212 4672 
Q 1544 4750 1819 4750 
Q 2544 4750 2975 4387 
Q 3406 4025 3406 3419 
Q 3406 3131 3298 2873 
Q 3191 2616 2906 2266 
Q 2828 2175 2409 1742 
Q 1991 1309 1228 531 
z
" transform="scale(0.015625)"/>
       </defs>
       <use xlink:href="#DejaVuSans-32"/>
      </g>
     </g>
    </g>
    <g id="xtick_2">
     <g id="line2d_2">
      <g>
       <use xlink:href="#macadb62f24" x="233.64" y="255.54" style="stroke: #000000; stroke-width: 2.5"/>
      </g>
     </g>
     <g id="text_2">
      <!-- 4 -->
      <g transform="translate(226.64125 287.756562) scale(0.22 -0.22)">
       <defs>
        <path id="DejaVuSans-34" d="M 2419 4116 
L 825 1625 
L 2419 1625 
L 2419 4116 
z
M 2253 4666 
L 3047 4666 
L 3047 1625 
L 3713 1625 
L 3713 1100 
L 3047 1100 
L 3047 0 
L 2419 0 
L 2419 1100 
L 313 1100 
L 313 1709 
L 2253 4666 
z
" transform="scale(0.015625)"/>
       </defs>
       <use xlink:href="#DejaVuSans-34"/>
      </g>
     </g>
    </g>
    <g id="xtick_3">
     <g id="line2d_3">
      <g>
       <use xlink:href="#macadb62f24" x="314.136" y="255.54" style="stroke: #000000; stroke-width: 2.5"/>
      </g>
     </g>
     <g id="text_3">
      <!-- 6 -->
      <g transform="translate(307.13725 287.756562) scale(0.22 -0.22)">
       <defs>
        <path id="DejaVuSans-36" d="M 2113 2584 
Q 1688 2584 1439 2293 
Q 1191 2003 1191 1497 
Q 1191 994 1439 701 
Q 1688 409 2113 409 
Q 2538 409 2786 701 
Q 3034 994 3034 1497 
Q 3034 2003 2786 2293 
Q 2538 2584 2113 2584 
z
M 3366 4563 
L 3366 3988 
Q 3128 4100 2886 4159 
Q 2644 4219 2406 4219 
Q 1781 4219 1451 3797 
Q 1122 3375 1075 2522 
Q 1259 2794 1537 2939 
Q 1816 3084 2150 3084 
Q 2853 3084 3261 2657 
Q 3669 2231 3669 1497 
Q 3669 778 3244 343 
Q 2819 -91 2113 -91 
Q 1303 -91 875 529 
Q 447 1150 447 2328 
Q 447 3434 972 4092 
Q 1497 4750 2381 4750 
Q 2619 4750 2861 4703 
Q 3103 4656 3366 4563 
z
" transform="scale(0.015625)"/>
       </defs>
       <use xlink:href="#DejaVuSans-36"/>
      </g>
     </g>
    </g>
    <g id="xtick_4">
     <g id="line2d_4">
      <g>
       <use xlink:href="#macadb62f24" x="394.632" y="255.54" style="stroke: #000000; stroke-width: 2.5"/>
      </g>
     </g>
     <g id="text_4">
      <!-- 8 -->
      <g transform="translate(387.63325 287.756562) scale(0.22 -0.22)">
       <defs>
        <path id="DejaVuSans-38" d="M 2034 2216 
Q 1584 2216 1326 1975 
Q 1069 1734 1069 1313 
Q 1069 891 1326 650 
Q 1584 409 2034 409 
Q 2484 409 2743 651 
Q 3003 894 3003 1313 
Q 3003 1734 2745 1975 
Q 2488 2216 2034 2216 
z
M 1403 2484 
Q 997 2584 770 2862 
Q 544 3141 544 3541 
Q 544 4100 942 4425 
Q 1341 4750 2034 4750 
Q 2731 4750 3128 4425 
Q 3525 4100 3525 3541 
Q 3525 3141 3298 2862 
Q 3072 2584 2669 2484 
Q 3125 2378 3379 2068 
Q 3634 1759 3634 1313 
Q 3634 634 3220 271 
Q 2806 -91 2034 -91 
Q 1263 -91 848 271 
Q 434 634 434 1313 
Q 434 1759 690 2068 
Q 947 2378 1403 2484 
z
M 1172 3481 
Q 1172 3119 1398 2916 
Q 1625 2713 2034 2713 
Q 2441 2713 2670 2916 
Q 2900 3119 2900 3481 
Q 2900 3844 2670 4047 
Q 2441 4250 2034 4250 
Q 1625 4250 1398 4047 
Q 1172 3844 1172 3481 
z
" transform="scale(0.015625)"/>
       </defs>
       <use xlink:href="#DejaVuSans-38"/>
      </g>
     </g>
    </g>
    <g id="text_5">
     <!-- Teams -->
     <g transform="translate(235.921125 314.568125) scale(0.24 -0.24)">
      <defs>
       <path id="DejaVuSans-54" d="M -19 4666 
L 3928 4666 
L 3928 4134 
L 2272 4134 
L 2272 0 
L 1638 0 
L 1638 4134 
L -19 4134 
L -19 4666 
z
" transform="scale(0.015625)"/>
       <path id="DejaVuSans-65" d="M 3597 1894 
L 3597 1613 
L 953 1613 
Q 991 1019 1311 708 
Q 1631 397 2203 397 
Q 2534 397 2845 478 
Q 3156 559 3463 722 
L 3463 178 
Q 3153 47 2828 -22 
Q 2503 -91 2169 -91 
Q 1331 -91 842 396 
Q 353 884 353 1716 
Q 353 2575 817 3079 
Q 1281 3584 2069 3584 
Q 2775 3584 3186 3129 
Q 3597 2675 3597 1894 
z
M 3022 2063 
Q 3016 2534 2758 2815 
Q 2500 3097 2075 3097 
Q 1594 3097 1305 2825 
Q 1016 2553 972 2059 
L 3022 2063 
z
" transform="scale(0.015625)"/>
       <path id="DejaVuSans-61" d="M 2194 1759 
Q 1497 1759 1228 1600 
Q 959 1441 959 1056 
Q 959 750 1161 570 
Q 1363 391 1709 391 
Q 2188 391 2477 730 
Q 2766 1069 2766 1631 
L 2766 1759 
L 2194 1759 
z
M 3341 1997 
L 3341 0 
L 2766 0 
L 2766 531 
Q 2569 213 2275 61 
Q 1981 -91 1556 -91 
Q 1019 -91 701 211 
Q 384 513 384 1019 
Q 384 1609 779 1909 
Q 1175 2209 1959 2209 
L 2766 2209 
L 2766 2266 
Q 2766 2663 2505 2880 
Q 2244 3097 1772 3097 
Q 1472 3097 1187 3025 
Q 903 2953 641 2809 
L 641 3341 
Q 956 3463 1253 3523 
Q 1550 3584 1831 3584 
Q 2591 3584 2966 3190 
Q 3341 2797 3341 1997 
z
" transform="scale(0.015625)"/>
       <path id="DejaVuSans-6d" d="M 3328 2828 
Q 3544 3216 3844 3400 
Q 4144 3584 4550 3584 
Q 5097 3584 5394 3201 
Q 5691 2819 5691 2113 
L 5691 0 
L 5113 0 
L 5113 2094 
Q 5113 2597 4934 2840 
Q 4756 3084 4391 3084 
Q 3944 3084 3684 2787 
Q 3425 2491 3425 1978 
L 3425 0 
L 2847 0 
L 2847 2094 
Q 2847 2600 2669 2842 
Q 2491 3084 2119 3084 
Q 1678 3084 1418 2786 
Q 1159 2488 1159 1978 
L 1159 0 
L 581 0 
L 581 3500 
L 1159 3500 
L 1159 2956 
Q 1356 3278 1631 3431 
Q 1906 3584 2284 3584 
Q 2666 3584 2933 3390 
Q 3200 3197 3328 2828 
z
" transform="scale(0.015625)"/>
       <path id="DejaVuSans-73" d="M 2834 3397 
L 2834 2853 
Q 2591 2978 2328 3040 
Q 2066 3103 1784 3103 
Q 1356 3103 1142 2972 
Q 928 2841 928 2578 
Q 928 2378 1081 2264 
Q 1234 2150 1697 2047 
L 1894 2003 
Q 2506 1872 2764 1633 
Q 3022 1394 3022 966 
Q 3022 478 2636 193 
Q 2250 -91 1575 -91 
Q 1294 -91 989 -36 
Q 684 19 347 128 
L 347 722 
Q 666 556 975 473 
Q 1284 391 1588 391 
Q 1994 391 2212 530 
Q 2431 669 2431 922 
Q 2431 1156 2273 1281 
Q 2116 1406 1581 1522 
L 1381 1569 
Q 847 1681 609 1914 
Q 372 2147 372 2553 
Q 372 3047 722 3315 
Q 1072 3584 1716 3584 
Q 2034 3584 2315 3537 
Q 2597 3491 2834 3397 
z
" transform="scale(0.015625)"/>
      </defs>
      <use xlink:href="#DejaVuSans-54"/>
      <use xlink:href="#DejaVuSans-65" x="44.083984"/>
      <use xlink:href="#DejaVuSans-61" x="105.607422"/>
      <use xlink:href="#DejaVuSans-6d" x="166.886719"/>
      <use xlink:href="#DejaVuSans-73" x="264.298828"/>
     </g>
    </g>
   </g>
   <g id="matplotlib.axis_2">
    <g id="ytick_1">
     <g id="line2d_5">
      <defs>
       <path id="mbd1f834859" d="M 0 0 
L -12 0 
" style="stroke: #000000; stroke-width: 2.5"/>
      </defs>
      <g>
       <use xlink:href="#mbd1f834859" x="112.896" y="255.54" style="stroke: #000000; stroke-width: 2.5"/>
      </g>
     </g>
     <g id="text_6">
      <!-- 0.00 -->
      <g transform="translate(48.411625 263.898281) scale(0.22 -0.22)">
       <defs>
        <path id="DejaVuSans-30" d="M 2034 4250 
Q 1547 4250 1301 3770 
Q 1056 3291 1056 2328 
Q 1056 1369 1301 889 
Q 1547 409 2034 409 
Q 2525 409 2770 889 
Q 3016 1369 3016 2328 
Q 3016 3291 2770 3770 
Q 2525 4250 2034 4250 
z
M 2034 4750 
Q 2819 4750 3233 4129 
Q 3647 3509 3647 2328 
Q 3647 1150 3233 529 
Q 2819 -91 2034 -91 
Q 1250 -91 836 529 
Q 422 1150 422 2328 
Q 422 3509 836 4129 
Q 1250 4750 2034 4750 
z
" transform="scale(0.015625)"/>
        <path id="DejaVuSans-2e" d="M 684 794 
L 1344 794 
L 1344 0 
L 684 0 
L 684 794 
z
" transform="scale(0.015625)"/>
       </defs>
       <use xlink:href="#DejaVuSans-30"/>
       <use xlink:href="#DejaVuSans-2e" x="63.623047"/>
       <use xlink:href="#DejaVuSans-30" x="95.410156"/>
       <use xlink:href="#DejaVuSans-30" x="159.033203"/>
      </g>
     </g>
    </g>
    <g id="ytick_2">
     <g id="line2d_6">
      <g>
       <use xlink:href="#mbd1f834859" x="112.896" y="203.353636" style="stroke: #000000; stroke-width: 2.5"/>
      </g>
     </g>
     <g id="text_7">
      <!-- 0.25 -->
      <g transform="translate(48.411625 211.711918) scale(0.22 -0.22)">
       <defs>
        <path id="DejaVuSans-35" d="M 691 4666 
L 3169 4666 
L 3169 4134 
L 1269 4134 
L 1269 2991 
Q 1406 3038 1543 3061 
Q 1681 3084 1819 3084 
Q 2600 3084 3056 2656 
Q 3513 2228 3513 1497 
Q 3513 744 3044 326 
Q 2575 -91 1722 -91 
Q 1428 -91 1123 -41 
Q 819 9 494 109 
L 494 744 
Q 775 591 1075 516 
Q 1375 441 1709 441 
Q 2250 441 2565 725 
Q 2881 1009 2881 1497 
Q 2881 1984 2565 2268 
Q 2250 2553 1709 2553 
Q 1456 2553 1204 2497 
Q 953 2441 691 2322 
L 691 4666 
z
" transform="scale(0.015625)"/>
       </defs>
       <use xlink:href="#DejaVuSans-30"/>
       <use xlink:href="#DejaVuSans-2e" x="63.623047"/>
       <use xlink:href="#DejaVuSans-32" x="95.410156"/>
       <use xlink:href="#DejaVuSans-35" x="159.033203"/>
      </g>
     </g>
    </g>
    <g id="ytick_3">
     <g id="line2d_7">
      <g>
       <use xlink:href="#mbd1f834859" x="112.896" y="151.167273" style="stroke: #000000; stroke-width: 2.5"/>
      </g>
     </g>
     <g id="text_8">
      <!-- 0.50 -->
      <g transform="translate(48.411625 159.525554) scale(0.22 -0.22)">
       <use xlink:href="#DejaVuSans-30"/>
       <use xlink:href="#DejaVuSans-2e" x="63.623047"/>
       <use xlink:href="#DejaVuSans-35" x="95.410156"/>
       <use xlink:href="#DejaVuSans-30" x="159.033203"/>
      </g>
     </g>
    </g>
    <g id="ytick_4">
     <g id="line2d_8">
      <g>
       <use xlink:href="#mbd1f834859" x="112.896" y="98.980909" style="stroke: #000000; stroke-width: 2.5"/>
      </g>
     </g>
     <g id="text_9">
      <!-- 0.75 -->
      <g transform="translate(48.411625 107.33919) scale(0.22 -0.22)">
       <defs>
        <path id="DejaVuSans-37" d="M 525 4666 
L 3525 4666 
L 3525 4397 
L 1831 0 
L 1172 0 
L 2766 4134 
L 525 4134 
L 525 4666 
z
" transform="scale(0.015625)"/>
       </defs>
       <use xlink:href="#DejaVuSans-30"/>
       <use xlink:href="#DejaVuSans-2e" x="63.623047"/>
       <use xlink:href="#DejaVuSans-37" x="95.410156"/>
       <use xlink:href="#DejaVuSans-35" x="159.033203"/>
      </g>
     </g>
    </g>
    <g id="ytick_5">
     <g id="line2d_9">
      <g>
       <use xlink:href="#mbd1f834859" x="112.896" y="46.794545" style="stroke: #000000; stroke-width: 2.5"/>
      </g>
     </g>
     <g id="text_10">
      <!-- 1.00 -->
      <g transform="translate(48.411625 55.152827) scale(0.22 -0.22)">
       <defs>
        <path id="DejaVuSans-31" d="M 794 531 
L 1825 531 
L 1825 4091 
L 703 3866 
L 703 4441 
L 1819 4666 
L 2450 4666 
L 2450 531 
L 3481 531 
L 3481 0 
L 794 0 
L 794 531 
z
" transform="scale(0.015625)"/>
       </defs>
       <use xlink:href="#DejaVuSans-31"/>
       <use xlink:href="#DejaVuSans-2e" x="63.623047"/>
       <use xlink:href="#DejaVuSans-30" x="95.410156"/>
       <use xlink:href="#DejaVuSans-30" x="159.033203"/>
      </g>
     </g>
    </g>
    <g id="text_11">
     <!-- $F(\frac{n}{2}+1)$ -->
     <g transform="translate(34.811625 186.21) rotate(-90) scale(0.24 -0.24)">
      <defs>
       <path id="DejaVuSans-Oblique-46" d="M 1081 4666 
L 3756 4666 
L 3653 4134 
L 1606 4134 
L 1338 2759 
L 3188 2759 
L 3084 2228 
L 1234 2228 
L 800 0 
L 172 0 
L 1081 4666 
z
" transform="scale(0.015625)"/>
       <path id="DejaVuSans-28" d="M 1984 4856 
Q 1566 4138 1362 3434 
Q 1159 2731 1159 2009 
Q 1159 1288 1364 580 
Q 1569 -128 1984 -844 
L 1484 -844 
Q 1016 -109 783 600 
Q 550 1309 550 2009 
Q 550 2706 781 3412 
Q 1013 4119 1484 4856 
L 1984 4856 
z
" transform="scale(0.015625)"/>
       <path id="DejaVuSans-Oblique-6e" d="M 3566 2113 
L 3156 0 
L 2578 0 
L 2988 2091 
Q 3016 2238 3031 2350 
Q 3047 2463 3047 2528 
Q 3047 2791 2881 2937 
Q 2716 3084 2419 3084 
Q 1956 3084 1622 2776 
Q 1288 2469 1184 1941 
L 800 0 
L 225 0 
L 903 3500 
L 1478 3500 
L 1363 2950 
Q 1603 3253 1940 3418 
Q 2278 3584 2650 3584 
Q 3113 3584 3367 3334 
Q 3622 3084 3622 2631 
Q 3622 2519 3608 2391 
Q 3594 2263 3566 2113 
z
" transform="scale(0.015625)"/>
       <path id="DejaVuSans-2b" d="M 2944 4013 
L 2944 2272 
L 4684 2272 
L 4684 1741 
L 2944 1741 
L 2944 0 
L 2419 0 
L 2419 1741 
L 678 1741 
L 678 2272 
L 2419 2272 
L 2419 4013 
L 2944 4013 
z
" transform="scale(0.015625)"/>
       <path id="DejaVuSans-29" d="M 513 4856 
L 1013 4856 
Q 1481 4119 1714 3412 
Q 1947 2706 1947 2009 
Q 1947 1309 1714 600 
Q 1481 -109 1013 -844 
L 513 -844 
Q 928 -128 1133 580 
Q 1338 1288 1338 2009 
Q 1338 2731 1133 3434 
Q 928 4138 513 4856 
z
" transform="scale(0.015625)"/>
      </defs>
      <use xlink:href="#DejaVuSans-Oblique-46" transform="translate(0 0.003125)"/>
      <use xlink:href="#DejaVuSans-28" transform="translate(57.519531 0.003125)"/>
      <use xlink:href="#DejaVuSans-Oblique-6e" transform="translate(96.533203 43.8) scale(0.7)"/>
      <use xlink:href="#DejaVuSans-32" transform="translate(96.533203 -39.403125) scale(0.7)"/>
      <use xlink:href="#DejaVuSans-2b" transform="translate(173.051758 0.003125)"/>
      <use xlink:href="#DejaVuSans-31" transform="translate(276.323242 0.003125)"/>
      <use xlink:href="#DejaVuSans-29" transform="translate(339.946289 0.003125)"/>
      <path d="M 96.533203 18.8 
L 96.533203 25.05 
L 141.069336 25.05 
L 141.069336 18.8 
L 96.533203 18.8 
z
"/>
     </g>
    </g>
   </g>
   <g id="line2d_10">
    <path clip-path="url(#pbd2d0b2884)" style="fill: none; stroke: #424242; stroke-width: 4.5; stroke-linecap: square"/>
   </g>
   <g id="line2d_11">
    <path clip-path="url(#pbd2d0b2884)" style="fill: none; stroke: #424242; stroke-width: 4.5; stroke-linecap: square"/>
   </g>
   <g id="line2d_12">
    <path clip-path="url(#pbd2d0b2884)" style="fill: none; stroke: #424242; stroke-width: 4.5; stroke-linecap: square"/>
   </g>
   <g id="line2d_13">
    <path clip-path="url(#pbd2d0b2884)" style="fill: none; stroke: #424242; stroke-width: 4.5; stroke-linecap: square"/>
   </g>
   <g id="line2d_14">
    <path clip-path="url(#pbd2d0b2884)" style="fill: none; stroke: #424242; stroke-width: 4.5; stroke-linecap: square"/>
   </g>
   <g id="line2d_15">
    <path clip-path="url(#pbd2d0b2884)" style="fill: none; stroke: #424242; stroke-width: 4.5; stroke-linecap: square"/>
   </g>
   <g id="line2d_16">
    <path clip-path="url(#pbd2d0b2884)" style="fill: none; stroke: #424242; stroke-width: 4.5; stroke-linecap: square"/>
   </g>
   <g id="line2d_17">
    <path clip-path="url(#pbd2d0b2884)" style="fill: none; stroke: #424242; stroke-width: 4.5; stroke-linecap: square"/>
   </g>
   <g id="line2d_18">
    <path clip-path="url(#pbd2d0b2884)" style="fill: none; stroke: #424242; stroke-width: 4.5; stroke-linecap: square"/>
   </g>
   <g id="line2d_19">
    <path clip-path="url(#pbd2d0b2884)" style="fill: none; stroke: #424242; stroke-width: 4.5; stroke-linecap: square"/>
   </g>
   <g id="line2d_20">
    <path clip-path="url(#pbd2d0b2884)" style="fill: none; stroke: #424242; stroke-width: 4.5; stroke-linecap: square"/>
   </g>
   <g id="line2d_21">
    <path clip-path="url(#pbd2d0b2884)" style="fill: none; stroke: #424242; stroke-width: 4.5; stroke-linecap: square"/>
   </g>
   <g id="line2d_22">
    <path clip-path="url(#pbd2d0b2884)" style="fill: none; stroke: #424242; stroke-width: 4.5; stroke-linecap: square"/>
   </g>
   <g id="line2d_23">
    <path clip-path="url(#pbd2d0b2884)" style="fill: none; stroke: #424242; stroke-width: 4.5; stroke-linecap: square"/>
   </g>
   <g id="line2d_24">
    <path clip-path="url(#pbd2d0b2884)" style="fill: none; stroke: #424242; stroke-width: 4.5; stroke-linecap: square"/>
   </g>
   <g id="line2d_25">
    <path clip-path="url(#pbd2d0b2884)" style="fill: none; stroke: #424242; stroke-width: 4.5; stroke-linecap: square"/>
   </g>
   <g id="line2d_26">
    <path clip-path="url(#pbd2d0b2884)" style="fill: none; stroke: #424242; stroke-width: 4.5; stroke-linecap: square"/>
   </g>
   <g id="line2d_27">
    <path clip-path="url(#pbd2d0b2884)" style="fill: none; stroke: #424242; stroke-width: 4.5; stroke-linecap: square"/>
   </g>
   <g id="line2d_28">
    <path clip-path="url(#pbd2d0b2884)" style="fill: none; stroke: #424242; stroke-width: 4.5; stroke-linecap: square"/>
   </g>
   <g id="line2d_29">
    <path clip-path="url(#pbd2d0b2884)" style="fill: none; stroke: #424242; stroke-width: 4.5; stroke-linecap: square"/>
   </g>
   <g id="line2d_30">
    <path clip-path="url(#pbd2d0b2884)" style="fill: none; stroke: #424242; stroke-width: 4.5; stroke-linecap: square"/>
   </g>
   <g id="line2d_31">
    <path clip-path="url(#pbd2d0b2884)" style="fill: none; stroke: #424242; stroke-width: 4.5; stroke-linecap: square"/>
   </g>
   <g id="line2d_32">
    <path clip-path="url(#pbd2d0b2884)" style="fill: none; stroke: #424242; stroke-width: 4.5; stroke-linecap: square"/>
   </g>
   <g id="line2d_33">
    <path clip-path="url(#pbd2d0b2884)" style="fill: none; stroke: #424242; stroke-width: 4.5; stroke-linecap: square"/>
   </g>
   <g id="line2d_34">
    <path clip-path="url(#pbd2d0b2884)" style="fill: none; stroke: #424242; stroke-width: 4.5; stroke-linecap: square"/>
   </g>
   <g id="line2d_35">
    <path clip-path="url(#pbd2d0b2884)" style="fill: none; stroke: #424242; stroke-width: 4.5; stroke-linecap: square"/>
   </g>
   <g id="line2d_36">
    <path clip-path="url(#pbd2d0b2884)" style="fill: none; stroke: #424242; stroke-width: 4.5; stroke-linecap: square"/>
   </g>
   <g id="line2d_37">
    <path clip-path="url(#pbd2d0b2884)" style="fill: none; stroke: #424242; stroke-width: 4.5; stroke-linecap: square"/>
   </g>
   <g id="line2d_38">
    <path clip-path="url(#pbd2d0b2884)" style="fill: none; stroke: #424242; stroke-width: 4.5; stroke-linecap: square"/>
   </g>
   <g id="line2d_39">
    <path clip-path="url(#pbd2d0b2884)" style="fill: none; stroke: #424242; stroke-width: 4.5; stroke-linecap: square"/>
   </g>
   <g id="line2d_40">
    <path clip-path="url(#pbd2d0b2884)" style="fill: none; stroke: #424242; stroke-width: 4.5; stroke-linecap: square"/>
   </g>
   <g id="line2d_41">
    <path clip-path="url(#pbd2d0b2884)" style="fill: none; stroke: #424242; stroke-width: 4.5; stroke-linecap: square"/>
   </g>
   <g id="line2d_42">
    <path clip-path="url(#pbd2d0b2884)" style="fill: none; stroke: #424242; stroke-width: 4.5; stroke-linecap: square"/>
   </g>
   <g id="line2d_43">
    <path clip-path="url(#pbd2d0b2884)" style="fill: none; stroke: #424242; stroke-width: 4.5; stroke-linecap: square"/>
   </g>
   <g id="line2d_44">
    <path clip-path="url(#pbd2d0b2884)" style="fill: none; stroke: #424242; stroke-width: 4.5; stroke-linecap: square"/>
   </g>
   <g id="line2d_45">
    <path clip-path="url(#pbd2d0b2884)" style="fill: none; stroke: #424242; stroke-width: 4.5; stroke-linecap: square"/>
   </g>
   <g id="patch_39">
    <path d="M 112.896 255.54 
L 112.896 25.92 
" style="fill: none; stroke: #000000; stroke-width: 2.5; stroke-linejoin: miter; stroke-linecap: square"/>
   </g>
   <g id="patch_40">
    <path d="M 434.88 255.54 
L 434.88 25.92 
" style="fill: none; stroke: #000000; stroke-width: 2.5; stroke-linejoin: miter; stroke-linecap: square"/>
   </g>
   <g id="patch_41">
    <path d="M 112.896 255.54 
L 434.88 255.54 
" style="fill: none; stroke: #000000; stroke-width: 2.5; stroke-linejoin: miter; stroke-linecap: square"/>
   </g>
   <g id="patch_42">
    <path d="M 112.896 25.92 
L 434.88 25.92 
" style="fill: none; stroke: #000000; stroke-width: 2.5; stroke-linejoin: miter; stroke-linecap: square"/>
   </g>
  </g>
 </g>
 <defs>
  <clipPath id="pbd2d0b2884">
   <rect x="112.896" y="25.92" width="321.984" height="229.62"/>
  </clipPath>
 </defs>
</svg>
