<?xml version="1.0" encoding="utf-8" standalone="no"?>
<!DOCTYPE svg PUBLIC "-//W3C//DTD SVG 1.1//EN"
  "http://www.w3.org/Graphics/SVG/1.1/DTD/svg11.dtd">
<svg xmlns:xlink="http://www.w3.org/1999/xlink" width="460.8pt" height="345.6pt" viewBox="0 0 460.8 345.6" xmlns="http://www.w3.org/2000/svg" version="1.1">
 <metadata>
  <rdf:RDF xmlns:dc="http://purl.org/dc/elements/1.1/" xmlns:cc="http://creativecommons.org/ns#" xmlns:rdf="http://www.w3.org/1999/02/22-rdf-syntax-ns#">
   <cc:Work>
    <dc:type rdf:resource="http://purl.org/dc/dcmitype/StillImage"/>
    <dc:date>2024-03-28T11:28:07.808703</dc:date>
    <dc:format>image/svg+xml</dc:format>
    <dc:creator>
     <cc:Agent>
      <dc:title>Matplotlib v3.8.3, https://matplotlib.org/</dc:title>
     </cc:Agent>
    </dc:creator>
   </cc:Work>
  </rdf:RDF>
 </metadata>
 <defs>
  <style type="text/css">*{stroke-linejoin: round; stroke-linecap: butt}</style>
 </defs>
 <g id="figure_1">
  <g id="patch_1">
   <path d="M 0 345.6 
L 460.8 345.6 
L 460.8 0 
L 0 0 
z
" style="fill: #ffffff"/>
  </g>
  <g id="axes_1">
   <g id="patch_2">
    <path d="M 57.6 307.584 
L 414.72 307.584 
L 414.72 41.472 
L 57.6 41.472 
z
" style="fill: #ffffff"/>
   </g>
   <g id="patch_3">
    <path d="M 62.064 307.584 
L 66.032 307.584 
L 66.032 307.584 
L 62.064 307.584 
z
" clip-path="url(#pd09a48f789)" style="fill: #3e0c4a"/>
   </g>
   <g id="patch_4">
    <path d="M 106.704 307.584 
L 110.672 307.584 
L 110.672 307.584 
L 106.704 307.584 
z
" clip-path="url(#pd09a48f789)" style="fill: #3e0c4a"/>
   </g>
   <g id="patch_5">
    <path d="M 151.344 307.584 
L 155.312 307.584 
L 155.312 293.262794 
L 151.344 293.262794 
z
" clip-path="url(#pd09a48f789)" style="fill: #3e0c4a"/>
   </g>
   <g id="patch_6">
    <path d="M 195.984 307.584 
L 199.952 307.584 
L 199.952 69.636629 
L 195.984 69.636629 
z
" clip-path="url(#pd09a48f789)" style="fill: #3e0c4a"/>
   </g>
   <g id="patch_7">
    <path d="M 240.624 307.584 
L 244.592 307.584 
L 244.592 68.748207 
L 240.624 68.748207 
z
" clip-path="url(#pd09a48f789)" style="fill: #3e0c4a"/>
   </g>
   <g id="patch_8">
    <path d="M 285.264 307.584 
L 289.232 307.584 
L 289.232 293.329164 
L 285.264 293.329164 
z
" clip-path="url(#pd09a48f789)" style="fill: #3e0c4a"/>
   </g>
   <g id="patch_9">
    <path d="M 329.904 307.584 
L 333.872 307.584 
L 333.872 307.584 
L 329.904 307.584 
z
" clip-path="url(#pd09a48f789)" style="fill: #3e0c4a"/>
   </g>
   <g id="patch_10">
    <path d="M 374.544 307.584 
L 378.512 307.584 
L 378.512 307.584 
L 374.544 307.584 
z
" clip-path="url(#pd09a48f789)" style="fill: #3e0c4a"/>
   </g>
   <g id="patch_11">
    <path d="M 66.032 307.584 
L 70 307.584 
L 70 307.584 
L 66.032 307.584 
z
" clip-path="url(#pd09a48f789)" style="fill: #4a3771"/>
   </g>
   <g id="patch_12">
    <path d="M 110.672 307.584 
L 114.64 307.584 
L 114.64 307.584 
L 110.672 307.584 
z
" clip-path="url(#pd09a48f789)" style="fill: #4a3771"/>
   </g>
   <g id="patch_13">
    <path d="M 155.312 307.584 
L 159.28 307.584 
L 159.28 255.90462 
L 155.312 255.90462 
z
" clip-path="url(#pd09a48f789)" style="fill: #4a3771"/>
   </g>
   <g id="patch_14">
    <path d="M 199.952 307.584 
L 203.92 307.584 
L 203.92 106.904175 
L 199.952 106.904175 
z
" clip-path="url(#pd09a48f789)" style="fill: #4a3771"/>
   </g>
   <g id="patch_15">
    <path d="M 244.592 307.584 
L 248.56 307.584 
L 248.56 106.644757 
L 244.592 106.644757 
z
" clip-path="url(#pd09a48f789)" style="fill: #4a3771"/>
   </g>
   <g id="patch_16">
    <path d="M 289.232 307.584 
L 293.2 307.584 
L 293.2 255.523242 
L 289.232 255.523242 
z
" clip-path="url(#pd09a48f789)" style="fill: #4a3771"/>
   </g>
   <g id="patch_17">
    <path d="M 333.872 307.584 
L 337.84 307.584 
L 337.84 307.584 
L 333.872 307.584 
z
" clip-path="url(#pd09a48f789)" style="fill: #4a3771"/>
   </g>
   <g id="patch_18">
    <path d="M 378.512 307.584 
L 382.48 307.584 
L 382.48 307.584 
L 378.512 307.584 
z
" clip-path="url(#pd09a48f789)" style="fill: #4a3771"/>
   </g>
   <g id="patch_19">
    <path d="M 70 307.584 
L 73.968 307.584 
L 73.968 307.584 
L 70 307.584 
z
" clip-path="url(#pd09a48f789)" style="fill: #455681"/>
   </g>
   <g id="patch_20">
    <path d="M 114.64 307.584 
L 118.608 307.584 
L 118.608 307.584 
L 114.64 307.584 
z
" clip-path="url(#pd09a48f789)" style="fill: #455681"/>
   </g>
   <g id="patch_21">
    <path d="M 159.28 307.584 
L 163.248 307.584 
L 163.248 295.646742 
L 159.28 295.646742 
z
" clip-path="url(#pd09a48f789)" style="fill: #455681"/>
   </g>
   <g id="patch_22">
    <path d="M 203.92 307.584 
L 207.888 307.584 
L 207.888 66.937 
L 203.92 66.937 
z
" clip-path="url(#pd09a48f789)" style="fill: #455681"/>
   </g>
   <g id="patch_23">
    <path d="M 248.56 307.584 
L 252.528 307.584 
L 252.528 66.658378 
L 248.56 66.658378 
z
" clip-path="url(#pd09a48f789)" style="fill: #455681"/>
   </g>
   <g id="patch_24">
    <path d="M 293.2 307.584 
L 297.168 307.584 
L 297.168 295.734674 
L 293.2 295.734674 
z
" clip-path="url(#pd09a48f789)" style="fill: #455681"/>
   </g>
   <g id="patch_25">
    <path d="M 337.84 307.584 
L 341.808 307.584 
L 341.808 307.584 
L 337.84 307.584 
z
" clip-path="url(#pd09a48f789)" style="fill: #455681"/>
   </g>
   <g id="patch_26">
    <path d="M 382.48 307.584 
L 386.448 307.584 
L 386.448 307.584 
L 382.48 307.584 
z
" clip-path="url(#pd09a48f789)" style="fill: #455681"/>
   </g>
   <g id="patch_27">
    <path d="M 73.968 307.584 
L 77.936 307.584 
L 77.936 307.584 
L 73.968 307.584 
z
" clip-path="url(#pd09a48f789)" style="fill: #386d82"/>
   </g>
   <g id="patch_28">
    <path d="M 118.608 307.584 
L 122.576 307.584 
L 122.576 307.584 
L 118.608 307.584 
z
" clip-path="url(#pd09a48f789)" style="fill: #386d82"/>
   </g>
   <g id="patch_29">
    <path d="M 163.248 307.584 
L 167.216 307.584 
L 167.216 307.584 
L 163.248 307.584 
z
" clip-path="url(#pd09a48f789)" style="fill: #386d82"/>
   </g>
   <g id="patch_30">
    <path d="M 207.888 307.584 
L 211.856 307.584 
L 211.856 54.861273 
L 207.888 54.861273 
z
" clip-path="url(#pd09a48f789)" style="fill: #386d82"/>
   </g>
   <g id="patch_31">
    <path d="M 252.528 307.584 
L 256.496 307.584 
L 256.496 54.947521 
L 252.528 54.947521 
z
" clip-path="url(#pd09a48f789)" style="fill: #386d82"/>
   </g>
   <g id="patch_32">
    <path d="M 297.168 307.584 
L 301.136 307.584 
L 301.136 307.584 
L 297.168 307.584 
z
" clip-path="url(#pd09a48f789)" style="fill: #386d82"/>
   </g>
   <g id="patch_33">
    <path d="M 341.808 307.584 
L 345.776 307.584 
L 345.776 307.584 
L 341.808 307.584 
z
" clip-path="url(#pd09a48f789)" style="fill: #386d82"/>
   </g>
   <g id="patch_34">
    <path d="M 386.448 307.584 
L 390.416 307.584 
L 390.416 307.584 
L 386.448 307.584 
z
" clip-path="url(#pd09a48f789)" style="fill: #386d82"/>
   </g>
   <g id="patch_35">
    <path d="M 77.936 307.584 
L 81.904 307.584 
L 81.904 307.584 
L 77.936 307.584 
z
" clip-path="url(#pd09a48f789)" style="fill: #2f837f"/>
   </g>
   <g id="patch_36">
    <path d="M 122.576 307.584 
L 126.544 307.584 
L 126.544 307.584 
L 122.576 307.584 
z
" clip-path="url(#pd09a48f789)" style="fill: #2f837f"/>
   </g>
   <g id="patch_37">
    <path d="M 167.216 307.584 
L 171.184 307.584 
L 171.184 307.584 
L 167.216 307.584 
z
" clip-path="url(#pd09a48f789)" style="fill: #2f837f"/>
   </g>
   <g id="patch_38">
    <path d="M 211.856 307.584 
L 215.824 307.584 
L 215.824 54.430707 
L 211.856 54.430707 
z
" clip-path="url(#pd09a48f789)" style="fill: #2f837f"/>
   </g>
   <g id="patch_39">
    <path d="M 256.496 307.584 
L 260.464 307.584 
L 260.464 55.378087 
L 256.496 55.378087 
z
" clip-path="url(#pd09a48f789)" style="fill: #2f837f"/>
   </g>
   <g id="patch_40">
    <path d="M 301.136 307.584 
L 305.104 307.584 
L 305.104 307.584 
L 301.136 307.584 
z
" clip-path="url(#pd09a48f789)" style="fill: #2f837f"/>
   </g>
   <g id="patch_41">
    <path d="M 345.776 307.584 
L 349.744 307.584 
L 349.744 307.584 
L 345.776 307.584 
z
" clip-path="url(#pd09a48f789)" style="fill: #2f837f"/>
   </g>
   <g id="patch_42">
    <path d="M 390.416 307.584 
L 394.384 307.584 
L 394.384 307.584 
L 390.416 307.584 
z
" clip-path="url(#pd09a48f789)" style="fill: #2f837f"/>
   </g>
   <g id="patch_43">
    <path d="M 81.904 307.584 
L 85.872 307.584 
L 85.872 307.584 
L 81.904 307.584 
z
" clip-path="url(#pd09a48f789)" style="fill: #399e7b"/>
   </g>
   <g id="patch_44">
    <path d="M 126.544 307.584 
L 130.512 307.584 
L 130.512 307.584 
L 126.544 307.584 
z
" clip-path="url(#pd09a48f789)" style="fill: #399e7b"/>
   </g>
   <g id="patch_45">
    <path d="M 171.184 307.584 
L 175.152 307.584 
L 175.152 307.584 
L 171.184 307.584 
z
" clip-path="url(#pd09a48f789)" style="fill: #399e7b"/>
   </g>
   <g id="patch_46">
    <path d="M 215.824 307.584 
L 219.792 307.584 
L 219.792 54.924612 
L 215.824 54.924612 
z
" clip-path="url(#pd09a48f789)" style="fill: #399e7b"/>
   </g>
   <g id="patch_47">
    <path d="M 260.464 307.584 
L 264.432 307.584 
L 264.432 54.884183 
L 260.464 54.884183 
z
" clip-path="url(#pd09a48f789)" style="fill: #399e7b"/>
   </g>
   <g id="patch_48">
    <path d="M 305.104 307.584 
L 309.072 307.584 
L 309.072 307.584 
L 305.104 307.584 
z
" clip-path="url(#pd09a48f789)" style="fill: #399e7b"/>
   </g>
   <g id="patch_49">
    <path d="M 349.744 307.584 
L 353.712 307.584 
L 353.712 307.584 
L 349.744 307.584 
z
" clip-path="url(#pd09a48f789)" style="fill: #399e7b"/>
   </g>
   <g id="patch_50">
    <path d="M 394.384 307.584 
L 398.352 307.584 
L 398.352 307.584 
L 394.384 307.584 
z
" clip-path="url(#pd09a48f789)" style="fill: #399e7b"/>
   </g>
   <g id="patch_51">
    <path d="M 85.872 307.584 
L 89.84 307.584 
L 89.84 307.584 
L 85.872 307.584 
z
" clip-path="url(#pd09a48f789)" style="fill: #6cbc6e"/>
   </g>
   <g id="patch_52">
    <path d="M 130.512 307.584 
L 134.48 307.584 
L 134.48 307.584 
L 130.512 307.584 
z
" clip-path="url(#pd09a48f789)" style="fill: #6cbc6e"/>
   </g>
   <g id="patch_53">
    <path d="M 175.152 307.584 
L 179.12 307.584 
L 179.12 307.584 
L 175.152 307.584 
z
" clip-path="url(#pd09a48f789)" style="fill: #6cbc6e"/>
   </g>
   <g id="patch_54">
    <path d="M 219.792 307.584 
L 223.76 307.584 
L 223.76 54.79086 
L 219.792 54.79086 
z
" clip-path="url(#pd09a48f789)" style="fill: #6cbc6e"/>
   </g>
   <g id="patch_55">
    <path d="M 264.432 307.584 
L 268.4 307.584 
L 268.4 55.018945 
L 264.432 55.018945 
z
" clip-path="url(#pd09a48f789)" style="fill: #6cbc6e"/>
   </g>
   <g id="patch_56">
    <path d="M 309.072 307.584 
L 313.04 307.584 
L 313.04 307.584 
L 309.072 307.584 
z
" clip-path="url(#pd09a48f789)" style="fill: #6cbc6e"/>
   </g>
   <g id="patch_57">
    <path d="M 353.712 307.584 
L 357.68 307.584 
L 357.68 307.584 
L 353.712 307.584 
z
" clip-path="url(#pd09a48f789)" style="fill: #6cbc6e"/>
   </g>
   <g id="patch_58">
    <path d="M 398.352 307.584 
L 402.32 307.584 
L 402.32 307.584 
L 398.352 307.584 
z
" clip-path="url(#pd09a48f789)" style="fill: #6cbc6e"/>
   </g>
   <g id="patch_59">
    <path d="M 89.84 307.584 
L 93.808 307.584 
L 93.808 307.584 
L 89.84 307.584 
z
" clip-path="url(#pd09a48f789)" style="fill: #a3c746"/>
   </g>
   <g id="patch_60">
    <path d="M 134.48 307.584 
L 138.448 307.584 
L 138.448 307.584 
L 134.48 307.584 
z
" clip-path="url(#pd09a48f789)" style="fill: #a3c746"/>
   </g>
   <g id="patch_61">
    <path d="M 179.12 307.584 
L 183.088 307.584 
L 183.088 307.584 
L 179.12 307.584 
z
" clip-path="url(#pd09a48f789)" style="fill: #a3c746"/>
   </g>
   <g id="patch_62">
    <path d="M 223.76 307.584 
L 227.728 307.584 
L 227.728 54.933034 
L 223.76 54.933034 
z
" clip-path="url(#pd09a48f789)" style="fill: #a3c746"/>
   </g>
   <g id="patch_63">
    <path d="M 268.4 307.584 
L 272.368 307.584 
L 272.368 54.879466 
L 268.4 54.879466 
z
" clip-path="url(#pd09a48f789)" style="fill: #a3c746"/>
   </g>
   <g id="patch_64">
    <path d="M 313.04 307.584 
L 317.008 307.584 
L 317.008 307.584 
L 313.04 307.584 
z
" clip-path="url(#pd09a48f789)" style="fill: #a3c746"/>
   </g>
   <g id="patch_65">
    <path d="M 357.68 307.584 
L 361.648 307.584 
L 361.648 307.584 
L 357.68 307.584 
z
" clip-path="url(#pd09a48f789)" style="fill: #a3c746"/>
   </g>
   <g id="patch_66">
    <path d="M 402.32 307.584 
L 406.288 307.584 
L 406.288 307.584 
L 402.32 307.584 
z
" clip-path="url(#pd09a48f789)" style="fill: #a3c746"/>
   </g>
   <g id="patch_67">
    <path d="M 93.808 307.584 
L 97.776 307.584 
L 97.776 307.584 
L 93.808 307.584 
z
" clip-path="url(#pd09a48f789)" style="fill: #e2d240"/>
   </g>
   <g id="patch_68">
    <path d="M 138.448 307.584 
L 142.416 307.584 
L 142.416 307.584 
L 138.448 307.584 
z
" clip-path="url(#pd09a48f789)" style="fill: #e2d240"/>
   </g>
   <g id="patch_69">
    <path d="M 183.088 307.584 
L 187.056 307.584 
L 187.056 303.907343 
L 183.088 303.907343 
z
" clip-path="url(#pd09a48f789)" style="fill: #e2d240"/>
   </g>
   <g id="patch_70">
    <path d="M 227.728 307.584 
L 231.696 307.584 
L 231.696 58.517715 
L 227.728 58.517715 
z
" clip-path="url(#pd09a48f789)" style="fill: #e2d240"/>
   </g>
   <g id="patch_71">
    <path d="M 272.368 307.584 
L 276.336 307.584 
L 276.336 58.737041 
L 272.368 58.737041 
z
" clip-path="url(#pd09a48f789)" style="fill: #e2d240"/>
   </g>
   <g id="patch_72">
    <path d="M 317.008 307.584 
L 320.976 307.584 
L 320.976 303.841984 
L 317.008 303.841984 
z
" clip-path="url(#pd09a48f789)" style="fill: #e2d240"/>
   </g>
   <g id="patch_73">
    <path d="M 361.648 307.584 
L 365.616 307.584 
L 365.616 307.584 
L 361.648 307.584 
z
" clip-path="url(#pd09a48f789)" style="fill: #e2d240"/>
   </g>
   <g id="patch_74">
    <path d="M 406.288 307.584 
L 410.256 307.584 
L 410.256 307.584 
L 406.288 307.584 
z
" clip-path="url(#pd09a48f789)" style="fill: #e2d240"/>
   </g>
   <g id="matplotlib.axis_1">
    <g id="xtick_1">
     <g id="line2d_1">
      <defs>
       <path id="macadb62f24" d="M 0 0 
L 0 12 
" style="stroke: #000000; stroke-width: 2.5"/>
      </defs>
      <g>
       <use xlink:href="#macadb62f24" x="79.92" y="307.584" style="stroke: #000000; stroke-width: 2.5"/>
      </g>
     </g>
     <g id="text_1">
      <!-- 0 -->
      <g transform="translate(72.92125 339.800562) scale(0.22 -0.22)">
       <defs>
        <path id="DejaVuSans-30" d="M 2034 4250 
Q 1547 4250 1301 3770 
Q 1056 3291 1056 2328 
Q 1056 1369 1301 889 
Q 1547 409 2034 409 
Q 2525 409 2770 889 
Q 3016 1369 3016 2328 
Q 3016 3291 2770 3770 
Q 2525 4250 2034 4250 
z
M 2034 4750 
Q 2819 4750 3233 4129 
Q 3647 3509 3647 2328 
Q 3647 1150 3233 529 
Q 2819 -91 2034 -91 
Q 1250 -91 836 529 
Q 422 1150 422 2328 
Q 422 3509 836 4129 
Q 1250 4750 2034 4750 
z
" transform="scale(0.015625)"/>
       </defs>
       <use xlink:href="#DejaVuSans-30"/>
      </g>
     </g>
    </g>
    <g id="xtick_2">
     <g id="line2d_2">
      <g>
       <use xlink:href="#macadb62f24" x="124.56" y="307.584" style="stroke: #000000; stroke-width: 2.5"/>
      </g>
     </g>
     <g id="text_2">
      <!-- 1 -->
      <g transform="translate(117.56125 339.800562) scale(0.22 -0.22)">
       <defs>
        <path id="DejaVuSans-31" d="M 794 531 
L 1825 531 
L 1825 4091 
L 703 3866 
L 703 4441 
L 1819 4666 
L 2450 4666 
L 2450 531 
L 3481 531 
L 3481 0 
L 794 0 
L 794 531 
z
" transform="scale(0.015625)"/>
       </defs>
       <use xlink:href="#DejaVuSans-31"/>
      </g>
     </g>
    </g>
    <g id="xtick_3">
     <g id="line2d_3">
      <g>
       <use xlink:href="#macadb62f24" x="169.2" y="307.584" style="stroke: #000000; stroke-width: 2.5"/>
      </g>
     </g>
     <g id="text_3">
      <!-- 2 -->
      <g transform="translate(162.20125 339.800562) scale(0.22 -0.22)">
       <defs>
        <path id="DejaVuSans-32" d="M 1228 531 
L 3431 531 
L 3431 0 
L 469 0 
L 469 531 
Q 828 903 1448 1529 
Q 2069 2156 2228 2338 
Q 2531 2678 2651 2914 
Q 2772 3150 2772 3378 
Q 2772 3750 2511 3984 
Q 2250 4219 1831 4219 
Q 1534 4219 1204 4116 
Q 875 4013 500 3803 
L 500 4441 
Q 881 4594 1212 4672 
Q 1544 4750 1819 4750 
Q 2544 4750 2975 4387 
Q 3406 4025 3406 3419 
Q 3406 3131 3298 2873 
Q 3191 2616 2906 2266 
Q 2828 2175 2409 1742 
Q 1991 1309 1228 531 
z
" transform="scale(0.015625)"/>
       </defs>
       <use xlink:href="#DejaVuSans-32"/>
      </g>
     </g>
    </g>
    <g id="xtick_4">
     <g id="line2d_4">
      <g>
       <use xlink:href="#macadb62f24" x="213.84" y="307.584" style="stroke: #000000; stroke-width: 2.5"/>
      </g>
     </g>
     <g id="text_4">
      <!-- 3 -->
      <g transform="translate(206.84125 339.800562) scale(0.22 -0.22)">
       <defs>
        <path id="DejaVuSans-33" d="M 2597 2516 
Q 3050 2419 3304 2112 
Q 3559 1806 3559 1356 
Q 3559 666 3084 287 
Q 2609 -91 1734 -91 
Q 1441 -91 1130 -33 
Q 819 25 488 141 
L 488 750 
Q 750 597 1062 519 
Q 1375 441 1716 441 
Q 2309 441 2620 675 
Q 2931 909 2931 1356 
Q 2931 1769 2642 2001 
Q 2353 2234 1838 2234 
L 1294 2234 
L 1294 2753 
L 1863 2753 
Q 2328 2753 2575 2939 
Q 2822 3125 2822 3475 
Q 2822 3834 2567 4026 
Q 2313 4219 1838 4219 
Q 1578 4219 1281 4162 
Q 984 4106 628 3988 
L 628 4550 
Q 988 4650 1302 4700 
Q 1616 4750 1894 4750 
Q 2613 4750 3031 4423 
Q 3450 4097 3450 3541 
Q 3450 3153 3228 2886 
Q 3006 2619 2597 2516 
z
" transform="scale(0.015625)"/>
       </defs>
       <use xlink:href="#DejaVuSans-33"/>
      </g>
     </g>
    </g>
    <g id="xtick_5">
     <g id="line2d_5">
      <g>
       <use xlink:href="#macadb62f24" x="258.48" y="307.584" style="stroke: #000000; stroke-width: 2.5"/>
      </g>
     </g>
     <g id="text_5">
      <!-- 4 -->
      <g transform="translate(251.48125 339.800562) scale(0.22 -0.22)">
       <defs>
        <path id="DejaVuSans-34" d="M 2419 4116 
L 825 1625 
L 2419 1625 
L 2419 4116 
z
M 2253 4666 
L 3047 4666 
L 3047 1625 
L 3713 1625 
L 3713 1100 
L 3047 1100 
L 3047 0 
L 2419 0 
L 2419 1100 
L 313 1100 
L 313 1709 
L 2253 4666 
z
" transform="scale(0.015625)"/>
       </defs>
       <use xlink:href="#DejaVuSans-34"/>
      </g>
     </g>
    </g>
    <g id="xtick_6">
     <g id="line2d_6">
      <g>
       <use xlink:href="#macadb62f24" x="303.12" y="307.584" style="stroke: #000000; stroke-width: 2.5"/>
      </g>
     </g>
     <g id="text_6">
      <!-- 5 -->
      <g transform="translate(296.12125 339.800562) scale(0.22 -0.22)">
       <defs>
        <path id="DejaVuSans-35" d="M 691 4666 
L 3169 4666 
L 3169 4134 
L 1269 4134 
L 1269 2991 
Q 1406 3038 1543 3061 
Q 1681 3084 1819 3084 
Q 2600 3084 3056 2656 
Q 3513 2228 3513 1497 
Q 3513 744 3044 326 
Q 2575 -91 1722 -91 
Q 1428 -91 1123 -41 
Q 819 9 494 109 
L 494 744 
Q 775 591 1075 516 
Q 1375 441 1709 441 
Q 2250 441 2565 725 
Q 2881 1009 2881 1497 
Q 2881 1984 2565 2268 
Q 2250 2553 1709 2553 
Q 1456 2553 1204 2497 
Q 953 2441 691 2322 
L 691 4666 
z
" transform="scale(0.015625)"/>
       </defs>
       <use xlink:href="#DejaVuSans-35"/>
      </g>
     </g>
    </g>
    <g id="xtick_7">
     <g id="line2d_7">
      <g>
       <use xlink:href="#macadb62f24" x="347.76" y="307.584" style="stroke: #000000; stroke-width: 2.5"/>
      </g>
     </g>
     <g id="text_7">
      <!-- 6 -->
      <g transform="translate(340.76125 339.800562) scale(0.22 -0.22)">
       <defs>
        <path id="DejaVuSans-36" d="M 2113 2584 
Q 1688 2584 1439 2293 
Q 1191 2003 1191 1497 
Q 1191 994 1439 701 
Q 1688 409 2113 409 
Q 2538 409 2786 701 
Q 3034 994 3034 1497 
Q 3034 2003 2786 2293 
Q 2538 2584 2113 2584 
z
M 3366 4563 
L 3366 3988 
Q 3128 4100 2886 4159 
Q 2644 4219 2406 4219 
Q 1781 4219 1451 3797 
Q 1122 3375 1075 2522 
Q 1259 2794 1537 2939 
Q 1816 3084 2150 3084 
Q 2853 3084 3261 2657 
Q 3669 2231 3669 1497 
Q 3669 778 3244 343 
Q 2819 -91 2113 -91 
Q 1303 -91 875 529 
Q 447 1150 447 2328 
Q 447 3434 972 4092 
Q 1497 4750 2381 4750 
Q 2619 4750 2861 4703 
Q 3103 4656 3366 4563 
z
" transform="scale(0.015625)"/>
       </defs>
       <use xlink:href="#DejaVuSans-36"/>
      </g>
     </g>
    </g>
    <g id="xtick_8">
     <g id="line2d_8">
      <g>
       <use xlink:href="#macadb62f24" x="392.4" y="307.584" style="stroke: #000000; stroke-width: 2.5"/>
      </g>
     </g>
     <g id="text_8">
      <!-- 7 -->
      <g transform="translate(385.40125 339.800562) scale(0.22 -0.22)">
       <defs>
        <path id="DejaVuSans-37" d="M 525 4666 
L 3525 4666 
L 3525 4397 
L 1831 0 
L 1172 0 
L 2766 4134 
L 525 4134 
L 525 4666 
z
" transform="scale(0.015625)"/>
       </defs>
       <use xlink:href="#DejaVuSans-37"/>
      </g>
     </g>
    </g>
    <g id="text_9">
     <!-- Fn -->
     <g transform="translate(221.653125 366.612125) scale(0.24 -0.24)">
      <defs>
       <path id="DejaVuSans-46" d="M 628 4666 
L 3309 4666 
L 3309 4134 
L 1259 4134 
L 1259 2759 
L 3109 2759 
L 3109 2228 
L 1259 2228 
L 1259 0 
L 628 0 
L 628 4666 
z
" transform="scale(0.015625)"/>
       <path id="DejaVuSans-6e" d="M 3513 2113 
L 3513 0 
L 2938 0 
L 2938 2094 
Q 2938 2591 2744 2837 
Q 2550 3084 2163 3084 
Q 1697 3084 1428 2787 
Q 1159 2491 1159 1978 
L 1159 0 
L 581 0 
L 581 3500 
L 1159 3500 
L 1159 2956 
Q 1366 3272 1645 3428 
Q 1925 3584 2291 3584 
Q 2894 3584 3203 3211 
Q 3513 2838 3513 2113 
z
" transform="scale(0.015625)"/>
      </defs>
      <use xlink:href="#DejaVuSans-46"/>
      <use xlink:href="#DejaVuSans-6e" x="57.519531"/>
     </g>
    </g>
   </g>
   <g id="matplotlib.axis_2">
    <g id="ytick_1">
     <g id="line2d_9">
      <defs>
       <path id="mbd1f834859" d="M 0 0 
L -12 0 
" style="stroke: #000000; stroke-width: 2.5"/>
      </defs>
      <g>
       <use xlink:href="#mbd1f834859" x="57.6" y="307.584" style="stroke: #000000; stroke-width: 2.5"/>
      </g>
     </g>
     <g id="text_10">
      <!-- 0.0 -->
      <g transform="translate(7.113125 315.942281) scale(0.22 -0.22)">
       <defs>
        <path id="DejaVuSans-2e" d="M 684 794 
L 1344 794 
L 1344 0 
L 684 0 
L 684 794 
z
" transform="scale(0.015625)"/>
       </defs>
       <use xlink:href="#DejaVuSans-30"/>
       <use xlink:href="#DejaVuSans-2e" x="63.623047"/>
       <use xlink:href="#DejaVuSans-30" x="95.410156"/>
      </g>
     </g>
    </g>
    <g id="ytick_2">
     <g id="line2d_10">
      <g>
       <use xlink:href="#mbd1f834859" x="57.6" y="257.048079" style="stroke: #000000; stroke-width: 2.5"/>
      </g>
     </g>
     <g id="text_11">
      <!-- 0.1 -->
      <g transform="translate(7.113125 265.406361) scale(0.22 -0.22)">
       <use xlink:href="#DejaVuSans-30"/>
       <use xlink:href="#DejaVuSans-2e" x="63.623047"/>
       <use xlink:href="#DejaVuSans-31" x="95.410156"/>
      </g>
     </g>
    </g>
    <g id="ytick_3">
     <g id="line2d_11">
      <g>
       <use xlink:href="#mbd1f834859" x="57.6" y="206.512159" style="stroke: #000000; stroke-width: 2.5"/>
      </g>
     </g>
     <g id="text_12">
      <!-- 0.2 -->
      <g transform="translate(7.113125 214.87044) scale(0.22 -0.22)">
       <use xlink:href="#DejaVuSans-30"/>
       <use xlink:href="#DejaVuSans-2e" x="63.623047"/>
       <use xlink:href="#DejaVuSans-32" x="95.410156"/>
      </g>
     </g>
    </g>
    <g id="ytick_4">
     <g id="line2d_12">
      <g>
       <use xlink:href="#mbd1f834859" x="57.6" y="155.976238" style="stroke: #000000; stroke-width: 2.5"/>
      </g>
     </g>
     <g id="text_13">
      <!-- 0.3 -->
      <g transform="translate(7.113125 164.33452) scale(0.22 -0.22)">
       <use xlink:href="#DejaVuSans-30"/>
       <use xlink:href="#DejaVuSans-2e" x="63.623047"/>
       <use xlink:href="#DejaVuSans-33" x="95.410156"/>
      </g>
     </g>
    </g>
    <g id="ytick_5">
     <g id="line2d_13">
      <g>
       <use xlink:href="#mbd1f834859" x="57.6" y="105.440318" style="stroke: #000000; stroke-width: 2.5"/>
      </g>
     </g>
     <g id="text_14">
      <!-- 0.4 -->
      <g transform="translate(7.113125 113.798599) scale(0.22 -0.22)">
       <use xlink:href="#DejaVuSans-30"/>
       <use xlink:href="#DejaVuSans-2e" x="63.623047"/>
       <use xlink:href="#DejaVuSans-34" x="95.410156"/>
      </g>
     </g>
    </g>
    <g id="ytick_6">
     <g id="line2d_14">
      <g>
       <use xlink:href="#mbd1f834859" x="57.6" y="54.904397" style="stroke: #000000; stroke-width: 2.5"/>
      </g>
     </g>
     <g id="text_15">
      <!-- 0.5 -->
      <g transform="translate(7.113125 63.262678) scale(0.22 -0.22)">
       <use xlink:href="#DejaVuSans-30"/>
       <use xlink:href="#DejaVuSans-2e" x="63.623047"/>
       <use xlink:href="#DejaVuSans-35" x="95.410156"/>
      </g>
     </g>
    </g>
    <g id="text_16">
     <!-- Frequency -->
     <g transform="translate(-1.878125 236.51925) rotate(-90) scale(0.24 -0.24)">
      <defs>
       <path id="DejaVuSans-72" d="M 2631 2963 
Q 2534 3019 2420 3045 
Q 2306 3072 2169 3072 
Q 1681 3072 1420 2755 
Q 1159 2438 1159 1844 
L 1159 0 
L 581 0 
L 581 3500 
L 1159 3500 
L 1159 2956 
Q 1341 3275 1631 3429 
Q 1922 3584 2338 3584 
Q 2397 3584 2469 3576 
Q 2541 3569 2628 3553 
L 2631 2963 
z
" transform="scale(0.015625)"/>
       <path id="DejaVuSans-65" d="M 3597 1894 
L 3597 1613 
L 953 1613 
Q 991 1019 1311 708 
Q 1631 397 2203 397 
Q 2534 397 2845 478 
Q 3156 559 3463 722 
L 3463 178 
Q 3153 47 2828 -22 
Q 2503 -91 2169 -91 
Q 1331 -91 842 396 
Q 353 884 353 1716 
Q 353 2575 817 3079 
Q 1281 3584 2069 3584 
Q 2775 3584 3186 3129 
Q 3597 2675 3597 1894 
z
M 3022 2063 
Q 3016 2534 2758 2815 
Q 2500 3097 2075 3097 
Q 1594 3097 1305 2825 
Q 1016 2553 972 2059 
L 3022 2063 
z
" transform="scale(0.015625)"/>
       <path id="DejaVuSans-71" d="M 947 1747 
Q 947 1113 1208 752 
Q 1469 391 1925 391 
Q 2381 391 2643 752 
Q 2906 1113 2906 1747 
Q 2906 2381 2643 2742 
Q 2381 3103 1925 3103 
Q 1469 3103 1208 2742 
Q 947 2381 947 1747 
z
M 2906 525 
Q 2725 213 2448 61 
Q 2172 -91 1784 -91 
Q 1150 -91 751 415 
Q 353 922 353 1747 
Q 353 2572 751 3078 
Q 1150 3584 1784 3584 
Q 2172 3584 2448 3432 
Q 2725 3281 2906 2969 
L 2906 3500 
L 3481 3500 
L 3481 -1331 
L 2906 -1331 
L 2906 525 
z
" transform="scale(0.015625)"/>
       <path id="DejaVuSans-75" d="M 544 1381 
L 544 3500 
L 1119 3500 
L 1119 1403 
Q 1119 906 1312 657 
Q 1506 409 1894 409 
Q 2359 409 2629 706 
Q 2900 1003 2900 1516 
L 2900 3500 
L 3475 3500 
L 3475 0 
L 2900 0 
L 2900 538 
Q 2691 219 2414 64 
Q 2138 -91 1772 -91 
Q 1169 -91 856 284 
Q 544 659 544 1381 
z
M 1991 3584 
L 1991 3584 
z
" transform="scale(0.015625)"/>
       <path id="DejaVuSans-63" d="M 3122 3366 
L 3122 2828 
Q 2878 2963 2633 3030 
Q 2388 3097 2138 3097 
Q 1578 3097 1268 2742 
Q 959 2388 959 1747 
Q 959 1106 1268 751 
Q 1578 397 2138 397 
Q 2388 397 2633 464 
Q 2878 531 3122 666 
L 3122 134 
Q 2881 22 2623 -34 
Q 2366 -91 2075 -91 
Q 1284 -91 818 406 
Q 353 903 353 1747 
Q 353 2603 823 3093 
Q 1294 3584 2113 3584 
Q 2378 3584 2631 3529 
Q 2884 3475 3122 3366 
z
" transform="scale(0.015625)"/>
       <path id="DejaVuSans-79" d="M 2059 -325 
Q 1816 -950 1584 -1140 
Q 1353 -1331 966 -1331 
L 506 -1331 
L 506 -850 
L 844 -850 
Q 1081 -850 1212 -737 
Q 1344 -625 1503 -206 
L 1606 56 
L 191 3500 
L 800 3500 
L 1894 763 
L 2988 3500 
L 3597 3500 
L 2059 -325 
z
" transform="scale(0.015625)"/>
      </defs>
      <use xlink:href="#DejaVuSans-46"/>
      <use xlink:href="#DejaVuSans-72" x="50.269531"/>
      <use xlink:href="#DejaVuSans-65" x="89.132812"/>
      <use xlink:href="#DejaVuSans-71" x="150.65625"/>
      <use xlink:href="#DejaVuSans-75" x="214.132812"/>
      <use xlink:href="#DejaVuSans-65" x="277.511719"/>
      <use xlink:href="#DejaVuSans-6e" x="339.035156"/>
      <use xlink:href="#DejaVuSans-63" x="402.414062"/>
      <use xlink:href="#DejaVuSans-79" x="457.394531"/>
     </g>
    </g>
   </g>
   <g id="line2d_15">
    <path d="M 64.048 307.584 
L 64.048 307.584 
" clip-path="url(#pd09a48f789)" style="fill: none; stroke: #424242; stroke-width: 4.5; stroke-linecap: square"/>
   </g>
   <g id="line2d_16">
    <path d="M 108.688 307.584 
L 108.688 307.584 
" clip-path="url(#pd09a48f789)" style="fill: none; stroke: #424242; stroke-width: 4.5; stroke-linecap: square"/>
   </g>
   <g id="line2d_17">
    <path d="M 153.328 307.584 
L 153.328 264.620382 
" clip-path="url(#pd09a48f789)" style="fill: none; stroke: #424242; stroke-width: 4.5; stroke-linecap: square"/>
   </g>
   <g id="line2d_18">
    <path d="M 197.968 98.335978 
L 197.968 55.009849 
" clip-path="url(#pd09a48f789)" style="fill: none; stroke: #424242; stroke-width: 4.5; stroke-linecap: square"/>
   </g>
   <g id="line2d_19">
    <path d="M 242.608 97.36771 
L 242.608 54.144 
" clip-path="url(#pd09a48f789)" style="fill: none; stroke: #424242; stroke-width: 4.5; stroke-linecap: square"/>
   </g>
   <g id="line2d_20">
    <path d="M 287.248 307.584 
L 287.248 264.819493 
" clip-path="url(#pd09a48f789)" style="fill: none; stroke: #424242; stroke-width: 4.5; stroke-linecap: square"/>
   </g>
   <g id="line2d_21">
    <path d="M 331.888 307.584 
L 331.888 307.584 
" clip-path="url(#pd09a48f789)" style="fill: none; stroke: #424242; stroke-width: 4.5; stroke-linecap: square"/>
   </g>
   <g id="line2d_22">
    <path d="M 376.528 307.584 
L 376.528 307.584 
" clip-path="url(#pd09a48f789)" style="fill: none; stroke: #424242; stroke-width: 4.5; stroke-linecap: square"/>
   </g>
   <g id="line2d_23">
    <path d="M 68.016 307.584 
L 68.016 307.584 
" clip-path="url(#pd09a48f789)" style="fill: none; stroke: #424242; stroke-width: 4.5; stroke-linecap: square"/>
   </g>
   <g id="line2d_24">
    <path d="M 112.656 307.584 
L 112.656 307.584 
" clip-path="url(#pd09a48f789)" style="fill: none; stroke: #424242; stroke-width: 4.5; stroke-linecap: square"/>
   </g>
   <g id="line2d_25">
    <path d="M 157.296 302.095462 
L 157.296 197.183565 
" clip-path="url(#pd09a48f789)" style="fill: none; stroke: #424242; stroke-width: 4.5; stroke-linecap: square"/>
   </g>
   <g id="line2d_26">
    <path d="M 201.936 165.670039 
L 201.936 60.713333 
" clip-path="url(#pd09a48f789)" style="fill: none; stroke: #424242; stroke-width: 4.5; stroke-linecap: square"/>
   </g>
   <g id="line2d_27">
    <path d="M 246.576 161.694209 
L 246.576 60.182706 
" clip-path="url(#pd09a48f789)" style="fill: none; stroke: #424242; stroke-width: 4.5; stroke-linecap: square"/>
   </g>
   <g id="line2d_28">
    <path d="M 291.216 302.047285 
L 291.216 196.59499 
" clip-path="url(#pd09a48f789)" style="fill: none; stroke: #424242; stroke-width: 4.5; stroke-linecap: square"/>
   </g>
   <g id="line2d_29">
    <path d="M 335.856 307.584 
L 335.856 307.584 
" clip-path="url(#pd09a48f789)" style="fill: none; stroke: #424242; stroke-width: 4.5; stroke-linecap: square"/>
   </g>
   <g id="line2d_30">
    <path d="M 380.496 307.584 
L 380.496 307.584 
" clip-path="url(#pd09a48f789)" style="fill: none; stroke: #424242; stroke-width: 4.5; stroke-linecap: square"/>
   </g>
   <g id="line2d_31">
    <path d="M 71.984 307.584 
L 71.984 307.584 
" clip-path="url(#pd09a48f789)" style="fill: none; stroke: #424242; stroke-width: 4.5; stroke-linecap: square"/>
   </g>
   <g id="line2d_32">
    <path d="M 116.624 307.584 
L 116.624 307.584 
" clip-path="url(#pd09a48f789)" style="fill: none; stroke: #424242; stroke-width: 4.5; stroke-linecap: square"/>
   </g>
   <g id="line2d_33">
    <path d="M 161.264 307.584 
L 161.264 271.772225 
" clip-path="url(#pd09a48f789)" style="fill: none; stroke: #424242; stroke-width: 4.5; stroke-linecap: square"/>
   </g>
   <g id="line2d_34">
    <path d="M 205.904 90.909893 
L 205.904 54.803325 
" clip-path="url(#pd09a48f789)" style="fill: none; stroke: #424242; stroke-width: 4.5; stroke-linecap: square"/>
   </g>
   <g id="line2d_35">
    <path d="M 250.544 90.321655 
L 250.544 54.705959 
" clip-path="url(#pd09a48f789)" style="fill: none; stroke: #424242; stroke-width: 4.5; stroke-linecap: square"/>
   </g>
   <g id="line2d_36">
    <path d="M 295.184 307.584 
L 295.184 272.036023 
" clip-path="url(#pd09a48f789)" style="fill: none; stroke: #424242; stroke-width: 4.5; stroke-linecap: square"/>
   </g>
   <g id="line2d_37">
    <path d="M 339.824 307.584 
L 339.824 307.584 
" clip-path="url(#pd09a48f789)" style="fill: none; stroke: #424242; stroke-width: 4.5; stroke-linecap: square"/>
   </g>
   <g id="line2d_38">
    <path d="M 384.464 307.584 
L 384.464 307.584 
" clip-path="url(#pd09a48f789)" style="fill: none; stroke: #424242; stroke-width: 4.5; stroke-linecap: square"/>
   </g>
   <g id="line2d_39">
    <path d="M 75.952 307.584 
L 75.952 307.584 
" clip-path="url(#pd09a48f789)" style="fill: none; stroke: #424242; stroke-width: 4.5; stroke-linecap: square"/>
   </g>
   <g id="line2d_40">
    <path d="M 120.592 307.584 
L 120.592 307.584 
" clip-path="url(#pd09a48f789)" style="fill: none; stroke: #424242; stroke-width: 4.5; stroke-linecap: square"/>
   </g>
   <g id="line2d_41">
    <path d="M 165.232 307.584 
L 165.232 307.584 
" clip-path="url(#pd09a48f789)" style="fill: none; stroke: #424242; stroke-width: 4.5; stroke-linecap: square"/>
   </g>
   <g id="line2d_42">
    <path d="M 209.872 54.958976 
L 209.872 54.747062 
" clip-path="url(#pd09a48f789)" style="fill: none; stroke: #424242; stroke-width: 4.5; stroke-linecap: square"/>
   </g>
   <g id="line2d_43">
    <path d="M 254.512 55.061732 
L 254.512 54.845439 
" clip-path="url(#pd09a48f789)" style="fill: none; stroke: #424242; stroke-width: 4.5; stroke-linecap: square"/>
   </g>
   <g id="line2d_44">
    <path d="M 299.152 307.584 
L 299.152 307.584 
" clip-path="url(#pd09a48f789)" style="fill: none; stroke: #424242; stroke-width: 4.5; stroke-linecap: square"/>
   </g>
   <g id="line2d_45">
    <path d="M 343.792 307.584 
L 343.792 307.584 
" clip-path="url(#pd09a48f789)" style="fill: none; stroke: #424242; stroke-width: 4.5; stroke-linecap: square"/>
   </g>
   <g id="line2d_46">
    <path d="M 388.432 307.584 
L 388.432 307.584 
" clip-path="url(#pd09a48f789)" style="fill: none; stroke: #424242; stroke-width: 4.5; stroke-linecap: square"/>
   </g>
   <g id="line2d_47">
    <path d="M 79.92 307.584 
L 79.92 307.584 
" clip-path="url(#pd09a48f789)" style="fill: none; stroke: #424242; stroke-width: 4.5; stroke-linecap: square"/>
   </g>
   <g id="line2d_48">
    <path d="M 124.56 307.584 
L 124.56 307.584 
" clip-path="url(#pd09a48f789)" style="fill: none; stroke: #424242; stroke-width: 4.5; stroke-linecap: square"/>
   </g>
   <g id="line2d_49">
    <path d="M 169.2 307.584 
L 169.2 307.584 
" clip-path="url(#pd09a48f789)" style="fill: none; stroke: #424242; stroke-width: 4.5; stroke-linecap: square"/>
   </g>
   <g id="line2d_50">
    <path d="M 213.84 54.659509 
L 213.84 54.21475 
" clip-path="url(#pd09a48f789)" style="fill: none; stroke: #424242; stroke-width: 4.5; stroke-linecap: square"/>
   </g>
   <g id="line2d_51">
    <path d="M 258.48 55.579557 
L 258.48 55.149328 
" clip-path="url(#pd09a48f789)" style="fill: none; stroke: #424242; stroke-width: 4.5; stroke-linecap: square"/>
   </g>
   <g id="line2d_52">
    <path d="M 303.12 307.584 
L 303.12 307.584 
" clip-path="url(#pd09a48f789)" style="fill: none; stroke: #424242; stroke-width: 4.5; stroke-linecap: square"/>
   </g>
   <g id="line2d_53">
    <path d="M 347.76 307.584 
L 347.76 307.584 
" clip-path="url(#pd09a48f789)" style="fill: none; stroke: #424242; stroke-width: 4.5; stroke-linecap: square"/>
   </g>
   <g id="line2d_54">
    <path d="M 392.4 307.584 
L 392.4 307.584 
" clip-path="url(#pd09a48f789)" style="fill: none; stroke: #424242; stroke-width: 4.5; stroke-linecap: square"/>
   </g>
   <g id="line2d_55">
    <path d="M 83.888 307.584 
L 83.888 307.584 
" clip-path="url(#pd09a48f789)" style="fill: none; stroke: #424242; stroke-width: 4.5; stroke-linecap: square"/>
   </g>
   <g id="line2d_56">
    <path d="M 128.528 307.584 
L 128.528 307.584 
" clip-path="url(#pd09a48f789)" style="fill: none; stroke: #424242; stroke-width: 4.5; stroke-linecap: square"/>
   </g>
   <g id="line2d_57">
    <path d="M 173.168 307.584 
L 173.168 307.584 
" clip-path="url(#pd09a48f789)" style="fill: none; stroke: #424242; stroke-width: 4.5; stroke-linecap: square"/>
   </g>
   <g id="line2d_58">
    <path d="M 217.808 55.368991 
L 217.808 54.466756 
" clip-path="url(#pd09a48f789)" style="fill: none; stroke: #424242; stroke-width: 4.5; stroke-linecap: square"/>
   </g>
   <g id="line2d_59">
    <path d="M 262.448 55.343462 
L 262.448 54.439804 
" clip-path="url(#pd09a48f789)" style="fill: none; stroke: #424242; stroke-width: 4.5; stroke-linecap: square"/>
   </g>
   <g id="line2d_60">
    <path d="M 307.088 307.584 
L 307.088 307.584 
" clip-path="url(#pd09a48f789)" style="fill: none; stroke: #424242; stroke-width: 4.5; stroke-linecap: square"/>
   </g>
   <g id="line2d_61">
    <path d="M 351.728 307.584 
L 351.728 307.584 
" clip-path="url(#pd09a48f789)" style="fill: none; stroke: #424242; stroke-width: 4.5; stroke-linecap: square"/>
   </g>
   <g id="line2d_62">
    <path d="M 396.368 307.584 
L 396.368 307.584 
" clip-path="url(#pd09a48f789)" style="fill: none; stroke: #424242; stroke-width: 4.5; stroke-linecap: square"/>
   </g>
   <g id="line2d_63">
    <path d="M 87.856 307.584 
L 87.856 307.584 
" clip-path="url(#pd09a48f789)" style="fill: none; stroke: #424242; stroke-width: 4.5; stroke-linecap: square"/>
   </g>
   <g id="line2d_64">
    <path d="M 132.496 307.584 
L 132.496 307.584 
" clip-path="url(#pd09a48f789)" style="fill: none; stroke: #424242; stroke-width: 4.5; stroke-linecap: square"/>
   </g>
   <g id="line2d_65">
    <path d="M 177.136 307.584 
L 177.136 307.584 
" clip-path="url(#pd09a48f789)" style="fill: none; stroke: #424242; stroke-width: 4.5; stroke-linecap: square"/>
   </g>
   <g id="line2d_66">
    <path d="M 221.776 55.048593 
L 221.776 54.546308 
" clip-path="url(#pd09a48f789)" style="fill: none; stroke: #424242; stroke-width: 4.5; stroke-linecap: square"/>
   </g>
   <g id="line2d_67">
    <path d="M 266.416 55.277352 
L 266.416 54.750431 
" clip-path="url(#pd09a48f789)" style="fill: none; stroke: #424242; stroke-width: 4.5; stroke-linecap: square"/>
   </g>
   <g id="line2d_68">
    <path d="M 311.056 307.584 
L 311.056 307.584 
" clip-path="url(#pd09a48f789)" style="fill: none; stroke: #424242; stroke-width: 4.5; stroke-linecap: square"/>
   </g>
   <g id="line2d_69">
    <path d="M 355.696 307.584 
L 355.696 307.584 
" clip-path="url(#pd09a48f789)" style="fill: none; stroke: #424242; stroke-width: 4.5; stroke-linecap: square"/>
   </g>
   <g id="line2d_70">
    <path d="M 400.336 307.584 
L 400.336 307.584 
" clip-path="url(#pd09a48f789)" style="fill: none; stroke: #424242; stroke-width: 4.5; stroke-linecap: square"/>
   </g>
   <g id="line2d_71">
    <path d="M 91.824 307.584 
L 91.824 307.584 
" clip-path="url(#pd09a48f789)" style="fill: none; stroke: #424242; stroke-width: 4.5; stroke-linecap: square"/>
   </g>
   <g id="line2d_72">
    <path d="M 136.464 307.584 
L 136.464 307.584 
" clip-path="url(#pd09a48f789)" style="fill: none; stroke: #424242; stroke-width: 4.5; stroke-linecap: square"/>
   </g>
   <g id="line2d_73">
    <path d="M 181.104 307.584 
L 181.104 307.584 
" clip-path="url(#pd09a48f789)" style="fill: none; stroke: #424242; stroke-width: 4.5; stroke-linecap: square"/>
   </g>
   <g id="line2d_74">
    <path d="M 225.744 55.094412 
L 225.744 54.771235 
" clip-path="url(#pd09a48f789)" style="fill: none; stroke: #424242; stroke-width: 4.5; stroke-linecap: square"/>
   </g>
   <g id="line2d_75">
    <path d="M 270.384 55.059711 
L 270.384 54.720025 
" clip-path="url(#pd09a48f789)" style="fill: none; stroke: #424242; stroke-width: 4.5; stroke-linecap: square"/>
   </g>
   <g id="line2d_76">
    <path d="M 315.024 307.584 
L 315.024 307.584 
" clip-path="url(#pd09a48f789)" style="fill: none; stroke: #424242; stroke-width: 4.5; stroke-linecap: square"/>
   </g>
   <g id="line2d_77">
    <path d="M 359.664 307.584 
L 359.664 307.584 
" clip-path="url(#pd09a48f789)" style="fill: none; stroke: #424242; stroke-width: 4.5; stroke-linecap: square"/>
   </g>
   <g id="line2d_78">
    <path d="M 404.304 307.584 
L 404.304 307.584 
" clip-path="url(#pd09a48f789)" style="fill: none; stroke: #424242; stroke-width: 4.5; stroke-linecap: square"/>
   </g>
   <g id="line2d_79">
    <path d="M 95.792 307.584 
L 95.792 307.584 
" clip-path="url(#pd09a48f789)" style="fill: none; stroke: #424242; stroke-width: 4.5; stroke-linecap: square"/>
   </g>
   <g id="line2d_80">
    <path d="M 140.432 307.584 
L 140.432 307.584 
" clip-path="url(#pd09a48f789)" style="fill: none; stroke: #424242; stroke-width: 4.5; stroke-linecap: square"/>
   </g>
   <g id="line2d_81">
    <path d="M 185.072 307.584 
L 185.072 296.55403 
" clip-path="url(#pd09a48f789)" style="fill: none; stroke: #424242; stroke-width: 4.5; stroke-linecap: square"/>
   </g>
   <g id="line2d_82">
    <path d="M 229.712 65.82542 
L 229.712 54.330646 
" clip-path="url(#pd09a48f789)" style="fill: none; stroke: #424242; stroke-width: 4.5; stroke-linecap: square"/>
   </g>
   <g id="line2d_83">
    <path d="M 274.352 66.355163 
L 274.352 54.515363 
" clip-path="url(#pd09a48f789)" style="fill: none; stroke: #424242; stroke-width: 4.5; stroke-linecap: square"/>
   </g>
   <g id="line2d_84">
    <path d="M 318.992 307.584 
L 318.992 296.357951 
" clip-path="url(#pd09a48f789)" style="fill: none; stroke: #424242; stroke-width: 4.5; stroke-linecap: square"/>
   </g>
   <g id="line2d_85">
    <path d="M 363.632 307.584 
L 363.632 307.584 
" clip-path="url(#pd09a48f789)" style="fill: none; stroke: #424242; stroke-width: 4.5; stroke-linecap: square"/>
   </g>
   <g id="line2d_86">
    <path d="M 408.272 307.584 
L 408.272 307.584 
" clip-path="url(#pd09a48f789)" style="fill: none; stroke: #424242; stroke-width: 4.5; stroke-linecap: square"/>
   </g>
   <g id="patch_75">
    <path d="M 57.6 307.584 
L 57.6 41.472 
" style="fill: none; stroke: #000000; stroke-width: 2.5; stroke-linejoin: miter; stroke-linecap: square"/>
   </g>
   <g id="patch_76">
    <path d="M 414.72 307.584 
L 414.72 41.472 
" style="fill: none; stroke: #000000; stroke-width: 2.5; stroke-linejoin: miter; stroke-linecap: square"/>
   </g>
   <g id="patch_77">
    <path d="M 57.6 307.584 
L 414.72 307.584 
" style="fill: none; stroke: #000000; stroke-width: 2.5; stroke-linejoin: miter; stroke-linecap: square"/>
   </g>
   <g id="patch_78">
    <path d="M 57.6 41.472 
L 414.72 41.472 
" style="fill: none; stroke: #000000; stroke-width: 2.5; stroke-linejoin: miter; stroke-linecap: square"/>
   </g>
   <g id="text_17">
    <!-- Team7 -->
    <g transform="translate(196.809375 35.472) scale(0.24 -0.24)">
     <defs>
      <path id="DejaVuSans-54" d="M -19 4666 
L 3928 4666 
L 3928 4134 
L 2272 4134 
L 2272 0 
L 1638 0 
L 1638 4134 
L -19 4134 
L -19 4666 
z
" transform="scale(0.015625)"/>
      <path id="DejaVuSans-61" d="M 2194 1759 
Q 1497 1759 1228 1600 
Q 959 1441 959 1056 
Q 959 750 1161 570 
Q 1363 391 1709 391 
Q 2188 391 2477 730 
Q 2766 1069 2766 1631 
L 2766 1759 
L 2194 1759 
z
M 3341 1997 
L 3341 0 
L 2766 0 
L 2766 531 
Q 2569 213 2275 61 
Q 1981 -91 1556 -91 
Q 1019 -91 701 211 
Q 384 513 384 1019 
Q 384 1609 779 1909 
Q 1175 2209 1959 2209 
L 2766 2209 
L 2766 2266 
Q 2766 2663 2505 2880 
Q 2244 3097 1772 3097 
Q 1472 3097 1187 3025 
Q 903 2953 641 2809 
L 641 3341 
Q 956 3463 1253 3523 
Q 1550 3584 1831 3584 
Q 2591 3584 2966 3190 
Q 3341 2797 3341 1997 
z
" transform="scale(0.015625)"/>
      <path id="DejaVuSans-6d" d="M 3328 2828 
Q 3544 3216 3844 3400 
Q 4144 3584 4550 3584 
Q 5097 3584 5394 3201 
Q 5691 2819 5691 2113 
L 5691 0 
L 5113 0 
L 5113 2094 
Q 5113 2597 4934 2840 
Q 4756 3084 4391 3084 
Q 3944 3084 3684 2787 
Q 3425 2491 3425 1978 
L 3425 0 
L 2847 0 
L 2847 2094 
Q 2847 2600 2669 2842 
Q 2491 3084 2119 3084 
Q 1678 3084 1418 2786 
Q 1159 2488 1159 1978 
L 1159 0 
L 581 0 
L 581 3500 
L 1159 3500 
L 1159 2956 
Q 1356 3278 1631 3431 
Q 1906 3584 2284 3584 
Q 2666 3584 2933 3390 
Q 3200 3197 3328 2828 
z
" transform="scale(0.015625)"/>
     </defs>
     <use xlink:href="#DejaVuSans-54"/>
     <use xlink:href="#DejaVuSans-65" x="44.083984"/>
     <use xlink:href="#DejaVuSans-61" x="105.607422"/>
     <use xlink:href="#DejaVuSans-6d" x="166.886719"/>
     <use xlink:href="#DejaVuSans-37" x="264.298828"/>
    </g>
   </g>
  </g>
 </g>
 <defs>
  <clipPath id="pd09a48f789">
   <rect x="57.6" y="41.472" width="357.12" height="266.112"/>
  </clipPath>
 </defs>
</svg>
