<?xml version="1.0" encoding="utf-8" standalone="no"?>
<!DOCTYPE svg PUBLIC "-//W3C//DTD SVG 1.1//EN"
  "http://www.w3.org/Graphics/SVG/1.1/DTD/svg11.dtd">
<svg xmlns:xlink="http://www.w3.org/1999/xlink" width="460.8pt" height="345.6pt" viewBox="0 0 460.8 345.6" xmlns="http://www.w3.org/2000/svg" version="1.1">
 <metadata>
  <rdf:RDF xmlns:dc="http://purl.org/dc/elements/1.1/" xmlns:cc="http://creativecommons.org/ns#" xmlns:rdf="http://www.w3.org/1999/02/22-rdf-syntax-ns#">
   <cc:Work>
    <dc:type rdf:resource="http://purl.org/dc/dcmitype/StillImage"/>
    <dc:date>2024-04-08T15:28:00.633783</dc:date>
    <dc:format>image/svg+xml</dc:format>
    <dc:creator>
     <cc:Agent>
      <dc:title>Matplotlib v3.8.3, https://matplotlib.org/</dc:title>
     </cc:Agent>
    </dc:creator>
   </cc:Work>
  </rdf:RDF>
 </metadata>
 <defs>
  <style type="text/css">*{stroke-linejoin: round; stroke-linecap: butt}</style>
 </defs>
 <g id="figure_1">
  <g id="patch_1">
   <path d="M 0 345.6 
L 460.8 345.6 
L 460.8 0 
L 0 0 
z
" style="fill: #ffffff"/>
  </g>
  <g id="axes_1">
   <g id="patch_2">
    <path d="M 57.6 307.584 
L 414.72 307.584 
L 414.72 41.472 
L 57.6 41.472 
z
" style="fill: #ffffff"/>
   </g>
   <g id="patch_3">
    <path d="M 64.7424 307.584 
L 69.137723 307.584 
L 69.137723 307.584 
L 64.7424 307.584 
z
" clip-path="url(#pd09a48f789)" style="fill: #060717"/>
   </g>
   <g id="patch_4">
    <path d="M 136.1664 307.584 
L 140.561723 307.584 
L 140.561723 307.584 
L 136.1664 307.584 
z
" clip-path="url(#pd09a48f789)" style="fill: #060717"/>
   </g>
   <g id="patch_5">
    <path d="M 207.5904 307.584 
L 211.985723 307.584 
L 211.985723 54.144 
L 207.5904 54.144 
z
" clip-path="url(#pd09a48f789)" style="fill: #060717"/>
   </g>
   <g id="patch_6">
    <path d="M 279.0144 307.584 
L 283.409723 307.584 
L 283.409723 307.584 
L 279.0144 307.584 
z
" clip-path="url(#pd09a48f789)" style="fill: #060717"/>
   </g>
   <g id="patch_7">
    <path d="M 350.4384 307.584 
L 354.833723 307.584 
L 354.833723 307.584 
L 350.4384 307.584 
z
" clip-path="url(#pd09a48f789)" style="fill: #060717"/>
   </g>
   <g id="patch_8">
    <path d="M 69.137723 307.584 
L 73.533046 307.584 
L 73.533046 307.584 
L 69.137723 307.584 
z
" clip-path="url(#pd09a48f789)" style="fill: #20162b"/>
   </g>
   <g id="patch_9">
    <path d="M 140.561723 307.584 
L 144.957046 307.584 
L 144.957046 307.584 
L 140.561723 307.584 
z
" clip-path="url(#pd09a48f789)" style="fill: #20162b"/>
   </g>
   <g id="patch_10">
    <path d="M 211.985723 307.584 
L 216.381046 307.584 
L 216.381046 54.144 
L 211.985723 54.144 
z
" clip-path="url(#pd09a48f789)" style="fill: #20162b"/>
   </g>
   <g id="patch_11">
    <path d="M 283.409723 307.584 
L 287.805046 307.584 
L 287.805046 307.584 
L 283.409723 307.584 
z
" clip-path="url(#pd09a48f789)" style="fill: #20162b"/>
   </g>
   <g id="patch_12">
    <path d="M 354.833723 307.584 
L 359.229046 307.584 
L 359.229046 307.584 
L 354.833723 307.584 
z
" clip-path="url(#pd09a48f789)" style="fill: #20162b"/>
   </g>
   <g id="patch_13">
    <path d="M 73.533046 307.584 
L 77.928369 307.584 
L 77.928369 307.584 
L 73.533046 307.584 
z
" clip-path="url(#pd09a48f789)" style="fill: #3b203e"/>
   </g>
   <g id="patch_14">
    <path d="M 144.957046 307.584 
L 149.352369 307.584 
L 149.352369 307.584 
L 144.957046 307.584 
z
" clip-path="url(#pd09a48f789)" style="fill: #3b203e"/>
   </g>
   <g id="patch_15">
    <path d="M 216.381046 307.584 
L 220.776369 307.584 
L 220.776369 54.144 
L 216.381046 54.144 
z
" clip-path="url(#pd09a48f789)" style="fill: #3b203e"/>
   </g>
   <g id="patch_16">
    <path d="M 287.805046 307.584 
L 292.200369 307.584 
L 292.200369 307.584 
L 287.805046 307.584 
z
" clip-path="url(#pd09a48f789)" style="fill: #3b203e"/>
   </g>
   <g id="patch_17">
    <path d="M 359.229046 307.584 
L 363.624369 307.584 
L 363.624369 307.584 
L 359.229046 307.584 
z
" clip-path="url(#pd09a48f789)" style="fill: #3b203e"/>
   </g>
   <g id="patch_18">
    <path d="M 77.928369 307.584 
L 82.323692 307.584 
L 82.323692 307.584 
L 77.928369 307.584 
z
" clip-path="url(#pd09a48f789)" style="fill: #59274e"/>
   </g>
   <g id="patch_19">
    <path d="M 149.352369 307.584 
L 153.747692 307.584 
L 153.747692 265.367936 
L 149.352369 265.367936 
z
" clip-path="url(#pd09a48f789)" style="fill: #59274e"/>
   </g>
   <g id="patch_20">
    <path d="M 220.776369 307.584 
L 225.171692 307.584 
L 225.171692 138.624 
L 220.776369 138.624 
z
" clip-path="url(#pd09a48f789)" style="fill: #59274e"/>
   </g>
   <g id="patch_21">
    <path d="M 292.200369 307.584 
L 296.595692 307.584 
L 296.595692 265.320064 
L 292.200369 265.320064 
z
" clip-path="url(#pd09a48f789)" style="fill: #59274e"/>
   </g>
   <g id="patch_22">
    <path d="M 363.624369 307.584 
L 368.019692 307.584 
L 368.019692 307.584 
L 363.624369 307.584 
z
" clip-path="url(#pd09a48f789)" style="fill: #59274e"/>
   </g>
   <g id="patch_23">
    <path d="M 82.323692 307.584 
L 86.719015 307.584 
L 86.719015 307.584 
L 82.323692 307.584 
z
" clip-path="url(#pd09a48f789)" style="fill: #772b58"/>
   </g>
   <g id="patch_24">
    <path d="M 153.747692 307.584 
L 158.143015 307.584 
L 158.143015 248.444452 
L 153.747692 248.444452 
z
" clip-path="url(#pd09a48f789)" style="fill: #772b58"/>
   </g>
   <g id="patch_25">
    <path d="M 225.171692 307.584 
L 229.567015 307.584 
L 229.567015 172.416 
L 225.171692 172.416 
z
" clip-path="url(#pd09a48f789)" style="fill: #772b58"/>
   </g>
   <g id="patch_26">
    <path d="M 296.595692 307.584 
L 300.991015 307.584 
L 300.991015 248.451548 
L 296.595692 248.451548 
z
" clip-path="url(#pd09a48f789)" style="fill: #772b58"/>
   </g>
   <g id="patch_27">
    <path d="M 368.019692 307.584 
L 372.415015 307.584 
L 372.415015 307.584 
L 368.019692 307.584 
z
" clip-path="url(#pd09a48f789)" style="fill: #772b58"/>
   </g>
   <g id="patch_28">
    <path d="M 86.719015 307.584 
L 91.114338 307.584 
L 91.114338 307.584 
L 86.719015 307.584 
z
" clip-path="url(#pd09a48f789)" style="fill: #962a5c"/>
   </g>
   <g id="patch_29">
    <path d="M 158.143015 307.584 
L 162.538338 307.584 
L 162.538338 234.154651 
L 158.143015 234.154651 
z
" clip-path="url(#pd09a48f789)" style="fill: #962a5c"/>
   </g>
   <g id="patch_30">
    <path d="M 229.567015 307.584 
L 233.962338 307.584 
L 233.962338 200.872421 
L 229.567015 200.872421 
z
" clip-path="url(#pd09a48f789)" style="fill: #962a5c"/>
   </g>
   <g id="patch_31">
    <path d="M 300.991015 307.584 
L 305.386338 307.584 
L 305.386338 234.284928 
L 300.991015 234.284928 
z
" clip-path="url(#pd09a48f789)" style="fill: #962a5c"/>
   </g>
   <g id="patch_32">
    <path d="M 372.415015 307.584 
L 376.810338 307.584 
L 376.810338 307.584 
L 372.415015 307.584 
z
" clip-path="url(#pd09a48f789)" style="fill: #962a5c"/>
   </g>
   <g id="patch_33">
    <path d="M 91.114338 307.584 
L 95.509662 307.584 
L 95.509662 307.584 
L 91.114338 307.584 
z
" clip-path="url(#pd09a48f789)" style="fill: #b53158"/>
   </g>
   <g id="patch_34">
    <path d="M 162.538338 307.584 
L 166.933662 307.584 
L 166.933662 235.22157 
L 162.538338 235.22157 
z
" clip-path="url(#pd09a48f789)" style="fill: #b53158"/>
   </g>
   <g id="patch_35">
    <path d="M 233.962338 307.584 
L 238.357662 307.584 
L 238.357662 198.966857 
L 233.962338 198.966857 
z
" clip-path="url(#pd09a48f789)" style="fill: #b53158"/>
   </g>
   <g id="patch_36">
    <path d="M 305.386338 307.584 
L 309.781662 307.584 
L 309.781662 235.123573 
L 305.386338 235.123573 
z
" clip-path="url(#pd09a48f789)" style="fill: #b53158"/>
   </g>
   <g id="patch_37">
    <path d="M 376.810338 307.584 
L 381.205662 307.584 
L 381.205662 307.584 
L 376.810338 307.584 
z
" clip-path="url(#pd09a48f789)" style="fill: #b53158"/>
   </g>
   <g id="patch_38">
    <path d="M 95.509662 307.584 
L 99.904985 307.584 
L 99.904985 307.584 
L 95.509662 307.584 
z
" clip-path="url(#pd09a48f789)" style="fill: #cf4d54"/>
   </g>
   <g id="patch_39">
    <path d="M 166.933662 307.584 
L 171.328985 307.584 
L 171.328985 219.896619 
L 166.933662 219.896619 
z
" clip-path="url(#pd09a48f789)" style="fill: #cf4d54"/>
   </g>
   <g id="patch_40">
    <path d="M 238.357662 307.584 
L 242.752985 307.584 
L 242.752985 229.602462 
L 238.357662 229.602462 
z
" clip-path="url(#pd09a48f789)" style="fill: #cf4d54"/>
   </g>
   <g id="patch_41">
    <path d="M 309.781662 307.584 
L 314.176985 307.584 
L 314.176985 219.812919 
L 309.781662 219.812919 
z
" clip-path="url(#pd09a48f789)" style="fill: #cf4d54"/>
   </g>
   <g id="patch_42">
    <path d="M 381.205662 307.584 
L 385.600985 307.584 
L 385.600985 307.584 
L 381.205662 307.584 
z
" clip-path="url(#pd09a48f789)" style="fill: #cf4d54"/>
   </g>
   <g id="patch_43">
    <path d="M 99.904985 307.584 
L 104.300308 307.584 
L 104.300308 267.179328 
L 99.904985 267.179328 
z
" clip-path="url(#pd09a48f789)" style="fill: #db6e59"/>
   </g>
   <g id="patch_44">
    <path d="M 171.328985 307.584 
L 175.724308 307.584 
L 175.724308 244.184154 
L 171.328985 244.184154 
z
" clip-path="url(#pd09a48f789)" style="fill: #db6e59"/>
   </g>
   <g id="patch_45">
    <path d="M 242.752985 307.584 
L 247.148308 307.584 
L 247.148308 261.767821 
L 242.752985 261.767821 
z
" clip-path="url(#pd09a48f789)" style="fill: #db6e59"/>
   </g>
   <g id="patch_46">
    <path d="M 314.176985 307.584 
L 318.572308 307.584 
L 318.572308 244.263846 
L 314.176985 244.263846 
z
" clip-path="url(#pd09a48f789)" style="fill: #db6e59"/>
   </g>
   <g id="patch_47">
    <path d="M 385.600985 307.584 
L 389.996308 307.584 
L 389.996308 267.084851 
L 385.600985 267.084851 
z
" clip-path="url(#pd09a48f789)" style="fill: #db6e59"/>
   </g>
   <g id="patch_48">
    <path d="M 104.300308 307.584 
L 108.695631 307.584 
L 108.695631 218.922156 
L 104.300308 218.922156 
z
" clip-path="url(#pd09a48f789)" style="fill: #e29072"/>
   </g>
   <g id="patch_49">
    <path d="M 175.724308 307.584 
L 180.119631 307.584 
L 180.119631 269.585825 
L 175.724308 269.585825 
z
" clip-path="url(#pd09a48f789)" style="fill: #e29072"/>
   </g>
   <g id="patch_50">
    <path d="M 247.148308 307.584 
L 251.543631 307.584 
L 251.543631 307.584 
L 247.148308 307.584 
z
" clip-path="url(#pd09a48f789)" style="fill: #e29072"/>
   </g>
   <g id="patch_51">
    <path d="M 318.572308 307.584 
L 322.967631 307.584 
L 322.967631 269.550175 
L 318.572308 269.550175 
z
" clip-path="url(#pd09a48f789)" style="fill: #e29072"/>
   </g>
   <g id="patch_52">
    <path d="M 389.996308 307.584 
L 394.391631 307.584 
L 394.391631 218.837844 
L 389.996308 218.837844 
z
" clip-path="url(#pd09a48f789)" style="fill: #e29072"/>
   </g>
   <g id="patch_53">
    <path d="M 108.695631 307.584 
L 113.090954 307.584 
L 113.090954 206.086349 
L 108.695631 206.086349 
z
" clip-path="url(#pd09a48f789)" style="fill: #e8af92"/>
   </g>
   <g id="patch_54">
    <path d="M 180.119631 307.584 
L 184.514954 307.584 
L 184.514954 282.229524 
L 180.119631 282.229524 
z
" clip-path="url(#pd09a48f789)" style="fill: #e8af92"/>
   </g>
   <g id="patch_55">
    <path d="M 251.543631 307.584 
L 255.938954 307.584 
L 255.938954 307.584 
L 251.543631 307.584 
z
" clip-path="url(#pd09a48f789)" style="fill: #e8af92"/>
   </g>
   <g id="patch_56">
    <path d="M 322.967631 307.584 
L 327.362954 307.584 
L 327.362954 282.250476 
L 322.967631 282.250476 
z
" clip-path="url(#pd09a48f789)" style="fill: #e8af92"/>
   </g>
   <g id="patch_57">
    <path d="M 394.391631 307.584 
L 398.786954 307.584 
L 398.786954 206.329651 
L 394.391631 206.329651 
z
" clip-path="url(#pd09a48f789)" style="fill: #e8af92"/>
   </g>
   <g id="patch_58">
    <path d="M 113.090954 307.584 
L 117.486277 307.584 
L 117.486277 180.935808 
L 113.090954 180.935808 
z
" clip-path="url(#pd09a48f789)" style="fill: #eecdb8"/>
   </g>
   <g id="patch_59">
    <path d="M 184.514954 307.584 
L 188.910277 307.584 
L 188.910277 307.584 
L 184.514954 307.584 
z
" clip-path="url(#pd09a48f789)" style="fill: #eecdb8"/>
   </g>
   <g id="patch_60">
    <path d="M 255.938954 307.584 
L 260.334277 307.584 
L 260.334277 307.584 
L 255.938954 307.584 
z
" clip-path="url(#pd09a48f789)" style="fill: #eecdb8"/>
   </g>
   <g id="patch_61">
    <path d="M 327.362954 307.584 
L 331.758277 307.584 
L 331.758277 307.584 
L 327.362954 307.584 
z
" clip-path="url(#pd09a48f789)" style="fill: #eecdb8"/>
   </g>
   <g id="patch_62">
    <path d="M 398.786954 307.584 
L 403.182277 307.584 
L 403.182277 180.792192 
L 398.786954 180.792192 
z
" clip-path="url(#pd09a48f789)" style="fill: #eecdb8"/>
   </g>
   <g id="patch_63">
    <path d="M 117.486277 307.584 
L 121.8816 307.584 
L 121.8816 180.647731 
L 117.486277 180.647731 
z
" clip-path="url(#pd09a48f789)" style="fill: #f7ebe0"/>
   </g>
   <g id="patch_64">
    <path d="M 188.910277 307.584 
L 193.3056 307.584 
L 193.3056 307.584 
L 188.910277 307.584 
z
" clip-path="url(#pd09a48f789)" style="fill: #f7ebe0"/>
   </g>
   <g id="patch_65">
    <path d="M 260.334277 307.584 
L 264.7296 307.584 
L 264.7296 307.584 
L 260.334277 307.584 
z
" clip-path="url(#pd09a48f789)" style="fill: #f7ebe0"/>
   </g>
   <g id="patch_66">
    <path d="M 331.758277 307.584 
L 336.1536 307.584 
L 336.1536 307.584 
L 331.758277 307.584 
z
" clip-path="url(#pd09a48f789)" style="fill: #f7ebe0"/>
   </g>
   <g id="patch_67">
    <path d="M 403.182277 307.584 
L 407.5776 307.584 
L 407.5776 181.080269 
L 403.182277 181.080269 
z
" clip-path="url(#pd09a48f789)" style="fill: #f7ebe0"/>
   </g>
   <g id="matplotlib.axis_1">
    <g id="xtick_1">
     <g id="line2d_1">
      <defs>
       <path id="macadb62f24" d="M 0 0 
L 0 12 
" style="stroke: #000000; stroke-width: 2.5"/>
      </defs>
      <g>
       <use xlink:href="#macadb62f24" x="93.312" y="307.584" style="stroke: #000000; stroke-width: 2.5"/>
      </g>
     </g>
     <g id="text_1">
      <!-- 0 -->
      <g transform="translate(86.31325 339.800562) scale(0.22 -0.22)">
       <defs>
        <path id="DejaVuSans-30" d="M 2034 4250 
Q 1547 4250 1301 3770 
Q 1056 3291 1056 2328 
Q 1056 1369 1301 889 
Q 1547 409 2034 409 
Q 2525 409 2770 889 
Q 3016 1369 3016 2328 
Q 3016 3291 2770 3770 
Q 2525 4250 2034 4250 
z
M 2034 4750 
Q 2819 4750 3233 4129 
Q 3647 3509 3647 2328 
Q 3647 1150 3233 529 
Q 2819 -91 2034 -91 
Q 1250 -91 836 529 
Q 422 1150 422 2328 
Q 422 3509 836 4129 
Q 1250 4750 2034 4750 
z
" transform="scale(0.015625)"/>
       </defs>
       <use xlink:href="#DejaVuSans-30"/>
      </g>
     </g>
    </g>
    <g id="xtick_2">
     <g id="line2d_2">
      <g>
       <use xlink:href="#macadb62f24" x="164.736" y="307.584" style="stroke: #000000; stroke-width: 2.5"/>
      </g>
     </g>
     <g id="text_2">
      <!-- 1 -->
      <g transform="translate(157.73725 339.800562) scale(0.22 -0.22)">
       <defs>
        <path id="DejaVuSans-31" d="M 794 531 
L 1825 531 
L 1825 4091 
L 703 3866 
L 703 4441 
L 1819 4666 
L 2450 4666 
L 2450 531 
L 3481 531 
L 3481 0 
L 794 0 
L 794 531 
z
" transform="scale(0.015625)"/>
       </defs>
       <use xlink:href="#DejaVuSans-31"/>
      </g>
     </g>
    </g>
    <g id="xtick_3">
     <g id="line2d_3">
      <g>
       <use xlink:href="#macadb62f24" x="236.16" y="307.584" style="stroke: #000000; stroke-width: 2.5"/>
      </g>
     </g>
     <g id="text_3">
      <!-- 2 -->
      <g transform="translate(229.16125 339.800562) scale(0.22 -0.22)">
       <defs>
        <path id="DejaVuSans-32" d="M 1228 531 
L 3431 531 
L 3431 0 
L 469 0 
L 469 531 
Q 828 903 1448 1529 
Q 2069 2156 2228 2338 
Q 2531 2678 2651 2914 
Q 2772 3150 2772 3378 
Q 2772 3750 2511 3984 
Q 2250 4219 1831 4219 
Q 1534 4219 1204 4116 
Q 875 4013 500 3803 
L 500 4441 
Q 881 4594 1212 4672 
Q 1544 4750 1819 4750 
Q 2544 4750 2975 4387 
Q 3406 4025 3406 3419 
Q 3406 3131 3298 2873 
Q 3191 2616 2906 2266 
Q 2828 2175 2409 1742 
Q 1991 1309 1228 531 
z
" transform="scale(0.015625)"/>
       </defs>
       <use xlink:href="#DejaVuSans-32"/>
      </g>
     </g>
    </g>
    <g id="xtick_4">
     <g id="line2d_4">
      <g>
       <use xlink:href="#macadb62f24" x="307.584" y="307.584" style="stroke: #000000; stroke-width: 2.5"/>
      </g>
     </g>
     <g id="text_4">
      <!-- 3 -->
      <g transform="translate(300.58525 339.800562) scale(0.22 -0.22)">
       <defs>
        <path id="DejaVuSans-33" d="M 2597 2516 
Q 3050 2419 3304 2112 
Q 3559 1806 3559 1356 
Q 3559 666 3084 287 
Q 2609 -91 1734 -91 
Q 1441 -91 1130 -33 
Q 819 25 488 141 
L 488 750 
Q 750 597 1062 519 
Q 1375 441 1716 441 
Q 2309 441 2620 675 
Q 2931 909 2931 1356 
Q 2931 1769 2642 2001 
Q 2353 2234 1838 2234 
L 1294 2234 
L 1294 2753 
L 1863 2753 
Q 2328 2753 2575 2939 
Q 2822 3125 2822 3475 
Q 2822 3834 2567 4026 
Q 2313 4219 1838 4219 
Q 1578 4219 1281 4162 
Q 984 4106 628 3988 
L 628 4550 
Q 988 4650 1302 4700 
Q 1616 4750 1894 4750 
Q 2613 4750 3031 4423 
Q 3450 4097 3450 3541 
Q 3450 3153 3228 2886 
Q 3006 2619 2597 2516 
z
" transform="scale(0.015625)"/>
       </defs>
       <use xlink:href="#DejaVuSans-33"/>
      </g>
     </g>
    </g>
    <g id="xtick_5">
     <g id="line2d_5">
      <g>
       <use xlink:href="#macadb62f24" x="379.008" y="307.584" style="stroke: #000000; stroke-width: 2.5"/>
      </g>
     </g>
     <g id="text_5">
      <!-- 4 -->
      <g transform="translate(372.00925 339.800562) scale(0.22 -0.22)">
       <defs>
        <path id="DejaVuSans-34" d="M 2419 4116 
L 825 1625 
L 2419 1625 
L 2419 4116 
z
M 2253 4666 
L 3047 4666 
L 3047 1625 
L 3713 1625 
L 3713 1100 
L 3047 1100 
L 3047 0 
L 2419 0 
L 2419 1100 
L 313 1100 
L 313 1709 
L 2253 4666 
z
" transform="scale(0.015625)"/>
       </defs>
       <use xlink:href="#DejaVuSans-34"/>
      </g>
     </g>
    </g>
    <g id="text_6">
     <!-- Fn -->
     <g transform="translate(221.653125 366.612125) scale(0.24 -0.24)">
      <defs>
       <path id="DejaVuSans-46" d="M 628 4666 
L 3309 4666 
L 3309 4134 
L 1259 4134 
L 1259 2759 
L 3109 2759 
L 3109 2228 
L 1259 2228 
L 1259 0 
L 628 0 
L 628 4666 
z
" transform="scale(0.015625)"/>
       <path id="DejaVuSans-6e" d="M 3513 2113 
L 3513 0 
L 2938 0 
L 2938 2094 
Q 2938 2591 2744 2837 
Q 2550 3084 2163 3084 
Q 1697 3084 1428 2787 
Q 1159 2491 1159 1978 
L 1159 0 
L 581 0 
L 581 3500 
L 1159 3500 
L 1159 2956 
Q 1366 3272 1645 3428 
Q 1925 3584 2291 3584 
Q 2894 3584 3203 3211 
Q 3513 2838 3513 2113 
z
" transform="scale(0.015625)"/>
      </defs>
      <use xlink:href="#DejaVuSans-46"/>
      <use xlink:href="#DejaVuSans-6e" x="57.519531"/>
     </g>
    </g>
   </g>
   <g id="matplotlib.axis_2">
    <g id="ytick_1">
     <g id="line2d_6">
      <defs>
       <path id="mbd1f834859" d="M 0 0 
L -12 0 
" style="stroke: #000000; stroke-width: 2.5"/>
      </defs>
      <g>
       <use xlink:href="#mbd1f834859" x="57.6" y="307.584" style="stroke: #000000; stroke-width: 2.5"/>
      </g>
     </g>
     <g id="text_7">
      <!-- 0.0 -->
      <g transform="translate(7.113125 315.942281) scale(0.22 -0.22)">
       <defs>
        <path id="DejaVuSans-2e" d="M 684 794 
L 1344 794 
L 1344 0 
L 684 0 
L 684 794 
z
" transform="scale(0.015625)"/>
       </defs>
       <use xlink:href="#DejaVuSans-30"/>
       <use xlink:href="#DejaVuSans-2e" x="63.623047"/>
       <use xlink:href="#DejaVuSans-30" x="95.410156"/>
      </g>
     </g>
    </g>
    <g id="ytick_2">
     <g id="line2d_7">
      <g>
       <use xlink:href="#mbd1f834859" x="57.6" y="256.896" style="stroke: #000000; stroke-width: 2.5"/>
      </g>
     </g>
     <g id="text_8">
      <!-- 0.2 -->
      <g transform="translate(7.113125 265.254281) scale(0.22 -0.22)">
       <use xlink:href="#DejaVuSans-30"/>
       <use xlink:href="#DejaVuSans-2e" x="63.623047"/>
       <use xlink:href="#DejaVuSans-32" x="95.410156"/>
      </g>
     </g>
    </g>
    <g id="ytick_3">
     <g id="line2d_8">
      <g>
       <use xlink:href="#mbd1f834859" x="57.6" y="206.208" style="stroke: #000000; stroke-width: 2.5"/>
      </g>
     </g>
     <g id="text_9">
      <!-- 0.4 -->
      <g transform="translate(7.113125 214.566281) scale(0.22 -0.22)">
       <use xlink:href="#DejaVuSans-30"/>
       <use xlink:href="#DejaVuSans-2e" x="63.623047"/>
       <use xlink:href="#DejaVuSans-34" x="95.410156"/>
      </g>
     </g>
    </g>
    <g id="ytick_4">
     <g id="line2d_9">
      <g>
       <use xlink:href="#mbd1f834859" x="57.6" y="155.52" style="stroke: #000000; stroke-width: 2.5"/>
      </g>
     </g>
     <g id="text_10">
      <!-- 0.6 -->
      <g transform="translate(7.113125 163.878281) scale(0.22 -0.22)">
       <defs>
        <path id="DejaVuSans-36" d="M 2113 2584 
Q 1688 2584 1439 2293 
Q 1191 2003 1191 1497 
Q 1191 994 1439 701 
Q 1688 409 2113 409 
Q 2538 409 2786 701 
Q 3034 994 3034 1497 
Q 3034 2003 2786 2293 
Q 2538 2584 2113 2584 
z
M 3366 4563 
L 3366 3988 
Q 3128 4100 2886 4159 
Q 2644 4219 2406 4219 
Q 1781 4219 1451 3797 
Q 1122 3375 1075 2522 
Q 1259 2794 1537 2939 
Q 1816 3084 2150 3084 
Q 2853 3084 3261 2657 
Q 3669 2231 3669 1497 
Q 3669 778 3244 343 
Q 2819 -91 2113 -91 
Q 1303 -91 875 529 
Q 447 1150 447 2328 
Q 447 3434 972 4092 
Q 1497 4750 2381 4750 
Q 2619 4750 2861 4703 
Q 3103 4656 3366 4563 
z
" transform="scale(0.015625)"/>
       </defs>
       <use xlink:href="#DejaVuSans-30"/>
       <use xlink:href="#DejaVuSans-2e" x="63.623047"/>
       <use xlink:href="#DejaVuSans-36" x="95.410156"/>
      </g>
     </g>
    </g>
    <g id="ytick_5">
     <g id="line2d_10">
      <g>
       <use xlink:href="#mbd1f834859" x="57.6" y="104.832" style="stroke: #000000; stroke-width: 2.5"/>
      </g>
     </g>
     <g id="text_11">
      <!-- 0.8 -->
      <g transform="translate(7.113125 113.190281) scale(0.22 -0.22)">
       <defs>
        <path id="DejaVuSans-38" d="M 2034 2216 
Q 1584 2216 1326 1975 
Q 1069 1734 1069 1313 
Q 1069 891 1326 650 
Q 1584 409 2034 409 
Q 2484 409 2743 651 
Q 3003 894 3003 1313 
Q 3003 1734 2745 1975 
Q 2488 2216 2034 2216 
z
M 1403 2484 
Q 997 2584 770 2862 
Q 544 3141 544 3541 
Q 544 4100 942 4425 
Q 1341 4750 2034 4750 
Q 2731 4750 3128 4425 
Q 3525 4100 3525 3541 
Q 3525 3141 3298 2862 
Q 3072 2584 2669 2484 
Q 3125 2378 3379 2068 
Q 3634 1759 3634 1313 
Q 3634 634 3220 271 
Q 2806 -91 2034 -91 
Q 1263 -91 848 271 
Q 434 634 434 1313 
Q 434 1759 690 2068 
Q 947 2378 1403 2484 
z
M 1172 3481 
Q 1172 3119 1398 2916 
Q 1625 2713 2034 2713 
Q 2441 2713 2670 2916 
Q 2900 3119 2900 3481 
Q 2900 3844 2670 4047 
Q 2441 4250 2034 4250 
Q 1625 4250 1398 4047 
Q 1172 3844 1172 3481 
z
" transform="scale(0.015625)"/>
       </defs>
       <use xlink:href="#DejaVuSans-30"/>
       <use xlink:href="#DejaVuSans-2e" x="63.623047"/>
       <use xlink:href="#DejaVuSans-38" x="95.410156"/>
      </g>
     </g>
    </g>
    <g id="ytick_6">
     <g id="line2d_11">
      <g>
       <use xlink:href="#mbd1f834859" x="57.6" y="54.144" style="stroke: #000000; stroke-width: 2.5"/>
      </g>
     </g>
     <g id="text_12">
      <!-- 1.0 -->
      <g transform="translate(7.113125 62.502281) scale(0.22 -0.22)">
       <use xlink:href="#DejaVuSans-31"/>
       <use xlink:href="#DejaVuSans-2e" x="63.623047"/>
       <use xlink:href="#DejaVuSans-30" x="95.410156"/>
      </g>
     </g>
    </g>
    <g id="text_13">
     <!-- Frequency -->
     <g transform="translate(-1.878125 236.51925) rotate(-90) scale(0.24 -0.24)">
      <defs>
       <path id="DejaVuSans-72" d="M 2631 2963 
Q 2534 3019 2420 3045 
Q 2306 3072 2169 3072 
Q 1681 3072 1420 2755 
Q 1159 2438 1159 1844 
L 1159 0 
L 581 0 
L 581 3500 
L 1159 3500 
L 1159 2956 
Q 1341 3275 1631 3429 
Q 1922 3584 2338 3584 
Q 2397 3584 2469 3576 
Q 2541 3569 2628 3553 
L 2631 2963 
z
" transform="scale(0.015625)"/>
       <path id="DejaVuSans-65" d="M 3597 1894 
L 3597 1613 
L 953 1613 
Q 991 1019 1311 708 
Q 1631 397 2203 397 
Q 2534 397 2845 478 
Q 3156 559 3463 722 
L 3463 178 
Q 3153 47 2828 -22 
Q 2503 -91 2169 -91 
Q 1331 -91 842 396 
Q 353 884 353 1716 
Q 353 2575 817 3079 
Q 1281 3584 2069 3584 
Q 2775 3584 3186 3129 
Q 3597 2675 3597 1894 
z
M 3022 2063 
Q 3016 2534 2758 2815 
Q 2500 3097 2075 3097 
Q 1594 3097 1305 2825 
Q 1016 2553 972 2059 
L 3022 2063 
z
" transform="scale(0.015625)"/>
       <path id="DejaVuSans-71" d="M 947 1747 
Q 947 1113 1208 752 
Q 1469 391 1925 391 
Q 2381 391 2643 752 
Q 2906 1113 2906 1747 
Q 2906 2381 2643 2742 
Q 2381 3103 1925 3103 
Q 1469 3103 1208 2742 
Q 947 2381 947 1747 
z
M 2906 525 
Q 2725 213 2448 61 
Q 2172 -91 1784 -91 
Q 1150 -91 751 415 
Q 353 922 353 1747 
Q 353 2572 751 3078 
Q 1150 3584 1784 3584 
Q 2172 3584 2448 3432 
Q 2725 3281 2906 2969 
L 2906 3500 
L 3481 3500 
L 3481 -1331 
L 2906 -1331 
L 2906 525 
z
" transform="scale(0.015625)"/>
       <path id="DejaVuSans-75" d="M 544 1381 
L 544 3500 
L 1119 3500 
L 1119 1403 
Q 1119 906 1312 657 
Q 1506 409 1894 409 
Q 2359 409 2629 706 
Q 2900 1003 2900 1516 
L 2900 3500 
L 3475 3500 
L 3475 0 
L 2900 0 
L 2900 538 
Q 2691 219 2414 64 
Q 2138 -91 1772 -91 
Q 1169 -91 856 284 
Q 544 659 544 1381 
z
M 1991 3584 
L 1991 3584 
z
" transform="scale(0.015625)"/>
       <path id="DejaVuSans-63" d="M 3122 3366 
L 3122 2828 
Q 2878 2963 2633 3030 
Q 2388 3097 2138 3097 
Q 1578 3097 1268 2742 
Q 959 2388 959 1747 
Q 959 1106 1268 751 
Q 1578 397 2138 397 
Q 2388 397 2633 464 
Q 2878 531 3122 666 
L 3122 134 
Q 2881 22 2623 -34 
Q 2366 -91 2075 -91 
Q 1284 -91 818 406 
Q 353 903 353 1747 
Q 353 2603 823 3093 
Q 1294 3584 2113 3584 
Q 2378 3584 2631 3529 
Q 2884 3475 3122 3366 
z
" transform="scale(0.015625)"/>
       <path id="DejaVuSans-79" d="M 2059 -325 
Q 1816 -950 1584 -1140 
Q 1353 -1331 966 -1331 
L 506 -1331 
L 506 -850 
L 844 -850 
Q 1081 -850 1212 -737 
Q 1344 -625 1503 -206 
L 1606 56 
L 191 3500 
L 800 3500 
L 1894 763 
L 2988 3500 
L 3597 3500 
L 2059 -325 
z
" transform="scale(0.015625)"/>
      </defs>
      <use xlink:href="#DejaVuSans-46"/>
      <use xlink:href="#DejaVuSans-72" x="50.269531"/>
      <use xlink:href="#DejaVuSans-65" x="89.132812"/>
      <use xlink:href="#DejaVuSans-71" x="150.65625"/>
      <use xlink:href="#DejaVuSans-75" x="214.132812"/>
      <use xlink:href="#DejaVuSans-65" x="277.511719"/>
      <use xlink:href="#DejaVuSans-6e" x="339.035156"/>
      <use xlink:href="#DejaVuSans-63" x="402.414062"/>
      <use xlink:href="#DejaVuSans-79" x="457.394531"/>
     </g>
    </g>
   </g>
   <g id="line2d_12">
    <path clip-path="url(#pd09a48f789)" style="fill: none; stroke: #424242; stroke-width: 4.5; stroke-linecap: square"/>
   </g>
   <g id="line2d_13">
    <path clip-path="url(#pd09a48f789)" style="fill: none; stroke: #424242; stroke-width: 4.5; stroke-linecap: square"/>
   </g>
   <g id="line2d_14">
    <path clip-path="url(#pd09a48f789)" style="fill: none; stroke: #424242; stroke-width: 4.5; stroke-linecap: square"/>
   </g>
   <g id="line2d_15">
    <path clip-path="url(#pd09a48f789)" style="fill: none; stroke: #424242; stroke-width: 4.5; stroke-linecap: square"/>
   </g>
   <g id="line2d_16">
    <path clip-path="url(#pd09a48f789)" style="fill: none; stroke: #424242; stroke-width: 4.5; stroke-linecap: square"/>
   </g>
   <g id="line2d_17">
    <path clip-path="url(#pd09a48f789)" style="fill: none; stroke: #424242; stroke-width: 4.5; stroke-linecap: square"/>
   </g>
   <g id="line2d_18">
    <path clip-path="url(#pd09a48f789)" style="fill: none; stroke: #424242; stroke-width: 4.5; stroke-linecap: square"/>
   </g>
   <g id="line2d_19">
    <path clip-path="url(#pd09a48f789)" style="fill: none; stroke: #424242; stroke-width: 4.5; stroke-linecap: square"/>
   </g>
   <g id="line2d_20">
    <path clip-path="url(#pd09a48f789)" style="fill: none; stroke: #424242; stroke-width: 4.5; stroke-linecap: square"/>
   </g>
   <g id="line2d_21">
    <path clip-path="url(#pd09a48f789)" style="fill: none; stroke: #424242; stroke-width: 4.5; stroke-linecap: square"/>
   </g>
   <g id="line2d_22">
    <path d="M 75.730708 307.584 
L 75.730708 307.584 
" clip-path="url(#pd09a48f789)" style="fill: none; stroke: #424242; stroke-width: 4.5; stroke-linecap: square"/>
   </g>
   <g id="line2d_23">
    <path d="M 147.154708 307.584 
L 147.154708 307.584 
" clip-path="url(#pd09a48f789)" style="fill: none; stroke: #424242; stroke-width: 4.5; stroke-linecap: square"/>
   </g>
   <g id="line2d_24">
    <path d="M 218.578708 54.144 
L 218.578708 54.144 
" clip-path="url(#pd09a48f789)" style="fill: none; stroke: #424242; stroke-width: 4.5; stroke-linecap: square"/>
   </g>
   <g id="line2d_25">
    <path d="M 290.002708 307.584 
L 290.002708 307.584 
" clip-path="url(#pd09a48f789)" style="fill: none; stroke: #424242; stroke-width: 4.5; stroke-linecap: square"/>
   </g>
   <g id="line2d_26">
    <path d="M 361.426708 307.584 
L 361.426708 307.584 
" clip-path="url(#pd09a48f789)" style="fill: none; stroke: #424242; stroke-width: 4.5; stroke-linecap: square"/>
   </g>
   <g id="line2d_27">
    <path d="M 80.126031 307.584 
L 80.126031 307.584 
" clip-path="url(#pd09a48f789)" style="fill: none; stroke: #424242; stroke-width: 4.5; stroke-linecap: square"/>
   </g>
   <g id="line2d_28">
    <path d="M 151.550031 307.584 
L 151.550031 223.112166 
" clip-path="url(#pd09a48f789)" style="fill: none; stroke: #424242; stroke-width: 4.5; stroke-linecap: square"/>
   </g>
   <g id="line2d_29">
    <path d="M 222.974031 223.104 
L 222.974031 54.144 
" clip-path="url(#pd09a48f789)" style="fill: none; stroke: #424242; stroke-width: 4.5; stroke-linecap: square"/>
   </g>
   <g id="line2d_30">
    <path d="M 294.398031 307.584 
L 294.398031 222.976717 
" clip-path="url(#pd09a48f789)" style="fill: none; stroke: #424242; stroke-width: 4.5; stroke-linecap: square"/>
   </g>
   <g id="line2d_31">
    <path d="M 365.822031 307.584 
L 365.822031 307.584 
" clip-path="url(#pd09a48f789)" style="fill: none; stroke: #424242; stroke-width: 4.5; stroke-linecap: square"/>
   </g>
   <g id="line2d_32">
    <path d="M 84.521354 307.584 
L 84.521354 307.584 
" clip-path="url(#pd09a48f789)" style="fill: none; stroke: #424242; stroke-width: 4.5; stroke-linecap: square"/>
   </g>
   <g id="line2d_33">
    <path d="M 155.945354 282.232172 
L 155.945354 214.682931 
" clip-path="url(#pd09a48f789)" style="fill: none; stroke: #424242; stroke-width: 4.5; stroke-linecap: square"/>
   </g>
   <g id="line2d_34">
    <path d="M 227.369354 240 
L 227.369354 104.832 
" clip-path="url(#pd09a48f789)" style="fill: none; stroke: #424242; stroke-width: 4.5; stroke-linecap: square"/>
   </g>
   <g id="line2d_35">
    <path d="M 298.793354 282.236733 
L 298.793354 214.644376 
" clip-path="url(#pd09a48f789)" style="fill: none; stroke: #424242; stroke-width: 4.5; stroke-linecap: square"/>
   </g>
   <g id="line2d_36">
    <path d="M 370.217354 307.584 
L 370.217354 307.584 
" clip-path="url(#pd09a48f789)" style="fill: none; stroke: #424242; stroke-width: 4.5; stroke-linecap: square"/>
   </g>
   <g id="line2d_37">
    <path d="M 88.916677 307.584 
L 88.916677 307.584 
" clip-path="url(#pd09a48f789)" style="fill: none; stroke: #424242; stroke-width: 4.5; stroke-linecap: square"/>
   </g>
   <g id="line2d_38">
    <path d="M 160.340677 260.896072 
L 160.340677 207.377328 
" clip-path="url(#pd09a48f789)" style="fill: none; stroke: #424242; stroke-width: 4.5; stroke-linecap: square"/>
   </g>
   <g id="line2d_39">
    <path d="M 231.764677 254.228211 
L 231.764677 147.516632 
" clip-path="url(#pd09a48f789)" style="fill: none; stroke: #424242; stroke-width: 4.5; stroke-linecap: square"/>
   </g>
   <g id="line2d_40">
    <path d="M 303.188677 260.979472 
L 303.188677 207.608016 
" clip-path="url(#pd09a48f789)" style="fill: none; stroke: #424242; stroke-width: 4.5; stroke-linecap: square"/>
   </g>
   <g id="line2d_41">
    <path d="M 374.612677 307.584 
L 374.612677 307.584 
" clip-path="url(#pd09a48f789)" style="fill: none; stroke: #424242; stroke-width: 4.5; stroke-linecap: square"/>
   </g>
   <g id="line2d_42">
    <path d="M 93.312 307.584 
L 93.312 307.584 
" clip-path="url(#pd09a48f789)" style="fill: none; stroke: #424242; stroke-width: 4.5; stroke-linecap: square"/>
   </g>
   <g id="line2d_43">
    <path d="M 164.736 259.549359 
L 164.736 211.06863 
" clip-path="url(#pd09a48f789)" style="fill: none; stroke: #424242; stroke-width: 4.5; stroke-linecap: square"/>
   </g>
   <g id="line2d_44">
    <path d="M 236.16 247.241143 
L 236.16 150.390857 
" clip-path="url(#pd09a48f789)" style="fill: none; stroke: #424242; stroke-width: 4.5; stroke-linecap: square"/>
   </g>
   <g id="line2d_45">
    <path d="M 307.584 259.301314 
L 307.584 210.938246 
" clip-path="url(#pd09a48f789)" style="fill: none; stroke: #424242; stroke-width: 4.5; stroke-linecap: square"/>
   </g>
   <g id="line2d_46">
    <path d="M 379.008 307.584 
L 379.008 307.584 
" clip-path="url(#pd09a48f789)" style="fill: none; stroke: #424242; stroke-width: 4.5; stroke-linecap: square"/>
   </g>
   <g id="line2d_47">
    <path d="M 97.707323 307.584 
L 97.707323 307.584 
" clip-path="url(#pd09a48f789)" style="fill: none; stroke: #424242; stroke-width: 4.5; stroke-linecap: square"/>
   </g>
   <g id="line2d_48">
    <path d="M 169.131323 249.19166 
L 169.131323 190.667166 
" clip-path="url(#pd09a48f789)" style="fill: none; stroke: #424242; stroke-width: 4.5; stroke-linecap: square"/>
   </g>
   <g id="line2d_49">
    <path d="M 240.555323 288.088615 
L 240.555323 171.116308 
" clip-path="url(#pd09a48f789)" style="fill: none; stroke: #424242; stroke-width: 4.5; stroke-linecap: square"/>
   </g>
   <g id="line2d_50">
    <path d="M 311.979323 249.104156 
L 311.979323 190.556109 
" clip-path="url(#pd09a48f789)" style="fill: none; stroke: #424242; stroke-width: 4.5; stroke-linecap: square"/>
   </g>
   <g id="line2d_51">
    <path d="M 383.403323 307.584 
L 383.403323 307.584 
" clip-path="url(#pd09a48f789)" style="fill: none; stroke: #424242; stroke-width: 4.5; stroke-linecap: square"/>
   </g>
   <g id="line2d_52">
    <path d="M 102.102646 291.78976 
L 102.102646 239.053646 
" clip-path="url(#pd09a48f789)" style="fill: none; stroke: #424242; stroke-width: 4.5; stroke-linecap: square"/>
   </g>
   <g id="line2d_53">
    <path d="M 173.526646 275.901636 
L 173.526646 212.434646 
" clip-path="url(#pd09a48f789)" style="fill: none; stroke: #424242; stroke-width: 4.5; stroke-linecap: square"/>
   </g>
   <g id="line2d_54">
    <path d="M 244.950646 297.001824 
L 244.950646 219.479034 
" clip-path="url(#pd09a48f789)" style="fill: none; stroke: #424242; stroke-width: 4.5; stroke-linecap: square"/>
   </g>
   <g id="line2d_55">
    <path d="M 316.374646 275.933306 
L 316.374646 212.555449 
" clip-path="url(#pd09a48f789)" style="fill: none; stroke: #424242; stroke-width: 4.5; stroke-linecap: square"/>
   </g>
   <g id="line2d_56">
    <path d="M 387.798646 293.465562 
L 387.798646 238.85886 
" clip-path="url(#pd09a48f789)" style="fill: none; stroke: #424242; stroke-width: 4.5; stroke-linecap: square"/>
   </g>
   <g id="line2d_57">
    <path d="M 106.497969 256.922039 
L 106.497969 181.160514 
" clip-path="url(#pd09a48f789)" style="fill: none; stroke: #424242; stroke-width: 4.5; stroke-linecap: square"/>
   </g>
   <g id="line2d_58">
    <path d="M 177.921969 307.584 
L 177.921969 231.610545 
" clip-path="url(#pd09a48f789)" style="fill: none; stroke: #424242; stroke-width: 4.5; stroke-linecap: square"/>
   </g>
   <g id="line2d_59">
    <path d="M 249.345969 307.584 
L 249.345969 307.584 
" clip-path="url(#pd09a48f789)" style="fill: none; stroke: #424242; stroke-width: 4.5; stroke-linecap: square"/>
   </g>
   <g id="line2d_60">
    <path d="M 320.769969 295.233001 
L 320.769969 231.516349 
" clip-path="url(#pd09a48f789)" style="fill: none; stroke: #424242; stroke-width: 4.5; stroke-linecap: square"/>
   </g>
   <g id="line2d_61">
    <path d="M 392.193969 256.880304 
L 392.193969 193.273255 
" clip-path="url(#pd09a48f789)" style="fill: none; stroke: #424242; stroke-width: 4.5; stroke-linecap: square"/>
   </g>
   <g id="line2d_62">
    <path d="M 110.893292 256.869642 
L 110.893292 180.539597 
" clip-path="url(#pd09a48f789)" style="fill: none; stroke: #424242; stroke-width: 4.5; stroke-linecap: square"/>
   </g>
   <g id="line2d_63">
    <path d="M 182.317292 307.584 
L 182.317292 231.520573 
" clip-path="url(#pd09a48f789)" style="fill: none; stroke: #424242; stroke-width: 4.5; stroke-linecap: square"/>
   </g>
   <g id="line2d_64">
    <path d="M 253.741292 307.584 
L 253.741292 307.584 
" clip-path="url(#pd09a48f789)" style="fill: none; stroke: #424242; stroke-width: 4.5; stroke-linecap: square"/>
   </g>
   <g id="line2d_65">
    <path d="M 325.165292 307.584 
L 325.165292 231.583427 
" clip-path="url(#pd09a48f789)" style="fill: none; stroke: #424242; stroke-width: 4.5; stroke-linecap: square"/>
   </g>
   <g id="line2d_66">
    <path d="M 396.589292 256.94238 
L 396.589292 180.858931 
" clip-path="url(#pd09a48f789)" style="fill: none; stroke: #424242; stroke-width: 4.5; stroke-linecap: square"/>
   </g>
   <g id="line2d_67">
    <path clip-path="url(#pd09a48f789)" style="fill: none; stroke: #424242; stroke-width: 4.5; stroke-linecap: square"/>
   </g>
   <g id="line2d_68">
    <path clip-path="url(#pd09a48f789)" style="fill: none; stroke: #424242; stroke-width: 4.5; stroke-linecap: square"/>
   </g>
   <g id="line2d_69">
    <path clip-path="url(#pd09a48f789)" style="fill: none; stroke: #424242; stroke-width: 4.5; stroke-linecap: square"/>
   </g>
   <g id="line2d_70">
    <path clip-path="url(#pd09a48f789)" style="fill: none; stroke: #424242; stroke-width: 4.5; stroke-linecap: square"/>
   </g>
   <g id="line2d_71">
    <path clip-path="url(#pd09a48f789)" style="fill: none; stroke: #424242; stroke-width: 4.5; stroke-linecap: square"/>
   </g>
   <g id="line2d_72">
    <path clip-path="url(#pd09a48f789)" style="fill: none; stroke: #424242; stroke-width: 4.5; stroke-linecap: square"/>
   </g>
   <g id="line2d_73">
    <path clip-path="url(#pd09a48f789)" style="fill: none; stroke: #424242; stroke-width: 4.5; stroke-linecap: square"/>
   </g>
   <g id="line2d_74">
    <path clip-path="url(#pd09a48f789)" style="fill: none; stroke: #424242; stroke-width: 4.5; stroke-linecap: square"/>
   </g>
   <g id="line2d_75">
    <path clip-path="url(#pd09a48f789)" style="fill: none; stroke: #424242; stroke-width: 4.5; stroke-linecap: square"/>
   </g>
   <g id="line2d_76">
    <path clip-path="url(#pd09a48f789)" style="fill: none; stroke: #424242; stroke-width: 4.5; stroke-linecap: square"/>
   </g>
   <g id="patch_68">
    <path d="M 57.6 307.584 
L 57.6 41.472 
" style="fill: none; stroke: #000000; stroke-width: 2.5; stroke-linejoin: miter; stroke-linecap: square"/>
   </g>
   <g id="patch_69">
    <path d="M 414.72 307.584 
L 414.72 41.472 
" style="fill: none; stroke: #000000; stroke-width: 2.5; stroke-linejoin: miter; stroke-linecap: square"/>
   </g>
   <g id="patch_70">
    <path d="M 57.6 307.584 
L 414.72 307.584 
" style="fill: none; stroke: #000000; stroke-width: 2.5; stroke-linejoin: miter; stroke-linecap: square"/>
   </g>
   <g id="patch_71">
    <path d="M 57.6 41.472 
L 414.72 41.472 
" style="fill: none; stroke: #000000; stroke-width: 2.5; stroke-linejoin: miter; stroke-linecap: square"/>
   </g>
   <g id="text_14">
    <!-- 4-node -->
    <g transform="translate(194.24625 35.472) scale(0.24 -0.24)">
     <defs>
      <path id="DejaVuSans-2d" d="M 313 2009 
L 1997 2009 
L 1997 1497 
L 313 1497 
L 313 2009 
z
" transform="scale(0.015625)"/>
      <path id="DejaVuSans-6f" d="M 1959 3097 
Q 1497 3097 1228 2736 
Q 959 2375 959 1747 
Q 959 1119 1226 758 
Q 1494 397 1959 397 
Q 2419 397 2687 759 
Q 2956 1122 2956 1747 
Q 2956 2369 2687 2733 
Q 2419 3097 1959 3097 
z
M 1959 3584 
Q 2709 3584 3137 3096 
Q 3566 2609 3566 1747 
Q 3566 888 3137 398 
Q 2709 -91 1959 -91 
Q 1206 -91 779 398 
Q 353 888 353 1747 
Q 353 2609 779 3096 
Q 1206 3584 1959 3584 
z
" transform="scale(0.015625)"/>
      <path id="DejaVuSans-64" d="M 2906 2969 
L 2906 4863 
L 3481 4863 
L 3481 0 
L 2906 0 
L 2906 525 
Q 2725 213 2448 61 
Q 2172 -91 1784 -91 
Q 1150 -91 751 415 
Q 353 922 353 1747 
Q 353 2572 751 3078 
Q 1150 3584 1784 3584 
Q 2172 3584 2448 3432 
Q 2725 3281 2906 2969 
z
M 947 1747 
Q 947 1113 1208 752 
Q 1469 391 1925 391 
Q 2381 391 2643 752 
Q 2906 1113 2906 1747 
Q 2906 2381 2643 2742 
Q 2381 3103 1925 3103 
Q 1469 3103 1208 2742 
Q 947 2381 947 1747 
z
" transform="scale(0.015625)"/>
     </defs>
     <use xlink:href="#DejaVuSans-34"/>
     <use xlink:href="#DejaVuSans-2d" x="63.623047"/>
     <use xlink:href="#DejaVuSans-6e" x="99.707031"/>
     <use xlink:href="#DejaVuSans-6f" x="163.085938"/>
     <use xlink:href="#DejaVuSans-64" x="224.267578"/>
     <use xlink:href="#DejaVuSans-65" x="287.744141"/>
    </g>
   </g>
  </g>
 </g>
 <defs>
  <clipPath id="pd09a48f789">
   <rect x="57.6" y="41.472" width="357.12" height="266.112"/>
  </clipPath>
 </defs>
</svg>
