<?xml version="1.0" encoding="utf-8" standalone="no"?>
<!DOCTYPE svg PUBLIC "-//W3C//DTD SVG 1.1//EN"
  "http://www.w3.org/Graphics/SVG/1.1/DTD/svg11.dtd">
<svg xmlns:xlink="http://www.w3.org/1999/xlink" width="460.8pt" height="345.6pt" viewBox="0 0 460.8 345.6" xmlns="http://www.w3.org/2000/svg" version="1.1">
 <metadata>
  <rdf:RDF xmlns:dc="http://purl.org/dc/elements/1.1/" xmlns:cc="http://creativecommons.org/ns#" xmlns:rdf="http://www.w3.org/1999/02/22-rdf-syntax-ns#">
   <cc:Work>
    <dc:type rdf:resource="http://purl.org/dc/dcmitype/StillImage"/>
    <dc:date>2024-03-06T12:49:04.676659</dc:date>
    <dc:format>image/svg+xml</dc:format>
    <dc:creator>
     <cc:Agent>
      <dc:title>Matplotlib v3.7.1, https://matplotlib.org/</dc:title>
     </cc:Agent>
    </dc:creator>
   </cc:Work>
  </rdf:RDF>
 </metadata>
 <defs>
  <style type="text/css">*{stroke-linejoin: round; stroke-linecap: butt}</style>
 </defs>
 <g id="figure_1">
  <g id="patch_1">
   <path d="M 0 345.6 
L 460.8 345.6 
L 460.8 0 
L 0 0 
z
" style="fill: #ffffff"/>
  </g>
  <g id="axes_1">
   <g id="patch_2">
    <path d="M 103.104 307.584 
L 369.216 307.584 
L 369.216 41.472 
L 103.104 41.472 
z
" style="fill: #ffffff"/>
   </g>
   <g id="QuadMesh_1">
    <path d="M 103.104 41.472 
L 147.456 41.472 
L 147.456 85.824 
L 103.104 85.824 
L 103.104 41.472 
" clip-path="url(#p1fb2229d15)" style="fill: #dddcdc; stroke: #ffffff; stroke-width: 2"/>
    <path d="M 147.456 41.472 
L 191.808 41.472 
L 191.808 85.824 
L 147.456 85.824 
L 147.456 41.472 
" clip-path="url(#p1fb2229d15)" style="fill: #3b4cc0; stroke: #ffffff; stroke-width: 2"/>
    <path d="M 191.808 41.472 
L 236.16 41.472 
L 236.16 85.824 
L 191.808 85.824 
L 191.808 41.472 
" clip-path="url(#p1fb2229d15)" style="fill: #3b4cc0; stroke: #ffffff; stroke-width: 2"/>
    <path d="M 236.16 41.472 
L 280.512 41.472 
L 280.512 85.824 
L 236.16 85.824 
L 236.16 41.472 
" clip-path="url(#p1fb2229d15)" style="fill: #3b4cc0; stroke: #ffffff; stroke-width: 2"/>
    <path d="M 280.512 41.472 
L 324.864 41.472 
L 324.864 85.824 
L 280.512 85.824 
L 280.512 41.472 
" clip-path="url(#p1fb2229d15)" style="fill: #3b4cc0; stroke: #ffffff; stroke-width: 2"/>
    <path d="M 324.864 41.472 
L 369.216 41.472 
L 369.216 85.824 
L 324.864 85.824 
L 324.864 41.472 
" clip-path="url(#p1fb2229d15)" style="fill: #3b4cc0; stroke: #ffffff; stroke-width: 2"/>
    <path d="M 103.104 85.824 
L 147.456 85.824 
L 147.456 130.176 
L 103.104 130.176 
L 103.104 85.824 
" clip-path="url(#p1fb2229d15)" style="fill: #3b4cc0; stroke: #ffffff; stroke-width: 2"/>
    <path d="M 147.456 85.824 
L 191.808 85.824 
L 191.808 130.176 
L 147.456 130.176 
L 147.456 85.824 
" clip-path="url(#p1fb2229d15)" style="fill: #dddcdc; stroke: #ffffff; stroke-width: 2"/>
    <path d="M 191.808 85.824 
L 236.16 85.824 
L 236.16 130.176 
L 191.808 130.176 
L 191.808 85.824 
" clip-path="url(#p1fb2229d15)" style="fill: #3b4cc0; stroke: #ffffff; stroke-width: 2"/>
    <path d="M 236.16 85.824 
L 280.512 85.824 
L 280.512 130.176 
L 236.16 130.176 
L 236.16 85.824 
" clip-path="url(#p1fb2229d15)" style="fill: #3b4cc0; stroke: #ffffff; stroke-width: 2"/>
    <path d="M 280.512 85.824 
L 324.864 85.824 
L 324.864 130.176 
L 280.512 130.176 
L 280.512 85.824 
" clip-path="url(#p1fb2229d15)" style="fill: #3b4cc0; stroke: #ffffff; stroke-width: 2"/>
    <path d="M 324.864 85.824 
L 369.216 85.824 
L 369.216 130.176 
L 324.864 130.176 
L 324.864 85.824 
" clip-path="url(#p1fb2229d15)" style="fill: #3b4cc0; stroke: #ffffff; stroke-width: 2"/>
    <path d="M 103.104 130.176 
L 147.456 130.176 
L 147.456 174.528 
L 103.104 174.528 
L 103.104 130.176 
" clip-path="url(#p1fb2229d15)" style="fill: #3b4cc0; stroke: #ffffff; stroke-width: 2"/>
    <path d="M 147.456 130.176 
L 191.808 130.176 
L 191.808 174.528 
L 147.456 174.528 
L 147.456 130.176 
" clip-path="url(#p1fb2229d15)" style="fill: #3b4cc0; stroke: #ffffff; stroke-width: 2"/>
    <path d="M 191.808 130.176 
L 236.16 130.176 
L 236.16 174.528 
L 191.808 174.528 
L 191.808 130.176 
" clip-path="url(#p1fb2229d15)" style="fill: #dddcdc; stroke: #ffffff; stroke-width: 2"/>
    <path d="M 236.16 130.176 
L 280.512 130.176 
L 280.512 174.528 
L 236.16 174.528 
L 236.16 130.176 
" clip-path="url(#p1fb2229d15)" style="fill: #3b4cc0; stroke: #ffffff; stroke-width: 2"/>
    <path d="M 280.512 130.176 
L 324.864 130.176 
L 324.864 174.528 
L 280.512 174.528 
L 280.512 130.176 
" clip-path="url(#p1fb2229d15)" style="fill: #3b4cc0; stroke: #ffffff; stroke-width: 2"/>
    <path d="M 324.864 130.176 
L 369.216 130.176 
L 369.216 174.528 
L 324.864 174.528 
L 324.864 130.176 
" clip-path="url(#p1fb2229d15)" style="fill: #3b4cc0; stroke: #ffffff; stroke-width: 2"/>
    <path d="M 103.104 174.528 
L 147.456 174.528 
L 147.456 218.88 
L 103.104 218.88 
L 103.104 174.528 
" clip-path="url(#p1fb2229d15)" style="fill: #3b4cc0; stroke: #ffffff; stroke-width: 2"/>
    <path d="M 147.456 174.528 
L 191.808 174.528 
L 191.808 218.88 
L 147.456 218.88 
L 147.456 174.528 
" clip-path="url(#p1fb2229d15)" style="fill: #3b4cc0; stroke: #ffffff; stroke-width: 2"/>
    <path d="M 191.808 174.528 
L 236.16 174.528 
L 236.16 218.88 
L 191.808 218.88 
L 191.808 174.528 
" clip-path="url(#p1fb2229d15)" style="fill: #3b4cc0; stroke: #ffffff; stroke-width: 2"/>
    <path d="M 236.16 174.528 
L 280.512 174.528 
L 280.512 218.88 
L 236.16 218.88 
L 236.16 174.528 
" clip-path="url(#p1fb2229d15)" style="fill: #dddcdc; stroke: #ffffff; stroke-width: 2"/>
    <path d="M 280.512 174.528 
L 324.864 174.528 
L 324.864 218.88 
L 280.512 218.88 
L 280.512 174.528 
" clip-path="url(#p1fb2229d15)" style="fill: #3b4cc0; stroke: #ffffff; stroke-width: 2"/>
    <path d="M 324.864 174.528 
L 369.216 174.528 
L 369.216 218.88 
L 324.864 218.88 
L 324.864 174.528 
" clip-path="url(#p1fb2229d15)" style="fill: #3b4cc0; stroke: #ffffff; stroke-width: 2"/>
    <path d="M 103.104 218.88 
L 147.456 218.88 
L 147.456 263.232 
L 103.104 263.232 
L 103.104 218.88 
" clip-path="url(#p1fb2229d15)" style="fill: #3b4cc0; stroke: #ffffff; stroke-width: 2"/>
    <path d="M 147.456 218.88 
L 191.808 218.88 
L 191.808 263.232 
L 147.456 263.232 
L 147.456 218.88 
" clip-path="url(#p1fb2229d15)" style="fill: #3b4cc0; stroke: #ffffff; stroke-width: 2"/>
    <path d="M 191.808 218.88 
L 236.16 218.88 
L 236.16 263.232 
L 191.808 263.232 
L 191.808 218.88 
" clip-path="url(#p1fb2229d15)" style="fill: #3b4cc0; stroke: #ffffff; stroke-width: 2"/>
    <path d="M 236.16 218.88 
L 280.512 218.88 
L 280.512 263.232 
L 236.16 263.232 
L 236.16 218.88 
" clip-path="url(#p1fb2229d15)" style="fill: #3b4cc0; stroke: #ffffff; stroke-width: 2"/>
    <path d="M 280.512 218.88 
L 324.864 218.88 
L 324.864 263.232 
L 280.512 263.232 
L 280.512 218.88 
" clip-path="url(#p1fb2229d15)" style="fill: #dddcdc; stroke: #ffffff; stroke-width: 2"/>
    <path d="M 324.864 218.88 
L 369.216 218.88 
L 369.216 263.232 
L 324.864 263.232 
L 324.864 218.88 
" clip-path="url(#p1fb2229d15)" style="fill: #3b4cc0; stroke: #ffffff; stroke-width: 2"/>
    <path d="M 103.104 263.232 
L 147.456 263.232 
L 147.456 307.584 
L 103.104 307.584 
L 103.104 263.232 
" clip-path="url(#p1fb2229d15)" style="fill: #3b4cc0; stroke: #ffffff; stroke-width: 2"/>
    <path d="M 147.456 263.232 
L 191.808 263.232 
L 191.808 307.584 
L 147.456 307.584 
L 147.456 263.232 
" clip-path="url(#p1fb2229d15)" style="fill: #3b4cc0; stroke: #ffffff; stroke-width: 2"/>
    <path d="M 191.808 263.232 
L 236.16 263.232 
L 236.16 307.584 
L 191.808 307.584 
L 191.808 263.232 
" clip-path="url(#p1fb2229d15)" style="fill: #3b4cc0; stroke: #ffffff; stroke-width: 2"/>
    <path d="M 236.16 263.232 
L 280.512 263.232 
L 280.512 307.584 
L 236.16 307.584 
L 236.16 263.232 
" clip-path="url(#p1fb2229d15)" style="fill: #3b4cc0; stroke: #ffffff; stroke-width: 2"/>
    <path d="M 280.512 263.232 
L 324.864 263.232 
L 324.864 307.584 
L 280.512 307.584 
L 280.512 263.232 
" clip-path="url(#p1fb2229d15)" style="fill: #3b4cc0; stroke: #ffffff; stroke-width: 2"/>
    <path d="M 324.864 263.232 
L 369.216 263.232 
L 369.216 307.584 
L 324.864 307.584 
L 324.864 263.232 
" clip-path="url(#p1fb2229d15)" style="fill: #dddcdc; stroke: #ffffff; stroke-width: 2"/>
   </g>
   <g id="matplotlib.axis_1">
    <g id="xtick_1">
     <g id="line2d_1">
      <defs>
       <path id="macadb62f24" d="M 0 0 
L 0 12 
" style="stroke: #000000; stroke-width: 2.5"/>
      </defs>
      <g>
       <use xlink:href="#macadb62f24" x="125.28" y="307.584" style="stroke: #000000; stroke-width: 2.5"/>
      </g>
     </g>
     <g id="text_1">
      <!-- A -->
      <g transform="translate(117.755313 339.800562) scale(0.22 -0.22)">
       <defs>
        <path id="DejaVuSans-41" d="M 2188 4044 
L 1331 1722 
L 3047 1722 
L 2188 4044 
z
M 1831 4666 
L 2547 4666 
L 4325 0 
L 3669 0 
L 3244 1197 
L 1141 1197 
L 716 0 
L 50 0 
L 1831 4666 
z
" transform="scale(0.015625)"/>
       </defs>
       <use xlink:href="#DejaVuSans-41"/>
      </g>
     </g>
    </g>
    <g id="xtick_2">
     <g id="line2d_2">
      <g>
       <use xlink:href="#macadb62f24" x="169.632" y="307.584" style="stroke: #000000; stroke-width: 2.5"/>
      </g>
     </g>
     <g id="text_2">
      <!-- B -->
      <g transform="translate(162.084969 339.800562) scale(0.22 -0.22)">
       <defs>
        <path id="DejaVuSans-42" d="M 1259 2228 
L 1259 519 
L 2272 519 
Q 2781 519 3026 730 
Q 3272 941 3272 1375 
Q 3272 1813 3026 2020 
Q 2781 2228 2272 2228 
L 1259 2228 
z
M 1259 4147 
L 1259 2741 
L 2194 2741 
Q 2656 2741 2882 2914 
Q 3109 3088 3109 3444 
Q 3109 3797 2882 3972 
Q 2656 4147 2194 4147 
L 1259 4147 
z
M 628 4666 
L 2241 4666 
Q 2963 4666 3353 4366 
Q 3744 4066 3744 3513 
Q 3744 3084 3544 2831 
Q 3344 2578 2956 2516 
Q 3422 2416 3680 2098 
Q 3938 1781 3938 1306 
Q 3938 681 3513 340 
Q 3088 0 2303 0 
L 628 0 
L 628 4666 
z
" transform="scale(0.015625)"/>
       </defs>
       <use xlink:href="#DejaVuSans-42"/>
      </g>
     </g>
    </g>
    <g id="xtick_3">
     <g id="line2d_3">
      <g>
       <use xlink:href="#macadb62f24" x="213.984" y="307.584" style="stroke: #000000; stroke-width: 2.5"/>
      </g>
     </g>
     <g id="text_3">
      <!-- C -->
      <g transform="translate(206.302906 339.800562) scale(0.22 -0.22)">
       <defs>
        <path id="DejaVuSans-43" d="M 4122 4306 
L 4122 3641 
Q 3803 3938 3442 4084 
Q 3081 4231 2675 4231 
Q 1875 4231 1450 3742 
Q 1025 3253 1025 2328 
Q 1025 1406 1450 917 
Q 1875 428 2675 428 
Q 3081 428 3442 575 
Q 3803 722 4122 1019 
L 4122 359 
Q 3791 134 3420 21 
Q 3050 -91 2638 -91 
Q 1578 -91 968 557 
Q 359 1206 359 2328 
Q 359 3453 968 4101 
Q 1578 4750 2638 4750 
Q 3056 4750 3426 4639 
Q 3797 4528 4122 4306 
z
" transform="scale(0.015625)"/>
       </defs>
       <use xlink:href="#DejaVuSans-43"/>
      </g>
     </g>
    </g>
    <g id="xtick_4">
     <g id="line2d_4">
      <g>
       <use xlink:href="#macadb62f24" x="258.336" y="307.584" style="stroke: #000000; stroke-width: 2.5"/>
      </g>
     </g>
     <g id="text_4">
      <!-- D -->
      <g transform="translate(249.866 339.800562) scale(0.22 -0.22)">
       <defs>
        <path id="DejaVuSans-44" d="M 1259 4147 
L 1259 519 
L 2022 519 
Q 2988 519 3436 956 
Q 3884 1394 3884 2338 
Q 3884 3275 3436 3711 
Q 2988 4147 2022 4147 
L 1259 4147 
z
M 628 4666 
L 1925 4666 
Q 3281 4666 3915 4102 
Q 4550 3538 4550 2338 
Q 4550 1131 3912 565 
Q 3275 0 1925 0 
L 628 0 
L 628 4666 
z
" transform="scale(0.015625)"/>
       </defs>
       <use xlink:href="#DejaVuSans-44"/>
      </g>
     </g>
    </g>
    <g id="xtick_5">
     <g id="line2d_5">
      <g>
       <use xlink:href="#macadb62f24" x="302.688" y="307.584" style="stroke: #000000; stroke-width: 2.5"/>
      </g>
     </g>
     <g id="text_5">
      <!-- E -->
      <g transform="translate(295.737375 339.800562) scale(0.22 -0.22)">
       <defs>
        <path id="DejaVuSans-45" d="M 628 4666 
L 3578 4666 
L 3578 4134 
L 1259 4134 
L 1259 2753 
L 3481 2753 
L 3481 2222 
L 1259 2222 
L 1259 531 
L 3634 531 
L 3634 0 
L 628 0 
L 628 4666 
z
" transform="scale(0.015625)"/>
       </defs>
       <use xlink:href="#DejaVuSans-45"/>
      </g>
     </g>
    </g>
    <g id="xtick_6">
     <g id="line2d_6">
      <g>
       <use xlink:href="#macadb62f24" x="347.04" y="307.584" style="stroke: #000000; stroke-width: 2.5"/>
      </g>
     </g>
     <g id="text_6">
      <!-- F -->
      <g transform="translate(340.713281 339.800562) scale(0.22 -0.22)">
       <defs>
        <path id="DejaVuSans-46" d="M 628 4666 
L 3309 4666 
L 3309 4134 
L 1259 4134 
L 1259 2759 
L 3109 2759 
L 3109 2228 
L 1259 2228 
L 1259 0 
L 628 0 
L 628 4666 
z
" transform="scale(0.015625)"/>
       </defs>
       <use xlink:href="#DejaVuSans-46"/>
      </g>
     </g>
    </g>
   </g>
   <g id="matplotlib.axis_2">
    <g id="ytick_1">
     <g id="line2d_7">
      <defs>
       <path id="mbd1f834859" d="M 0 0 
L -12 0 
" style="stroke: #000000; stroke-width: 2.5"/>
      </defs>
      <g>
       <use xlink:href="#mbd1f834859" x="103.104" y="63.648" style="stroke: #000000; stroke-width: 2.5"/>
      </g>
     </g>
     <g id="text_7">
      <!-- A -->
      <g transform="translate(83.028688 71.172688) rotate(-90) scale(0.22 -0.22)">
       <use xlink:href="#DejaVuSans-41"/>
      </g>
     </g>
    </g>
    <g id="ytick_2">
     <g id="line2d_8">
      <g>
       <use xlink:href="#mbd1f834859" x="103.104" y="108" style="stroke: #000000; stroke-width: 2.5"/>
      </g>
     </g>
     <g id="text_8">
      <!-- B -->
      <g transform="translate(83.028688 115.547031) rotate(-90) scale(0.22 -0.22)">
       <use xlink:href="#DejaVuSans-42"/>
      </g>
     </g>
    </g>
    <g id="ytick_3">
     <g id="line2d_9">
      <g>
       <use xlink:href="#mbd1f834859" x="103.104" y="152.352" style="stroke: #000000; stroke-width: 2.5"/>
      </g>
     </g>
     <g id="text_9">
      <!-- C -->
      <g transform="translate(83.028688 160.033094) rotate(-90) scale(0.22 -0.22)">
       <use xlink:href="#DejaVuSans-43"/>
      </g>
     </g>
    </g>
    <g id="ytick_4">
     <g id="line2d_10">
      <g>
       <use xlink:href="#mbd1f834859" x="103.104" y="196.704" style="stroke: #000000; stroke-width: 2.5"/>
      </g>
     </g>
     <g id="text_10">
      <!-- D -->
      <g transform="translate(83.028688 205.174) rotate(-90) scale(0.22 -0.22)">
       <use xlink:href="#DejaVuSans-44"/>
      </g>
     </g>
    </g>
    <g id="ytick_5">
     <g id="line2d_11">
      <g>
       <use xlink:href="#mbd1f834859" x="103.104" y="241.056" style="stroke: #000000; stroke-width: 2.5"/>
      </g>
     </g>
     <g id="text_11">
      <!-- E -->
      <g transform="translate(83.028688 248.006625) rotate(-90) scale(0.22 -0.22)">
       <use xlink:href="#DejaVuSans-45"/>
      </g>
     </g>
    </g>
    <g id="ytick_6">
     <g id="line2d_12">
      <g>
       <use xlink:href="#mbd1f834859" x="103.104" y="285.408" style="stroke: #000000; stroke-width: 2.5"/>
      </g>
     </g>
     <g id="text_12">
      <!-- F -->
      <g transform="translate(83.028688 291.734719) rotate(-90) scale(0.22 -0.22)">
       <use xlink:href="#DejaVuSans-46"/>
      </g>
     </g>
    </g>
   </g>
  </g>
 </g>
 <defs>
  <clipPath id="p1fb2229d15">
   <rect x="103.104" y="41.472" width="266.112" height="266.112"/>
  </clipPath>
 </defs>
</svg>
