<?xml version="1.0" encoding="utf-8" standalone="no"?>
<!DOCTYPE svg PUBLIC "-//W3C//DTD SVG 1.1//EN"
  "http://www.w3.org/Graphics/SVG/1.1/DTD/svg11.dtd">
<svg xmlns:xlink="http://www.w3.org/1999/xlink" width="360pt" height="360pt" viewBox="0 0 360 360" xmlns="http://www.w3.org/2000/svg" version="1.1">
 <metadata>
  <rdf:RDF xmlns:dc="http://purl.org/dc/elements/1.1/" xmlns:cc="http://creativecommons.org/ns#" xmlns:rdf="http://www.w3.org/1999/02/22-rdf-syntax-ns#">
   <cc:Work>
    <dc:type rdf:resource="http://purl.org/dc/dcmitype/StillImage"/>
    <dc:date>2024-04-08T12:32:35.973262</dc:date>
    <dc:format>image/svg+xml</dc:format>
    <dc:creator>
     <cc:Agent>
      <dc:title>Matplotlib v3.8.3, https://matplotlib.org/</dc:title>
     </cc:Agent>
    </dc:creator>
   </cc:Work>
  </rdf:RDF>
 </metadata>
 <defs>
  <style type="text/css">*{stroke-linejoin: round; stroke-linecap: butt}</style>
 </defs>
 <g id="figure_1">
  <g id="patch_1">
   <path d="M 0 360 
L 360 360 
L 360 0 
L 0 0 
z
" style="fill: #ffffff"/>
  </g>
  <g id="axes_1">
   <g id="patch_2">
    <path d="M 25.92 334.08 
L 334.08 334.08 
L 334.08 25.92 
L 25.92 25.92 
z
" style="fill: #ffffff"/>
   </g>
   <g id="patch_3">
    <path d="M 270.146797 197.147401 
Q 336.824201 179.999748 270.144882 162.852098 
" clip-path="url(#p0fb08a38a3)" style="fill: none; opacity: 0.5; stroke: #0000ff; stroke-width: 2; stroke-linecap: round"/>
    <path d="M 270.255611 160.815498 
L 270.643006 160.915122 
L 269.646758 164.789073 
L 269.259363 164.689448 
" clip-path="url(#p0fb08a38a3)" style="fill: none; opacity: 0.5; stroke: #0000ff; stroke-width: 2; stroke-linecap: round"/>
   </g>
   <g id="patch_4">
    <path d="M 91.718315 72.649018 
Q 41.107308 14.646858 57.563518 89.851624 
" clip-path="url(#p0fb08a38a3)" style="fill: none; opacity: 0.5; stroke: #0000ff; stroke-width: 2; stroke-linecap: round"/>
    <path d="M 55.695251 90.6699 
L 55.609746 90.279146 
L 59.51729 89.424102 
L 59.602795 89.814856 
" clip-path="url(#p0fb08a38a3)" style="fill: none; opacity: 0.5; stroke: #0000ff; stroke-width: 2; stroke-linecap: round"/>
   </g>
   <g id="patch_5">
    <path d="M 57.562294 270.15405 
Q 41.108624 345.353795 91.722154 287.346602 
" clip-path="url(#p0fb08a38a3)" style="fill: none; opacity: 0.5; stroke: #0000ff; stroke-width: 2; stroke-linecap: round"/>
    <path d="M 93.492126 288.360111 
L 93.229144 288.661509 
L 90.215165 286.031694 
L 90.478146 285.730296 
" clip-path="url(#p0fb08a38a3)" style="fill: none; opacity: 0.5; stroke: #0000ff; stroke-width: 2; stroke-linecap: round"/>
   </g>
   <g id="patch_6">
    <path d="M 241.056416 168.358353 
Q 178.500268 123.11136 105.287127 99.030976 
" clip-path="url(#p0fb08a38a3)" style="fill: none; stroke: #0000ff; stroke-opacity: 0.5; stroke-width: 2; stroke-linecap: round"/>
    <path d="M 105.532036 97.006125 
L 105.912011 97.131102 
L 104.662244 100.930849 
L 104.282269 100.805873 
" clip-path="url(#p0fb08a38a3)" style="fill: none; stroke: #0000ff; stroke-opacity: 0.5; stroke-width: 2; stroke-linecap: round"/>
   </g>
   <g id="patch_7">
    <path d="M 237.961967 185.495531 
Q 164.359191 208.802025 101.413409 253.275125 
" clip-path="url(#p0fb08a38a3)" style="fill: none; stroke: #0000ff; stroke-opacity: 0.5; stroke-width: 2; stroke-linecap: round"/>
    <path d="M 99.932649 251.872502 
L 100.259337 251.641688 
L 102.567482 254.908562 
L 102.240794 255.139376 
" clip-path="url(#p0fb08a38a3)" style="fill: none; stroke: #0000ff; stroke-opacity: 0.5; stroke-width: 2; stroke-linecap: round"/>
   </g>
   <g id="patch_8">
    <path d="M 96.824789 103.444524 
Q 159.380937 148.691516 232.594078 172.771901 
" clip-path="url(#p0fb08a38a3)" style="fill: none; stroke: #0000ff; stroke-opacity: 0.5; stroke-width: 2; stroke-linecap: round"/>
    <path d="M 232.349169 174.796751 
L 231.969194 174.671775 
L 233.218961 170.872027 
L 233.598936 170.997004 
" clip-path="url(#p0fb08a38a3)" style="fill: none; stroke: #0000ff; stroke-opacity: 0.5; stroke-width: 2; stroke-linecap: round"/>
   </g>
   <g id="patch_9">
    <path d="M 77.952555 110.867218 
Q 67.551399 177.214363 77.114359 243.561506 
" clip-path="url(#p0fb08a38a3)" style="fill: none; stroke: #0000ff; stroke-opacity: 0.5; stroke-width: 2; stroke-linecap: round"/>
    <path d="M 75.19188 244.242736 
L 75.134816 243.846827 
L 79.093902 243.276184 
L 79.150966 243.672092 
" clip-path="url(#p0fb08a38a3)" style="fill: none; stroke: #0000ff; stroke-opacity: 0.5; stroke-width: 2; stroke-linecap: round"/>
   </g>
   <g id="patch_10">
    <path d="M 99.919256 262.701581 
Q 173.522031 239.395087 236.467814 194.921987 
" clip-path="url(#p0fb08a38a3)" style="fill: none; stroke: #0000ff; stroke-opacity: 0.5; stroke-width: 2; stroke-linecap: round"/>
    <path d="M 237.948574 196.324609 
L 237.621886 196.555424 
L 235.313741 193.28855 
L 235.640428 193.057736 
" clip-path="url(#p0fb08a38a3)" style="fill: none; stroke: #0000ff; stroke-opacity: 0.5; stroke-width: 2; stroke-linecap: round"/>
   </g>
   <g id="patch_11">
    <path d="M 84.754129 249.132779 
Q 95.155285 182.785635 85.592325 116.438492 
" clip-path="url(#p0fb08a38a3)" style="fill: none; stroke: #0000ff; stroke-opacity: 0.5; stroke-width: 2; stroke-linecap: round"/>
    <path d="M 87.514804 115.757261 
L 87.571868 116.15317 
L 83.612782 116.723814 
L 83.555718 116.327905 
" clip-path="url(#p0fb08a38a3)" style="fill: none; stroke: #0000ff; stroke-opacity: 0.5; stroke-width: 2; stroke-linecap: round"/>
   </g>
   <g id="matplotlib.axis_1">
    <g id="xtick_1"/>
    <g id="xtick_2"/>
   </g>
   <g id="matplotlib.axis_2">
    <g id="ytick_1"/>
    <g id="ytick_2"/>
    <g id="ytick_3"/>
    <g id="ytick_4"/>
    <g id="ytick_5"/>
    <g id="ytick_6"/>
    <g id="ytick_7"/>
   </g>
   <g id="PathCollection_1">
    <defs>
     <path id="C0_0_cbdcdabd6c" d="M 0 19.364917 
C 5.135636 19.364917 10.061621 17.324507 13.693064 13.693064 
C 17.324507 10.061621 19.364917 5.135636 19.364917 -0 
C 19.364917 -5.135636 17.324507 -10.061621 13.693064 -13.693064 
C 10.061621 -17.324507 5.135636 -19.364917 0 -19.364917 
C -5.135636 -19.364917 -10.061621 -17.324507 -13.693064 -13.693064 
C -17.324507 -10.061621 -19.364917 -5.135636 -19.364917 0 
C -19.364917 5.135636 -17.324507 10.061621 -13.693064 13.693064 
C -10.061621 17.324507 -5.135636 19.364917 0 19.364917 
z
"/>
    </defs>
    <g clip-path="url(#p0fb08a38a3)">
     <use xlink:href="#C0_0_cbdcdabd6c" x="256.527872" y="179.999996" style="fill: #4878d0; stroke: #000000"/>
    </g>
    <g clip-path="url(#p0fb08a38a3)">
     <use xlink:href="#C0_0_cbdcdabd6c" x="81.353333" y="91.802881" style="fill: #ee854a; stroke: #000000"/>
    </g>
    <g clip-path="url(#p0fb08a38a3)">
     <use xlink:href="#C0_0_cbdcdabd6c" x="81.353351" y="268.197116" style="fill: #6acc64; stroke: #000000"/>
    </g>
   </g>
   <g id="patch_12">
    <path d="M 25.92 334.08 
L 25.92 25.92 
" style="fill: none; stroke: #000000; stroke-width: 2.5; stroke-linejoin: miter; stroke-linecap: square"/>
   </g>
   <g id="patch_13">
    <path d="M 334.08 334.08 
L 334.08 25.92 
" style="fill: none; stroke: #000000; stroke-width: 2.5; stroke-linejoin: miter; stroke-linecap: square"/>
   </g>
   <g id="patch_14">
    <path d="M 25.92 334.08 
L 334.08 334.08 
" style="fill: none; stroke: #000000; stroke-width: 2.5; stroke-linejoin: miter; stroke-linecap: square"/>
   </g>
   <g id="patch_15">
    <path d="M 25.92 25.92 
L 334.08 25.92 
" style="fill: none; stroke: #000000; stroke-width: 2.5; stroke-linejoin: miter; stroke-linecap: square"/>
   </g>
   <g id="text_1">
    <g clip-path="url(#p0fb08a38a3)">
     <!-- A -->
     <g transform="translate(252.423497 183.311246) scale(0.12 -0.12)">
      <defs>
       <path id="DejaVuSans-41" d="M 2188 4044 
L 1331 1722 
L 3047 1722 
L 2188 4044 
z
M 1831 4666 
L 2547 4666 
L 4325 0 
L 3669 0 
L 3244 1197 
L 1141 1197 
L 716 0 
L 50 0 
L 1831 4666 
z
" transform="scale(0.015625)"/>
      </defs>
      <use xlink:href="#DejaVuSans-41"/>
     </g>
    </g>
   </g>
   <g id="text_2">
    <g clip-path="url(#p0fb08a38a3)">
     <!-- B -->
     <g transform="translate(77.236771 95.114131) scale(0.12 -0.12)">
      <defs>
       <path id="DejaVuSans-42" d="M 1259 2228 
L 1259 519 
L 2272 519 
Q 2781 519 3026 730 
Q 3272 941 3272 1375 
Q 3272 1813 3026 2020 
Q 2781 2228 2272 2228 
L 1259 2228 
z
M 1259 4147 
L 1259 2741 
L 2194 2741 
Q 2656 2741 2882 2914 
Q 3109 3088 3109 3444 
Q 3109 3797 2882 3972 
Q 2656 4147 2194 4147 
L 1259 4147 
z
M 628 4666 
L 2241 4666 
Q 2963 4666 3353 4366 
Q 3744 4066 3744 3513 
Q 3744 3084 3544 2831 
Q 3344 2578 2956 2516 
Q 3422 2416 3680 2098 
Q 3938 1781 3938 1306 
Q 3938 681 3513 340 
Q 3088 0 2303 0 
L 628 0 
L 628 4666 
z
" transform="scale(0.015625)"/>
      </defs>
      <use xlink:href="#DejaVuSans-42"/>
     </g>
    </g>
   </g>
   <g id="text_3">
    <g clip-path="url(#p0fb08a38a3)">
     <!-- C -->
     <g transform="translate(77.163663 271.508366) scale(0.12 -0.12)">
      <defs>
       <path id="DejaVuSans-43" d="M 4122 4306 
L 4122 3641 
Q 3803 3938 3442 4084 
Q 3081 4231 2675 4231 
Q 1875 4231 1450 3742 
Q 1025 3253 1025 2328 
Q 1025 1406 1450 917 
Q 1875 428 2675 428 
Q 3081 428 3442 575 
Q 3803 722 4122 1019 
L 4122 359 
Q 3791 134 3420 21 
Q 3050 -91 2638 -91 
Q 1578 -91 968 557 
Q 359 1206 359 2328 
Q 359 3453 968 4101 
Q 1578 4750 2638 4750 
Q 3056 4750 3426 4639 
Q 3797 4528 4122 4306 
z
" transform="scale(0.015625)"/>
      </defs>
      <use xlink:href="#DejaVuSans-43"/>
     </g>
    </g>
   </g>
  </g>
 </g>
 <defs>
  <clipPath id="p0fb08a38a3">
   <rect x="25.92" y="25.92" width="308.16" height="308.16"/>
  </clipPath>
 </defs>
</svg>
