<?xml version="1.0" encoding="utf-8" standalone="no"?>
<!DOCTYPE svg PUBLIC "-//W3C//DTD SVG 1.1//EN"
  "http://www.w3.org/Graphics/SVG/1.1/DTD/svg11.dtd">
<svg xmlns:xlink="http://www.w3.org/1999/xlink" width="360pt" height="360pt" viewBox="0 0 360 360" xmlns="http://www.w3.org/2000/svg" version="1.1">
 <metadata>
  <rdf:RDF xmlns:dc="http://purl.org/dc/elements/1.1/" xmlns:cc="http://creativecommons.org/ns#" xmlns:rdf="http://www.w3.org/1999/02/22-rdf-syntax-ns#">
   <cc:Work>
    <dc:type rdf:resource="http://purl.org/dc/dcmitype/StillImage"/>
    <dc:date>2025-04-23T21:33:10.805362</dc:date>
    <dc:format>image/svg+xml</dc:format>
    <dc:creator>
     <cc:Agent>
      <dc:title>Matplotlib v3.10.1, https://matplotlib.org/</dc:title>
     </cc:Agent>
    </dc:creator>
   </cc:Work>
  </rdf:RDF>
 </metadata>
 <defs>
  <style type="text/css">*{stroke-linejoin: round; stroke-linecap: butt}</style>
 </defs>
 <g id="figure_1">
  <g id="patch_1">
   <path d="M 0 360 
L 360 360 
L 360 0 
L 0 0 
z
" style="fill: #ffffff"/>
  </g>
  <g id="axes_1">
   <g id="patch_2">
    <path d="M 25.92 334.08 
L 334.08 334.08 
L 334.08 25.92 
L 25.92 25.92 
z
" style="fill: #ffffff"/>
   </g>
   <g id="patch_3">
    <path d="M 287.785941 162.827585 
Q 262.544154 117.206468 225.78971 80.380238 
" clip-path="url(#p244123db42)" style="fill: none; stroke: #0000ff; stroke-opacity: 0.5; stroke-width: 2; stroke-linecap: round"/>
    <path d="M 226.922736 78.684287 
L 227.205303 78.967405 
L 224.374118 81.793071 
L 224.091551 81.509953 
" clip-path="url(#p244123db42)" style="fill: none; stroke: #0000ff; stroke-opacity: 0.5; stroke-width: 2; stroke-linecap: round"/>
   </g>
   <g id="patch_4">
    <path d="M 279.571676 171.023333 
Q 188.696668 125.208849 88.087485 110.894813 
" clip-path="url(#p244123db42)" style="fill: none; stroke: #0000ff; stroke-opacity: 0.5; stroke-width: 2; stroke-linecap: round"/>
    <path d="M 87.973184 108.858411 
L 88.369196 108.914753 
L 87.805775 112.874874 
L 87.409763 112.818532 
" clip-path="url(#p244123db42)" style="fill: none; stroke: #0000ff; stroke-opacity: 0.5; stroke-width: 2; stroke-linecap: round"/>
   </g>
   <g id="patch_5">
    <path d="M 277.498215 182.266811 
Q 176.619182 195.707588 85.474324 240.648812 
" clip-path="url(#p244123db42)" style="fill: none; stroke: #0000ff; stroke-opacity: 0.5; stroke-width: 2; stroke-linecap: round"/>
    <path d="M 84.23109 239.031912 
L 84.589849 238.855016 
L 86.3588 242.442608 
L 86.00004 242.619503 
" clip-path="url(#p244123db42)" style="fill: none; stroke: #0000ff; stroke-opacity: 0.5; stroke-width: 2; stroke-linecap: round"/>
   </g>
   <g id="patch_6">
    <path d="M 282.510306 193.142194 
Q 245.132011 229.491836 219.266372 274.636364 
" clip-path="url(#p244123db42)" style="fill: none; stroke: #0000ff; stroke-opacity: 0.5; stroke-width: 2; stroke-linecap: round"/>
    <path d="M 217.332172 273.989164 
L 217.531026 273.642095 
L 221.001719 275.630634 
L 220.802865 275.977704 
" clip-path="url(#p244123db42)" style="fill: none; stroke: #0000ff; stroke-opacity: 0.5; stroke-width: 2; stroke-linecap: round"/>
   </g>
   <g id="patch_7">
    <path d="M 216.4969 80.445146 
Q 241.738687 126.066263 278.493131 162.892493 
" clip-path="url(#p244123db42)" style="fill: none; stroke: #0000ff; stroke-opacity: 0.5; stroke-width: 2; stroke-linecap: round"/>
    <path d="M 277.360105 164.588444 
L 277.077539 164.305326 
L 279.908724 161.479659 
L 280.19129 161.762778 
" clip-path="url(#p244123db42)" style="fill: none; stroke: #0000ff; stroke-opacity: 0.5; stroke-width: 2; stroke-linecap: round"/>
   </g>
   <g id="patch_8">
    <path d="M 188.346801 65.719929 
Q 134.727959 73.896695 85.609724 96.637732 
" clip-path="url(#p244123db42)" style="fill: none; stroke: #0000ff; stroke-opacity: 0.5; stroke-width: 2; stroke-linecap: round"/>
    <path d="M 84.406459 94.99087 
L 84.769443 94.822814 
L 86.450005 98.45265 
L 86.087021 98.620707 
" clip-path="url(#p244123db42)" style="fill: none; stroke: #0000ff; stroke-opacity: 0.5; stroke-width: 2; stroke-linecap: round"/>
   </g>
   <g id="patch_9">
    <path d="M 193.210987 76.278779 
Q 121.372457 143.47766 74.706214 229.906454 
" clip-path="url(#p244123db42)" style="fill: none; stroke: #0000ff; stroke-opacity: 0.5; stroke-width: 2; stroke-linecap: round"/>
    <path d="M 72.756315 229.308211 
L 72.946358 228.95624 
L 76.46607 230.856668 
L 76.276027 231.208639 
" clip-path="url(#p244123db42)" style="fill: none; stroke: #0000ff; stroke-opacity: 0.5; stroke-width: 2; stroke-linecap: round"/>
   </g>
   <g id="patch_10">
    <path d="M 80.428324 116.835253 
Q 171.303332 162.649736 271.912515 176.963773 
" clip-path="url(#p244123db42)" style="fill: none; stroke: #0000ff; stroke-opacity: 0.5; stroke-width: 2; stroke-linecap: round"/>
    <path d="M 272.026816 179.000175 
L 271.630804 178.943833 
L 272.194225 174.983712 
L 272.590237 175.040054 
" clip-path="url(#p244123db42)" style="fill: none; stroke: #0000ff; stroke-opacity: 0.5; stroke-width: 2; stroke-linecap: round"/>
   </g>
   <g id="patch_11">
    <path d="M 82.481495 105.41138 
Q 136.100337 97.234614 185.218572 74.493577 
" clip-path="url(#p244123db42)" style="fill: none; stroke: #0000ff; stroke-opacity: 0.5; stroke-width: 2; stroke-linecap: round"/>
    <path d="M 186.421837 76.140439 
L 186.058853 76.308495 
L 184.378291 72.678659 
L 184.741275 72.510603 
" clip-path="url(#p244123db42)" style="fill: none; stroke: #0000ff; stroke-opacity: 0.5; stroke-width: 2; stroke-linecap: round"/>
   </g>
   <g id="patch_12">
    <path d="M 59.961518 126.937488 
Q 52.566463 177.207438 59.18315 227.477387 
" clip-path="url(#p244123db42)" style="fill: none; stroke: #0000ff; stroke-opacity: 0.5; stroke-width: 2; stroke-linecap: round"/>
    <path d="M 57.252452 228.134961 
L 57.200253 227.738382 
L 61.166048 227.216391 
L 61.218247 227.612971 
" clip-path="url(#p244123db42)" style="fill: none; stroke: #0000ff; stroke-opacity: 0.5; stroke-width: 2; stroke-linecap: round"/>
   </g>
   <g id="patch_13">
    <path d="M 82.501793 249.874626 
Q 183.380825 236.433848 274.525683 191.492624 
" clip-path="url(#p244123db42)" style="fill: none; stroke: #0000ff; stroke-opacity: 0.5; stroke-width: 2; stroke-linecap: round"/>
    <path d="M 275.768918 193.109524 
L 275.410159 193.28642 
L 273.641208 189.698828 
L 273.999967 189.521933 
" clip-path="url(#p244123db42)" style="fill: none; stroke: #0000ff; stroke-opacity: 0.5; stroke-width: 2; stroke-linecap: round"/>
   </g>
   <g id="patch_14">
    <path d="M 77.617317 239.135381 
Q 149.455846 171.9365 196.12209 85.507706 
" clip-path="url(#p244123db42)" style="fill: none; stroke: #0000ff; stroke-opacity: 0.5; stroke-width: 2; stroke-linecap: round"/>
    <path d="M 198.071988 86.105949 
L 197.881946 86.45792 
L 194.362234 84.557492 
L 194.552276 84.20552 
" clip-path="url(#p244123db42)" style="fill: none; stroke: #0000ff; stroke-opacity: 0.5; stroke-width: 2; stroke-linecap: round"/>
   </g>
   <g id="patch_15">
    <path d="M 66.583944 233.062526 
Q 73.979 182.792577 67.362312 132.522628 
" clip-path="url(#p244123db42)" style="fill: none; stroke: #0000ff; stroke-opacity: 0.5; stroke-width: 2; stroke-linecap: round"/>
    <path d="M 69.29301 131.865053 
L 69.345209 132.261633 
L 65.379415 132.783623 
L 65.327216 132.387044 
" clip-path="url(#p244123db42)" style="fill: none; stroke: #0000ff; stroke-opacity: 0.5; stroke-width: 2; stroke-linecap: round"/>
   </g>
   <g id="patch_16">
    <path d="M 221.772555 283.585083 
Q 259.15085 247.23544 285.016488 202.090912 
" clip-path="url(#p244123db42)" style="fill: none; stroke: #0000ff; stroke-opacity: 0.5; stroke-width: 2; stroke-linecap: round"/>
    <path d="M 286.950689 202.738113 
L 286.751835 203.085182 
L 283.281142 201.096642 
L 283.479996 200.749573 
" clip-path="url(#p244123db42)" style="fill: none; stroke: #0000ff; stroke-opacity: 0.5; stroke-width: 2; stroke-linecap: round"/>
   </g>
   <g id="patch_17">
    <path d="M 211.054231 277.680009 
Q 226.936701 182.782473 211.959059 87.88494 
" clip-path="url(#p244123db42)" style="fill: none; stroke: #0000ff; stroke-opacity: 0.5; stroke-width: 2; stroke-linecap: round"/>
    <path d="M 213.872245 87.178031 
L 213.934605 87.57314 
L 209.983514 88.196739 
L 209.921154 87.80163 
" clip-path="url(#p244123db42)" style="fill: none; stroke: #0000ff; stroke-opacity: 0.5; stroke-width: 2; stroke-linecap: round"/>
   </g>
   <g id="patch_18">
    <path d="M 198.77916 279.46753 
Q 152.835116 192.48702 81.718786 124.736427 
" clip-path="url(#p244123db42)" style="fill: none; stroke: #0000ff; stroke-opacity: 0.5; stroke-width: 2; stroke-linecap: round"/>
    <path d="M 82.808705 123.012456 
L 83.098318 123.288362 
L 80.339254 126.184492 
L 80.049642 125.908585 
" clip-path="url(#p244123db42)" style="fill: none; stroke: #0000ff; stroke-opacity: 0.5; stroke-width: 2; stroke-linecap: round"/>
   </g>
   <g id="matplotlib.axis_1">
    <g id="xtick_1"/>
    <g id="xtick_2"/>
    <g id="xtick_3"/>
   </g>
   <g id="matplotlib.axis_2">
    <g id="ytick_1"/>
    <g id="ytick_2"/>
    <g id="ytick_3"/>
    <g id="ytick_4"/>
    <g id="ytick_5"/>
   </g>
   <g id="PathCollection_1">
    <defs>
     <path id="C0_0_cbdcdabd6c" d="M 0 19.364917 
C 5.135636 19.364917 10.061621 17.324507 13.693064 13.693064 
C 17.324507 10.061621 19.364917 5.135636 19.364917 -0 
C 19.364917 -5.135636 17.324507 -10.061621 13.693064 -13.693064 
C 10.061621 -17.324507 5.135636 -19.364917 0 -19.364917 
C -5.135636 -19.364917 -10.061621 -17.324507 -13.693064 -13.693064 
C -17.324507 -10.061621 -19.364917 -5.135636 -19.364917 0 
C -19.364917 5.135636 -17.324507 10.061621 -13.693064 13.693064 
C -10.061621 17.324507 -5.135636 19.364917 0 19.364917 
z
"/>
    </defs>
    <g clip-path="url(#p244123db42)">
     <use xlink:href="#C0_0_cbdcdabd6c" x="296.727273" y="180.000004" style="fill: #4878d0; stroke: #000000"/>
    </g>
    <g clip-path="url(#p244123db42)">
     <use xlink:href="#C0_0_cbdcdabd6c" x="207.555569" y="63.272727" style="fill: #ee854a; stroke: #000000"/>
    </g>
    <g clip-path="url(#p244123db42)">
     <use xlink:href="#C0_0_cbdcdabd6c" x="63.272727" y="107.858582" style="fill: #6acc64; stroke: #000000"/>
    </g>
    <g clip-path="url(#p244123db42)">
     <use xlink:href="#C0_0_cbdcdabd6c" x="63.272735" y="252.141432" style="fill: #d65f5f; stroke: #000000"/>
    </g>
    <g clip-path="url(#p244123db42)">
     <use xlink:href="#C0_0_cbdcdabd6c" x="207.555588" y="296.727273" style="fill: #956cb4; stroke: #000000"/>
    </g>
   </g>
   <g id="patch_19">
    <path d="M 25.92 334.08 
L 25.92 25.92 
" style="fill: none; stroke: #000000; stroke-width: 2.5; stroke-linejoin: miter; stroke-linecap: square"/>
   </g>
   <g id="patch_20">
    <path d="M 334.08 334.08 
L 334.08 25.92 
" style="fill: none; stroke: #000000; stroke-width: 2.5; stroke-linejoin: miter; stroke-linecap: square"/>
   </g>
   <g id="patch_21">
    <path d="M 25.92 334.08 
L 334.08 334.08 
" style="fill: none; stroke: #000000; stroke-width: 2.5; stroke-linejoin: miter; stroke-linecap: square"/>
   </g>
   <g id="patch_22">
    <path d="M 25.92 25.92 
L 334.08 25.92 
" style="fill: none; stroke: #000000; stroke-width: 2.5; stroke-linejoin: miter; stroke-linecap: square"/>
   </g>
   <g id="text_1">
    <g clip-path="url(#p244123db42)">
     <!-- TBX21 -->
     <g transform="translate(277.201023 183.311254) scale(0.12 -0.12)">
      <defs>
       <path id="DejaVuSans-54" d="M -19 4666 
L 3928 4666 
L 3928 4134 
L 2272 4134 
L 2272 0 
L 1638 0 
L 1638 4134 
L -19 4134 
L -19 4666 
z
" transform="scale(0.015625)"/>
       <path id="DejaVuSans-42" d="M 1259 2228 
L 1259 519 
L 2272 519 
Q 2781 519 3026 730 
Q 3272 941 3272 1375 
Q 3272 1813 3026 2020 
Q 2781 2228 2272 2228 
L 1259 2228 
z
M 1259 4147 
L 1259 2741 
L 2194 2741 
Q 2656 2741 2882 2914 
Q 3109 3088 3109 3444 
Q 3109 3797 2882 3972 
Q 2656 4147 2194 4147 
L 1259 4147 
z
M 628 4666 
L 2241 4666 
Q 2963 4666 3353 4366 
Q 3744 4066 3744 3513 
Q 3744 3084 3544 2831 
Q 3344 2578 2956 2516 
Q 3422 2416 3680 2098 
Q 3938 1781 3938 1306 
Q 3938 681 3513 340 
Q 3088 0 2303 0 
L 628 0 
L 628 4666 
z
" transform="scale(0.015625)"/>
       <path id="DejaVuSans-58" d="M 403 4666 
L 1081 4666 
L 2241 2931 
L 3406 4666 
L 4084 4666 
L 2584 2425 
L 4184 0 
L 3506 0 
L 2194 1984 
L 872 0 
L 191 0 
L 1856 2491 
L 403 4666 
z
" transform="scale(0.015625)"/>
       <path id="DejaVuSans-32" d="M 1228 531 
L 3431 531 
L 3431 0 
L 469 0 
L 469 531 
Q 828 903 1448 1529 
Q 2069 2156 2228 2338 
Q 2531 2678 2651 2914 
Q 2772 3150 2772 3378 
Q 2772 3750 2511 3984 
Q 2250 4219 1831 4219 
Q 1534 4219 1204 4116 
Q 875 4013 500 3803 
L 500 4441 
Q 881 4594 1212 4672 
Q 1544 4750 1819 4750 
Q 2544 4750 2975 4387 
Q 3406 4025 3406 3419 
Q 3406 3131 3298 2873 
Q 3191 2616 2906 2266 
Q 2828 2175 2409 1742 
Q 1991 1309 1228 531 
z
" transform="scale(0.015625)"/>
       <path id="DejaVuSans-31" d="M 794 531 
L 1825 531 
L 1825 4091 
L 703 3866 
L 703 4441 
L 1819 4666 
L 2450 4666 
L 2450 531 
L 3481 531 
L 3481 0 
L 794 0 
L 794 531 
z
" transform="scale(0.015625)"/>
      </defs>
      <use xlink:href="#DejaVuSans-54"/>
      <use xlink:href="#DejaVuSans-42" transform="translate(61.083984 0)"/>
      <use xlink:href="#DejaVuSans-58" transform="translate(129.6875 0)"/>
      <use xlink:href="#DejaVuSans-32" transform="translate(198.193359 0)"/>
      <use xlink:href="#DejaVuSans-31" transform="translate(261.816406 0)"/>
     </g>
    </g>
   </g>
   <g id="text_2">
    <g clip-path="url(#p244123db42)">
     <!-- GATA3 -->
     <g transform="translate(188.145569 66.583977) scale(0.12 -0.12)">
      <defs>
       <path id="DejaVuSans-47" d="M 3809 666 
L 3809 1919 
L 2778 1919 
L 2778 2438 
L 4434 2438 
L 4434 434 
Q 4069 175 3628 42 
Q 3188 -91 2688 -91 
Q 1594 -91 976 548 
Q 359 1188 359 2328 
Q 359 3472 976 4111 
Q 1594 4750 2688 4750 
Q 3144 4750 3555 4637 
Q 3966 4525 4313 4306 
L 4313 3634 
Q 3963 3931 3569 4081 
Q 3175 4231 2741 4231 
Q 1884 4231 1454 3753 
Q 1025 3275 1025 2328 
Q 1025 1384 1454 906 
Q 1884 428 2741 428 
Q 3075 428 3337 486 
Q 3600 544 3809 666 
z
" transform="scale(0.015625)"/>
       <path id="DejaVuSans-41" d="M 2188 4044 
L 1331 1722 
L 3047 1722 
L 2188 4044 
z
M 1831 4666 
L 2547 4666 
L 4325 0 
L 3669 0 
L 3244 1197 
L 1141 1197 
L 716 0 
L 50 0 
L 1831 4666 
z
" transform="scale(0.015625)"/>
       <path id="DejaVuSans-33" d="M 2597 2516 
Q 3050 2419 3304 2112 
Q 3559 1806 3559 1356 
Q 3559 666 3084 287 
Q 2609 -91 1734 -91 
Q 1441 -91 1130 -33 
Q 819 25 488 141 
L 488 750 
Q 750 597 1062 519 
Q 1375 441 1716 441 
Q 2309 441 2620 675 
Q 2931 909 2931 1356 
Q 2931 1769 2642 2001 
Q 2353 2234 1838 2234 
L 1294 2234 
L 1294 2753 
L 1863 2753 
Q 2328 2753 2575 2939 
Q 2822 3125 2822 3475 
Q 2822 3834 2567 4026 
Q 2313 4219 1838 4219 
Q 1578 4219 1281 4162 
Q 984 4106 628 3988 
L 628 4550 
Q 988 4650 1302 4700 
Q 1616 4750 1894 4750 
Q 2613 4750 3031 4423 
Q 3450 4097 3450 3541 
Q 3450 3153 3228 2886 
Q 3006 2619 2597 2516 
z
" transform="scale(0.015625)"/>
      </defs>
      <use xlink:href="#DejaVuSans-47"/>
      <use xlink:href="#DejaVuSans-41" transform="translate(77.490234 0)"/>
      <use xlink:href="#DejaVuSans-54" transform="translate(138.148438 0)"/>
      <use xlink:href="#DejaVuSans-41" transform="translate(191.482422 0)"/>
      <use xlink:href="#DejaVuSans-33" transform="translate(259.890625 0)"/>
     </g>
    </g>
   </g>
   <g id="text_3">
    <g clip-path="url(#p244123db42)">
     <!-- RORC -->
     <g transform="translate(46.32179 111.169832) scale(0.12 -0.12)">
      <defs>
       <path id="DejaVuSans-52" d="M 2841 2188 
Q 3044 2119 3236 1894 
Q 3428 1669 3622 1275 
L 4263 0 
L 3584 0 
L 2988 1197 
Q 2756 1666 2539 1819 
Q 2322 1972 1947 1972 
L 1259 1972 
L 1259 0 
L 628 0 
L 628 4666 
L 2053 4666 
Q 2853 4666 3247 4331 
Q 3641 3997 3641 3322 
Q 3641 2881 3436 2590 
Q 3231 2300 2841 2188 
z
M 1259 4147 
L 1259 2491 
L 2053 2491 
Q 2509 2491 2742 2702 
Q 2975 2913 2975 3322 
Q 2975 3731 2742 3939 
Q 2509 4147 2053 4147 
L 1259 4147 
z
" transform="scale(0.015625)"/>
       <path id="DejaVuSans-4f" d="M 2522 4238 
Q 1834 4238 1429 3725 
Q 1025 3213 1025 2328 
Q 1025 1447 1429 934 
Q 1834 422 2522 422 
Q 3209 422 3611 934 
Q 4013 1447 4013 2328 
Q 4013 3213 3611 3725 
Q 3209 4238 2522 4238 
z
M 2522 4750 
Q 3503 4750 4090 4092 
Q 4678 3434 4678 2328 
Q 4678 1225 4090 567 
Q 3503 -91 2522 -91 
Q 1538 -91 948 565 
Q 359 1222 359 2328 
Q 359 3434 948 4092 
Q 1538 4750 2522 4750 
z
" transform="scale(0.015625)"/>
       <path id="DejaVuSans-43" d="M 4122 4306 
L 4122 3641 
Q 3803 3938 3442 4084 
Q 3081 4231 2675 4231 
Q 1875 4231 1450 3742 
Q 1025 3253 1025 2328 
Q 1025 1406 1450 917 
Q 1875 428 2675 428 
Q 3081 428 3442 575 
Q 3803 722 4122 1019 
L 4122 359 
Q 3791 134 3420 21 
Q 3050 -91 2638 -91 
Q 1578 -91 968 557 
Q 359 1206 359 2328 
Q 359 3453 968 4101 
Q 1578 4750 2638 4750 
Q 3056 4750 3426 4639 
Q 3797 4528 4122 4306 
z
" transform="scale(0.015625)"/>
      </defs>
      <use xlink:href="#DejaVuSans-52"/>
      <use xlink:href="#DejaVuSans-4f" transform="translate(69.482422 0)"/>
      <use xlink:href="#DejaVuSans-52" transform="translate(148.193359 0)"/>
      <use xlink:href="#DejaVuSans-43" transform="translate(212.675781 0)"/>
     </g>
    </g>
   </g>
   <g id="text_4">
    <g clip-path="url(#p244123db42)">
     <!-- FOXP3 -->
     <g transform="translate(43.93586 255.452682) scale(0.12 -0.12)">
      <defs>
       <path id="DejaVuSans-46" d="M 628 4666 
L 3309 4666 
L 3309 4134 
L 1259 4134 
L 1259 2759 
L 3109 2759 
L 3109 2228 
L 1259 2228 
L 1259 0 
L 628 0 
L 628 4666 
z
" transform="scale(0.015625)"/>
       <path id="DejaVuSans-50" d="M 1259 4147 
L 1259 2394 
L 2053 2394 
Q 2494 2394 2734 2622 
Q 2975 2850 2975 3272 
Q 2975 3691 2734 3919 
Q 2494 4147 2053 4147 
L 1259 4147 
z
M 628 4666 
L 2053 4666 
Q 2838 4666 3239 4311 
Q 3641 3956 3641 3272 
Q 3641 2581 3239 2228 
Q 2838 1875 2053 1875 
L 1259 1875 
L 1259 0 
L 628 0 
L 628 4666 
z
" transform="scale(0.015625)"/>
      </defs>
      <use xlink:href="#DejaVuSans-46"/>
      <use xlink:href="#DejaVuSans-4f" transform="translate(57.519531 0)"/>
      <use xlink:href="#DejaVuSans-58" transform="translate(129.855469 0)"/>
      <use xlink:href="#DejaVuSans-50" transform="translate(198.361328 0)"/>
      <use xlink:href="#DejaVuSans-33" transform="translate(258.664062 0)"/>
     </g>
    </g>
   </g>
   <g id="text_5">
    <g clip-path="url(#p244123db42)">
     <!-- BCL6 -->
     <g transform="translate(192.193713 300.038523) scale(0.12 -0.12)">
      <defs>
       <path id="DejaVuSans-4c" d="M 628 4666 
L 1259 4666 
L 1259 531 
L 3531 531 
L 3531 0 
L 628 0 
L 628 4666 
z
" transform="scale(0.015625)"/>
       <path id="DejaVuSans-36" d="M 2113 2584 
Q 1688 2584 1439 2293 
Q 1191 2003 1191 1497 
Q 1191 994 1439 701 
Q 1688 409 2113 409 
Q 2538 409 2786 701 
Q 3034 994 3034 1497 
Q 3034 2003 2786 2293 
Q 2538 2584 2113 2584 
z
M 3366 4563 
L 3366 3988 
Q 3128 4100 2886 4159 
Q 2644 4219 2406 4219 
Q 1781 4219 1451 3797 
Q 1122 3375 1075 2522 
Q 1259 2794 1537 2939 
Q 1816 3084 2150 3084 
Q 2853 3084 3261 2657 
Q 3669 2231 3669 1497 
Q 3669 778 3244 343 
Q 2819 -91 2113 -91 
Q 1303 -91 875 529 
Q 447 1150 447 2328 
Q 447 3434 972 4092 
Q 1497 4750 2381 4750 
Q 2619 4750 2861 4703 
Q 3103 4656 3366 4563 
z
" transform="scale(0.015625)"/>
      </defs>
      <use xlink:href="#DejaVuSans-42"/>
      <use xlink:href="#DejaVuSans-43" transform="translate(66.853516 0)"/>
      <use xlink:href="#DejaVuSans-4c" transform="translate(136.677734 0)"/>
      <use xlink:href="#DejaVuSans-36" transform="translate(192.390625 0)"/>
     </g>
    </g>
   </g>
  </g>
 </g>
 <defs>
  <clipPath id="p244123db42">
   <rect x="25.92" y="25.92" width="308.16" height="308.16"/>
  </clipPath>
 </defs>
</svg>
