<?xml version="1.0" encoding="utf-8" standalone="no"?>
<!DOCTYPE svg PUBLIC "-//W3C//DTD SVG 1.1//EN"
  "http://www.w3.org/Graphics/SVG/1.1/DTD/svg11.dtd">
<svg xmlns:xlink="http://www.w3.org/1999/xlink" width="360pt" height="360pt" viewBox="0 0 360 360" xmlns="http://www.w3.org/2000/svg" version="1.1">
 <metadata>
  <rdf:RDF xmlns:dc="http://purl.org/dc/elements/1.1/" xmlns:cc="http://creativecommons.org/ns#" xmlns:rdf="http://www.w3.org/1999/02/22-rdf-syntax-ns#">
   <cc:Work>
    <dc:type rdf:resource="http://purl.org/dc/dcmitype/StillImage"/>
    <dc:date>2024-04-08T12:32:36.702154</dc:date>
    <dc:format>image/svg+xml</dc:format>
    <dc:creator>
     <cc:Agent>
      <dc:title>Matplotlib v3.8.3, https://matplotlib.org/</dc:title>
     </cc:Agent>
    </dc:creator>
   </cc:Work>
  </rdf:RDF>
 </metadata>
 <defs>
  <style type="text/css">*{stroke-linejoin: round; stroke-linecap: butt}</style>
 </defs>
 <g id="figure_1">
  <g id="patch_1">
   <path d="M 0 360 
L 360 360 
L 360 0 
L 0 0 
z
" style="fill: #ffffff"/>
  </g>
  <g id="axes_1">
   <g id="patch_2">
    <path d="M 25.92 334.08 
L 334.08 334.08 
L 334.08 25.92 
L 25.92 25.92 
z
" style="fill: #ffffff"/>
   </g>
   <g id="patch_3">
    <path d="M 278.198742 195.241768 
Q 337.257164 179.999924 278.19816 164.758082 
" clip-path="url(#p0fb08a38a3)" style="fill: none; opacity: 0.5; stroke: #0000ff; stroke-width: 2; stroke-linecap: round"/>
    <path d="M 278.310631 162.721577 
L 278.69794 162.821533 
L 277.698379 166.69463 
L 277.311069 166.594674 
" clip-path="url(#p0fb08a38a3)" style="fill: none; opacity: 0.5; stroke: #0000ff; stroke-width: 2; stroke-linecap: round"/>
   </g>
   <g id="patch_4">
    <path d="M 251.026231 109.853835 
Q 275.63688 52.819177 226.511137 90.835312 
" clip-path="url(#p0fb08a38a3)" style="fill: none; opacity: 0.5; stroke: #0000ff; stroke-width: 2; stroke-linecap: round"/>
    <path d="M 224.970785 89.498407 
L 225.287126 89.253605 
L 227.735147 92.41702 
L 227.418805 92.661822 
" clip-path="url(#p0fb08a38a3)" style="fill: none; opacity: 0.5; stroke: #0000ff; stroke-width: 2; stroke-linecap: round"/>
   </g>
   <g id="patch_5">
    <path d="M 165.54538 77.291869 
Q 137.091703 21.393323 134.967293 84.079975 
" clip-path="url(#p0fb08a38a3)" style="fill: none; opacity: 0.5; stroke: #0000ff; stroke-width: 2; stroke-linecap: round"/>
    <path d="M 132.954892 84.412006 
L 132.96844 84.012235 
L 136.966145 84.147715 
L 136.952597 84.547485 
" clip-path="url(#p0fb08a38a3)" style="fill: none; opacity: 0.5; stroke: #0000ff; stroke-width: 2; stroke-linecap: round"/>
   </g>
   <g id="patch_6">
    <path d="M 86.049002 122.048889 
Q 26.012594 109.429751 72.44911 149.520604 
" clip-path="url(#p0fb08a38a3)" style="fill: none; opacity: 0.5; stroke: #0000ff; stroke-width: 2; stroke-linecap: round"/>
    <path d="M 71.444893 151.295864 
L 71.142121 151.034466 
L 73.7561 148.006742 
L 74.058872 148.26814 
" clip-path="url(#p0fb08a38a3)" style="fill: none; opacity: 0.5; stroke: #0000ff; stroke-width: 2; stroke-linecap: round"/>
   </g>
   <g id="patch_7">
    <path d="M 72.449021 210.479468 
Q 26.012605 250.570267 86.049117 237.951082 
" clip-path="url(#p0fb08a38a3)" style="fill: none; opacity: 0.5; stroke: #0000ff; stroke-width: 2; stroke-linecap: round"/>
    <path d="M 86.851957 239.826034 
L 86.460511 239.908313 
L 85.637723 235.99385 
L 86.029169 235.911572 
" clip-path="url(#p0fb08a38a3)" style="fill: none; opacity: 0.5; stroke: #0000ff; stroke-width: 2; stroke-linecap: round"/>
   </g>
   <g id="patch_8">
    <path d="M 134.967249 275.918922 
Q 137.091425 338.606616 165.544873 282.709115 
" clip-path="url(#p0fb08a38a3)" style="fill: none; opacity: 0.5; stroke: #0000ff; stroke-width: 2; stroke-linecap: round"/>
    <path d="M 167.5087 283.259919 
L 167.327244 283.616393 
L 163.762502 281.801836 
L 163.943958 281.445362 
" clip-path="url(#p0fb08a38a3)" style="fill: none; opacity: 0.5; stroke: #0000ff; stroke-width: 2; stroke-linecap: round"/>
   </g>
   <g id="patch_9">
    <path d="M 226.510634 269.164324 
Q 275.636732 307.180937 251.026456 250.14674 
" clip-path="url(#p0fb08a38a3)" style="fill: none; opacity: 0.5; stroke: #0000ff; stroke-width: 2; stroke-linecap: round"/>
    <path d="M 252.704317 248.987092 
L 252.862793 249.35436 
L 249.190119 250.93912 
L 249.031643 250.571853 
" clip-path="url(#p0fb08a38a3)" style="fill: none; opacity: 0.5; stroke: #0000ff; stroke-width: 2; stroke-linecap: round"/>
   </g>
   <g id="patch_10">
    <path d="M 261.027225 161.549321 
Q 254.824867 144.905195 245.798477 129.659121 
" clip-path="url(#p0fb08a38a3)" style="fill: none; stroke: #0000ff; stroke-opacity: 0.5; stroke-width: 2; stroke-linecap: round"/>
    <path d="M 247.31569 128.296013 
L 247.519471 128.640211 
L 244.077482 130.678031 
L 243.8737 130.333832 
" clip-path="url(#p0fb08a38a3)" style="fill: none; stroke: #0000ff; stroke-opacity: 0.5; stroke-width: 2; stroke-linecap: round"/>
   </g>
   <g id="patch_11">
    <path d="M 253.874943 165.688042 
Q 218.618827 128.954771 174.75171 103.321615 
" clip-path="url(#p0fb08a38a3)" style="fill: none; stroke: #0000ff; stroke-opacity: 0.5; stroke-width: 2; stroke-linecap: round"/>
    <path d="M 175.415384 101.393004 
L 175.760744 101.594811 
L 173.742676 105.048418 
L 173.397315 104.846611 
" clip-path="url(#p0fb08a38a3)" style="fill: none; stroke: #0000ff; stroke-opacity: 0.5; stroke-width: 2; stroke-linecap: round"/>
   </g>
   <g id="patch_12">
    <path d="M 249.053334 172.537495 
Q 183.985519 146.905392 114.367737 141.766019 
" clip-path="url(#p0fb08a38a3)" style="fill: none; stroke: #0000ff; stroke-opacity: 0.5; stroke-width: 2; stroke-linecap: round"/>
    <path d="M 114.116068 139.741998 
L 114.514982 139.771447 
L 114.220493 143.760592 
L 113.821578 143.731143 
" clip-path="url(#p0fb08a38a3)" style="fill: none; stroke: #0000ff; stroke-opacity: 0.5; stroke-width: 2; stroke-linecap: round"/>
   </g>
   <g id="patch_13">
    <path d="M 247.574051 180.799917 
Q 177.772718 185.112584 112.52135 209.91798 
" clip-path="url(#p0fb08a38a3)" style="fill: none; stroke: #0000ff; stroke-opacity: 0.5; stroke-width: 2; stroke-linecap: round"/>
    <path d="M 111.436773 208.190643 
L 111.810668 208.048506 
L 113.232033 211.787453 
L 112.858139 211.929589 
" clip-path="url(#p0fb08a38a3)" style="fill: none; stroke: #0000ff; stroke-opacity: 0.5; stroke-width: 2; stroke-linecap: round"/>
   </g>
   <g id="patch_14">
    <path d="M 249.814674 189.07802 
Q 205.470049 214.09564 169.736424 250.213375 
" clip-path="url(#p0fb08a38a3)" style="fill: none; stroke: #0000ff; stroke-opacity: 0.5; stroke-width: 2; stroke-linecap: round"/>
    <path d="M 168.033343 249.091093 
L 168.31467 248.806742 
L 171.158177 251.620009 
L 170.87685 251.904359 
" clip-path="url(#p0fb08a38a3)" style="fill: none; stroke: #0000ff; stroke-opacity: 0.5; stroke-width: 2; stroke-linecap: round"/>
   </g>
   <g id="patch_15">
    <path d="M 255.821204 195.873416 
Q 246.346114 210.897363 239.695057 227.319362 
" clip-path="url(#p0fb08a38a3)" style="fill: none; stroke: #0000ff; stroke-opacity: 0.5; stroke-width: 2; stroke-linecap: round"/>
    <path d="M 237.691167 226.93933 
L 237.841323 226.568583 
L 241.548791 228.070141 
L 241.398635 228.440888 
" clip-path="url(#p0fb08a38a3)" style="fill: none; stroke: #0000ff; stroke-opacity: 0.5; stroke-width: 2; stroke-linecap: round"/>
   </g>
   <g id="patch_16">
    <path d="M 237.652858 127.426943 
Q 243.855216 144.071068 252.881606 159.317142 
" clip-path="url(#p0fb08a38a3)" style="fill: none; stroke: #0000ff; stroke-opacity: 0.5; stroke-width: 2; stroke-linecap: round"/>
    <path d="M 251.364393 160.680251 
L 251.160611 160.336052 
L 254.602601 158.298232 
L 254.806383 158.642431 
" clip-path="url(#p0fb08a38a3)" style="fill: none; stroke: #0000ff; stroke-opacity: 0.5; stroke-width: 2; stroke-linecap: round"/>
   </g>
   <g id="patch_17">
    <path d="M 213.707565 101.974266 
Q 196.059212 96.057315 177.676654 93.447174 
" clip-path="url(#p0fb08a38a3)" style="fill: none; stroke: #0000ff; stroke-opacity: 0.5; stroke-width: 2; stroke-linecap: round"/>
    <path d="M 177.561786 91.410804 
L 177.957814 91.467036 
L 177.395493 95.427313 
L 176.999466 95.371081 
" clip-path="url(#p0fb08a38a3)" style="fill: none; stroke: #0000ff; stroke-opacity: 0.5; stroke-width: 2; stroke-linecap: round"/>
   </g>
   <g id="patch_18">
    <path d="M 212.415704 109.873883 
Q 160.949661 113.579397 112.581912 131.239411 
" clip-path="url(#p0fb08a38a3)" style="fill: none; stroke: #0000ff; stroke-opacity: 0.5; stroke-width: 2; stroke-linecap: round"/>
    <path d="M 111.520228 129.49791 
L 111.895966 129.360721 
L 113.267859 133.118101 
L 112.892121 133.255291 
" clip-path="url(#p0fb08a38a3)" style="fill: none; stroke: #0000ff; stroke-opacity: 0.5; stroke-width: 2; stroke-linecap: round"/>
   </g>
   <g id="patch_19">
    <path d="M 214.60982 117.966068 
Q 154.097032 151.290956 106.25718 200.952045 
" clip-path="url(#p0fb08a38a3)" style="fill: none; stroke: #0000ff; stroke-opacity: 0.5; stroke-width: 2; stroke-linecap: round"/>
    <path d="M 104.539291 199.852566 
L 104.816802 199.56449 
L 107.697559 202.3396 
L 107.420048 202.627676 
" clip-path="url(#p0fb08a38a3)" style="fill: none; stroke: #0000ff; stroke-opacity: 0.5; stroke-width: 2; stroke-linecap: round"/>
   </g>
   <g id="patch_20">
    <path d="M 220.252155 124.548413 
Q 180.97862 180.076327 159.880053 244.601855 
" clip-path="url(#p0fb08a38a3)" style="fill: none; stroke: #0000ff; stroke-opacity: 0.5; stroke-width: 2; stroke-linecap: round"/>
    <path d="M 157.854779 244.360471 
L 157.979094 243.98028 
L 161.781012 245.223431 
L 161.656697 245.603623 
" clip-path="url(#p0fb08a38a3)" style="fill: none; stroke: #0000ff; stroke-opacity: 0.5; stroke-width: 2; stroke-linecap: round"/>
   </g>
   <g id="patch_21">
    <path d="M 228.456552 128.054356 
Q 221.26684 177.205711 227.683034 226.357067 
" clip-path="url(#p0fb08a38a3)" style="fill: none; stroke: #0000ff; stroke-opacity: 0.5; stroke-width: 2; stroke-linecap: round"/>
    <path d="M 225.751636 227.012584 
L 225.699859 226.615949 
L 229.666208 226.098184 
L 229.717984 226.494819 
" clip-path="url(#p0fb08a38a3)" style="fill: none; stroke: #0000ff; stroke-opacity: 0.5; stroke-width: 2; stroke-linecap: round"/>
   </g>
   <g id="patch_22">
    <path d="M 165.799826 105.74681 
Q 201.055943 142.480081 244.923059 168.113237 
" clip-path="url(#p0fb08a38a3)" style="fill: none; stroke: #0000ff; stroke-opacity: 0.5; stroke-width: 2; stroke-linecap: round"/>
    <path d="M 244.259386 170.041847 
L 243.914025 169.840041 
L 245.932094 166.386434 
L 246.277454 166.588241 
" clip-path="url(#p0fb08a38a3)" style="fill: none; stroke: #0000ff; stroke-opacity: 0.5; stroke-width: 2; stroke-linecap: round"/>
   </g>
   <g id="patch_23">
    <path d="M 170.806532 98.436848 
Q 188.454885 104.353799 206.837444 106.96394 
" clip-path="url(#p0fb08a38a3)" style="fill: none; stroke: #0000ff; stroke-opacity: 0.5; stroke-width: 2; stroke-linecap: round"/>
    <path d="M 206.952311 109.000311 
L 206.556284 108.944079 
L 207.118604 104.983802 
L 207.514631 105.040034 
" clip-path="url(#p0fb08a38a3)" style="fill: none; stroke: #0000ff; stroke-opacity: 0.5; stroke-width: 2; stroke-linecap: round"/>
   </g>
   <g id="patch_24">
    <path d="M 135.844085 100.864616 
Q 120.34947 110.485205 106.867028 122.699611 
" clip-path="url(#p0fb08a38a3)" style="fill: none; stroke: #0000ff; stroke-opacity: 0.5; stroke-width: 2; stroke-linecap: round"/>
    <path d="M 105.227795 121.485974 
L 105.524234 121.217415 
L 108.209822 124.181807 
L 107.913383 124.450366 
" clip-path="url(#p0fb08a38a3)" style="fill: none; stroke: #0000ff; stroke-opacity: 0.5; stroke-width: 2; stroke-linecap: round"/>
   </g>
   <g id="patch_25">
    <path d="M 141.324085 107.07062 
Q 112.846093 148.236367 96.683143 195.49874 
" clip-path="url(#p0fb08a38a3)" style="fill: none; stroke: #0000ff; stroke-opacity: 0.5; stroke-width: 2; stroke-linecap: round"/>
    <path d="M 94.66131 195.23005 
L 94.790744 194.85157 
L 98.575541 196.145909 
L 98.446107 196.524388 
" clip-path="url(#p0fb08a38a3)" style="fill: none; stroke: #0000ff; stroke-opacity: 0.5; stroke-width: 2; stroke-linecap: round"/>
   </g>
   <g id="patch_26">
    <path d="M 149.352139 110.497656 
Q 138.880922 177.213734 148.512578 243.929813 
" clip-path="url(#p0fb08a38a3)" style="fill: none; stroke: #0000ff; stroke-opacity: 0.5; stroke-width: 2; stroke-linecap: round"/>
    <path d="M 146.590255 244.611482 
L 146.5331 244.215586 
L 150.492056 243.64404 
L 150.549211 244.039936 
" clip-path="url(#p0fb08a38a3)" style="fill: none; stroke: #0000ff; stroke-opacity: 0.5; stroke-width: 2; stroke-linecap: round"/>
   </g>
   <g id="patch_27">
    <path d="M 158.160362 110.027621 
Q 178.504741 174.926512 217.024089 230.827791 
" clip-path="url(#p0fb08a38a3)" style="fill: none; stroke: #0000ff; stroke-opacity: 0.5; stroke-width: 2; stroke-linecap: round"/>
    <path d="M 215.604166 232.29197 
L 215.377206 231.962593 
L 218.670973 229.69299 
L 218.897933 230.022366 
" clip-path="url(#p0fb08a38a3)" style="fill: none; stroke: #0000ff; stroke-opacity: 0.5; stroke-width: 2; stroke-linecap: round"/>
   </g>
   <g id="patch_28">
    <path d="M 107.264097 148.047299 
Q 172.331912 173.679401 241.949694 178.818775 
" clip-path="url(#p0fb08a38a3)" style="fill: none; stroke: #0000ff; stroke-opacity: 0.5; stroke-width: 2; stroke-linecap: round"/>
    <path d="M 242.201364 180.842796 
L 241.802449 180.813347 
L 242.096939 176.824202 
L 242.495853 176.853651 
" clip-path="url(#p0fb08a38a3)" style="fill: none; stroke: #0000ff; stroke-opacity: 0.5; stroke-width: 2; stroke-linecap: round"/>
   </g>
   <g id="patch_29">
    <path d="M 108.741055 139.687173 
Q 160.207098 135.98166 208.574847 118.321645 
" clip-path="url(#p0fb08a38a3)" style="fill: none; stroke: #0000ff; stroke-opacity: 0.5; stroke-width: 2; stroke-linecap: round"/>
    <path d="M 209.636531 120.063146 
L 209.260793 120.200336 
L 207.8889 116.442955 
L 208.264638 116.305766 
" clip-path="url(#p0fb08a38a3)" style="fill: none; stroke: #0000ff; stroke-opacity: 0.5; stroke-width: 2; stroke-linecap: round"/>
   </g>
   <g id="patch_30">
    <path d="M 106.307361 131.15503 
Q 121.801976 121.53444 135.284418 109.320034 
" clip-path="url(#p0fb08a38a3)" style="fill: none; stroke: #0000ff; stroke-opacity: 0.5; stroke-width: 2; stroke-linecap: round"/>
    <path d="M 136.923651 110.533671 
L 136.627212 110.80223 
L 133.941624 107.837838 
L 134.238063 107.569279 
" clip-path="url(#p0fb08a38a3)" style="fill: none; stroke: #0000ff; stroke-opacity: 0.5; stroke-width: 2; stroke-linecap: round"/>
   </g>
   <g id="patch_31">
    <path d="M 86.498011 159.729459 
Q 84.702268 177.188194 85.999822 194.64693 
" clip-path="url(#p0fb08a38a3)" style="fill: none; stroke: #0000ff; stroke-opacity: 0.5; stroke-width: 2; stroke-linecap: round"/>
    <path d="M 84.03497 195.194063 
L 84.005323 194.795163 
L 87.994322 194.498696 
L 88.023968 194.897596 
" clip-path="url(#p0fb08a38a3)" style="fill: none; stroke: #0000ff; stroke-opacity: 0.5; stroke-width: 2; stroke-linecap: round"/>
   </g>
   <g id="patch_32">
    <path d="M 94.900448 159.154711 
Q 110.369351 206.760676 138.153296 248.270016 
" clip-path="url(#p0fb08a38a3)" style="fill: none; stroke: #0000ff; stroke-opacity: 0.5; stroke-width: 2; stroke-linecap: round"/>
    <path d="M 136.713746 249.714902 
L 136.491251 249.382493 
L 139.815342 247.157539 
L 140.037837 247.489948 
" clip-path="url(#p0fb08a38a3)" style="fill: none; stroke: #0000ff; stroke-opacity: 0.5; stroke-width: 2; stroke-linecap: round"/>
   </g>
   <g id="patch_33">
    <path d="M 102.368024 154.96148 
Q 149.689939 205.290216 209.684793 239.282753 
" clip-path="url(#p0fb08a38a3)" style="fill: none; stroke: #0000ff; stroke-opacity: 0.5; stroke-width: 2; stroke-linecap: round"/>
    <path d="M 209.046888 241.220039 
L 208.698867 241.022854 
L 210.670718 237.542652 
L 211.018738 237.739837 
" clip-path="url(#p0fb08a38a3)" style="fill: none; stroke: #0000ff; stroke-opacity: 0.5; stroke-width: 2; stroke-linecap: round"/>
   </g>
   <g id="patch_34">
    <path d="M 108.74338 218.615285 
Q 178.544713 214.302618 243.796081 189.497222 
" clip-path="url(#p0fb08a38a3)" style="fill: none; stroke: #0000ff; stroke-opacity: 0.5; stroke-width: 2; stroke-linecap: round"/>
    <path d="M 244.880658 191.224559 
L 244.506763 191.366695 
L 243.085398 187.627749 
L 243.459293 187.485612 
" clip-path="url(#p0fb08a38a3)" style="fill: none; stroke: #0000ff; stroke-opacity: 0.5; stroke-width: 2; stroke-linecap: round"/>
   </g>
   <g id="patch_35">
    <path d="M 106.546939 210.425396 
Q 167.059727 177.100508 214.899579 127.439419 
" clip-path="url(#p0fb08a38a3)" style="fill: none; stroke: #0000ff; stroke-opacity: 0.5; stroke-width: 2; stroke-linecap: round"/>
    <path d="M 216.617468 128.538899 
L 216.339957 128.826974 
L 213.4592 126.051864 
L 213.736711 125.763788 
" clip-path="url(#p0fb08a38a3)" style="fill: none; stroke: #0000ff; stroke-opacity: 0.5; stroke-width: 2; stroke-linecap: round"/>
   </g>
   <g id="patch_36">
    <path d="M 100.827361 203.779433 
Q 129.305353 162.613686 145.468303 115.351313 
" clip-path="url(#p0fb08a38a3)" style="fill: none; stroke: #0000ff; stroke-opacity: 0.5; stroke-width: 2; stroke-linecap: round"/>
    <path d="M 147.490136 115.620003 
L 147.360702 115.998483 
L 143.575905 114.704144 
L 143.705339 114.325665 
" clip-path="url(#p0fb08a38a3)" style="fill: none; stroke: #0000ff; stroke-opacity: 0.5; stroke-width: 2; stroke-linecap: round"/>
   </g>
   <g id="patch_37">
    <path d="M 92.296096 200.270536 
Q 94.09184 182.811801 92.794285 165.353065 
" clip-path="url(#p0fb08a38a3)" style="fill: none; stroke: #0000ff; stroke-opacity: 0.5; stroke-width: 2; stroke-linecap: round"/>
    <path d="M 94.759138 164.805932 
L 94.788784 165.204832 
L 90.799786 165.501299 
L 90.770139 165.102399 
" clip-path="url(#p0fb08a38a3)" style="fill: none; stroke: #0000ff; stroke-opacity: 0.5; stroke-width: 2; stroke-linecap: round"/>
   </g>
   <g id="patch_38">
    <path d="M 102.734615 233.450456 
Q 115.905077 246.067023 131.087713 256.089773 
" clip-path="url(#p0fb08a38a3)" style="fill: none; stroke: #0000ff; stroke-opacity: 0.5; stroke-width: 2; stroke-linecap: round"/>
    <path d="M 130.319681 257.979251 
L 129.985859 257.75888 
L 132.189567 254.420666 
L 132.523388 254.641037 
" clip-path="url(#p0fb08a38a3)" style="fill: none; stroke: #0000ff; stroke-opacity: 0.5; stroke-width: 2; stroke-linecap: round"/>
   </g>
   <g id="patch_39">
    <path d="M 107.303336 226.788198 
Q 155.501717 245.211009 206.798394 249.679321 
" clip-path="url(#p0fb08a38a3)" style="fill: none; stroke: #0000ff; stroke-opacity: 0.5; stroke-width: 2; stroke-linecap: round"/>
    <path d="M 207.023327 251.706488 
L 206.624836 251.671776 
L 206.971951 247.686866 
L 207.370442 247.721577 
" clip-path="url(#p0fb08a38a3)" style="fill: none; stroke: #0000ff; stroke-opacity: 0.5; stroke-width: 2; stroke-linecap: round"/>
   </g>
   <g id="patch_40">
    <path d="M 169.86009 259.487129 
Q 214.204715 234.469509 249.93834 198.351774 
" clip-path="url(#p0fb08a38a3)" style="fill: none; stroke: #0000ff; stroke-opacity: 0.5; stroke-width: 2; stroke-linecap: round"/>
    <path d="M 251.64142 199.474056 
L 251.360094 199.758407 
L 248.516587 196.945141 
L 248.797913 196.66079 
" clip-path="url(#p0fb08a38a3)" style="fill: none; stroke: #0000ff; stroke-opacity: 0.5; stroke-width: 2; stroke-linecap: round"/>
   </g>
   <g id="patch_41">
    <path d="M 164.261937 252.992999 
Q 203.535472 197.465085 224.634039 132.939557 
" clip-path="url(#p0fb08a38a3)" style="fill: none; stroke: #0000ff; stroke-opacity: 0.5; stroke-width: 2; stroke-linecap: round"/>
    <path d="M 226.659312 133.180941 
L 226.534997 133.561132 
L 222.73308 132.317981 
L 222.857395 131.937789 
" clip-path="url(#p0fb08a38a3)" style="fill: none; stroke: #0000ff; stroke-opacity: 0.5; stroke-width: 2; stroke-linecap: round"/>
   </g>
   <g id="patch_42">
    <path d="M 156.156639 249.502344 
Q 166.627857 182.786266 156.9962 116.070188 
" clip-path="url(#p0fb08a38a3)" style="fill: none; stroke: #0000ff; stroke-opacity: 0.5; stroke-width: 2; stroke-linecap: round"/>
    <path d="M 158.918524 115.388519 
L 158.975679 115.784415 
L 155.016722 116.355961 
L 154.959568 115.960065 
" clip-path="url(#p0fb08a38a3)" style="fill: none; stroke: #0000ff; stroke-opacity: 0.5; stroke-width: 2; stroke-linecap: round"/>
   </g>
   <g id="patch_43">
    <path d="M 147.250992 249.995231 
Q 131.782089 202.389267 103.998144 160.879927 
" clip-path="url(#p0fb08a38a3)" style="fill: none; stroke: #0000ff; stroke-opacity: 0.5; stroke-width: 2; stroke-linecap: round"/>
    <path d="M 105.437694 159.435041 
L 105.660189 159.76745 
L 102.336098 161.992404 
L 102.113603 161.659994 
" clip-path="url(#p0fb08a38a3)" style="fill: none; stroke: #0000ff; stroke-opacity: 0.5; stroke-width: 2; stroke-linecap: round"/>
   </g>
   <g id="patch_44">
    <path d="M 139.416825 254.529894 
Q 126.246363 241.913328 111.063727 231.890577 
" clip-path="url(#p0fb08a38a3)" style="fill: none; stroke: #0000ff; stroke-opacity: 0.5; stroke-width: 2; stroke-linecap: round"/>
    <path d="M 111.831759 230.0011 
L 112.165581 230.22147 
L 109.961874 233.559685 
L 109.628052 233.339314 
" clip-path="url(#p0fb08a38a3)" style="fill: none; stroke: #0000ff; stroke-opacity: 0.5; stroke-width: 2; stroke-linecap: round"/>
   </g>
   <g id="patch_45">
    <path d="M 172.073531 267.269666 
Q 190.567643 265.161971 208.32755 259.747465 
" clip-path="url(#p0fb08a38a3)" style="fill: none; stroke: #0000ff; stroke-opacity: 0.5; stroke-width: 2; stroke-linecap: round"/>
    <path d="M 209.293405 261.543885 
L 208.910792 261.660533 
L 207.744308 257.834397 
L 208.126922 257.717749 
" clip-path="url(#p0fb08a38a3)" style="fill: none; stroke: #0000ff; stroke-opacity: 0.5; stroke-width: 2; stroke-linecap: round"/>
   </g>
   <g id="patch_46">
    <path d="M 242.858862 235.150332 
Q 252.333952 220.126386 258.985009 203.704386 
" clip-path="url(#p0fb08a38a3)" style="fill: none; stroke: #0000ff; stroke-opacity: 0.5; stroke-width: 2; stroke-linecap: round"/>
    <path d="M 260.988899 204.084419 
L 260.838743 204.455165 
L 257.131275 202.953607 
L 257.28143 202.582861 
" clip-path="url(#p0fb08a38a3)" style="fill: none; stroke: #0000ff; stroke-opacity: 0.5; stroke-width: 2; stroke-linecap: round"/>
   </g>
   <g id="patch_47">
    <path d="M 235.062842 231.945655 
Q 242.252553 182.794301 235.83636 133.642945 
" clip-path="url(#p0fb08a38a3)" style="fill: none; stroke: #0000ff; stroke-opacity: 0.5; stroke-width: 2; stroke-linecap: round"/>
    <path d="M 237.767758 132.987427 
L 237.819534 133.384062 
L 233.853186 133.901827 
L 233.801409 133.505192 
" clip-path="url(#p0fb08a38a3)" style="fill: none; stroke: #0000ff; stroke-opacity: 0.5; stroke-width: 2; stroke-linecap: round"/>
   </g>
   <g id="patch_48">
    <path d="M 226.353719 232.430979 
Q 206.00934 167.532088 167.489991 111.630809 
" clip-path="url(#p0fb08a38a3)" style="fill: none; stroke: #0000ff; stroke-opacity: 0.5; stroke-width: 2; stroke-linecap: round"/>
    <path d="M 168.909914 110.16663 
L 169.136875 110.496007 
L 165.843108 112.76561 
L 165.616148 112.436234 
" clip-path="url(#p0fb08a38a3)" style="fill: none; stroke: #0000ff; stroke-opacity: 0.5; stroke-width: 2; stroke-linecap: round"/>
   </g>
   <g id="patch_49">
    <path d="M 218.788719 236.647062 
Q 171.466803 186.318326 111.47195 152.325789 
" clip-path="url(#p0fb08a38a3)" style="fill: none; stroke: #0000ff; stroke-opacity: 0.5; stroke-width: 2; stroke-linecap: round"/>
    <path d="M 112.109855 150.388503 
L 112.457875 150.585688 
L 110.486024 154.06589 
L 110.138004 153.868705 
" clip-path="url(#p0fb08a38a3)" style="fill: none; stroke: #0000ff; stroke-opacity: 0.5; stroke-width: 2; stroke-linecap: round"/>
   </g>
   <g id="patch_50">
    <path d="M 213.853406 243.650751 
Q 165.655025 225.227941 114.358349 220.759629 
" clip-path="url(#p0fb08a38a3)" style="fill: none; stroke: #0000ff; stroke-opacity: 0.5; stroke-width: 2; stroke-linecap: round"/>
    <path d="M 114.133415 218.732462 
L 114.531906 218.767174 
L 114.184791 222.752084 
L 113.7863 222.717373 
" clip-path="url(#p0fb08a38a3)" style="fill: none; stroke: #0000ff; stroke-opacity: 0.5; stroke-width: 2; stroke-linecap: round"/>
   </g>
   <g id="patch_51">
    <path d="M 212.440544 252.319231 
Q 193.946432 254.426927 176.186525 259.841432 
" clip-path="url(#p0fb08a38a3)" style="fill: none; stroke: #0000ff; stroke-opacity: 0.5; stroke-width: 2; stroke-linecap: round"/>
    <path d="M 175.22067 258.045012 
L 175.603283 257.928364 
L 176.769767 261.7545 
L 176.387153 261.871148 
" clip-path="url(#p0fb08a38a3)" style="fill: none; stroke: #0000ff; stroke-opacity: 0.5; stroke-width: 2; stroke-linecap: round"/>
   </g>
   <g id="matplotlib.axis_1">
    <g id="xtick_1"/>
    <g id="xtick_2"/>
    <g id="xtick_3"/>
   </g>
   <g id="matplotlib.axis_2">
    <g id="ytick_1"/>
    <g id="ytick_2"/>
    <g id="ytick_3"/>
    <g id="ytick_4"/>
    <g id="ytick_5"/>
    <g id="ytick_6"/>
    <g id="ytick_7"/>
   </g>
   <g id="PathCollection_1">
    <defs>
     <path id="C0_0_cbdcdabd6c" d="M 0 19.364917 
C 5.135636 19.364917 10.061621 17.324507 13.693064 13.693064 
C 17.324507 10.061621 19.364917 5.135636 19.364917 -0 
C 19.364917 -5.135636 17.324507 -10.061621 13.693064 -13.693064 
C 10.061621 -17.324507 5.135636 -19.364917 0 -19.364917 
C -5.135636 -19.364917 -10.061621 -17.324507 -13.693064 -13.693064 
C -17.324507 -10.061621 -19.364917 -5.135636 -19.364917 0 
C -19.364917 5.135636 -17.324507 10.061621 -13.693064 13.693064 
C -10.061621 17.324507 -5.135636 19.364917 0 19.364917 
z
"/>
    </defs>
    <g clip-path="url(#p0fb08a38a3)">
     <use xlink:href="#C0_0_cbdcdabd6c" x="266.920377" y="180" style="fill: #4878d0; stroke: #000000"/>
    </g>
    <g clip-path="url(#p0fb08a38a3)">
     <use xlink:href="#C0_0_cbdcdabd6c" x="231.759705" y="108.976263" style="fill: #ee854a; stroke: #000000"/>
    </g>
    <g clip-path="url(#p0fb08a38a3)">
     <use xlink:href="#C0_0_cbdcdabd6c" x="152.754392" y="91.434852" style="fill: #6acc64; stroke: #000000"/>
    </g>
    <g clip-path="url(#p0fb08a38a3)">
     <use xlink:href="#C0_0_cbdcdabd6c" x="89.397054" y="140.584794" style="fill: #d65f5f; stroke: #000000"/>
    </g>
    <g clip-path="url(#p0fb08a38a3)">
     <use xlink:href="#C0_0_cbdcdabd6c" x="89.397054" y="219.415201" style="fill: #956cb4; stroke: #000000"/>
    </g>
    <g clip-path="url(#p0fb08a38a3)">
     <use xlink:href="#C0_0_cbdcdabd6c" x="152.754387" y="268.565149" style="fill: #8c613c; stroke: #000000"/>
    </g>
    <g clip-path="url(#p0fb08a38a3)">
     <use xlink:href="#C0_0_cbdcdabd6c" x="231.759688" y="251.023748" style="fill: #dc7ec0; stroke: #000000"/>
    </g>
   </g>
   <g id="patch_52">
    <path d="M 25.92 334.08 
L 25.92 25.92 
" style="fill: none; stroke: #000000; stroke-width: 2.5; stroke-linejoin: miter; stroke-linecap: square"/>
   </g>
   <g id="patch_53">
    <path d="M 334.08 334.08 
L 334.08 25.92 
" style="fill: none; stroke: #000000; stroke-width: 2.5; stroke-linejoin: miter; stroke-linecap: square"/>
   </g>
   <g id="patch_54">
    <path d="M 25.92 334.08 
L 334.08 334.08 
" style="fill: none; stroke: #000000; stroke-width: 2.5; stroke-linejoin: miter; stroke-linecap: square"/>
   </g>
   <g id="patch_55">
    <path d="M 25.92 25.92 
L 334.08 25.92 
" style="fill: none; stroke: #000000; stroke-width: 2.5; stroke-linejoin: miter; stroke-linecap: square"/>
   </g>
   <g id="text_1">
    <g clip-path="url(#p0fb08a38a3)">
     <!-- A -->
     <g transform="translate(262.816002 183.31125) scale(0.12 -0.12)">
      <defs>
       <path id="DejaVuSans-41" d="M 2188 4044 
L 1331 1722 
L 3047 1722 
L 2188 4044 
z
M 1831 4666 
L 2547 4666 
L 4325 0 
L 3669 0 
L 3244 1197 
L 1141 1197 
L 716 0 
L 50 0 
L 1831 4666 
z
" transform="scale(0.015625)"/>
      </defs>
      <use xlink:href="#DejaVuSans-41"/>
     </g>
    </g>
   </g>
   <g id="text_2">
    <g clip-path="url(#p0fb08a38a3)">
     <!-- B -->
     <g transform="translate(227.643143 112.287513) scale(0.12 -0.12)">
      <defs>
       <path id="DejaVuSans-42" d="M 1259 2228 
L 1259 519 
L 2272 519 
Q 2781 519 3026 730 
Q 3272 941 3272 1375 
Q 3272 1813 3026 2020 
Q 2781 2228 2272 2228 
L 1259 2228 
z
M 1259 4147 
L 1259 2741 
L 2194 2741 
Q 2656 2741 2882 2914 
Q 3109 3088 3109 3444 
Q 3109 3797 2882 3972 
Q 2656 4147 2194 4147 
L 1259 4147 
z
M 628 4666 
L 2241 4666 
Q 2963 4666 3353 4366 
Q 3744 4066 3744 3513 
Q 3744 3084 3544 2831 
Q 3344 2578 2956 2516 
Q 3422 2416 3680 2098 
Q 3938 1781 3938 1306 
Q 3938 681 3513 340 
Q 3088 0 2303 0 
L 628 0 
L 628 4666 
z
" transform="scale(0.015625)"/>
      </defs>
      <use xlink:href="#DejaVuSans-42"/>
     </g>
    </g>
   </g>
   <g id="text_3">
    <g clip-path="url(#p0fb08a38a3)">
     <!-- C -->
     <g transform="translate(148.564705 94.746102) scale(0.12 -0.12)">
      <defs>
       <path id="DejaVuSans-43" d="M 4122 4306 
L 4122 3641 
Q 3803 3938 3442 4084 
Q 3081 4231 2675 4231 
Q 1875 4231 1450 3742 
Q 1025 3253 1025 2328 
Q 1025 1406 1450 917 
Q 1875 428 2675 428 
Q 3081 428 3442 575 
Q 3803 722 4122 1019 
L 4122 359 
Q 3791 134 3420 21 
Q 3050 -91 2638 -91 
Q 1578 -91 968 557 
Q 359 1206 359 2328 
Q 359 3453 968 4101 
Q 1578 4750 2638 4750 
Q 3056 4750 3426 4639 
Q 3797 4528 4122 4306 
z
" transform="scale(0.015625)"/>
      </defs>
      <use xlink:href="#DejaVuSans-43"/>
     </g>
    </g>
   </g>
   <g id="text_4">
    <g clip-path="url(#p0fb08a38a3)">
     <!-- D -->
     <g transform="translate(84.777054 143.896044) scale(0.12 -0.12)">
      <defs>
       <path id="DejaVuSans-44" d="M 1259 4147 
L 1259 519 
L 2022 519 
Q 2988 519 3436 956 
Q 3884 1394 3884 2338 
Q 3884 3275 3436 3711 
Q 2988 4147 2022 4147 
L 1259 4147 
z
M 628 4666 
L 1925 4666 
Q 3281 4666 3915 4102 
Q 4550 3538 4550 2338 
Q 4550 1131 3912 565 
Q 3275 0 1925 0 
L 628 0 
L 628 4666 
z
" transform="scale(0.015625)"/>
      </defs>
      <use xlink:href="#DejaVuSans-44"/>
     </g>
    </g>
   </g>
   <g id="text_5">
    <g clip-path="url(#p0fb08a38a3)">
     <!-- E -->
     <g transform="translate(85.605804 222.726451) scale(0.12 -0.12)">
      <defs>
       <path id="DejaVuSans-45" d="M 628 4666 
L 3578 4666 
L 3578 4134 
L 1259 4134 
L 1259 2753 
L 3481 2753 
L 3481 2222 
L 1259 2222 
L 1259 531 
L 3634 531 
L 3634 0 
L 628 0 
L 628 4666 
z
" transform="scale(0.015625)"/>
      </defs>
      <use xlink:href="#DejaVuSans-45"/>
     </g>
    </g>
   </g>
   <g id="text_6">
    <g clip-path="url(#p0fb08a38a3)">
     <!-- F -->
     <g transform="translate(149.303449 271.876399) scale(0.12 -0.12)">
      <defs>
       <path id="DejaVuSans-46" d="M 628 4666 
L 3309 4666 
L 3309 4134 
L 1259 4134 
L 1259 2759 
L 3109 2759 
L 3109 2228 
L 1259 2228 
L 1259 0 
L 628 0 
L 628 4666 
z
" transform="scale(0.015625)"/>
      </defs>
      <use xlink:href="#DejaVuSans-46"/>
     </g>
    </g>
   </g>
   <g id="text_7">
    <g clip-path="url(#p0fb08a38a3)">
     <!-- G -->
     <g transform="translate(227.110626 254.334998) scale(0.12 -0.12)">
      <defs>
       <path id="DejaVuSans-47" d="M 3809 666 
L 3809 1919 
L 2778 1919 
L 2778 2438 
L 4434 2438 
L 4434 434 
Q 4069 175 3628 42 
Q 3188 -91 2688 -91 
Q 1594 -91 976 548 
Q 359 1188 359 2328 
Q 359 3472 976 4111 
Q 1594 4750 2688 4750 
Q 3144 4750 3555 4637 
Q 3966 4525 4313 4306 
L 4313 3634 
Q 3963 3931 3569 4081 
Q 3175 4231 2741 4231 
Q 1884 4231 1454 3753 
Q 1025 3275 1025 2328 
Q 1025 1384 1454 906 
Q 1884 428 2741 428 
Q 3075 428 3337 486 
Q 3600 544 3809 666 
z
" transform="scale(0.015625)"/>
      </defs>
      <use xlink:href="#DejaVuSans-47"/>
     </g>
    </g>
   </g>
  </g>
 </g>
 <defs>
  <clipPath id="p0fb08a38a3">
   <rect x="25.92" y="25.92" width="308.16" height="308.16"/>
  </clipPath>
 </defs>
</svg>
