<?xml version="1.0" encoding="utf-8" standalone="no"?>
<!DOCTYPE svg PUBLIC "-//W3C//DTD SVG 1.1//EN"
  "http://www.w3.org/Graphics/SVG/1.1/DTD/svg11.dtd">
<svg xmlns:xlink="http://www.w3.org/1999/xlink" width="360pt" height="360pt" viewBox="0 0 360 360" xmlns="http://www.w3.org/2000/svg" version="1.1">
 <metadata>
  <rdf:RDF xmlns:dc="http://purl.org/dc/elements/1.1/" xmlns:cc="http://creativecommons.org/ns#" xmlns:rdf="http://www.w3.org/1999/02/22-rdf-syntax-ns#">
   <cc:Work>
    <dc:type rdf:resource="http://purl.org/dc/dcmitype/StillImage"/>
    <dc:date>2024-04-08T12:32:36.286472</dc:date>
    <dc:format>image/svg+xml</dc:format>
    <dc:creator>
     <cc:Agent>
      <dc:title>Matplotlib v3.8.3, https://matplotlib.org/</dc:title>
     </cc:Agent>
    </dc:creator>
   </cc:Work>
  </rdf:RDF>
 </metadata>
 <defs>
  <style type="text/css">*{stroke-linejoin: round; stroke-linecap: butt}</style>
 </defs>
 <g id="figure_1">
  <g id="patch_1">
   <path d="M 0 360 
L 360 360 
L 360 0 
L 0 0 
z
" style="fill: #ffffff"/>
  </g>
  <g id="axes_1">
   <g id="patch_2">
    <path d="M 25.92 334.08 
L 334.08 334.08 
L 334.08 25.92 
L 25.92 25.92 
z
" style="fill: #ffffff"/>
   </g>
   <g id="patch_3">
    <path d="M 276.630442 195.623754 
Q 337.214017 180.000111 276.631272 164.376468 
" clip-path="url(#p0fb08a38a3)" style="fill: none; opacity: 0.5; stroke: #0000ff; stroke-width: 2; stroke-linecap: round"/>
    <path d="M 276.743383 162.339943 
L 277.13071 162.439831 
L 276.131834 166.313104 
L 275.744507 166.213217 
" clip-path="url(#p0fb08a38a3)" style="fill: none; opacity: 0.5; stroke: #0000ff; stroke-width: 2; stroke-linecap: round"/>
   </g>
   <g id="patch_4">
    <path d="M 216.478391 85.639282 
Q 219.591647 19.971154 185.150921 75.965376 
" clip-path="url(#p0fb08a38a3)" style="fill: none; opacity: 0.5; stroke: #0000ff; stroke-width: 2; stroke-linecap: round"/>
    <path d="M 183.237807 75.258272 
L 183.44737 74.917562 
L 186.854472 77.01319 
L 186.644909 77.3539 
" clip-path="url(#p0fb08a38a3)" style="fill: none; opacity: 0.5; stroke: #0000ff; stroke-width: 2; stroke-linecap: round"/>
   </g>
   <g id="patch_5">
    <path d="M 87.917295 106.01258 
Q 29.170217 81.129026 68.570342 131.306605 
" clip-path="url(#p0fb08a38a3)" style="fill: none; opacity: 0.5; stroke: #0000ff; stroke-width: 2; stroke-linecap: round"/>
    <path d="M 67.244355 132.856365 
L 66.997323 132.541761 
L 70.143362 130.071449 
L 70.390393 130.386053 
" clip-path="url(#p0fb08a38a3)" style="fill: none; opacity: 0.5; stroke: #0000ff; stroke-width: 2; stroke-linecap: round"/>
   </g>
   <g id="patch_6">
    <path d="M 68.571644 228.691758 
Q 29.169908 278.870576 87.91537 253.988251 
" clip-path="url(#p0fb08a38a3)" style="fill: none; opacity: 0.5; stroke: #0000ff; stroke-width: 2; stroke-linecap: round"/>
    <path d="M 89.06373 255.673858 
L 88.695407 255.829865 
L 87.135333 252.146637 
L 87.503656 251.99063 
" clip-path="url(#p0fb08a38a3)" style="fill: none; opacity: 0.5; stroke: #0000ff; stroke-width: 2; stroke-linecap: round"/>
   </g>
   <g id="patch_7">
    <path d="M 185.148903 284.031319 
Q 219.590747 340.02913 216.478591 274.364597 
" clip-path="url(#p0fb08a38a3)" style="fill: none; opacity: 0.5; stroke: #0000ff; stroke-width: 2; stroke-linecap: round"/>
    <path d="M 218.457411 273.870362 
L 218.476348 274.269913 
L 214.480833 274.45928 
L 214.461896 274.059728 
" clip-path="url(#p0fb08a38a3)" style="fill: none; opacity: 0.5; stroke: #0000ff; stroke-width: 2; stroke-linecap: round"/>
   </g>
   <g id="patch_8">
    <path d="M 255.80369 162.90196 
Q 238.797981 133.35416 215.275348 108.790381 
" clip-path="url(#p0fb08a38a3)" style="fill: none; stroke: #0000ff; stroke-opacity: 0.5; stroke-width: 2; stroke-linecap: round"/>
    <path d="M 216.443189 107.118213 
L 216.719843 107.407112 
L 213.830853 110.17365 
L 213.554199 109.884751 
" clip-path="url(#p0fb08a38a3)" style="fill: none; stroke: #0000ff; stroke-opacity: 0.5; stroke-width: 2; stroke-linecap: round"/>
   </g>
   <g id="patch_9">
    <path d="M 247.689021 171.109243 
Q 183.29239 139.447547 112.504847 128.490267 
" clip-path="url(#p0fb08a38a3)" style="fill: none; stroke: #0000ff; stroke-opacity: 0.5; stroke-width: 2; stroke-linecap: round"/>
    <path d="M 112.415494 126.452618 
L 112.810786 126.513805 
L 112.198909 130.466729 
L 111.803616 130.405541 
" clip-path="url(#p0fb08a38a3)" style="fill: none; stroke: #0000ff; stroke-opacity: 0.5; stroke-width: 2; stroke-linecap: round"/>
   </g>
   <g id="patch_10">
    <path d="M 245.671271 182.35393 
Q 174.632584 192.497581 109.984809 223.345647 
" clip-path="url(#p0fb08a38a3)" style="fill: none; stroke: #0000ff; stroke-opacity: 0.5; stroke-width: 2; stroke-linecap: round"/>
    <path d="M 108.762492 221.712876 
L 109.123498 221.540614 
L 110.846119 225.150681 
L 110.485112 225.322943 
" clip-path="url(#p0fb08a38a3)" style="fill: none; stroke: #0000ff; stroke-opacity: 0.5; stroke-width: 2; stroke-linecap: round"/>
   </g>
   <g id="patch_11">
    <path d="M 250.77458 193.251876 
Q 226.712371 217.402993 209.167085 246.538129 
" clip-path="url(#p0fb08a38a3)" style="fill: none; stroke: #0000ff; stroke-opacity: 0.5; stroke-width: 2; stroke-linecap: round"/>
    <path d="M 207.247413 245.849026 
L 207.453767 245.506363 
L 210.880403 247.569895 
L 210.674049 247.912559 
" clip-path="url(#p0fb08a38a3)" style="fill: none; stroke: #0000ff; stroke-opacity: 0.5; stroke-width: 2; stroke-linecap: round"/>
   </g>
   <g id="patch_12">
    <path d="M 206.306359 108.603113 
Q 223.312069 138.150912 246.834702 162.714691 
" clip-path="url(#p0fb08a38a3)" style="fill: none; stroke: #0000ff; stroke-opacity: 0.5; stroke-width: 2; stroke-linecap: round"/>
    <path d="M 245.666861 164.386859 
L 245.390207 164.097961 
L 248.279197 161.331422 
L 248.555851 161.620321 
" clip-path="url(#p0fb08a38a3)" style="fill: none; stroke: #0000ff; stroke-opacity: 0.5; stroke-width: 2; stroke-linecap: round"/>
   </g>
   <g id="patch_13">
    <path d="M 178.026382 94.096679 
Q 142.80383 100.028344 110.162082 114.320952 
" clip-path="url(#p0fb08a38a3)" style="fill: none; stroke: #0000ff; stroke-opacity: 0.5; stroke-width: 2; stroke-linecap: round"/>
    <path d="M 108.993473 112.649321 
L 109.359887 112.488882 
L 110.964278 116.153023 
L 110.597864 116.313462 
" clip-path="url(#p0fb08a38a3)" style="fill: none; stroke: #0000ff; stroke-opacity: 0.5; stroke-width: 2; stroke-linecap: round"/>
   </g>
   <g id="patch_14">
    <path d="M 182.92568 104.577117 
Q 132.890918 152.275186 99.292904 212.543769 
" clip-path="url(#p0fb08a38a3)" style="fill: none; stroke: #0000ff; stroke-opacity: 0.5; stroke-width: 2; stroke-linecap: round"/>
    <path d="M 97.351243 211.919305 
L 97.546012 211.569927 
L 101.039796 213.517611 
L 100.845027 213.86699 
" clip-path="url(#p0fb08a38a3)" style="fill: none; stroke: #0000ff; stroke-opacity: 0.5; stroke-width: 2; stroke-linecap: round"/>
   </g>
   <g id="patch_15">
    <path d="M 193.813296 110.568964 
Q 183.356171 177.210852 192.97315 243.852738 
" clip-path="url(#p0fb08a38a3)" style="fill: none; stroke: #0000ff; stroke-opacity: 0.5; stroke-width: 2; stroke-linecap: round"/>
    <path d="M 191.050786 244.534294 
L 190.993655 244.138395 
L 194.952645 243.56708 
L 195.009776 243.962979 
" clip-path="url(#p0fb08a38a3)" style="fill: none; stroke: #0000ff; stroke-opacity: 0.5; stroke-width: 2; stroke-linecap: round"/>
   </g>
   <g id="patch_16">
    <path d="M 104.913684 134.197889 
Q 169.310314 165.859584 240.097857 176.816864 
" clip-path="url(#p0fb08a38a3)" style="fill: none; stroke: #0000ff; stroke-opacity: 0.5; stroke-width: 2; stroke-linecap: round"/>
    <path d="M 240.187211 178.854514 
L 239.791919 178.793326 
L 240.403796 174.840402 
L 240.799088 174.90159 
" clip-path="url(#p0fb08a38a3)" style="fill: none; stroke: #0000ff; stroke-opacity: 0.5; stroke-width: 2; stroke-linecap: round"/>
   </g>
   <g id="patch_17">
    <path d="M 106.897058 122.715517 
Q 142.119611 116.783852 174.761358 102.491244 
" clip-path="url(#p0fb08a38a3)" style="fill: none; stroke: #0000ff; stroke-opacity: 0.5; stroke-width: 2; stroke-linecap: round"/>
    <path d="M 175.929968 104.162875 
L 175.563554 104.323314 
L 173.959162 100.659173 
L 174.325577 100.498734 
" clip-path="url(#p0fb08a38a3)" style="fill: none; stroke: #0000ff; stroke-opacity: 0.5; stroke-width: 2; stroke-linecap: round"/>
   </g>
   <g id="patch_18">
    <path d="M 84.554485 144.41158 
Q 80.287502 177.199443 83.882924 209.987305 
" clip-path="url(#p0fb08a38a3)" style="fill: none; stroke: #0000ff; stroke-opacity: 0.5; stroke-width: 2; stroke-linecap: round"/>
    <path d="M 81.938442 210.602929 
L 81.894841 210.205312 
L 85.871006 209.769297 
L 85.914608 210.166914 
" clip-path="url(#p0fb08a38a3)" style="fill: none; stroke: #0000ff; stroke-opacity: 0.5; stroke-width: 2; stroke-linecap: round"/>
   </g>
   <g id="patch_19">
    <path d="M 96.581038 142.521784 
Q 129.509034 203.302788 178.873776 251.513276 
" clip-path="url(#p0fb08a38a3)" style="fill: none; stroke: #0000ff; stroke-opacity: 0.5; stroke-width: 2; stroke-linecap: round"/>
    <path d="M 177.762558 253.223596 
L 177.47639 252.944119 
L 180.271163 250.082433 
L 180.557331 250.36191 
" clip-path="url(#p0fb08a38a3)" style="fill: none; stroke: #0000ff; stroke-opacity: 0.5; stroke-width: 2; stroke-linecap: round"/>
   </g>
   <g id="patch_20">
    <path d="M 106.931439 232.338958 
Q 177.970127 222.195307 242.617902 191.347241 
" clip-path="url(#p0fb08a38a3)" style="fill: none; stroke: #0000ff; stroke-opacity: 0.5; stroke-width: 2; stroke-linecap: round"/>
    <path d="M 243.840219 192.980013 
L 243.479212 193.152275 
L 241.756592 189.542208 
L 242.117598 189.369946 
" clip-path="url(#p0fb08a38a3)" style="fill: none; stroke: #0000ff; stroke-opacity: 0.5; stroke-width: 2; stroke-linecap: round"/>
   </g>
   <g id="patch_21">
    <path d="M 101.997766 221.620837 
Q 152.032528 173.922768 185.630542 113.654184 
" clip-path="url(#p0fb08a38a3)" style="fill: none; stroke: #0000ff; stroke-opacity: 0.5; stroke-width: 2; stroke-linecap: round"/>
    <path d="M 187.572203 114.278648 
L 187.377434 114.628027 
L 183.883651 112.680342 
L 184.078419 112.330964 
" clip-path="url(#p0fb08a38a3)" style="fill: none; stroke: #0000ff; stroke-opacity: 0.5; stroke-width: 2; stroke-linecap: round"/>
   </g>
   <g id="patch_22">
    <path d="M 90.861616 215.588433 
Q 95.128599 182.80057 91.533178 150.012708 
" clip-path="url(#p0fb08a38a3)" style="fill: none; stroke: #0000ff; stroke-opacity: 0.5; stroke-width: 2; stroke-linecap: round"/>
    <path d="M 93.477659 149.397084 
L 93.52126 149.794701 
L 89.545095 150.230716 
L 89.501493 149.833099 
" clip-path="url(#p0fb08a38a3)" style="fill: none; stroke: #0000ff; stroke-opacity: 0.5; stroke-width: 2; stroke-linecap: round"/>
   </g>
   <g id="patch_23">
    <path d="M 105.019265 243.367938 
Q 137.457071 258.321256 172.475681 264.91363 
" clip-path="url(#p0fb08a38a3)" style="fill: none; stroke: #0000ff; stroke-opacity: 0.5; stroke-width: 2; stroke-linecap: round"/>
    <path d="M 172.498769 266.953107 
L 172.105674 266.879105 
L 172.845689 262.948154 
L 173.238784 263.022156 
" clip-path="url(#p0fb08a38a3)" style="fill: none; stroke: #0000ff; stroke-opacity: 0.5; stroke-width: 2; stroke-linecap: round"/>
   </g>
   <g id="patch_24">
    <path d="M 211.335484 255.243061 
Q 235.397694 231.091945 252.94298 201.956808 
" clip-path="url(#p0fb08a38a3)" style="fill: none; stroke: #0000ff; stroke-opacity: 0.5; stroke-width: 2; stroke-linecap: round"/>
    <path d="M 254.862651 202.645911 
L 254.656297 202.988575 
L 251.229662 200.925042 
L 251.436015 200.582378 
" clip-path="url(#p0fb08a38a3)" style="fill: none; stroke: #0000ff; stroke-opacity: 0.5; stroke-width: 2; stroke-linecap: round"/>
   </g>
   <g id="patch_25">
    <path d="M 200.617504 249.431038 
Q 211.074629 182.78915 201.45765 116.147264 
" clip-path="url(#p0fb08a38a3)" style="fill: none; stroke: #0000ff; stroke-opacity: 0.5; stroke-width: 2; stroke-linecap: round"/>
    <path d="M 203.380014 115.465708 
L 203.437145 115.861607 
L 199.478155 116.432922 
L 199.421024 116.037023 
" clip-path="url(#p0fb08a38a3)" style="fill: none; stroke: #0000ff; stroke-opacity: 0.5; stroke-width: 2; stroke-linecap: round"/>
   </g>
   <g id="patch_26">
    <path d="M 188.342417 251.280277 
Q 155.414421 190.499273 106.049679 142.288786 
" clip-path="url(#p0fb08a38a3)" style="fill: none; stroke: #0000ff; stroke-opacity: 0.5; stroke-width: 2; stroke-linecap: round"/>
    <path d="M 107.160897 140.578466 
L 107.447065 140.857943 
L 104.652292 143.719628 
L 104.366124 143.440151 
" clip-path="url(#p0fb08a38a3)" style="fill: none; stroke: #0000ff; stroke-opacity: 0.5; stroke-width: 2; stroke-linecap: round"/>
   </g>
   <g id="patch_27">
    <path d="M 179.904196 259.81988 
Q 147.46639 244.866562 112.44778 238.274189 
" clip-path="url(#p0fb08a38a3)" style="fill: none; stroke: #0000ff; stroke-opacity: 0.5; stroke-width: 2; stroke-linecap: round"/>
    <path d="M 112.424692 236.234712 
L 112.817787 236.308713 
L 112.077772 240.239664 
L 111.684677 240.165663 
" clip-path="url(#p0fb08a38a3)" style="fill: none; stroke: #0000ff; stroke-opacity: 0.5; stroke-width: 2; stroke-linecap: round"/>
   </g>
   <g id="matplotlib.axis_1">
    <g id="xtick_1"/>
    <g id="xtick_2"/>
    <g id="xtick_3"/>
   </g>
   <g id="matplotlib.axis_2">
    <g id="ytick_1"/>
    <g id="ytick_2"/>
    <g id="ytick_3"/>
    <g id="ytick_4"/>
    <g id="ytick_5"/>
    <g id="ytick_6"/>
    <g id="ytick_7"/>
   </g>
   <g id="PathCollection_1">
    <defs>
     <path id="C0_0_cbdcdabd6c" d="M 0 19.364917 
C 5.135636 19.364917 10.061621 17.324507 13.693064 13.693064 
C 17.324507 10.061621 19.364917 5.135636 19.364917 -0 
C 19.364917 -5.135636 17.324507 -10.061621 13.693064 -13.693064 
C 10.061621 -17.324507 5.135636 -19.364917 0 -19.364917 
C -5.135636 -19.364917 -10.061621 -17.324507 -13.693064 -13.693064 
C -17.324507 -10.061621 -19.364917 -5.135636 -19.364917 0 
C -19.364917 5.135636 -17.324507 10.061621 -13.693064 13.693064 
C -10.061621 17.324507 -5.135636 19.364917 0 19.364917 
z
"/>
    </defs>
    <g clip-path="url(#p0fb08a38a3)">
     <use xlink:href="#C0_0_cbdcdabd6c" x="264.894657" y="180.000004" style="fill: #4878d0; stroke: #000000"/>
    </g>
    <g clip-path="url(#p0fb08a38a3)">
     <use xlink:href="#C0_0_cbdcdabd6c" x="197.215393" y="91.505068" style="fill: #ee854a; stroke: #000000"/>
    </g>
    <g clip-path="url(#p0fb08a38a3)">
     <use xlink:href="#C0_0_cbdcdabd6c" x="87.708048" y="125.307128" style="fill: #6acc64; stroke: #000000"/>
    </g>
    <g clip-path="url(#p0fb08a38a3)">
     <use xlink:href="#C0_0_cbdcdabd6c" x="87.708054" y="234.692885" style="fill: #d65f5f; stroke: #000000"/>
    </g>
    <g clip-path="url(#p0fb08a38a3)">
     <use xlink:href="#C0_0_cbdcdabd6c" x="197.215407" y="268.494934" style="fill: #956cb4; stroke: #000000"/>
    </g>
   </g>
   <g id="patch_28">
    <path d="M 25.92 334.08 
L 25.92 25.92 
" style="fill: none; stroke: #000000; stroke-width: 2.5; stroke-linejoin: miter; stroke-linecap: square"/>
   </g>
   <g id="patch_29">
    <path d="M 334.08 334.08 
L 334.08 25.92 
" style="fill: none; stroke: #000000; stroke-width: 2.5; stroke-linejoin: miter; stroke-linecap: square"/>
   </g>
   <g id="patch_30">
    <path d="M 25.92 334.08 
L 334.08 334.08 
" style="fill: none; stroke: #000000; stroke-width: 2.5; stroke-linejoin: miter; stroke-linecap: square"/>
   </g>
   <g id="patch_31">
    <path d="M 25.92 25.92 
L 334.08 25.92 
" style="fill: none; stroke: #000000; stroke-width: 2.5; stroke-linejoin: miter; stroke-linecap: square"/>
   </g>
   <g id="text_1">
    <g clip-path="url(#p0fb08a38a3)">
     <!-- A -->
     <g transform="translate(260.790282 183.311254) scale(0.12 -0.12)">
      <defs>
       <path id="DejaVuSans-41" d="M 2188 4044 
L 1331 1722 
L 3047 1722 
L 2188 4044 
z
M 1831 4666 
L 2547 4666 
L 4325 0 
L 3669 0 
L 3244 1197 
L 1141 1197 
L 716 0 
L 50 0 
L 1831 4666 
z
" transform="scale(0.015625)"/>
      </defs>
      <use xlink:href="#DejaVuSans-41"/>
     </g>
    </g>
   </g>
   <g id="text_2">
    <g clip-path="url(#p0fb08a38a3)">
     <!-- B -->
     <g transform="translate(193.09883 94.816318) scale(0.12 -0.12)">
      <defs>
       <path id="DejaVuSans-42" d="M 1259 2228 
L 1259 519 
L 2272 519 
Q 2781 519 3026 730 
Q 3272 941 3272 1375 
Q 3272 1813 3026 2020 
Q 2781 2228 2272 2228 
L 1259 2228 
z
M 1259 4147 
L 1259 2741 
L 2194 2741 
Q 2656 2741 2882 2914 
Q 3109 3088 3109 3444 
Q 3109 3797 2882 3972 
Q 2656 4147 2194 4147 
L 1259 4147 
z
M 628 4666 
L 2241 4666 
Q 2963 4666 3353 4366 
Q 3744 4066 3744 3513 
Q 3744 3084 3544 2831 
Q 3344 2578 2956 2516 
Q 3422 2416 3680 2098 
Q 3938 1781 3938 1306 
Q 3938 681 3513 340 
Q 3088 0 2303 0 
L 628 0 
L 628 4666 
z
" transform="scale(0.015625)"/>
      </defs>
      <use xlink:href="#DejaVuSans-42"/>
     </g>
    </g>
   </g>
   <g id="text_3">
    <g clip-path="url(#p0fb08a38a3)">
     <!-- C -->
     <g transform="translate(83.51836 128.618378) scale(0.12 -0.12)">
      <defs>
       <path id="DejaVuSans-43" d="M 4122 4306 
L 4122 3641 
Q 3803 3938 3442 4084 
Q 3081 4231 2675 4231 
Q 1875 4231 1450 3742 
Q 1025 3253 1025 2328 
Q 1025 1406 1450 917 
Q 1875 428 2675 428 
Q 3081 428 3442 575 
Q 3803 722 4122 1019 
L 4122 359 
Q 3791 134 3420 21 
Q 3050 -91 2638 -91 
Q 1578 -91 968 557 
Q 359 1206 359 2328 
Q 359 3453 968 4101 
Q 1578 4750 2638 4750 
Q 3056 4750 3426 4639 
Q 3797 4528 4122 4306 
z
" transform="scale(0.015625)"/>
      </defs>
      <use xlink:href="#DejaVuSans-43"/>
     </g>
    </g>
   </g>
   <g id="text_4">
    <g clip-path="url(#p0fb08a38a3)">
     <!-- D -->
     <g transform="translate(83.088054 238.004135) scale(0.12 -0.12)">
      <defs>
       <path id="DejaVuSans-44" d="M 1259 4147 
L 1259 519 
L 2022 519 
Q 2988 519 3436 956 
Q 3884 1394 3884 2338 
Q 3884 3275 3436 3711 
Q 2988 4147 2022 4147 
L 1259 4147 
z
M 628 4666 
L 1925 4666 
Q 3281 4666 3915 4102 
Q 4550 3538 4550 2338 
Q 4550 1131 3912 565 
Q 3275 0 1925 0 
L 628 0 
L 628 4666 
z
" transform="scale(0.015625)"/>
      </defs>
      <use xlink:href="#DejaVuSans-44"/>
     </g>
    </g>
   </g>
   <g id="text_5">
    <g clip-path="url(#p0fb08a38a3)">
     <!-- E -->
     <g transform="translate(193.424157 271.806184) scale(0.12 -0.12)">
      <defs>
       <path id="DejaVuSans-45" d="M 628 4666 
L 3578 4666 
L 3578 4134 
L 1259 4134 
L 1259 2753 
L 3481 2753 
L 3481 2222 
L 1259 2222 
L 1259 531 
L 3634 531 
L 3634 0 
L 628 0 
L 628 4666 
z
" transform="scale(0.015625)"/>
      </defs>
      <use xlink:href="#DejaVuSans-45"/>
     </g>
    </g>
   </g>
  </g>
 </g>
 <defs>
  <clipPath id="p0fb08a38a3">
   <rect x="25.92" y="25.92" width="308.16" height="308.16"/>
  </clipPath>
 </defs>
</svg>
