<?xml version="1.0" encoding="utf-8" standalone="no"?>
<!DOCTYPE svg PUBLIC "-//W3C//DTD SVG 1.1//EN"
  "http://www.w3.org/Graphics/SVG/1.1/DTD/svg11.dtd">
<svg xmlns:xlink="http://www.w3.org/1999/xlink" width="360pt" height="360pt" viewBox="0 0 360 360" xmlns="http://www.w3.org/2000/svg" version="1.1">
 <metadata>
  <rdf:RDF xmlns:dc="http://purl.org/dc/elements/1.1/" xmlns:cc="http://creativecommons.org/ns#" xmlns:rdf="http://www.w3.org/1999/02/22-rdf-syntax-ns#">
   <cc:Work>
    <dc:type rdf:resource="http://purl.org/dc/dcmitype/StillImage"/>
    <dc:date>2024-03-07T12:19:42.612542</dc:date>
    <dc:format>image/svg+xml</dc:format>
    <dc:creator>
     <cc:Agent>
      <dc:title>Matplotlib v3.7.1, https://matplotlib.org/</dc:title>
     </cc:Agent>
    </dc:creator>
   </cc:Work>
  </rdf:RDF>
 </metadata>
 <defs>
  <style type="text/css">*{stroke-linejoin: round; stroke-linecap: butt}</style>
 </defs>
 <g id="figure_1">
  <g id="patch_1">
   <path d="M 0 360 
L 360 360 
L 360 0 
L 0 0 
z
" style="fill: #ffffff"/>
  </g>
  <g id="axes_1">
   <g id="patch_2">
    <path d="M 45 320.4 
L 324 320.4 
L 324 43.2 
L 45 43.2 
z
" style="fill: #ffffff"/>
   </g>
   <g id="patch_3">
    <path d="M 281.135856 164.674019 
Q 259.111589 125.674834 227.672825 93.914386 
" clip-path="url(#pbeba6508dd)" style="fill: none; stroke: #0000ff; stroke-opacity: 0.5; stroke-width: 2; stroke-linecap: round"/>
    <path d="M 228.812819 92.223111 
L 229.094218 92.507389 
L 226.251431 95.321383 
L 225.970032 95.037105 
" clip-path="url(#pbeba6508dd)" style="fill: none; stroke: #0000ff; stroke-opacity: 0.5; stroke-width: 2; stroke-linecap: round"/>
   </g>
   <g id="patch_4">
    <path d="M 272.991345 172.879731 
Q 192.490059 132.801417 103.63001 119.948274 
" clip-path="url(#pbeba6508dd)" style="fill: none; stroke: #0000ff; stroke-opacity: 0.5; stroke-width: 2; stroke-linecap: round"/>
    <path d="M 103.52044 117.911611 
L 103.91632 117.968873 
L 103.3437 121.927674 
L 102.94782 121.870412 
" clip-path="url(#pbeba6508dd)" style="fill: none; stroke: #0000ff; stroke-opacity: 0.5; stroke-width: 2; stroke-linecap: round"/>
   </g>
   <g id="patch_5">
    <path d="M 270.947412 184.06302 
Q 181.825428 196.063012 101.062207 235.288173 
" clip-path="url(#pbeba6508dd)" style="fill: none; stroke: #0000ff; stroke-opacity: 0.5; stroke-width: 2; stroke-linecap: round"/>
    <path d="M 99.828639 233.663885 
L 100.188447 233.489133 
L 101.935966 237.087213 
L 101.576158 237.261965 
" clip-path="url(#pbeba6508dd)" style="fill: none; stroke: #0000ff; stroke-opacity: 0.5; stroke-width: 2; stroke-linecap: round"/>
   </g>
   <g id="patch_6">
    <path d="M 275.954749 194.942269 
Q 243.923023 226.246787 221.305793 264.790041 
" clip-path="url(#pbeba6508dd)" style="fill: none; stroke: #0000ff; stroke-opacity: 0.5; stroke-width: 2; stroke-linecap: round"/>
    <path d="M 219.378404 264.122828 
L 219.580845 263.777839 
L 223.030742 265.802243 
L 222.828301 266.147232 
" clip-path="url(#pbeba6508dd)" style="fill: none; stroke: #0000ff; stroke-opacity: 0.5; stroke-width: 2; stroke-linecap: round"/>
   </g>
   <g id="patch_7">
    <path d="M 218.494053 93.925984 
Q 240.51832 132.925169 271.957084 164.685617 
" clip-path="url(#pbeba6508dd)" style="fill: none; stroke: #0000ff; stroke-opacity: 0.5; stroke-width: 2; stroke-linecap: round"/>
    <path d="M 270.81709 166.376893 
L 270.535691 166.092614 
L 273.378478 163.27862 
L 273.659877 163.562899 
" clip-path="url(#pbeba6508dd)" style="fill: none; stroke: #0000ff; stroke-opacity: 0.5; stroke-width: 2; stroke-linecap: round"/>
   </g>
   <g id="patch_8">
    <path d="M 190.237934 79.262498 
Q 143.874363 86.494853 101.217282 105.799548 
" clip-path="url(#pbeba6508dd)" style="fill: none; stroke: #0000ff; stroke-opacity: 0.5; stroke-width: 2; stroke-linecap: round"/>
    <path d="M 100.028263 104.142372 
L 100.392683 103.977452 
L 102.041882 107.621644 
L 101.677463 107.786564 
" clip-path="url(#pbeba6508dd)" style="fill: none; stroke: #0000ff; stroke-opacity: 0.5; stroke-width: 2; stroke-linecap: round"/>
   </g>
   <g id="patch_9">
    <path d="M 195.085709 89.784813 
Q 131.956398 148.870609 90.369571 224.520259 
" clip-path="url(#pbeba6508dd)" style="fill: none; stroke: #0000ff; stroke-opacity: 0.5; stroke-width: 2; stroke-linecap: round"/>
    <path d="M 88.424245 223.907313 
L 88.616939 223.556786 
L 92.122204 225.483733 
L 91.929509 225.834259 
" clip-path="url(#pbeba6508dd)" style="fill: none; stroke: #0000ff; stroke-opacity: 0.5; stroke-width: 2; stroke-linecap: round"/>
   </g>
   <g id="patch_10">
    <path d="M 205.983741 95.849835 
Q 192.368212 179.016127 205.101757 262.182417 
" clip-path="url(#pbeba6508dd)" style="fill: none; stroke: #0000ff; stroke-opacity: 0.5; stroke-width: 2; stroke-linecap: round"/>
    <path d="M 203.185333 262.880501 
L 203.124795 262.485109 
L 207.078718 261.879725 
L 207.139257 262.275118 
" clip-path="url(#pbeba6508dd)" style="fill: none; stroke: #0000ff; stroke-opacity: 0.5; stroke-width: 2; stroke-linecap: round"/>
   </g>
   <g id="patch_11">
    <path d="M 96.008655 125.826707 
Q 176.509941 165.905021 265.36999 178.758165 
" clip-path="url(#pbeba6508dd)" style="fill: none; stroke: #0000ff; stroke-opacity: 0.5; stroke-width: 2; stroke-linecap: round"/>
    <path d="M 265.47956 180.794827 
L 265.08368 180.737565 
L 265.6563 176.778764 
L 266.05218 176.836026 
" clip-path="url(#pbeba6508dd)" style="fill: none; stroke: #0000ff; stroke-opacity: 0.5; stroke-width: 2; stroke-linecap: round"/>
   </g>
   <g id="patch_12">
    <path d="M 98.028339 114.443936 
Q 144.39191 107.211582 187.04899 87.906887 
" clip-path="url(#pbeba6508dd)" style="fill: none; stroke: #0000ff; stroke-opacity: 0.5; stroke-width: 2; stroke-linecap: round"/>
    <path d="M 188.238009 89.564063 
L 187.87359 89.728983 
L 186.224391 86.084791 
L 186.58881 85.919871 
" clip-path="url(#pbeba6508dd)" style="fill: none; stroke: #0000ff; stroke-opacity: 0.5; stroke-width: 2; stroke-linecap: round"/>
   </g>
   <g id="patch_13">
    <path d="M 75.562178 135.993479 
Q 69.490159 179.004292 74.820994 222.015105 
" clip-path="url(#pbeba6508dd)" style="fill: none; stroke: #0000ff; stroke-opacity: 0.5; stroke-width: 2; stroke-linecap: round"/>
    <path d="M 72.885381 222.658069 
L 72.836181 222.261106 
L 76.805807 221.769103 
L 76.855008 222.166066 
" clip-path="url(#pbeba6508dd)" style="fill: none; stroke: #0000ff; stroke-opacity: 0.5; stroke-width: 2; stroke-linecap: round"/>
   </g>
   <g id="patch_14">
    <path d="M 87.677213 134.122735 
Q 128.560767 210.31313 190.986805 269.939668 
" clip-path="url(#pbeba6508dd)" style="fill: none; stroke: #0000ff; stroke-opacity: 0.5; stroke-width: 2; stroke-linecap: round"/>
    <path d="M 189.894646 271.662221 
L 189.605392 271.385939 
L 192.368217 268.493397 
L 192.657471 268.76968 
" clip-path="url(#pbeba6508dd)" style="fill: none; stroke: #0000ff; stroke-opacity: 0.5; stroke-width: 2; stroke-linecap: round"/>
   </g>
   <g id="patch_15">
    <path d="M 98.052595 244.430561 
Q 187.174579 232.43057 267.9378 193.205408 
" clip-path="url(#pbeba6508dd)" style="fill: none; stroke: #0000ff; stroke-opacity: 0.5; stroke-width: 2; stroke-linecap: round"/>
    <path d="M 269.171368 194.829696 
L 268.81156 195.004448 
L 267.064041 191.406369 
L 267.423849 191.231617 
" clip-path="url(#pbeba6508dd)" style="fill: none; stroke: #0000ff; stroke-opacity: 0.5; stroke-width: 2; stroke-linecap: round"/>
   </g>
   <g id="patch_16">
    <path d="M 93.180571 233.708765 
Q 156.309882 174.622969 197.896708 98.973319 
" clip-path="url(#pbeba6508dd)" style="fill: none; stroke: #0000ff; stroke-opacity: 0.5; stroke-width: 2; stroke-linecap: round"/>
    <path d="M 199.842035 99.586266 
L 199.64934 99.936792 
L 196.144076 98.009846 
L 196.336771 97.659319 
" clip-path="url(#pbeba6508dd)" style="fill: none; stroke: #0000ff; stroke-opacity: 0.5; stroke-width: 2; stroke-linecap: round"/>
   </g>
   <g id="patch_17">
    <path d="M 82.074192 227.606534 
Q 88.146212 184.595721 82.815377 141.584909 
" clip-path="url(#pbeba6508dd)" style="fill: none; stroke: #0000ff; stroke-opacity: 0.5; stroke-width: 2; stroke-linecap: round"/>
    <path d="M 84.750989 140.941945 
L 84.80019 141.338907 
L 80.830563 141.83091 
L 80.781363 141.433947 
" clip-path="url(#pbeba6508dd)" style="fill: none; stroke: #0000ff; stroke-opacity: 0.5; stroke-width: 2; stroke-linecap: round"/>
   </g>
   <g id="patch_18">
    <path d="M 96.100532 255.435128 
Q 138.534735 275.46576 184.675428 283.424051 
" clip-path="url(#pbeba6508dd)" style="fill: none; stroke: #0000ff; stroke-opacity: 0.5; stroke-width: 2; stroke-linecap: round"/>
    <path d="M 184.72967 285.462937 
L 184.33549 285.39495 
L 185.015367 281.453152 
L 185.409546 281.52114 
" clip-path="url(#pbeba6508dd)" style="fill: none; stroke: #0000ff; stroke-opacity: 0.5; stroke-width: 2; stroke-linecap: round"/>
   </g>
   <g id="patch_19">
    <path d="M 223.675178 273.657734 
Q 255.706904 242.353216 278.324133 203.809963 
" clip-path="url(#pbeba6508dd)" style="fill: none; stroke: #0000ff; stroke-opacity: 0.5; stroke-width: 2; stroke-linecap: round"/>
    <path d="M 280.251522 204.477175 
L 280.049082 204.822165 
L 276.599185 202.797761 
L 276.801625 202.452771 
" clip-path="url(#pbeba6508dd)" style="fill: none; stroke: #0000ff; stroke-opacity: 0.5; stroke-width: 2; stroke-linecap: round"/>
   </g>
   <g id="patch_20">
    <path d="M 212.912458 267.750165 
Q 226.527987 184.583873 213.794443 101.417583 
" clip-path="url(#pbeba6508dd)" style="fill: none; stroke: #0000ff; stroke-opacity: 0.5; stroke-width: 2; stroke-linecap: round"/>
    <path d="M 215.710866 100.719499 
L 215.771404 101.114891 
L 211.817481 101.720275 
L 211.756942 101.324882 
" clip-path="url(#pbeba6508dd)" style="fill: none; stroke: #0000ff; stroke-opacity: 0.5; stroke-width: 2; stroke-linecap: round"/>
   </g>
   <g id="patch_21">
    <path d="M 200.589077 269.5837 
Q 159.705523 193.393305 97.279486 133.766767 
" clip-path="url(#pbeba6508dd)" style="fill: none; stroke: #0000ff; stroke-opacity: 0.5; stroke-width: 2; stroke-linecap: round"/>
    <path d="M 98.371644 132.044214 
L 98.660898 132.320496 
L 95.898073 135.213038 
L 95.608819 134.936755 
" clip-path="url(#pbeba6508dd)" style="fill: none; stroke: #0000ff; stroke-opacity: 0.5; stroke-width: 2; stroke-linecap: round"/>
   </g>
   <g id="patch_22">
    <path d="M 192.165765 278.05845 
Q 149.731562 258.027818 103.590869 250.069527 
" clip-path="url(#pbeba6508dd)" style="fill: none; stroke: #0000ff; stroke-opacity: 0.5; stroke-width: 2; stroke-linecap: round"/>
    <path d="M 103.536627 248.030641 
L 103.930807 248.098628 
L 103.250931 252.040426 
L 102.856751 251.972438 
" clip-path="url(#pbeba6508dd)" style="fill: none; stroke: #0000ff; stroke-opacity: 0.5; stroke-width: 2; stroke-linecap: round"/>
   </g>
   <g id="matplotlib.axis_1">
    <g id="xtick_1"/>
    <g id="xtick_2"/>
    <g id="xtick_3"/>
   </g>
   <g id="matplotlib.axis_2">
    <g id="ytick_1"/>
    <g id="ytick_2"/>
    <g id="ytick_3"/>
    <g id="ytick_4"/>
    <g id="ytick_5"/>
   </g>
   <g id="PathCollection_1">
    <defs>
     <path id="C0_0_cbdcdabd6c" d="M 0 19.364917 
C 5.135636 19.364917 10.061621 17.324507 13.693064 13.693064 
C 17.324507 10.061621 19.364917 5.135636 19.364917 -0 
C 19.364917 -5.135636 17.324507 -10.061621 13.693064 -13.693064 
C 10.061621 -17.324507 5.135636 -19.364917 0 -19.364917 
C -5.135636 -19.364917 -10.061621 -17.324507 -13.693064 -13.693064 
C -17.324507 -10.061621 -19.364917 -5.135636 -19.364917 0 
C -19.364917 5.135636 -17.324507 10.061621 -13.693064 13.693064 
C -10.061621 17.324507 -5.135636 19.364917 0 19.364917 
z
"/>
    </defs>
    <g clip-path="url(#pbeba6508dd)">
     <use xlink:href="#C0_0_cbdcdabd6c" x="290.181818" y="181.800003" style="fill: #4878d0; stroke: #000000"/>
    </g>
    <g clip-path="url(#pbeba6508dd)">
     <use xlink:href="#C0_0_cbdcdabd6c" x="209.448091" y="76.8" style="fill: #ee854a; stroke: #000000"/>
    </g>
    <g clip-path="url(#pbeba6508dd)">
     <use xlink:href="#C0_0_cbdcdabd6c" x="78.818182" y="116.906435" style="fill: #6acc64; stroke: #000000"/>
    </g>
    <g clip-path="url(#pbeba6508dd)">
     <use xlink:href="#C0_0_cbdcdabd6c" x="78.818189" y="246.693578" style="fill: #d65f5f; stroke: #000000"/>
    </g>
    <g clip-path="url(#pbeba6508dd)">
     <use xlink:href="#C0_0_cbdcdabd6c" x="209.448108" y="286.8" style="fill: #956cb4; stroke: #000000"/>
    </g>
   </g>
   <g id="patch_23">
    <path d="M 45 320.4 
L 45 43.2 
" style="fill: none; stroke: #000000; stroke-width: 2.5; stroke-linejoin: miter; stroke-linecap: square"/>
   </g>
   <g id="patch_24">
    <path d="M 324 320.4 
L 324 43.2 
" style="fill: none; stroke: #000000; stroke-width: 2.5; stroke-linejoin: miter; stroke-linecap: square"/>
   </g>
   <g id="patch_25">
    <path d="M 45 320.4 
L 324 320.4 
" style="fill: none; stroke: #000000; stroke-width: 2.5; stroke-linejoin: miter; stroke-linecap: square"/>
   </g>
   <g id="patch_26">
    <path d="M 45 43.2 
L 324 43.2 
" style="fill: none; stroke: #000000; stroke-width: 2.5; stroke-linejoin: miter; stroke-linecap: square"/>
   </g>
   <g id="text_1">
    <g clip-path="url(#pbeba6508dd)">
     <!-- A -->
     <g transform="translate(286.077443 185.111253) scale(0.12 -0.12)">
      <defs>
       <path id="DejaVuSans-41" d="M 2188 4044 
L 1331 1722 
L 3047 1722 
L 2188 4044 
z
M 1831 4666 
L 2547 4666 
L 4325 0 
L 3669 0 
L 3244 1197 
L 1141 1197 
L 716 0 
L 50 0 
L 1831 4666 
z
" transform="scale(0.015625)"/>
      </defs>
      <use xlink:href="#DejaVuSans-41"/>
     </g>
    </g>
   </g>
   <g id="text_2">
    <g clip-path="url(#pbeba6508dd)">
     <!-- B -->
     <g transform="translate(205.331528 80.11125) scale(0.12 -0.12)">
      <defs>
       <path id="DejaVuSans-42" d="M 1259 2228 
L 1259 519 
L 2272 519 
Q 2781 519 3026 730 
Q 3272 941 3272 1375 
Q 3272 1813 3026 2020 
Q 2781 2228 2272 2228 
L 1259 2228 
z
M 1259 4147 
L 1259 2741 
L 2194 2741 
Q 2656 2741 2882 2914 
Q 3109 3088 3109 3444 
Q 3109 3797 2882 3972 
Q 2656 4147 2194 4147 
L 1259 4147 
z
M 628 4666 
L 2241 4666 
Q 2963 4666 3353 4366 
Q 3744 4066 3744 3513 
Q 3744 3084 3544 2831 
Q 3344 2578 2956 2516 
Q 3422 2416 3680 2098 
Q 3938 1781 3938 1306 
Q 3938 681 3513 340 
Q 3088 0 2303 0 
L 628 0 
L 628 4666 
z
" transform="scale(0.015625)"/>
      </defs>
      <use xlink:href="#DejaVuSans-42"/>
     </g>
    </g>
   </g>
   <g id="text_3">
    <g clip-path="url(#pbeba6508dd)">
     <!-- C -->
     <g transform="translate(74.628494 120.217685) scale(0.12 -0.12)">
      <defs>
       <path id="DejaVuSans-43" d="M 4122 4306 
L 4122 3641 
Q 3803 3938 3442 4084 
Q 3081 4231 2675 4231 
Q 1875 4231 1450 3742 
Q 1025 3253 1025 2328 
Q 1025 1406 1450 917 
Q 1875 428 2675 428 
Q 3081 428 3442 575 
Q 3803 722 4122 1019 
L 4122 359 
Q 3791 134 3420 21 
Q 3050 -91 2638 -91 
Q 1578 -91 968 557 
Q 359 1206 359 2328 
Q 359 3453 968 4101 
Q 1578 4750 2638 4750 
Q 3056 4750 3426 4639 
Q 3797 4528 4122 4306 
z
" transform="scale(0.015625)"/>
      </defs>
      <use xlink:href="#DejaVuSans-43"/>
     </g>
    </g>
   </g>
   <g id="text_4">
    <g clip-path="url(#pbeba6508dd)">
     <!-- D -->
     <g transform="translate(74.198189 250.004828) scale(0.12 -0.12)">
      <defs>
       <path id="DejaVuSans-44" d="M 1259 4147 
L 1259 519 
L 2022 519 
Q 2988 519 3436 956 
Q 3884 1394 3884 2338 
Q 3884 3275 3436 3711 
Q 2988 4147 2022 4147 
L 1259 4147 
z
M 628 4666 
L 1925 4666 
Q 3281 4666 3915 4102 
Q 4550 3538 4550 2338 
Q 4550 1131 3912 565 
Q 3275 0 1925 0 
L 628 0 
L 628 4666 
z
" transform="scale(0.015625)"/>
      </defs>
      <use xlink:href="#DejaVuSans-44"/>
     </g>
    </g>
   </g>
   <g id="text_5">
    <g clip-path="url(#pbeba6508dd)">
     <!-- E -->
     <g transform="translate(205.656858 290.11125) scale(0.12 -0.12)">
      <defs>
       <path id="DejaVuSans-45" d="M 628 4666 
L 3578 4666 
L 3578 4134 
L 1259 4134 
L 1259 2753 
L 3481 2753 
L 3481 2222 
L 1259 2222 
L 1259 531 
L 3634 531 
L 3634 0 
L 628 0 
L 628 4666 
z
" transform="scale(0.015625)"/>
      </defs>
      <use xlink:href="#DejaVuSans-45"/>
     </g>
    </g>
   </g>
  </g>
 </g>
 <defs>
  <clipPath id="pbeba6508dd">
   <rect x="45" y="43.2" width="279" height="277.2"/>
  </clipPath>
 </defs>
</svg>
