<?xml version="1.0" encoding="utf-8" standalone="no"?>
<!DOCTYPE svg PUBLIC "-//W3C//DTD SVG 1.1//EN"
  "http://www.w3.org/Graphics/SVG/1.1/DTD/svg11.dtd">
<svg xmlns:xlink="http://www.w3.org/1999/xlink" width="360pt" height="360pt" viewBox="0 0 360 360" xmlns="http://www.w3.org/2000/svg" version="1.1">
 <metadata>
  <rdf:RDF xmlns:dc="http://purl.org/dc/elements/1.1/" xmlns:cc="http://creativecommons.org/ns#" xmlns:rdf="http://www.w3.org/1999/02/22-rdf-syntax-ns#">
   <cc:Work>
    <dc:type rdf:resource="http://purl.org/dc/dcmitype/StillImage"/>
    <dc:date>2025-02-07T17:52:52.469229</dc:date>
    <dc:format>image/svg+xml</dc:format>
    <dc:creator>
     <cc:Agent>
      <dc:title>Matplotlib v3.10.0, https://matplotlib.org/</dc:title>
     </cc:Agent>
    </dc:creator>
   </cc:Work>
  </rdf:RDF>
 </metadata>
 <defs>
  <style type="text/css">*{stroke-linejoin: round; stroke-linecap: butt}</style>
 </defs>
 <g id="figure_1">
  <g id="patch_1">
   <path d="M 0 360 
L 360 360 
L 360 0 
L 0 0 
z
" style="fill: #ffffff"/>
  </g>
  <g id="axes_1">
   <g id="patch_2">
    <path d="M 45 320.4 
L 324 320.4 
L 324 43.2 
L 45 43.2 
z
" style="fill: #ffffff"/>
   </g>
   <g id="patch_3">
    <path d="M 182.323423 179.762171 
Q 224.780141 163.118104 250.542355 126.853151 
" clip-path="url(#p079c06140e)" style="fill: none; stroke: #c6c6c6; stroke-linecap: round"/>
    <path d="M 246.595358 128.955819 
L 250.542355 126.853151 
L 249.856292 131.272349 
z
" clip-path="url(#p079c06140e)" style="fill: #c6c6c6; stroke: #c6c6c6; stroke-linecap: round"/>
   </g>
   <g id="patch_4">
    <path d="M 154.167369 176.123284 
Q 126.530698 160.133213 95.719705 160.171645 
" clip-path="url(#p079c06140e)" style="fill: none; stroke: #c6c6c6; stroke-linecap: round"/>
    <path d="M 99.722197 162.166654 
L 95.719705 160.171645 
L 99.717208 158.166657 
z
" clip-path="url(#p079c06140e)" style="fill: #c6c6c6; stroke: #c6c6c6; stroke-linecap: round"/>
   </g>
   <g id="patch_5">
    <path d="M 168.767691 200.596094 
Q 174.667641 243.166157 201.918474 274.939823 
" clip-path="url(#p079c06140e)" style="fill: none; stroke: #c6c6c6; stroke-linecap: round"/>
    <path d="M 200.832542 270.601534 
L 201.918474 274.939823 
L 197.796283 273.205595 
z
" clip-path="url(#p079c06140e)" style="fill: #c6c6c6; stroke: #c6c6c6; stroke-linecap: round"/>
   </g>
   <g id="patch_6">
    <path d="M 259.744654 92.600226 
C 270.09291 92.600226 270.09291 112.640862 259.744654 112.640862 
C 249.396398 112.640862 249.396398 92.600226 258.62662 92.600226 
" clip-path="url(#p079c06140e)" style="fill: none; stroke: #c6c6c6; stroke-linecap: round"/>
    <path d="M 254.62662 90.600226 
L 258.62662 92.600226 
L 254.62662 94.600226 
z
" clip-path="url(#p079c06140e)" style="fill: #c6c6c6; stroke: #c6c6c6; stroke-linecap: round"/>
   </g>
   <g id="patch_7">
    <path d="M 246.458586 104.074953 
Q 211.18819 83.76747 171.640781 85.38756 
" clip-path="url(#p079c06140e)" style="fill: none; stroke: #c6c6c6; stroke-linecap: round"/>
    <path d="M 175.719291 87.222158 
L 171.640781 85.38756 
L 175.555566 83.22551 
z
" clip-path="url(#p079c06140e)" style="fill: #c6c6c6; stroke: #c6c6c6; stroke-linecap: round"/>
   </g>
   <g id="patch_8">
    <path d="M 259.161584 128.444246 
Q 259.744048 167.573523 280.335693 199.529489 
" clip-path="url(#p079c06140e)" style="fill: none; stroke: #c6c6c6; stroke-linecap: round"/>
    <path d="M 279.850246 195.083778 
L 280.335693 199.529489 
L 276.487856 197.25042 
z
" clip-path="url(#p079c06140e)" style="fill: #c6c6c6; stroke: #c6c6c6; stroke-linecap: round"/>
   </g>
   <g id="patch_9">
    <path d="M 78.818182 141.099804 
C 89.166438 141.099804 89.166438 161.140439 78.818182 161.140439 
C 68.469926 161.140439 68.469926 141.099804 77.700148 141.099804 
" clip-path="url(#p079c06140e)" style="fill: none; stroke: #c6c6c6; stroke-linecap: round"/>
    <path d="M 73.700148 139.099804 
L 77.700148 141.099804 
L 73.700148 143.099804 
z
" clip-path="url(#p079c06140e)" style="fill: #c6c6c6; stroke: #c6c6c6; stroke-linecap: round"/>
   </g>
   <g id="patch_10">
    <path d="M 93.10502 154.360539 
Q 128.060785 135.522472 147.128535 101.971186 
" clip-path="url(#p079c06140e)" style="fill: none; stroke: #c6c6c6; stroke-linecap: round"/>
    <path d="M 143.413331 104.460615 
L 147.128535 101.971186 
L 146.890956 106.437007 
z
" clip-path="url(#p079c06140e)" style="fill: #c6c6c6; stroke: #c6c6c6; stroke-linecap: round"/>
   </g>
   <g id="patch_11">
    <path d="M 78.156391 176.939366 
Q 78.545773 215.996963 98.931726 247.996784 
" clip-path="url(#p079c06140e)" style="fill: none; stroke: #c6c6c6; stroke-linecap: round"/>
    <path d="M 98.469329 243.548617 
L 98.931726 247.996784 
L 95.095754 245.697802 
z
" clip-path="url(#p079c06140e)" style="fill: #c6c6c6; stroke: #c6c6c6; stroke-linecap: round"/>
   </g>
   <g id="patch_12">
    <path d="M 168.064634 95.439235 
Q 203.33503 115.746718 242.88244 114.126628 
" clip-path="url(#p079c06140e)" style="fill: none; stroke: #c6c6c6; stroke-linecap: round"/>
    <path d="M 238.803929 112.29203 
L 242.88244 114.126628 
L 238.967655 116.288678 
z
" clip-path="url(#p079c06140e)" style="fill: #c6c6c6; stroke: #c6c6c6; stroke-linecap: round"/>
   </g>
   <g id="patch_13">
    <path d="M 140.491729 93.653226 
Q 105.535963 112.491293 86.468213 146.042579 
" clip-path="url(#p079c06140e)" style="fill: none; stroke: #c6c6c6; stroke-linecap: round"/>
    <path d="M 90.183417 143.55315 
L 86.468213 146.042579 
L 86.705792 141.576758 
z
" clip-path="url(#p079c06140e)" style="fill: #c6c6c6; stroke: #c6c6c6; stroke-linecap: round"/>
   </g>
   <g id="patch_14">
    <path d="M 154.778566 66.83269 
C 165.126823 66.83269 165.126823 86.873326 154.778566 86.873326 
C 144.43031 86.873326 144.43031 66.83269 153.660532 66.83269 
" clip-path="url(#p079c06140e)" style="fill: none; stroke: #c6c6c6; stroke-linecap: round"/>
    <path d="M 149.660532 64.83269 
L 153.660532 66.83269 
L 149.660532 68.83269 
z
" clip-path="url(#p079c06140e)" style="fill: #c6c6c6; stroke: #c6c6c6; stroke-linecap: round"/>
   </g>
   <g id="patch_15">
    <path d="M 213.506046 267.239047 
C 223.854302 267.239047 223.854302 287.279682 213.506046 287.279682 
C 203.15779 287.279682 203.15779 267.239047 212.388012 267.239047 
" clip-path="url(#p079c06140e)" style="fill: none; stroke: #c6c6c6; stroke-linecap: round"/>
    <path d="M 208.388012 265.239047 
L 212.388012 267.239047 
L 208.388012 269.239047 
z
" clip-path="url(#p079c06140e)" style="fill: #c6c6c6; stroke: #c6c6c6; stroke-linecap: round"/>
   </g>
   <g id="patch_16">
    <path d="M 227.837861 280.596981 
Q 263.070714 261.923744 282.43338 228.349476 
" clip-path="url(#p079c06140e)" style="fill: none; stroke: #c6c6c6; stroke-linecap: round"/>
    <path d="M 278.70251 230.815365 
L 282.43338 228.349476 
L 282.16757 232.813705 
z
" clip-path="url(#p079c06140e)" style="fill: #c6c6c6; stroke: #c6c6c6; stroke-linecap: round"/>
   </g>
   <g id="patch_17">
    <path d="M 200.198766 278.746632 
Q 164.984896 258.592968 125.566631 260.291856 
" clip-path="url(#p079c06140e)" style="fill: none; stroke: #c6c6c6; stroke-linecap: round"/>
    <path d="M 129.649039 262.117765 
L 125.566631 260.291856 
L 129.476803 258.121475 
z
" clip-path="url(#p079c06140e)" style="fill: #c6c6c6; stroke: #c6c6c6; stroke-linecap: round"/>
   </g>
   <g id="patch_18">
    <path d="M 290.764889 197.496152 
Q 290.182424 158.366876 269.59078 126.41091 
" clip-path="url(#p079c06140e)" style="fill: none; stroke: #c6c6c6; stroke-linecap: round"/>
    <path d="M 270.076227 130.85662 
L 269.59078 126.41091 
L 273.438616 128.689979 
z
" clip-path="url(#p079c06140e)" style="fill: #c6c6c6; stroke: #c6c6c6; stroke-linecap: round"/>
   </g>
   <g id="patch_19">
    <path d="M 275.850003 219.982237 
Q 240.61715 238.655474 221.254484 272.229743 
" clip-path="url(#p079c06140e)" style="fill: none; stroke: #c6c6c6; stroke-linecap: round"/>
    <path d="M 224.985354 269.763853 
L 221.254484 272.229743 
L 221.520294 267.765514 
z
" clip-path="url(#p079c06140e)" style="fill: #c6c6c6; stroke: #c6c6c6; stroke-linecap: round"/>
   </g>
   <g id="patch_20">
    <path d="M 290.181818 193.258901 
C 300.530074 193.258901 300.530074 213.299537 290.181818 213.299537 
C 279.833562 213.299537 279.833562 193.258901 289.063784 193.258901 
" clip-path="url(#p079c06140e)" style="fill: none; stroke: #c6c6c6; stroke-linecap: round"/>
    <path d="M 285.063784 191.258901 
L 289.063784 193.258901 
L 285.063784 195.258901 
z
" clip-path="url(#p079c06140e)" style="fill: #c6c6c6; stroke: #c6c6c6; stroke-linecap: round"/>
   </g>
   <g id="patch_21">
    <path d="M 109.367974 246.016663 
Q 108.978592 206.959066 88.592639 174.959245 
" clip-path="url(#p079c06140e)" style="fill: none; stroke: #c6c6c6; stroke-linecap: round"/>
    <path d="M 89.055036 179.407412 
L 88.592639 174.959245 
L 92.428611 177.258227 
z
" clip-path="url(#p079c06140e)" style="fill: #c6c6c6; stroke: #c6c6c6; stroke-linecap: round"/>
   </g>
   <g id="patch_22">
    <path d="M 122.013463 270.34864 
Q 157.227333 290.502304 196.645598 288.803416 
" clip-path="url(#p079c06140e)" style="fill: none; stroke: #c6c6c6; stroke-linecap: round"/>
    <path d="M 192.56319 286.977507 
L 196.645598 288.803416 
L 192.735426 290.973797 
z
" clip-path="url(#p079c06140e)" style="fill: #c6c6c6; stroke: #c6c6c6; stroke-linecap: round"/>
   </g>
   <g id="patch_23">
    <path d="M 108.706183 241.774954 
C 119.054439 241.774954 119.054439 261.81559 108.706183 261.81559 
C 98.357927 261.81559 98.357927 241.774954 107.588149 241.774954 
" clip-path="url(#p079c06140e)" style="fill: none; stroke: #c6c6c6; stroke-linecap: round"/>
    <path d="M 103.588149 239.774954 
L 107.588149 241.774954 
L 103.588149 243.774954 
z
" clip-path="url(#p079c06140e)" style="fill: #c6c6c6; stroke: #c6c6c6; stroke-linecap: round"/>
   </g>
   <g id="patch_24">
    <path d="M 199.729683 173.553934 
Q 193.741606 130.946337 166.39328 99.19181 
" clip-path="url(#p079c06140e)" style="fill: none; stroke: #c6c6c6; stroke-linecap: round"/>
    <path d="M 167.48816 103.527849 
L 166.39328 99.19181 
L 170.519039 100.917529 
z
" clip-path="url(#p079c06140e)" style="fill: #c6c6c6; stroke: #c6c6c6; stroke-linecap: round"/>
   </g>
   <g id="patch_25">
    <path d="M 214.341224 198.049929 
Q 242.182557 214.250807 273.276112 214.244926 
" clip-path="url(#p079c06140e)" style="fill: none; stroke: #c6c6c6; stroke-linecap: round"/>
    <path d="M 269.275734 212.245682 
L 273.276112 214.244926 
L 269.276491 216.245682 
z
" clip-path="url(#p079c06140e)" style="fill: #c6c6c6; stroke: #c6c6c6; stroke-linecap: round"/>
   </g>
   <g id="patch_26">
    <path d="M 186.208884 194.4091 
Q 143.65349 211.165355 117.882684 247.587576 
" clip-path="url(#p079c06140e)" style="fill: none; stroke: #c6c6c6; stroke-linecap: round"/>
    <path d="M 121.825712 245.477474 
L 117.882684 247.587576 
L 118.560419 243.167092 
z
" clip-path="url(#p079c06140e)" style="fill: #c6c6c6; stroke: #c6c6c6; stroke-linecap: round"/>
   </g>
   <g id="matplotlib.axis_1">
    <g id="xtick_1"/>
    <g id="xtick_2"/>
    <g id="xtick_3"/>
   </g>
   <g id="matplotlib.axis_2">
    <g id="ytick_1"/>
    <g id="ytick_2"/>
    <g id="ytick_3"/>
    <g id="ytick_4"/>
    <g id="ytick_5"/>
   </g>
   <g id="PathCollection_1">
    <defs>
     <path id="m6e4560914e" d="M 0 13.228757 
C 3.508307 13.228757 6.873396 11.834891 9.354143 9.354143 
C 11.834891 6.873396 13.228757 3.508307 13.228757 0 
C 13.228757 -3.508307 11.834891 -6.873396 9.354143 -9.354143 
C 6.873396 -11.834891 3.508307 -13.228757 0 -13.228757 
C -3.508307 -13.228757 -6.873396 -11.834891 -9.354143 -9.354143 
C -11.834891 -6.873396 -13.228757 -3.508307 -13.228757 0 
C -13.228757 3.508307 -11.834891 6.873396 -9.354143 9.354143 
C -6.873396 11.834891 -3.508307 13.228757 0 13.228757 
z
" style="stroke: #87ceeb; stroke-width: 2"/>
    </defs>
    <g clip-path="url(#p079c06140e)">
     <use xlink:href="#m6e4560914e" x="167.354725" y="184.848032" style="fill: #87ceeb; stroke: #87ceeb; stroke-width: 2"/>
     <use xlink:href="#m6e4560914e" x="259.744654" y="112.640862" style="fill: #87ceeb; stroke: #87ceeb; stroke-width: 2"/>
     <use xlink:href="#m6e4560914e" x="78.818182" y="161.140439" style="fill: #87ceeb; stroke: #87ceeb; stroke-width: 2"/>
     <use xlink:href="#m6e4560914e" x="154.778566" y="86.873326" style="fill: #87ceeb; stroke: #87ceeb; stroke-width: 2"/>
     <use xlink:href="#m6e4560914e" x="213.506046" y="287.279682" style="fill: #87ceeb; stroke: #87ceeb; stroke-width: 2"/>
     <use xlink:href="#m6e4560914e" x="290.181818" y="213.299537" style="fill: #87ceeb; stroke: #87ceeb; stroke-width: 2"/>
     <use xlink:href="#m6e4560914e" x="108.706183" y="261.81559" style="fill: #87ceeb; stroke: #87ceeb; stroke-width: 2"/>
     <use xlink:href="#m6e4560914e" x="201.173344" y="189.298149" style="fill: #87ceeb; stroke: #87ceeb; stroke-width: 2"/>
    </g>
   </g>
   <g id="patch_27">
    <path d="M 45 320.4 
L 45 43.2 
" style="fill: none; stroke: #000000; stroke-width: 2.5; stroke-linejoin: miter; stroke-linecap: square"/>
   </g>
   <g id="patch_28">
    <path d="M 324 320.4 
L 324 43.2 
" style="fill: none; stroke: #000000; stroke-width: 2.5; stroke-linejoin: miter; stroke-linecap: square"/>
   </g>
   <g id="patch_29">
    <path d="M 45 320.4 
L 324 320.4 
" style="fill: none; stroke: #000000; stroke-width: 2.5; stroke-linejoin: miter; stroke-linecap: square"/>
   </g>
   <g id="patch_30">
    <path d="M 45 43.2 
L 324 43.2 
" style="fill: none; stroke: #000000; stroke-width: 2.5; stroke-linejoin: miter; stroke-linecap: square"/>
   </g>
   <g id="text_1">
    <g clip-path="url(#p079c06140e)">
     <!-- 111 -->
     <g transform="translate(154.830663 188.159282) scale(0.12 -0.12)">
      <defs>
       <path id="DejaVuSans-Bold-31" d="M 750 831 
L 1813 831 
L 1813 3847 
L 722 3622 
L 722 4441 
L 1806 4666 
L 2950 4666 
L 2950 831 
L 4013 831 
L 4013 0 
L 750 0 
L 750 831 
z
" transform="scale(0.015625)"/>
      </defs>
      <use xlink:href="#DejaVuSans-Bold-31"/>
      <use xlink:href="#DejaVuSans-Bold-31" transform="translate(69.580078 0)"/>
      <use xlink:href="#DejaVuSans-Bold-31" transform="translate(139.160156 0)"/>
     </g>
    </g>
   </g>
   <g id="text_2">
    <g clip-path="url(#p079c06140e)">
     <!-- 110 -->
     <g transform="translate(247.220591 115.952112) scale(0.12 -0.12)">
      <defs>
       <path id="DejaVuSans-Bold-30" d="M 2944 2338 
Q 2944 3213 2780 3570 
Q 2616 3928 2228 3928 
Q 1841 3928 1675 3570 
Q 1509 3213 1509 2338 
Q 1509 1453 1675 1090 
Q 1841 728 2228 728 
Q 2613 728 2778 1090 
Q 2944 1453 2944 2338 
z
M 4147 2328 
Q 4147 1169 3647 539 
Q 3147 -91 2228 -91 
Q 1306 -91 806 539 
Q 306 1169 306 2328 
Q 306 3491 806 4120 
Q 1306 4750 2228 4750 
Q 3147 4750 3647 4120 
Q 4147 3491 4147 2328 
z
" transform="scale(0.015625)"/>
      </defs>
      <use xlink:href="#DejaVuSans-Bold-31"/>
      <use xlink:href="#DejaVuSans-Bold-31" transform="translate(69.580078 0)"/>
      <use xlink:href="#DejaVuSans-Bold-30" transform="translate(139.160156 0)"/>
     </g>
    </g>
   </g>
   <g id="text_3">
    <g clip-path="url(#p079c06140e)">
     <!-- 101 -->
     <g transform="translate(66.294119 164.451689) scale(0.12 -0.12)">
      <use xlink:href="#DejaVuSans-Bold-31"/>
      <use xlink:href="#DejaVuSans-Bold-30" transform="translate(69.580078 0)"/>
      <use xlink:href="#DejaVuSans-Bold-31" transform="translate(139.160156 0)"/>
     </g>
    </g>
   </g>
   <g id="text_4">
    <g clip-path="url(#p079c06140e)">
     <!-- 100 -->
     <g transform="translate(142.254504 90.184576) scale(0.12 -0.12)">
      <use xlink:href="#DejaVuSans-Bold-31"/>
      <use xlink:href="#DejaVuSans-Bold-30" transform="translate(69.580078 0)"/>
      <use xlink:href="#DejaVuSans-Bold-30" transform="translate(139.160156 0)"/>
     </g>
    </g>
   </g>
   <g id="text_5">
    <g clip-path="url(#p079c06140e)">
     <!-- 011 -->
     <g transform="translate(200.981983 290.590932) scale(0.12 -0.12)">
      <use xlink:href="#DejaVuSans-Bold-30"/>
      <use xlink:href="#DejaVuSans-Bold-31" transform="translate(69.580078 0)"/>
      <use xlink:href="#DejaVuSans-Bold-31" transform="translate(139.160156 0)"/>
     </g>
    </g>
   </g>
   <g id="text_6">
    <g clip-path="url(#p079c06140e)">
     <!-- 010 -->
     <g transform="translate(277.657756 216.610787) scale(0.12 -0.12)">
      <use xlink:href="#DejaVuSans-Bold-30"/>
      <use xlink:href="#DejaVuSans-Bold-31" transform="translate(69.580078 0)"/>
      <use xlink:href="#DejaVuSans-Bold-30" transform="translate(139.160156 0)"/>
     </g>
    </g>
   </g>
   <g id="text_7">
    <g clip-path="url(#p079c06140e)">
     <!-- 001 -->
     <g transform="translate(96.182121 265.12684) scale(0.12 -0.12)">
      <use xlink:href="#DejaVuSans-Bold-30"/>
      <use xlink:href="#DejaVuSans-Bold-30" transform="translate(69.580078 0)"/>
      <use xlink:href="#DejaVuSans-Bold-31" transform="translate(139.160156 0)"/>
     </g>
    </g>
   </g>
   <g id="text_8">
    <g clip-path="url(#p079c06140e)">
     <!-- 000 -->
     <g transform="translate(188.649281 192.609399) scale(0.12 -0.12)">
      <use xlink:href="#DejaVuSans-Bold-30"/>
      <use xlink:href="#DejaVuSans-Bold-30" transform="translate(69.580078 0)"/>
      <use xlink:href="#DejaVuSans-Bold-30" transform="translate(139.160156 0)"/>
     </g>
    </g>
   </g>
   <g id="text_9">
    <!-- T3SI -->
    <g transform="translate(168.173438 37.2) scale(0.15 -0.15)">
     <defs>
      <path id="DejaVuSans-54" d="M -19 4666 
L 3928 4666 
L 3928 4134 
L 2272 4134 
L 2272 0 
L 1638 0 
L 1638 4134 
L -19 4134 
L -19 4666 
z
" transform="scale(0.015625)"/>
      <path id="DejaVuSans-33" d="M 2597 2516 
Q 3050 2419 3304 2112 
Q 3559 1806 3559 1356 
Q 3559 666 3084 287 
Q 2609 -91 1734 -91 
Q 1441 -91 1130 -33 
Q 819 25 488 141 
L 488 750 
Q 750 597 1062 519 
Q 1375 441 1716 441 
Q 2309 441 2620 675 
Q 2931 909 2931 1356 
Q 2931 1769 2642 2001 
Q 2353 2234 1838 2234 
L 1294 2234 
L 1294 2753 
L 1863 2753 
Q 2328 2753 2575 2939 
Q 2822 3125 2822 3475 
Q 2822 3834 2567 4026 
Q 2313 4219 1838 4219 
Q 1578 4219 1281 4162 
Q 984 4106 628 3988 
L 628 4550 
Q 988 4650 1302 4700 
Q 1616 4750 1894 4750 
Q 2613 4750 3031 4423 
Q 3450 4097 3450 3541 
Q 3450 3153 3228 2886 
Q 3006 2619 2597 2516 
z
" transform="scale(0.015625)"/>
      <path id="DejaVuSans-53" d="M 3425 4513 
L 3425 3897 
Q 3066 4069 2747 4153 
Q 2428 4238 2131 4238 
Q 1616 4238 1336 4038 
Q 1056 3838 1056 3469 
Q 1056 3159 1242 3001 
Q 1428 2844 1947 2747 
L 2328 2669 
Q 3034 2534 3370 2195 
Q 3706 1856 3706 1288 
Q 3706 609 3251 259 
Q 2797 -91 1919 -91 
Q 1588 -91 1214 -16 
Q 841 59 441 206 
L 441 856 
Q 825 641 1194 531 
Q 1563 422 1919 422 
Q 2459 422 2753 634 
Q 3047 847 3047 1241 
Q 3047 1584 2836 1778 
Q 2625 1972 2144 2069 
L 1759 2144 
Q 1053 2284 737 2584 
Q 422 2884 422 3419 
Q 422 4038 858 4394 
Q 1294 4750 2059 4750 
Q 2388 4750 2728 4690 
Q 3069 4631 3425 4513 
z
" transform="scale(0.015625)"/>
      <path id="DejaVuSans-49" d="M 628 4666 
L 1259 4666 
L 1259 0 
L 628 0 
L 628 4666 
z
" transform="scale(0.015625)"/>
     </defs>
     <use xlink:href="#DejaVuSans-54"/>
     <use xlink:href="#DejaVuSans-33" transform="translate(61.083984 0)"/>
     <use xlink:href="#DejaVuSans-53" transform="translate(124.707031 0)"/>
     <use xlink:href="#DejaVuSans-49" transform="translate(188.183594 0)"/>
    </g>
   </g>
  </g>
 </g>
 <defs>
  <clipPath id="p079c06140e">
   <rect x="45" y="43.2" width="279" height="277.2"/>
  </clipPath>
 </defs>
</svg>
